%FSLAX44Y44*%
%MOMM*%
G71*
G01*
G75*
G04 Layer_Color=255*
%ADD10R,0.9652X0.8890*%
%ADD11R,1.0160X0.9398*%
%ADD12R,1.0160X0.9400*%
%ADD13R,0.5080X0.7620*%
%ADD14R,0.2600X2.0000*%
%ADD15R,2.0000X0.2600*%
%ADD16R,0.9400X1.0160*%
%ADD17R,0.9398X1.0160*%
%ADD18R,2.0320X0.6096*%
%ADD19C,0.2032*%
%ADD20C,0.2540*%
%ADD21C,0.5080*%
%ADD22C,0.3048*%
%ADD23R,2.4804X2.2690*%
%ADD24R,2.5943X2.2690*%
%ADD25R,3.0073X5.6504*%
%ADD26C,1.3000*%
%ADD27C,0.6350*%
%ADD28C,0.8128*%
%ADD29C,1.0160*%
%ADD30C,1.8080*%
%ADD31C,0.8382*%
%ADD32C,0.9398*%
%ADD33R,2.2000X0.3600*%
%ADD34R,3.0000X1.0000*%
%ADD35C,0.3302*%
%ADD36R,0.9424X1.9914*%
%ADD37R,2.5048X2.1810*%
%ADD38R,2.9171X1.1903*%
D11*
X631209Y606381D02*
D03*
X631272Y673759D02*
D03*
X631209Y692649D02*
D03*
X778345Y754803D02*
D03*
D12*
X631209Y622886D02*
D03*
X631272Y657254D02*
D03*
X631209Y709154D02*
D03*
X778345Y771308D02*
D03*
D16*
X895076Y663961D02*
D03*
X731057Y585103D02*
D03*
X668024Y585167D02*
D03*
X774062Y662324D02*
D03*
X969833Y592030D02*
D03*
X1009659D02*
D03*
X895076Y694648D02*
D03*
X923041Y592074D02*
D03*
X947406Y855016D02*
D03*
X707686D02*
D03*
X879148Y748384D02*
D03*
X818110Y675767D02*
D03*
D17*
X911581Y663961D02*
D03*
X747562Y585103D02*
D03*
X651518Y585167D02*
D03*
X757557Y662324D02*
D03*
X986338Y592030D02*
D03*
X1026164D02*
D03*
X911581Y694648D02*
D03*
X939546Y592074D02*
D03*
X963911Y855016D02*
D03*
X724191D02*
D03*
X895653Y748384D02*
D03*
X801605Y675767D02*
D03*
D33*
X1155700Y652800D02*
D03*
Y642800D02*
D03*
Y632800D02*
D03*
Y622800D02*
D03*
Y612800D02*
D03*
Y662800D02*
D03*
Y672800D02*
D03*
Y682800D02*
D03*
Y692800D02*
D03*
Y702800D02*
D03*
Y712800D02*
D03*
Y722800D02*
D03*
Y732800D02*
D03*
Y742800D02*
D03*
Y752800D02*
D03*
Y762800D02*
D03*
Y772800D02*
D03*
Y782800D02*
D03*
Y792800D02*
D03*
Y802800D02*
D03*
Y812800D02*
D03*
Y602800D02*
D03*
Y592800D02*
D03*
Y582800D02*
D03*
Y572800D02*
D03*
Y562800D02*
D03*
X1115700Y707800D02*
D03*
Y697800D02*
D03*
Y687800D02*
D03*
Y677800D02*
D03*
Y667800D02*
D03*
Y657800D02*
D03*
Y647800D02*
D03*
Y637800D02*
D03*
Y627800D02*
D03*
Y617800D02*
D03*
Y567800D02*
D03*
Y577800D02*
D03*
Y587800D02*
D03*
Y597800D02*
D03*
Y607800D02*
D03*
Y717800D02*
D03*
Y727800D02*
D03*
Y737800D02*
D03*
Y747800D02*
D03*
Y757800D02*
D03*
Y767800D02*
D03*
Y777800D02*
D03*
Y787800D02*
D03*
Y797800D02*
D03*
Y807800D02*
D03*
X493400D02*
D03*
Y797800D02*
D03*
Y787800D02*
D03*
Y777800D02*
D03*
Y767800D02*
D03*
Y757800D02*
D03*
Y747800D02*
D03*
Y737800D02*
D03*
Y727800D02*
D03*
Y717800D02*
D03*
Y607800D02*
D03*
Y597800D02*
D03*
Y587800D02*
D03*
Y577800D02*
D03*
Y567800D02*
D03*
Y617800D02*
D03*
Y627800D02*
D03*
Y637800D02*
D03*
Y647800D02*
D03*
Y657800D02*
D03*
Y667800D02*
D03*
Y677800D02*
D03*
Y687800D02*
D03*
Y697800D02*
D03*
Y707800D02*
D03*
X533400Y562800D02*
D03*
Y572800D02*
D03*
Y582800D02*
D03*
Y592800D02*
D03*
Y602800D02*
D03*
Y812800D02*
D03*
Y802800D02*
D03*
Y792800D02*
D03*
Y782800D02*
D03*
Y772800D02*
D03*
Y762800D02*
D03*
Y752800D02*
D03*
Y742800D02*
D03*
Y732800D02*
D03*
Y722800D02*
D03*
Y712800D02*
D03*
Y702800D02*
D03*
Y692800D02*
D03*
Y682800D02*
D03*
Y672800D02*
D03*
Y662800D02*
D03*
Y612800D02*
D03*
Y622800D02*
D03*
Y632800D02*
D03*
Y642800D02*
D03*
Y652800D02*
D03*
D34*
X1135700Y843800D02*
D03*
Y531800D02*
D03*
X513400D02*
D03*
Y843800D02*
D03*
M02*
