%FSLAX44Y44*%
%MOMM*%
G71*
G01*
G75*
G04 Layer_Color=2752767*
%ADD10R,0.9652X0.8890*%
%ADD11R,1.0160X0.9398*%
%ADD12R,1.0160X0.9400*%
%ADD13R,0.5080X0.7620*%
%ADD14R,0.2600X2.0000*%
%ADD15R,2.0000X0.2600*%
%ADD16R,0.9400X1.0160*%
%ADD17R,0.9398X1.0160*%
%ADD18R,2.0320X0.6096*%
%ADD19C,0.2032*%
%ADD20C,0.2540*%
%ADD21C,0.5080*%
%ADD22C,0.3048*%
%ADD23R,2.4804X2.2690*%
%ADD24R,2.5943X2.2690*%
%ADD25R,3.0073X5.6504*%
%ADD26C,1.3000*%
%ADD27C,0.6350*%
%ADD28C,0.8128*%
%ADD29C,1.0160*%
%ADD30C,1.8080*%
%ADD31C,0.8382*%
%ADD32C,0.9398*%
%ADD33R,2.2000X0.3600*%
%ADD34R,3.0000X1.0000*%
%ADD35C,0.3302*%
%ADD36R,0.9424X1.9914*%
%ADD37R,2.5048X2.1810*%
%ADD38R,2.9171X1.1903*%
%ADD39C,0.1270*%
%ADD40C,0.1524*%
%ADD41C,0.1500*%
%ADD42R,1.1684X1.0922*%
%ADD43R,1.2192X1.1430*%
%ADD44R,1.2192X1.1432*%
%ADD45R,0.7112X0.9652*%
%ADD46R,0.4632X2.2032*%
%ADD47R,2.2032X0.4632*%
%ADD48R,1.1432X1.2192*%
%ADD49R,1.1430X1.2192*%
%ADD50R,2.2352X0.8128*%
%ADD51R,2.4032X0.5632*%
%ADD52R,3.2032X1.2032*%
%ADD53C,0.1693*%
D39*
X1130620Y823220D02*
Y833380D01*
X1140780D01*
Y823220D01*
X1130620D01*
Y542220D02*
Y552380D01*
X1140780D01*
Y542220D01*
X1130620D01*
X553685Y597601D02*
X548605Y607761D01*
X558765D01*
X553685Y597601D01*
Y577661D02*
X548605Y587821D01*
X558765D01*
X553685Y577661D01*
X473115Y602779D02*
X468035Y612939D01*
X478195D01*
X473115Y602779D01*
Y582779D02*
X468035Y592939D01*
X478195D01*
X473115Y582779D01*
X1075246Y509222D02*
X1070166Y519382D01*
X1080326D01*
X1075246Y509222D01*
X508320Y542220D02*
Y552380D01*
X518480D01*
Y542220D01*
X508320D01*
Y823220D02*
Y833380D01*
X518480D01*
Y823220D01*
X508320D01*
X561358Y820611D02*
X556278Y830771D01*
X566438D01*
X561358Y820611D01*
X553685Y615478D02*
X548605Y625638D01*
X558765D01*
X553685Y615478D01*
Y627792D02*
X548605Y637952D01*
X558765D01*
X553685Y627792D01*
X472719Y617500D02*
X467639Y627660D01*
X477799D01*
X472719Y617500D01*
X472757Y629210D02*
X467677Y639370D01*
X477837D01*
X472757Y629210D01*
D53*
X978154Y534924D02*
G03*
X978154Y534924I-5080J0D01*
G01*
X919988Y544576D02*
G03*
X919988Y544576I-5080J0D01*
G01*
X932180Y551180D02*
G03*
X932180Y551180I-5080J0D01*
G01*
X984504Y545084D02*
G03*
X984504Y545084I-5080J0D01*
G01*
X948436Y545592D02*
G03*
X948436Y545592I-5080J0D01*
G01*
X946912Y534416D02*
G03*
X946912Y534416I-5080J0D01*
G01*
X691134Y550926D02*
G03*
X691134Y550926I-5080J0D01*
G01*
X677926Y544576D02*
G03*
X677926Y544576I-5080J0D01*
G01*
X734060Y506476D02*
G03*
X734060Y506476I-5080J0D01*
G01*
X732536Y518414D02*
G03*
X732536Y518414I-5080J0D01*
G01*
X746760Y518922D02*
G03*
X746760Y518922I-5080J0D01*
G01*
X701040Y537464D02*
G03*
X701040Y537464I-5080J0D01*
G01*
X693674Y529590D02*
G03*
X693674Y529590I-5080J0D01*
G01*
X960882Y537972D02*
G03*
X960882Y537972I-5080J0D01*
G01*
X991108Y521208D02*
G03*
X991108Y521208I-5080J0D01*
G01*
X660145Y629756D02*
G03*
X660145Y629756I-5080J0D01*
G01*
Y642756D02*
G03*
X660145Y642756I-5080J0D01*
G01*
X650493Y649613D02*
G03*
X650493Y649613I-5080J0D01*
G01*
X1022096Y629874D02*
G03*
X1022096Y629874I-5080J0D01*
G01*
X1031748Y636016D02*
G03*
X1031748Y636016I-5080J0D01*
G01*
X1022096Y642874D02*
G03*
X1022096Y642874I-5080J0D01*
G01*
X1031748Y649732D02*
G03*
X1031748Y649732I-5080J0D01*
G01*
X660145Y603755D02*
G03*
X660145Y603755I-5080J0D01*
G01*
X650612Y668516D02*
G03*
X650612Y668516I-5080J0D01*
G01*
X660264Y675374D02*
G03*
X660264Y675374I-5080J0D01*
G01*
X970788Y693529D02*
G03*
X970788Y693529I-5080J0D01*
G01*
Y678869D02*
G03*
X970788Y678869I-5080J0D01*
G01*
X978425Y671540D02*
G03*
X978425Y671540I-5080J0D01*
G01*
X970788Y664210D02*
G03*
X970788Y664210I-5080J0D01*
G01*
X978425Y700859D02*
G03*
X978425Y700859I-5080J0D01*
G01*
X970788Y708188D02*
G03*
X970788Y708188I-5080J0D01*
G01*
X978425Y715518D02*
G03*
X978425Y715518I-5080J0D01*
G01*
Y686199D02*
G03*
X978425Y686199I-5080J0D01*
G01*
X995934Y786130D02*
G03*
X995934Y786130I-5080J0D01*
G01*
X1006856Y786384D02*
G03*
X1006856Y786384I-5080J0D01*
G01*
X1016762Y790194D02*
G03*
X1016762Y790194I-5080J0D01*
G01*
X923619Y731567D02*
G03*
X923619Y731567I-5080J0D01*
G01*
X915982Y753557D02*
G03*
X915982Y753557I-5080J0D01*
G01*
X923619Y746227D02*
G03*
X923619Y746227I-5080J0D01*
G01*
X915982Y709578D02*
G03*
X915982Y709578I-5080J0D01*
G01*
X923619Y716908D02*
G03*
X923619Y716908I-5080J0D01*
G01*
X915982Y724238D02*
G03*
X915982Y724238I-5080J0D01*
G01*
Y738897D02*
G03*
X915982Y738897I-5080J0D01*
G01*
X980440Y790956D02*
G03*
X980440Y790956I-5080J0D01*
G01*
X1180338Y639572D02*
G03*
X1180338Y639572I-5080J0D01*
G01*
X979170Y781050D02*
G03*
X979170Y781050I-5080J0D01*
G01*
X1140460Y635254D02*
G03*
X1140460Y635254I-5080J0D01*
G01*
X967994Y781812D02*
G03*
X967994Y781812I-5080J0D01*
G01*
X1140460Y645160D02*
G03*
X1140460Y645160I-5080J0D01*
G01*
X968756Y770382D02*
G03*
X968756Y770382I-5080J0D01*
G01*
X957326Y771398D02*
G03*
X957326Y771398I-5080J0D01*
G01*
X756290Y783319D02*
G03*
X756290Y783319I-5080J0D01*
G01*
X775716Y741934D02*
G03*
X775716Y741934I-5080J0D01*
G01*
X769112Y755396D02*
G03*
X769112Y755396I-5080J0D01*
G01*
X671672Y797800D02*
G03*
X671672Y797800I-5080J0D01*
G01*
X645668Y804672D02*
G03*
X645668Y804672I-5080J0D01*
G01*
X831596Y798068D02*
G03*
X831596Y798068I-5080J0D01*
G01*
X657860Y790702D02*
G03*
X657860Y790702I-5080J0D01*
G01*
X844296Y800608D02*
G03*
X844296Y800608I-5080J0D01*
G01*
X1102614Y845058D02*
G03*
X1102614Y845058I-5080J0D01*
G01*
X1087120Y838454D02*
G03*
X1087120Y838454I-5080J0D01*
G01*
X517923Y807663D02*
G03*
X517923Y807663I-5080J0D01*
G01*
Y797684D02*
G03*
X517923Y797684I-5080J0D01*
G01*
Y787705D02*
G03*
X517923Y787705I-5080J0D01*
G01*
Y777726D02*
G03*
X517923Y777726I-5080J0D01*
G01*
Y767747D02*
G03*
X517923Y767747I-5080J0D01*
G01*
Y757769D02*
G03*
X517923Y757769I-5080J0D01*
G01*
Y707875D02*
G03*
X517923Y707875I-5080J0D01*
G01*
Y697896D02*
G03*
X517923Y697896I-5080J0D01*
G01*
Y687917D02*
G03*
X517923Y687917I-5080J0D01*
G01*
X583338Y723958D02*
G03*
X583338Y723958I-5080J0D01*
G01*
Y736746D02*
G03*
X583338Y736746I-5080J0D01*
G01*
X592561Y775335D02*
G03*
X592561Y775335I-5080J0D01*
G01*
X762508Y768604D02*
G03*
X762508Y768604I-5080J0D01*
G01*
X698246Y775208D02*
G03*
X698246Y775208I-5080J0D01*
G01*
X592561Y790471D02*
G03*
X592561Y790471I-5080J0D01*
G01*
Y805522D02*
G03*
X592561Y805522I-5080J0D01*
G01*
X687386Y687689D02*
G03*
X687386Y687689I-5080J0D01*
G01*
X680020Y694547D02*
G03*
X680020Y694547I-5080J0D01*
G01*
X672654Y701405D02*
G03*
X672654Y701405I-5080J0D01*
G01*
X665288Y708263D02*
G03*
X665288Y708263I-5080J0D01*
G01*
X694752Y680831D02*
G03*
X694752Y680831I-5080J0D01*
G01*
X697940Y761779D02*
G03*
X697940Y761779I-5080J0D01*
G01*
X698082Y748574D02*
G03*
X698082Y748574I-5080J0D01*
G01*
X702135Y734936D02*
G03*
X702135Y734936I-5080J0D01*
G01*
X517923Y717853D02*
G03*
X517923Y717853I-5080J0D01*
G01*
X665734Y545592D02*
G03*
X665734Y545592I-5080J0D01*
G01*
X646169D02*
G03*
X646169Y545592I-5080J0D01*
G01*
X610880Y765975D02*
G03*
X610880Y765975I-5080J0D01*
G01*
X595002Y736219D02*
G03*
X595002Y736219I-5080J0D01*
G01*
X612796Y714799D02*
G03*
X612796Y714799I-5080J0D01*
G01*
X657922Y715121D02*
G03*
X657922Y715121I-5080J0D01*
G01*
X599470Y727573D02*
G03*
X599470Y727573I-5080J0D01*
G01*
X648480Y709205D02*
G03*
X648480Y709205I-5080J0D01*
G01*
X646761Y659338D02*
G03*
X646761Y659338I-5080J0D01*
G01*
X586546Y646813D02*
G03*
X586546Y646813I-5080J0D01*
G01*
X649902Y685006D02*
G03*
X649902Y685006I-5080J0D01*
G01*
X650493Y635897D02*
G03*
X650493Y635897I-5080J0D01*
G01*
Y610614D02*
G03*
X650493Y610614I-5080J0D01*
G01*
X647462Y621010D02*
G03*
X647462Y621010I-5080J0D01*
G01*
X517923Y747790D02*
G03*
X517923Y747790I-5080J0D01*
G01*
Y737811D02*
G03*
X517923Y737811I-5080J0D01*
G01*
X769967Y593214D02*
G03*
X769967Y593214I-5080J0D01*
G01*
X586417Y622951D02*
G03*
X586417Y622951I-5080J0D01*
G01*
X684714Y584928D02*
G03*
X684714Y584928I-5080J0D01*
G01*
X648741Y594490D02*
G03*
X648741Y594490I-5080J0D01*
G01*
X713474Y587082D02*
G03*
X713474Y587082I-5080J0D01*
G01*
X724445Y586906D02*
G03*
X724445Y586906I-5080J0D01*
G01*
X763114Y585523D02*
G03*
X763114Y585523I-5080J0D01*
G01*
X778764Y586232D02*
G03*
X778764Y586232I-5080J0D01*
G01*
X793293Y661717D02*
G03*
X793293Y661717I-5080J0D01*
G01*
X889174Y662053D02*
G03*
X889174Y662053I-5080J0D01*
G01*
X913317Y583233D02*
G03*
X913317Y583233I-5080J0D01*
G01*
X998982Y527347D02*
G03*
X998982Y527347I-5080J0D01*
G01*
X1031274Y622741D02*
G03*
X1031274Y622741I-5080J0D01*
G01*
X965309Y592054D02*
G03*
X965309Y592054I-5080J0D01*
G01*
X1004094Y589337D02*
G03*
X1004094Y589337I-5080J0D01*
G01*
X1044110Y588612D02*
G03*
X1044110Y588612I-5080J0D01*
G01*
X1024541Y611814D02*
G03*
X1024541Y611814I-5080J0D01*
G01*
X889174Y694553D02*
G03*
X889174Y694553I-5080J0D01*
G01*
X793496Y755904D02*
G03*
X793496Y755904I-5080J0D01*
G01*
Y771014D02*
G03*
X793496Y771014I-5080J0D01*
G01*
X990774Y837075D02*
G03*
X990774Y837075I-5080J0D01*
G01*
X981448Y833834D02*
G03*
X981448Y833834I-5080J0D01*
G01*
X951613Y843445D02*
G03*
X951613Y843445I-5080J0D01*
G01*
X968914Y843281D02*
G03*
X968914Y843281I-5080J0D01*
G01*
X1073188Y760699D02*
G03*
X1073188Y760699I-5080J0D01*
G01*
Y720826D02*
G03*
X1073188Y720826I-5080J0D01*
G01*
X1072574Y615325D02*
G03*
X1072574Y615325I-5080J0D01*
G01*
X1101426Y639909D02*
G03*
X1101426Y639909I-5080J0D01*
G01*
X1095039Y647739D02*
G03*
X1095039Y647739I-5080J0D01*
G01*
X849529Y681187D02*
G03*
X849529Y681187I-5080J0D01*
G01*
X830303Y688174D02*
G03*
X830303Y688174I-5080J0D01*
G01*
X830128Y700625D02*
G03*
X830128Y700625I-5080J0D01*
G01*
X899388Y759723D02*
G03*
X899388Y759723I-5080J0D01*
G01*
X890036Y764950D02*
G03*
X890036Y764950I-5080J0D01*
G01*
X743185Y830805D02*
G03*
X743185Y830805I-5080J0D01*
G01*
X750163Y838352D02*
G03*
X750163Y838352I-5080J0D01*
G01*
X714340Y842764D02*
G03*
X714340Y842764I-5080J0D01*
G01*
X727945D02*
G03*
X727945Y842764I-5080J0D01*
G01*
X575646Y636985D02*
G03*
X575646Y636985I-5080J0D01*
G01*
X853921Y726708D02*
G03*
X853921Y726708I-5080J0D01*
G01*
X841426Y720400D02*
G03*
X841426Y720400I-5080J0D01*
G01*
X850366Y616239D02*
G03*
X850366Y616239I-5080J0D01*
G01*
X838026Y623035D02*
G03*
X838026Y623035I-5080J0D01*
G01*
X840376Y659102D02*
G03*
X840376Y659102I-5080J0D01*
G01*
X1031705Y682333D02*
G03*
X1031705Y682333I-5080J0D01*
G01*
X1031073Y726045D02*
G03*
X1031073Y726045I-5080J0D01*
G01*
X1022461Y657430D02*
G03*
X1022461Y657430I-5080J0D01*
G01*
X1031705Y666887D02*
G03*
X1031705Y666887I-5080J0D01*
G01*
X1022461Y675122D02*
G03*
X1022461Y675122I-5080J0D01*
G01*
X1069394Y688215D02*
G03*
X1069394Y688215I-5080J0D01*
G01*
X1076368Y696096D02*
G03*
X1076368Y696096I-5080J0D01*
G01*
X1140968Y712724D02*
G03*
X1140968Y712724I-5080J0D01*
G01*
Y762254D02*
G03*
X1140968Y762254I-5080J0D01*
G01*
X1140550Y810300D02*
G03*
X1140550Y810300I-5080J0D01*
G01*
X1085445Y814130D02*
G03*
X1085445Y814130I-5080J0D01*
G01*
X649331Y765655D02*
G03*
X649331Y765655I-5080J0D01*
G01*
X538972Y821283D02*
G03*
X538972Y821283I-5080J0D01*
G01*
X519079Y642907D02*
G03*
X519079Y642907I-5080J0D01*
G01*
X522037Y653440D02*
G03*
X522037Y653440I-5080J0D01*
G01*
X517506Y619003D02*
G03*
X517506Y619003I-5080J0D01*
G01*
X517622Y607450D02*
G03*
X517622Y607450I-5080J0D01*
G01*
X518227Y573872D02*
G03*
X518227Y573872I-5080J0D01*
G01*
X517923Y727832D02*
G03*
X517923Y727832I-5080J0D01*
G01*
X603184Y718338D02*
G03*
X603184Y718338I-5080J0D01*
G01*
X584616Y657612D02*
G03*
X584616Y657612I-5080J0D01*
G01*
Y668270D02*
G03*
X584616Y668270I-5080J0D01*
G01*
Y678929D02*
G03*
X584616Y678929I-5080J0D01*
G01*
Y693085D02*
G03*
X584616Y693085I-5080J0D01*
G01*
X584454Y708406D02*
G03*
X584454Y708406I-5080J0D01*
G01*
X793490Y674974D02*
G03*
X793490Y674974I-5080J0D01*
G01*
X751221Y662311D02*
G03*
X751221Y662311I-5080J0D01*
G01*
X923878Y702119D02*
G03*
X923878Y702119I-5080J0D01*
G01*
X889111Y682202D02*
G03*
X889111Y682202I-5080J0D01*
G01*
X918718Y591820D02*
G03*
X918718Y591820I-5080J0D01*
G01*
X955043Y592054D02*
G03*
X955043Y592054I-5080J0D01*
G01*
X1073453Y625889D02*
G03*
X1073453Y625889I-5080J0D01*
G01*
X1190752Y629158D02*
G03*
X1190752Y629158I-5080J0D01*
G01*
Y617728D02*
G03*
X1190752Y617728I-5080J0D01*
G01*
X1140460Y625348D02*
G03*
X1140460Y625348I-5080J0D01*
G01*
Y661717D02*
G03*
X1140460Y661717I-5080J0D01*
G01*
X1099985Y608794D02*
G03*
X1099985Y608794I-5080J0D01*
G01*
X1035812Y761746D02*
G03*
X1035812Y761746I-5080J0D01*
G01*
X1108716Y524321D02*
G03*
X1108716Y524321I-5080J0D01*
G01*
X649549Y529660D02*
G03*
X649549Y529660I-5080J0D01*
G01*
X923356Y763322D02*
G03*
X923356Y763322I-5080J0D01*
G01*
X1010580Y540257D02*
G03*
X1010580Y540257I-5080J0D01*
G01*
X710438Y525696D02*
G03*
X710438Y525696I-5080J0D01*
G01*
X756158Y513588D02*
G03*
X756158Y513588I-5080J0D01*
G01*
X583338Y749426D02*
G03*
X583338Y749426I-5080J0D01*
G01*
X583622Y761925D02*
G03*
X583622Y761925I-5080J0D01*
G01*
M02*
