%FSLAX44Y44*%
%MOMM*%
G71*
G01*
G75*
%ADD10R,0.9652X0.8890*%
%ADD11R,1.0160X0.9398*%
%ADD12R,1.0160X0.9400*%
%ADD13R,0.5080X0.7620*%
%ADD14R,0.2600X2.0000*%
%ADD15R,2.0000X0.2600*%
%ADD16R,0.9400X1.0160*%
%ADD17R,0.9398X1.0160*%
%ADD18R,2.0320X0.6096*%
%ADD19C,0.2032*%
%ADD20C,0.2540*%
%ADD21C,0.5080*%
%ADD22C,0.3048*%
%ADD23R,2.4804X2.2690*%
%ADD24R,2.5943X2.2690*%
%ADD25R,3.0073X5.6504*%
%ADD26C,1.3000*%
%ADD27C,0.6350*%
%ADD28C,0.8128*%
%ADD29C,1.0160*%
%ADD30C,1.8080*%
%ADD31C,0.8382*%
%ADD32C,0.9398*%
%ADD33R,2.2000X0.3600*%
%ADD34R,3.0000X1.0000*%
%ADD35C,0.3302*%
%ADD36R,0.9424X1.9914*%
%ADD37R,2.5048X2.1810*%
%ADD38R,2.9171X1.1903*%
D10*
X1096518Y824992D02*
D03*
X1080008D02*
D03*
X654859Y529625D02*
D03*
X671369D02*
D03*
D11*
X1077994Y626685D02*
D03*
X594952Y748097D02*
D03*
D12*
X1077994Y610180D02*
D03*
X594952Y764602D02*
D03*
D13*
X1082040Y855980D02*
D03*
X1089660D02*
D03*
X1097280D02*
D03*
X1103630Y514350D02*
D03*
X1096010D02*
D03*
X1088390D02*
D03*
D14*
X777200Y567650D02*
D03*
X770700D02*
D03*
X764200D02*
D03*
X757700D02*
D03*
X751200D02*
D03*
X744700D02*
D03*
X738200D02*
D03*
X731700D02*
D03*
X725200D02*
D03*
X718700D02*
D03*
X712200D02*
D03*
X705700D02*
D03*
X699200D02*
D03*
X692700D02*
D03*
X686200D02*
D03*
X679700D02*
D03*
X673200D02*
D03*
X666700D02*
D03*
X660200D02*
D03*
X653700D02*
D03*
X718700Y814650D02*
D03*
X725200D02*
D03*
X731700D02*
D03*
X738200D02*
D03*
X744700D02*
D03*
X751200D02*
D03*
X757700D02*
D03*
X764200D02*
D03*
X770700D02*
D03*
X777200D02*
D03*
X712200D02*
D03*
X705700D02*
D03*
X699200D02*
D03*
X692700D02*
D03*
X686200D02*
D03*
X679700D02*
D03*
X673200D02*
D03*
X666700D02*
D03*
X660200D02*
D03*
X653700D02*
D03*
X895000D02*
D03*
X901500D02*
D03*
X908000D02*
D03*
X914500D02*
D03*
X921000D02*
D03*
X927500D02*
D03*
X934000D02*
D03*
X940500D02*
D03*
X947000D02*
D03*
X953500D02*
D03*
X1018500D02*
D03*
X1012000D02*
D03*
X1005500D02*
D03*
X999000D02*
D03*
X992500D02*
D03*
X986000D02*
D03*
X979500D02*
D03*
X973000D02*
D03*
X966500D02*
D03*
X960000D02*
D03*
X895000Y567650D02*
D03*
X901500D02*
D03*
X908000D02*
D03*
X914500D02*
D03*
X921000D02*
D03*
X927500D02*
D03*
X934000D02*
D03*
X940500D02*
D03*
X947000D02*
D03*
X953500D02*
D03*
X960000D02*
D03*
X966500D02*
D03*
X973000D02*
D03*
X979500D02*
D03*
X986000D02*
D03*
X992500D02*
D03*
X999000D02*
D03*
X1005500D02*
D03*
X1012000D02*
D03*
X1018500D02*
D03*
D15*
X624450Y596900D02*
D03*
Y603400D02*
D03*
Y609900D02*
D03*
Y616400D02*
D03*
Y622900D02*
D03*
Y629400D02*
D03*
Y635900D02*
D03*
Y642400D02*
D03*
Y648900D02*
D03*
Y655400D02*
D03*
Y661900D02*
D03*
Y668400D02*
D03*
Y674900D02*
D03*
Y681400D02*
D03*
Y687900D02*
D03*
Y694400D02*
D03*
Y700900D02*
D03*
Y707400D02*
D03*
Y713900D02*
D03*
Y720400D02*
D03*
Y726900D02*
D03*
Y733400D02*
D03*
Y739900D02*
D03*
Y746400D02*
D03*
Y752900D02*
D03*
Y759400D02*
D03*
Y765900D02*
D03*
Y772400D02*
D03*
Y778900D02*
D03*
Y785400D02*
D03*
X806450D02*
D03*
Y778900D02*
D03*
Y772400D02*
D03*
Y765900D02*
D03*
Y759400D02*
D03*
Y752900D02*
D03*
Y746400D02*
D03*
Y739900D02*
D03*
Y733400D02*
D03*
Y726900D02*
D03*
Y720400D02*
D03*
Y713900D02*
D03*
Y707400D02*
D03*
Y700900D02*
D03*
Y694400D02*
D03*
Y687900D02*
D03*
Y681400D02*
D03*
Y674900D02*
D03*
Y668400D02*
D03*
Y661900D02*
D03*
Y655400D02*
D03*
Y648900D02*
D03*
Y642400D02*
D03*
Y635900D02*
D03*
Y629400D02*
D03*
Y622900D02*
D03*
Y616400D02*
D03*
Y609900D02*
D03*
Y603400D02*
D03*
Y596900D02*
D03*
X1047750D02*
D03*
Y603400D02*
D03*
Y609900D02*
D03*
Y616400D02*
D03*
Y622900D02*
D03*
Y629400D02*
D03*
Y635900D02*
D03*
Y642400D02*
D03*
Y648900D02*
D03*
Y655400D02*
D03*
Y661900D02*
D03*
Y668400D02*
D03*
Y674900D02*
D03*
Y681400D02*
D03*
Y687900D02*
D03*
Y694400D02*
D03*
Y700900D02*
D03*
Y707400D02*
D03*
Y713900D02*
D03*
Y720400D02*
D03*
Y726900D02*
D03*
Y733400D02*
D03*
Y739900D02*
D03*
Y746400D02*
D03*
Y752900D02*
D03*
Y759400D02*
D03*
Y765900D02*
D03*
Y772400D02*
D03*
Y778900D02*
D03*
Y785400D02*
D03*
X865750D02*
D03*
Y778900D02*
D03*
Y772400D02*
D03*
Y765900D02*
D03*
Y759400D02*
D03*
Y752900D02*
D03*
Y746400D02*
D03*
Y739900D02*
D03*
Y733400D02*
D03*
Y726900D02*
D03*
Y720400D02*
D03*
Y713900D02*
D03*
Y707400D02*
D03*
Y700900D02*
D03*
Y694400D02*
D03*
Y687900D02*
D03*
Y681400D02*
D03*
Y674900D02*
D03*
Y668400D02*
D03*
Y661900D02*
D03*
Y655400D02*
D03*
Y648900D02*
D03*
Y642400D02*
D03*
Y635900D02*
D03*
Y629400D02*
D03*
Y622900D02*
D03*
Y616400D02*
D03*
Y609900D02*
D03*
Y603400D02*
D03*
Y596900D02*
D03*
D16*
X538443Y622236D02*
D03*
X486417Y622299D02*
D03*
X538541Y606788D02*
D03*
X486342Y606852D02*
D03*
X1080706Y762144D02*
D03*
X1080775Y722376D02*
D03*
D17*
X521938Y622236D02*
D03*
X502922Y622299D02*
D03*
X522036Y606788D02*
D03*
X502847Y606852D02*
D03*
X1097211Y762144D02*
D03*
X1097280Y722376D02*
D03*
D18*
X469900Y812800D02*
D03*
Y800100D02*
D03*
Y787400D02*
D03*
Y774700D02*
D03*
Y762000D02*
D03*
Y749300D02*
D03*
Y736600D02*
D03*
Y723900D02*
D03*
Y711200D02*
D03*
Y698500D02*
D03*
Y685800D02*
D03*
Y673100D02*
D03*
Y660400D02*
D03*
Y647700D02*
D03*
X561340D02*
D03*
Y660400D02*
D03*
Y673100D02*
D03*
Y685800D02*
D03*
Y698500D02*
D03*
Y711200D02*
D03*
Y723900D02*
D03*
Y736600D02*
D03*
Y749300D02*
D03*
Y762000D02*
D03*
Y774700D02*
D03*
Y787400D02*
D03*
Y800100D02*
D03*
Y812800D02*
D03*
M02*
