%FSLAX44Y44*%
%MOMM*%
G71*
G01*
G75*
G04 Layer_Physical_Order=1*
G04 Layer_Color=255*
%ADD10R,0.9652X0.8890*%
%ADD11R,1.0160X0.9398*%
%ADD12R,1.0160X0.9400*%
%ADD13R,0.5080X0.7620*%
%ADD14R,0.2600X2.0000*%
%ADD15R,2.0000X0.2600*%
%ADD16R,0.9400X1.0160*%
%ADD17R,0.9398X1.0160*%
%ADD18R,2.0320X0.6096*%
%ADD19C,0.2032*%
%ADD20C,0.2540*%
%ADD21C,0.5080*%
%ADD22C,0.3048*%
%ADD23R,2.4804X2.2690*%
%ADD24R,2.5943X2.2690*%
%ADD25R,3.0073X5.6504*%
%ADD26C,1.3000*%
%ADD27C,0.6350*%
%ADD28C,0.8128*%
G36*
X1097374Y644532D02*
X1097410Y644248D01*
X1097470Y643970D01*
X1097555Y643697D01*
X1097663Y643429D01*
X1097796Y643168D01*
X1097953Y642911D01*
X1098134Y642661D01*
X1098339Y642416D01*
X1098568Y642177D01*
X1094123D01*
X1094353Y642416D01*
X1094558Y642661D01*
X1094739Y642911D01*
X1094895Y643168D01*
X1095028Y643429D01*
X1095137Y643697D01*
X1095221Y643970D01*
X1095282Y644248D01*
X1095318Y644532D01*
X1095330Y644822D01*
X1097362D01*
X1097374Y644532D01*
D02*
G37*
G36*
X511372Y646807D02*
X511611Y646603D01*
X511845Y646429D01*
X512074Y646283D01*
X512298Y646165D01*
X512516Y646077D01*
X512729Y646018D01*
X512936Y645987D01*
X513139Y645985D01*
X513336Y646012D01*
X510881Y642307D01*
X510838Y642477D01*
X510774Y642655D01*
X510688Y642841D01*
X510580Y643036D01*
X510451Y643239D01*
X510300Y643450D01*
X509933Y643898D01*
X509717Y644134D01*
X509479Y644378D01*
X511128Y647040D01*
X511372Y646807D01*
D02*
G37*
G36*
X1176412Y644435D02*
X1176423Y644147D01*
X1176458Y643864D01*
X1176516Y643584D01*
X1176598Y643309D01*
X1176703Y643037D01*
X1176831Y642770D01*
X1176982Y642506D01*
X1177157Y642247D01*
X1177355Y641992D01*
X1177577Y641741D01*
X1173136Y641934D01*
X1173372Y642161D01*
X1173584Y642395D01*
X1173770Y642636D01*
X1173932Y642885D01*
X1174069Y643141D01*
X1174181Y643404D01*
X1174268Y643674D01*
X1174330Y643952D01*
X1174367Y644236D01*
X1174380Y644528D01*
X1176412Y644435D01*
D02*
G37*
G36*
X652970Y640370D02*
X652711Y640585D01*
X652449Y640778D01*
X652183Y640947D01*
X651915Y641095D01*
X651644Y641219D01*
X651370Y641321D01*
X651092Y641401D01*
X650812Y641457D01*
X650529Y641491D01*
X650243Y641503D01*
X650082Y643534D01*
X650376Y643547D01*
X650660Y643585D01*
X650937Y643649D01*
X651205Y643737D01*
X651465Y643851D01*
X651716Y643991D01*
X651959Y644156D01*
X652194Y644346D01*
X652420Y644562D01*
X652638Y644802D01*
X652970Y640370D01*
D02*
G37*
G36*
X1019661Y644680D02*
X1019887Y644465D01*
X1020122Y644274D01*
X1020365Y644109D01*
X1020617Y643970D01*
X1020876Y643856D01*
X1021145Y643767D01*
X1021421Y643704D01*
X1021706Y643666D01*
X1021999Y643653D01*
X1021838Y641621D01*
X1021552Y641610D01*
X1021269Y641576D01*
X1020989Y641519D01*
X1020712Y641440D01*
X1020438Y641338D01*
X1020166Y641213D01*
X1019898Y641066D01*
X1019633Y640896D01*
X1019371Y640704D01*
X1019111Y640489D01*
X1019443Y644921D01*
X1019661Y644680D01*
D02*
G37*
G36*
X1137887Y647153D02*
X1138132Y646948D01*
X1138382Y646767D01*
X1138638Y646610D01*
X1138900Y646478D01*
X1139167Y646369D01*
X1139441Y646285D01*
X1139719Y646224D01*
X1140003Y646188D01*
X1140293Y646176D01*
Y644144D01*
X1140003Y644132D01*
X1139719Y644096D01*
X1139441Y644035D01*
X1139167Y643951D01*
X1138900Y643842D01*
X1138638Y643710D01*
X1138382Y643553D01*
X1138132Y643372D01*
X1137887Y643167D01*
X1137647Y642937D01*
Y647383D01*
X1137887Y647153D01*
D02*
G37*
G36*
X838458Y659551D02*
X838539Y659305D01*
X838638Y659061D01*
X838753Y658820D01*
X838886Y658581D01*
X839035Y658344D01*
X839201Y658111D01*
X839584Y657650D01*
X839800Y657424D01*
X838472Y655160D01*
X838238Y655379D01*
X838002Y655568D01*
X837765Y655727D01*
X837525Y655858D01*
X837284Y655958D01*
X837042Y656029D01*
X836798Y656071D01*
X836552Y656083D01*
X836305Y656066D01*
X836056Y656019D01*
X838393Y659800D01*
X838458Y659551D01*
D02*
G37*
G36*
X1019842Y659471D02*
X1020049Y659309D01*
X1020269Y659166D01*
X1020504Y659042D01*
X1020752Y658938D01*
X1021013Y658852D01*
X1021289Y658785D01*
X1021577Y658738D01*
X1021880Y658709D01*
X1022196Y658699D01*
Y656160D01*
X1021880Y656150D01*
X1021577Y656121D01*
X1021289Y656074D01*
X1021013Y656007D01*
X1020752Y655921D01*
X1020504Y655817D01*
X1020269Y655693D01*
X1020049Y655550D01*
X1019842Y655388D01*
X1019648Y655207D01*
Y659652D01*
X1019842Y659471D01*
D02*
G37*
G36*
X1090987Y652362D02*
X1091023Y652078D01*
X1091083Y651799D01*
X1091168Y651526D01*
X1091276Y651259D01*
X1091409Y650997D01*
X1091566Y650741D01*
X1091747Y650490D01*
X1091952Y650246D01*
X1092181Y650006D01*
X1087736D01*
X1087965Y650246D01*
X1088170Y650490D01*
X1088352Y650741D01*
X1088508Y650997D01*
X1088641Y651259D01*
X1088750Y651526D01*
X1088834Y651799D01*
X1088894Y652078D01*
X1088931Y652362D01*
X1088943Y652652D01*
X1090975D01*
X1090987Y652362D01*
D02*
G37*
G36*
X643564Y647033D02*
X643280Y647226D01*
X642714Y647551D01*
X642432Y647683D01*
X642150Y647795D01*
X641869Y647887D01*
X641587Y647958D01*
X641306Y648009D01*
X641026Y648039D01*
X640745Y648049D01*
X640368Y650081D01*
X640665Y650095D01*
X640950Y650135D01*
X641223Y650201D01*
X641484Y650294D01*
X641733Y650414D01*
X641970Y650560D01*
X642194Y650733D01*
X642407Y650933D01*
X642608Y651159D01*
X642796Y651411D01*
X643564Y647033D01*
D02*
G37*
G36*
X1029474Y651277D02*
X1029674Y651051D01*
X1029887Y650852D01*
X1030112Y650679D01*
X1030349Y650533D01*
X1030598Y650413D01*
X1030859Y650320D01*
X1031131Y650253D01*
X1031416Y650213D01*
X1031713Y650200D01*
X1031336Y648168D01*
X1031056Y648158D01*
X1030775Y648127D01*
X1030494Y648076D01*
X1030213Y648005D01*
X1029931Y647914D01*
X1029649Y647802D01*
X1029367Y647670D01*
X1029084Y647517D01*
X1028801Y647345D01*
X1028518Y647151D01*
X1029285Y651530D01*
X1029474Y651277D01*
D02*
G37*
G36*
X1137887Y627341D02*
X1138132Y627136D01*
X1138382Y626955D01*
X1138638Y626798D01*
X1138900Y626666D01*
X1139167Y626557D01*
X1139441Y626473D01*
X1139719Y626412D01*
X1140003Y626376D01*
X1140293Y626364D01*
Y624332D01*
X1140003Y624320D01*
X1139719Y624284D01*
X1139441Y624223D01*
X1139167Y624139D01*
X1138900Y624030D01*
X1138638Y623898D01*
X1138382Y623741D01*
X1138132Y623560D01*
X1137887Y623355D01*
X1137647Y623125D01*
Y627570D01*
X1137887Y627341D01*
D02*
G37*
G36*
X652970Y627370D02*
X652711Y627585D01*
X652449Y627778D01*
X652183Y627948D01*
X651915Y628095D01*
X651644Y628219D01*
X651370Y628321D01*
X651092Y628401D01*
X650812Y628457D01*
X650529Y628491D01*
X650243Y628503D01*
X650082Y630535D01*
X650376Y630547D01*
X650660Y630585D01*
X650937Y630649D01*
X651205Y630737D01*
X651465Y630852D01*
X651716Y630991D01*
X651959Y631156D01*
X652194Y631346D01*
X652420Y631562D01*
X652638Y631802D01*
X652970Y627370D01*
D02*
G37*
G36*
X1067551Y622822D02*
X1067318Y622870D01*
X1067085Y622889D01*
X1066854Y622879D01*
X1066623Y622841D01*
X1066392Y622773D01*
X1066163Y622677D01*
X1065934Y622551D01*
X1065705Y622397D01*
X1065478Y622214D01*
X1065251Y622002D01*
X1063868Y624211D01*
X1064090Y624442D01*
X1064480Y624906D01*
X1064647Y625137D01*
X1064795Y625368D01*
X1064926Y625600D01*
X1065037Y625831D01*
X1065131Y626062D01*
X1065206Y626293D01*
X1065262Y626524D01*
X1067551Y622822D01*
D02*
G37*
G36*
X830753Y620739D02*
X830553Y620914D01*
X830341Y621070D01*
X830116Y621208D01*
X829878Y621328D01*
X829627Y621430D01*
X829363Y621513D01*
X829086Y621577D01*
X828796Y621623D01*
X828494Y621651D01*
X828178Y621660D01*
X828087Y624200D01*
X828404Y624210D01*
X828706Y624239D01*
X828994Y624288D01*
X829267Y624357D01*
X829526Y624445D01*
X829771Y624553D01*
X830001Y624681D01*
X830217Y624828D01*
X830419Y624995D01*
X830606Y625181D01*
X830753Y620739D01*
D02*
G37*
G36*
X835472Y624995D02*
X835674Y624828D01*
X835890Y624681D01*
X836120Y624553D01*
X836365Y624445D01*
X836624Y624357D01*
X836897Y624288D01*
X837185Y624239D01*
X837487Y624210D01*
X837804Y624200D01*
X837712Y621660D01*
X837397Y621651D01*
X837094Y621623D01*
X836805Y621577D01*
X836528Y621513D01*
X836264Y621430D01*
X836013Y621328D01*
X835775Y621208D01*
X835550Y621070D01*
X835338Y620914D01*
X835138Y620739D01*
X835285Y625181D01*
X835472Y624995D01*
D02*
G37*
G36*
X1019661Y631680D02*
X1019887Y631465D01*
X1020122Y631274D01*
X1020365Y631110D01*
X1020617Y630970D01*
X1020876Y630856D01*
X1021145Y630767D01*
X1021421Y630704D01*
X1021706Y630666D01*
X1021999Y630653D01*
X1021838Y628621D01*
X1021552Y628610D01*
X1021269Y628576D01*
X1020989Y628519D01*
X1020712Y628440D01*
X1020438Y628338D01*
X1020166Y628213D01*
X1019898Y628066D01*
X1019633Y627896D01*
X1019371Y627704D01*
X1019111Y627489D01*
X1019443Y631921D01*
X1019661Y631680D01*
D02*
G37*
G36*
X1029210Y637964D02*
X1029450Y637757D01*
X1029697Y637573D01*
X1029950Y637414D01*
X1030209Y637280D01*
X1030475Y637170D01*
X1030747Y637084D01*
X1031025Y637023D01*
X1031309Y636986D01*
X1031600Y636974D01*
X1031561Y634942D01*
X1031272Y634930D01*
X1030988Y634894D01*
X1030709Y634835D01*
X1030435Y634752D01*
X1030166Y634645D01*
X1029902Y634514D01*
X1029642Y634359D01*
X1029388Y634181D01*
X1029139Y633979D01*
X1028894Y633753D01*
X1028976Y638197D01*
X1029210Y637964D01*
D02*
G37*
G36*
X571512Y641634D02*
X571549Y641349D01*
X571611Y641071D01*
X571697Y640800D01*
X571807Y640535D01*
X571942Y640277D01*
X572102Y640025D01*
X572287Y639780D01*
X572496Y639541D01*
X572729Y639309D01*
X568286Y639194D01*
X568510Y639441D01*
X568711Y639692D01*
X568889Y639948D01*
X569042Y640208D01*
X569172Y640473D01*
X569279Y640743D01*
X569362Y641018D01*
X569421Y641297D01*
X569456Y641581D01*
X569468Y641869D01*
X571500Y641925D01*
X571512Y641634D01*
D02*
G37*
G36*
X643187Y633634D02*
X642943Y633860D01*
X642693Y634062D01*
X642439Y634241D01*
X642180Y634395D01*
X641916Y634526D01*
X641647Y634633D01*
X641373Y634716D01*
X641094Y634776D01*
X640810Y634812D01*
X640521Y634823D01*
X640481Y636856D01*
X640772Y636868D01*
X641057Y636904D01*
X641335Y636965D01*
X641607Y637051D01*
X641872Y637161D01*
X642131Y637296D01*
X642384Y637455D01*
X642631Y637638D01*
X642872Y637846D01*
X643106Y638078D01*
X643187Y633634D01*
D02*
G37*
G36*
X1188233Y633837D02*
X1188238Y633378D01*
X1188345Y631750D01*
X1188394Y631394D01*
X1188519Y630744D01*
X1188595Y630450D01*
X1188679Y630176D01*
X1184834Y632220D01*
X1185094Y632308D01*
X1185326Y632419D01*
X1185531Y632555D01*
X1185709Y632716D01*
X1185860Y632901D01*
X1185983Y633110D01*
X1186078Y633344D01*
X1186147Y633603D01*
X1186188Y633886D01*
X1186201Y634194D01*
X1188233Y633837D01*
D02*
G37*
G36*
X1137887Y637247D02*
X1138132Y637042D01*
X1138382Y636861D01*
X1138638Y636704D01*
X1138900Y636572D01*
X1139167Y636463D01*
X1139441Y636379D01*
X1139719Y636318D01*
X1140003Y636282D01*
X1140293Y636270D01*
Y634238D01*
X1140003Y634226D01*
X1139719Y634190D01*
X1139441Y634129D01*
X1139167Y634045D01*
X1138900Y633936D01*
X1138638Y633804D01*
X1138382Y633647D01*
X1138132Y633466D01*
X1137887Y633261D01*
X1137647Y633032D01*
Y637477D01*
X1137887Y637247D01*
D02*
G37*
G36*
X834536Y656019D02*
X834286Y656066D01*
X834039Y656083D01*
X833793Y656071D01*
X833549Y656029D01*
X833307Y655958D01*
X833066Y655858D01*
X832827Y655727D01*
X832589Y655568D01*
X832353Y655379D01*
X832119Y655160D01*
X830791Y657424D01*
X831008Y657650D01*
X831390Y658111D01*
X831556Y658344D01*
X831705Y658581D01*
X831838Y658820D01*
X831953Y659061D01*
X832052Y659305D01*
X832133Y659551D01*
X832198Y659800D01*
X834536Y656019D01*
D02*
G37*
G36*
X882398Y679479D02*
X882176Y679603D01*
X881944Y679713D01*
X881701Y679811D01*
X881449Y679896D01*
X881186Y679967D01*
X880913Y680026D01*
X880337Y680104D01*
X880033Y680124D01*
X879720Y680130D01*
X878985Y682670D01*
X879306Y682681D01*
X879606Y682714D01*
X879886Y682770D01*
X880146Y682848D01*
X880385Y682947D01*
X880604Y683070D01*
X880802Y683214D01*
X880980Y683380D01*
X881138Y683569D01*
X881275Y683780D01*
X882398Y679479D01*
D02*
G37*
G36*
X1029596Y683530D02*
X1029763Y683296D01*
X1029947Y683090D01*
X1030148Y682911D01*
X1030366Y682760D01*
X1030600Y682636D01*
X1030851Y682540D01*
X1031119Y682471D01*
X1031403Y682430D01*
X1031704Y682416D01*
X1031565Y680384D01*
X1031194Y680376D01*
X1030470Y680308D01*
X1030118Y680249D01*
X1029433Y680081D01*
X1029100Y679971D01*
X1028453Y679702D01*
X1028140Y679542D01*
X1029445Y683791D01*
X1029596Y683530D01*
D02*
G37*
G36*
X842108Y679042D02*
X841878Y679276D01*
X841641Y679486D01*
X841398Y679672D01*
X841147Y679832D01*
X840890Y679968D01*
X840626Y680079D01*
X840355Y680166D01*
X840078Y680228D01*
X839793Y680265D01*
X839502Y680277D01*
X839574Y682309D01*
X839862Y682321D01*
X840146Y682356D01*
X840425Y682415D01*
X840700Y682497D01*
X840971Y682603D01*
X841237Y682732D01*
X841499Y682885D01*
X841756Y683061D01*
X842009Y683261D01*
X842257Y683484D01*
X842108Y679042D01*
D02*
G37*
G36*
X963441Y676647D02*
X963201Y676876D01*
X962956Y677081D01*
X962706Y677262D01*
X962450Y677419D01*
X962188Y677552D01*
X961920Y677660D01*
X961647Y677745D01*
X961369Y677805D01*
X961085Y677841D01*
X960795Y677853D01*
Y679885D01*
X961085Y679898D01*
X961369Y679934D01*
X961647Y679994D01*
X961920Y680078D01*
X962188Y680187D01*
X962450Y680320D01*
X962706Y680477D01*
X962956Y680658D01*
X963201Y680863D01*
X963441Y681092D01*
Y676647D01*
D02*
G37*
G36*
X576994Y682925D02*
X577220Y682750D01*
X577460Y682596D01*
X577713Y682462D01*
X577979Y682350D01*
X578257Y682259D01*
X578549Y682188D01*
X578855Y682139D01*
X579173Y682111D01*
X579504Y682104D01*
X576361Y678961D01*
X576354Y679292D01*
X576326Y679611D01*
X576277Y679916D01*
X576206Y680208D01*
X576115Y680487D01*
X576003Y680752D01*
X575869Y681005D01*
X575715Y681245D01*
X575540Y681471D01*
X575343Y681685D01*
X576780Y683122D01*
X576994Y682925D01*
D02*
G37*
G36*
X644062Y681924D02*
X643813Y681970D01*
X643566Y681988D01*
X643320Y681975D01*
X643075Y681934D01*
X642833Y681863D01*
X642592Y681762D01*
X642353Y681632D01*
X642115Y681472D01*
X641880Y681283D01*
X641645Y681064D01*
X640317Y683328D01*
X640534Y683555D01*
X640917Y684015D01*
X641083Y684249D01*
X641232Y684485D01*
X641364Y684724D01*
X641480Y684965D01*
X641578Y685209D01*
X641660Y685455D01*
X641725Y685704D01*
X644062Y681924D01*
D02*
G37*
G36*
X823133Y685784D02*
X822927Y685950D01*
X822709Y686099D01*
X822478Y686231D01*
X822235Y686345D01*
X821981Y686441D01*
X821714Y686520D01*
X821436Y686581D01*
X821145Y686625D01*
X820842Y686651D01*
X820527Y686660D01*
X820314Y689200D01*
X820631Y689210D01*
X820933Y689241D01*
X821220Y689291D01*
X821491Y689362D01*
X821746Y689454D01*
X821986Y689566D01*
X822211Y689698D01*
X822420Y689850D01*
X822614Y690023D01*
X822792Y690216D01*
X823133Y685784D01*
D02*
G37*
G36*
X1062256Y685798D02*
X1062047Y685962D01*
X1061827Y686108D01*
X1061595Y686238D01*
X1061351Y686350D01*
X1061096Y686444D01*
X1060829Y686522D01*
X1060549Y686582D01*
X1060258Y686626D01*
X1059956Y686651D01*
X1059641Y686660D01*
X1059391Y689200D01*
X1059708Y689210D01*
X1060010Y689241D01*
X1060296Y689292D01*
X1060566Y689364D01*
X1060821Y689456D01*
X1061059Y689569D01*
X1061282Y689702D01*
X1061489Y689856D01*
X1061681Y690030D01*
X1061856Y690225D01*
X1062256Y685798D01*
D02*
G37*
G36*
X971078Y683977D02*
X970838Y684206D01*
X970593Y684411D01*
X970343Y684592D01*
X970087Y684749D01*
X969825Y684882D01*
X969557Y684990D01*
X969285Y685074D01*
X969006Y685135D01*
X968722Y685171D01*
X968432Y685183D01*
Y687215D01*
X968722Y687227D01*
X969006Y687263D01*
X969285Y687324D01*
X969557Y687408D01*
X969825Y687517D01*
X970087Y687650D01*
X970343Y687806D01*
X970593Y687987D01*
X970838Y688192D01*
X971078Y688422D01*
Y683977D01*
D02*
G37*
G36*
X691077Y685583D02*
X691088Y685300D01*
X691120Y685018D01*
X691174Y684737D01*
X691249Y684458D01*
X691347Y684180D01*
X691465Y683903D01*
X691605Y683627D01*
X691767Y683353D01*
X691951Y683081D01*
X692156Y682809D01*
X687744Y683353D01*
X687991Y683557D01*
X688212Y683771D01*
X688407Y683996D01*
X688577Y684230D01*
X688720Y684474D01*
X688837Y684729D01*
X688928Y684994D01*
X688993Y685268D01*
X689032Y685553D01*
X689045Y685848D01*
X691077Y685583D01*
D02*
G37*
G36*
X512812Y684742D02*
X512480Y684735D01*
X512162Y684707D01*
X511857Y684658D01*
X511565Y684587D01*
X511286Y684496D01*
X511020Y684384D01*
X510767Y684250D01*
X510528Y684096D01*
X510301Y683921D01*
X510088Y683724D01*
X508651Y685161D01*
X508847Y685375D01*
X509023Y685601D01*
X509177Y685841D01*
X509310Y686094D01*
X509423Y686359D01*
X509514Y686638D01*
X509584Y686930D01*
X509633Y687235D01*
X509661Y687554D01*
X509669Y687885D01*
X512812Y684742D01*
D02*
G37*
G36*
X640006Y662035D02*
X638552Y659878D01*
X637362Y661002D01*
X639158Y662798D01*
X640006Y662035D01*
D02*
G37*
G36*
X963228Y662227D02*
X963065Y662411D01*
X962885Y662575D01*
X962688Y662720D01*
X962474Y662846D01*
X962243Y662952D01*
X961995Y663039D01*
X961730Y663107D01*
X961448Y663155D01*
X961149Y663184D01*
X960834Y663194D01*
Y665226D01*
X961149Y665236D01*
X961448Y665265D01*
X961730Y665313D01*
X961995Y665381D01*
X962243Y665468D01*
X962474Y665574D01*
X962688Y665700D01*
X962885Y665845D01*
X963065Y666009D01*
X963228Y666193D01*
Y662227D01*
D02*
G37*
G36*
X881937Y659724D02*
X881735Y659896D01*
X881520Y660050D01*
X881293Y660186D01*
X881053Y660304D01*
X880801Y660404D01*
X880536Y660485D01*
X880259Y660548D01*
X879969Y660594D01*
X879666Y660621D01*
X879351Y660630D01*
X879217Y663170D01*
X879534Y663180D01*
X879836Y663210D01*
X880124Y663259D01*
X880396Y663329D01*
X880654Y663418D01*
X880897Y663528D01*
X881125Y663657D01*
X881339Y663806D01*
X881538Y663975D01*
X881722Y664164D01*
X881937Y659724D01*
D02*
G37*
G36*
X576011Y660829D02*
X576241Y660658D01*
X576476Y660521D01*
X576716Y660418D01*
X576961Y660349D01*
X577211Y660315D01*
X577465Y660314D01*
X577725Y660348D01*
X577990Y660416D01*
X578259Y660519D01*
X576604Y656394D01*
X576466Y656712D01*
X576026Y657579D01*
X575869Y657840D01*
X575542Y658320D01*
X575371Y658538D01*
X575014Y658933D01*
X575786Y661034D01*
X576011Y660829D01*
D02*
G37*
G36*
X790573Y663874D02*
X790787Y663720D01*
X791014Y663584D01*
X791254Y663466D01*
X791506Y663366D01*
X791771Y663285D01*
X792048Y663222D01*
X792338Y663176D01*
X792641Y663149D01*
X792956Y663140D01*
X793090Y660600D01*
X792773Y660590D01*
X792471Y660560D01*
X792184Y660511D01*
X791911Y660441D01*
X791653Y660352D01*
X791410Y660242D01*
X791182Y660113D01*
X790968Y659964D01*
X790769Y659795D01*
X790585Y659606D01*
X790371Y664046D01*
X790573Y663874D01*
D02*
G37*
G36*
X1027947Y669798D02*
X1028565Y669647D01*
X1028903Y669586D01*
X1030028Y669458D01*
X1030440Y669435D01*
X1031322Y669416D01*
X1031666Y667384D01*
X1031359Y667370D01*
X1031076Y667329D01*
X1030817Y667261D01*
X1030582Y667165D01*
X1030371Y667041D01*
X1030184Y666891D01*
X1030022Y666712D01*
X1029883Y666507D01*
X1029768Y666274D01*
X1029678Y666014D01*
X1027665Y669887D01*
X1027947Y669798D01*
D02*
G37*
G36*
X1019954Y677029D02*
X1020190Y676818D01*
X1020433Y676633D01*
X1020684Y676472D01*
X1020941Y676336D01*
X1021205Y676225D01*
X1021475Y676138D01*
X1021753Y676076D01*
X1022038Y676039D01*
X1022329Y676027D01*
X1022254Y673995D01*
X1021966Y673983D01*
X1021682Y673948D01*
X1021403Y673889D01*
X1021128Y673807D01*
X1020857Y673701D01*
X1020591Y673572D01*
X1020329Y673420D01*
X1020071Y673244D01*
X1019818Y673044D01*
X1019569Y672821D01*
X1019724Y677264D01*
X1019954Y677029D01*
D02*
G37*
G36*
X653089Y672989D02*
X652829Y673204D01*
X652567Y673396D01*
X652302Y673566D01*
X652033Y673713D01*
X651762Y673838D01*
X651488Y673940D01*
X651211Y674019D01*
X650931Y674076D01*
X650648Y674110D01*
X650362Y674121D01*
X650201Y676153D01*
X650494Y676166D01*
X650779Y676204D01*
X651055Y676267D01*
X651323Y676356D01*
X651583Y676470D01*
X651835Y676609D01*
X652078Y676774D01*
X652312Y676965D01*
X652539Y677180D01*
X652757Y677421D01*
X653089Y672989D01*
D02*
G37*
G36*
X971078Y669317D02*
X970838Y669546D01*
X970593Y669752D01*
X970343Y669932D01*
X970087Y670089D01*
X969825Y670222D01*
X969557Y670331D01*
X969285Y670415D01*
X969006Y670475D01*
X968722Y670512D01*
X968432Y670524D01*
Y672556D01*
X968722Y672568D01*
X969006Y672604D01*
X969285Y672664D01*
X969557Y672749D01*
X969825Y672857D01*
X970087Y672990D01*
X970343Y673147D01*
X970593Y673328D01*
X970838Y673533D01*
X971078Y673762D01*
Y669317D01*
D02*
G37*
G36*
X643306Y666253D02*
X643061Y666479D01*
X642812Y666681D01*
X642558Y666859D01*
X642298Y667014D01*
X642034Y667145D01*
X641765Y667252D01*
X641491Y667335D01*
X641212Y667394D01*
X640928Y667430D01*
X640639Y667442D01*
X640600Y669474D01*
X640891Y669486D01*
X641175Y669523D01*
X641453Y669584D01*
X641725Y669670D01*
X641991Y669780D01*
X642250Y669914D01*
X642503Y670073D01*
X642750Y670257D01*
X642990Y670464D01*
X643224Y670697D01*
X643306Y666253D01*
D02*
G37*
G36*
X577001Y672271D02*
X577228Y672095D01*
X577468Y671941D01*
X577720Y671807D01*
X577986Y671694D01*
X578265Y671603D01*
X578557Y671532D01*
X578863Y671482D01*
X579181Y671453D01*
X579512Y671445D01*
X576361Y668311D01*
X576355Y668642D01*
X576327Y668960D01*
X576279Y669265D01*
X576209Y669557D01*
X576118Y669836D01*
X576006Y670101D01*
X575873Y670354D01*
X575719Y670594D01*
X575544Y670820D01*
X575347Y671034D01*
X576788Y672467D01*
X577001Y672271D01*
D02*
G37*
G36*
X1006779Y544756D02*
X1006808Y544453D01*
X1006856Y544165D01*
X1006922Y543889D01*
X1007008Y543628D01*
X1007113Y543380D01*
X1007237Y543145D01*
X1007380Y542925D01*
X1007542Y542718D01*
X1007722Y542524D01*
X1003278Y542524D01*
X1003458Y542718D01*
X1003620Y542925D01*
X1003763Y543145D01*
X1003887Y543380D01*
X1003992Y543628D01*
X1004078Y543889D01*
X1004144Y544165D01*
X1004192Y544453D01*
X1004221Y544756D01*
X1004230Y545072D01*
X1006770Y545072D01*
X1006779Y544756D01*
D02*
G37*
G36*
X941708Y549856D02*
X942170Y549480D01*
X942408Y549319D01*
X942650Y549175D01*
X942896Y549048D01*
X943146Y548939D01*
X943400Y548847D01*
X943659Y548773D01*
X943922Y548716D01*
X940371Y546673D01*
X940443Y546911D01*
X940488Y547145D01*
X940503Y547375D01*
X940490Y547601D01*
X940449Y547822D01*
X940378Y548039D01*
X940280Y548252D01*
X940153Y548461D01*
X939997Y548666D01*
X939813Y548867D01*
X941483Y550070D01*
X941708Y549856D01*
D02*
G37*
G36*
X956830Y542595D02*
X956866Y542311D01*
X956927Y542033D01*
X957011Y541759D01*
X957120Y541492D01*
X957252Y541230D01*
X957409Y540974D01*
X957590Y540724D01*
X957795Y540479D01*
X958025Y540239D01*
X953579D01*
X953809Y540479D01*
X954014Y540724D01*
X954195Y540974D01*
X954352Y541230D01*
X954484Y541492D01*
X954593Y541759D01*
X954677Y542033D01*
X954738Y542311D01*
X954774Y542595D01*
X954786Y542885D01*
X956818D01*
X956830Y542595D01*
D02*
G37*
G36*
X974065Y539559D02*
X974102Y539275D01*
X974163Y538996D01*
X974248Y538724D01*
X974357Y538458D01*
X974491Y538198D01*
X974649Y537943D01*
X974832Y537695D01*
X975039Y537453D01*
X975270Y537217D01*
X970825Y537165D01*
X971052Y537408D01*
X971256Y537656D01*
X971435Y537909D01*
X971590Y538167D01*
X971722Y538430D01*
X971830Y538698D01*
X971913Y538972D01*
X971973Y539251D01*
X972009Y539535D01*
X972021Y539824D01*
X974053Y539849D01*
X974065Y539559D01*
D02*
G37*
G36*
X699682Y540918D02*
X699480Y540696D01*
X699307Y540466D01*
X699165Y540227D01*
X699054Y539980D01*
X698972Y539725D01*
X698921Y539461D01*
X698899Y539188D01*
X698908Y538908D01*
X698948Y538618D01*
X699017Y538321D01*
X695164Y540538D01*
X695498Y540631D01*
X696121Y540849D01*
X696410Y540974D01*
X696944Y541255D01*
X697188Y541411D01*
X697418Y541578D01*
X697633Y541755D01*
X697833Y541942D01*
X699682Y540918D01*
D02*
G37*
G36*
X915733Y549258D02*
X915770Y548973D01*
X915833Y548696D01*
X915922Y548427D01*
X916035Y548167D01*
X916174Y547914D01*
X916338Y547669D01*
X916526Y547432D01*
X916741Y547203D01*
X916980Y546982D01*
X912544Y546696D01*
X912762Y546953D01*
X912956Y547213D01*
X913128Y547476D01*
X913276Y547743D01*
X913402Y548013D01*
X913505Y548286D01*
X913585Y548562D01*
X913642Y548842D01*
X913677Y549126D01*
X913688Y549412D01*
X915720Y549550D01*
X915733Y549258D01*
D02*
G37*
G36*
X661456Y550279D02*
X661494Y549995D01*
X661557Y549718D01*
X661646Y549450D01*
X661759Y549190D01*
X661899Y548938D01*
X662063Y548694D01*
X662253Y548459D01*
X662468Y548232D01*
X662709Y548013D01*
X658275Y547695D01*
X658491Y547953D01*
X658684Y548215D01*
X658854Y548480D01*
X659002Y548747D01*
X659127Y549018D01*
X659229Y549292D01*
X659309Y549569D01*
X659366Y549849D01*
X659400Y550132D01*
X659411Y550419D01*
X661443Y550572D01*
X661456Y550279D01*
D02*
G37*
G36*
X646080Y547454D02*
X645809Y547174D01*
X645312Y546598D01*
X645086Y546302D01*
X644678Y545696D01*
X644497Y545386D01*
X644178Y544750D01*
X644042Y544425D01*
X642315Y548521D01*
X642588Y548422D01*
X642856Y548357D01*
X643119Y548326D01*
X643376Y548329D01*
X643627Y548365D01*
X643874Y548435D01*
X644115Y548539D01*
X644350Y548676D01*
X644580Y548848D01*
X644805Y549053D01*
X646080Y547454D01*
D02*
G37*
G36*
X980478Y549984D02*
X980490Y549695D01*
X980526Y549411D01*
X980586Y549132D01*
X980669Y548858D01*
X980777Y548590D01*
X980908Y548326D01*
X981064Y548068D01*
X981243Y547815D01*
X981446Y547567D01*
X981674Y547325D01*
X977229Y547378D01*
X977460Y547614D01*
X977667Y547856D01*
X977850Y548104D01*
X978008Y548358D01*
X978142Y548618D01*
X978251Y548884D01*
X978336Y549157D01*
X978397Y549435D01*
X978434Y549719D01*
X978446Y550010D01*
X980478Y549984D01*
D02*
G37*
G36*
X674039Y549423D02*
X674051Y549136D01*
X674085Y548853D01*
X674143Y548573D01*
X674223Y548297D01*
X674327Y548024D01*
X674454Y547755D01*
X674604Y547490D01*
X674777Y547228D01*
X674973Y546970D01*
X675191Y546716D01*
X670753Y546964D01*
X670992Y547187D01*
X671205Y547419D01*
X671393Y547657D01*
X671556Y547904D01*
X671694Y548158D01*
X671806Y548420D01*
X671894Y548689D01*
X671957Y548966D01*
X671994Y549251D01*
X672007Y549543D01*
X674039Y549423D01*
D02*
G37*
G36*
X686022Y547751D02*
X685691Y547744D01*
X685373Y547716D01*
X685068Y547667D01*
X684775Y547596D01*
X684497Y547505D01*
X684231Y547393D01*
X683978Y547260D01*
X683738Y547105D01*
X683512Y546930D01*
X683298Y546734D01*
X681861Y548170D01*
X682058Y548384D01*
X682233Y548610D01*
X682388Y548850D01*
X682521Y549103D01*
X682633Y549369D01*
X682724Y549647D01*
X682795Y549940D01*
X682844Y550245D01*
X682872Y550563D01*
X682879Y550894D01*
X686022Y547751D01*
D02*
G37*
G36*
X1105856Y522051D02*
X1105675Y521858D01*
X1105513Y521651D01*
X1105370Y521430D01*
X1105246Y521196D01*
X1105141Y520948D01*
X1105055Y520687D01*
X1104989Y520412D01*
X1104941Y520123D01*
X1104912Y519821D01*
X1104903Y519505D01*
X1102363Y519507D01*
X1102354Y519823D01*
X1102325Y520126D01*
X1102277Y520414D01*
X1102211Y520690D01*
X1102125Y520951D01*
X1102020Y521199D01*
X1101897Y521434D01*
X1101754Y521655D01*
X1101592Y521862D01*
X1101411Y522056D01*
X1105856Y522051D01*
D02*
G37*
G36*
X728484Y523037D02*
X728520Y522753D01*
X728581Y522475D01*
X728665Y522201D01*
X728774Y521934D01*
X728906Y521672D01*
X729063Y521416D01*
X729244Y521166D01*
X729449Y520921D01*
X729678Y520681D01*
X725234D01*
X725463Y520921D01*
X725668Y521166D01*
X725849Y521416D01*
X726006Y521672D01*
X726138Y521934D01*
X726247Y522201D01*
X726331Y522475D01*
X726392Y522753D01*
X726428Y523037D01*
X726440Y523327D01*
X728472D01*
X728484Y523037D01*
D02*
G37*
G36*
X752155Y518480D02*
X752167Y518191D01*
X752203Y517907D01*
X752262Y517628D01*
X752345Y517354D01*
X752452Y517085D01*
X752583Y516820D01*
X752738Y516561D01*
X752916Y516306D01*
X753118Y516057D01*
X753344Y515812D01*
X748900Y515898D01*
X749132Y516132D01*
X749340Y516372D01*
X749523Y516618D01*
X749682Y516871D01*
X749817Y517131D01*
X749927Y517396D01*
X750013Y517668D01*
X750074Y517946D01*
X750111Y518230D01*
X750123Y518521D01*
X752155Y518480D01*
D02*
G37*
G36*
X733173Y509232D02*
X732976Y509018D01*
X732801Y508792D01*
X732646Y508552D01*
X732513Y508299D01*
X732401Y508033D01*
X732310Y507755D01*
X732239Y507462D01*
X732190Y507157D01*
X732162Y506839D01*
X732155Y506508D01*
X729012Y509651D01*
X729343Y509658D01*
X729661Y509686D01*
X729966Y509735D01*
X730258Y509806D01*
X730537Y509897D01*
X730803Y510009D01*
X731056Y510142D01*
X731296Y510297D01*
X731522Y510472D01*
X731736Y510668D01*
X733173Y509232D01*
D02*
G37*
G36*
X1078229Y517089D02*
X1078352Y517037D01*
X1078518Y516991D01*
X1078725Y516951D01*
X1078975Y516918D01*
X1079601Y516869D01*
X1080857Y516842D01*
Y511762D01*
X1080396Y511759D01*
X1078725Y511652D01*
X1078518Y511612D01*
X1078352Y511567D01*
X1078229Y511515D01*
X1078148Y511457D01*
Y517146D01*
X1078229Y517089D01*
D02*
G37*
G36*
X745418Y521553D02*
X745237Y521364D01*
X744946Y521008D01*
X744836Y520841D01*
X744749Y520682D01*
X744686Y520530D01*
X744646Y520385D01*
X744630Y520248D01*
X744637Y520118D01*
X744668Y519996D01*
X742305Y522035D01*
X742430Y522023D01*
X742565Y522034D01*
X742709Y522070D01*
X742862Y522130D01*
X743025Y522213D01*
X743197Y522321D01*
X743379Y522452D01*
X743570Y522607D01*
X743982Y522990D01*
X745418Y521553D01*
D02*
G37*
G36*
X689369Y534284D02*
X689407Y533999D01*
X689471Y533723D01*
X689559Y533455D01*
X689674Y533196D01*
X689814Y532945D01*
X689979Y532703D01*
X690170Y532469D01*
X690386Y532244D01*
X690628Y532028D01*
X686197Y531672D01*
X686411Y531933D01*
X686603Y532197D01*
X686772Y532463D01*
X686918Y532732D01*
X687042Y533004D01*
X687144Y533279D01*
X687223Y533556D01*
X687279Y533836D01*
X687313Y534119D01*
X687324Y534405D01*
X689356Y534577D01*
X689369Y534284D01*
D02*
G37*
G36*
X939290Y538412D02*
X939516Y538237D01*
X939756Y538082D01*
X940009Y537949D01*
X940275Y537837D01*
X940554Y537746D01*
X940846Y537675D01*
X941151Y537626D01*
X941469Y537598D01*
X941800Y537591D01*
X938657Y534448D01*
X938650Y534779D01*
X938622Y535097D01*
X938573Y535402D01*
X938502Y535695D01*
X938411Y535973D01*
X938299Y536239D01*
X938166Y536492D01*
X938011Y536732D01*
X937836Y536958D01*
X937639Y537172D01*
X939076Y538609D01*
X939290Y538412D01*
D02*
G37*
G36*
X993530Y532098D02*
X993571Y531814D01*
X993640Y531553D01*
X993737Y531315D01*
X993861Y531100D01*
X994012Y530907D01*
X994192Y530737D01*
X994398Y530590D01*
X994633Y530465D01*
X994895Y530363D01*
X990929Y528461D01*
X991034Y528764D01*
X991212Y529411D01*
X991284Y529755D01*
X991395Y530483D01*
X991462Y531265D01*
X991484Y532101D01*
X993516Y532404D01*
X993530Y532098D01*
D02*
G37*
G36*
X987042Y525836D02*
X987078Y525551D01*
X987139Y525273D01*
X987224Y525000D01*
X987333Y524733D01*
X987466Y524472D01*
X987623Y524217D01*
X987805Y523967D01*
X988010Y523723D01*
X988241Y523485D01*
X983795Y523466D01*
X984024Y523706D01*
X984228Y523952D01*
X984409Y524203D01*
X984565Y524460D01*
X984697Y524723D01*
X984806Y524991D01*
X984890Y525264D01*
X984950Y525542D01*
X984986Y525827D01*
X984998Y526116D01*
X987030Y526126D01*
X987042Y525836D01*
D02*
G37*
G36*
X706545Y530545D02*
X706556Y530258D01*
X706591Y529975D01*
X706649Y529695D01*
X706730Y529419D01*
X706834Y529147D01*
X706961Y528878D01*
X707111Y528613D01*
X707284Y528352D01*
X707480Y528094D01*
X707699Y527840D01*
X703261Y528079D01*
X703499Y528304D01*
X703712Y528535D01*
X703899Y528774D01*
X704062Y529021D01*
X704200Y529276D01*
X704313Y529538D01*
X704400Y529807D01*
X704463Y530084D01*
X704501Y530369D01*
X704513Y530661D01*
X706545Y530545D01*
D02*
G37*
G36*
X687143Y555813D02*
X687155Y555525D01*
X687190Y555241D01*
X687250Y554962D01*
X687333Y554687D01*
X687439Y554418D01*
X687570Y554153D01*
X687724Y553893D01*
X687901Y553638D01*
X688103Y553387D01*
X688328Y553142D01*
X683884Y553244D01*
X684117Y553477D01*
X684326Y553716D01*
X684510Y553962D01*
X684669Y554214D01*
X684804Y554473D01*
X684915Y554738D01*
X685001Y555009D01*
X685062Y555287D01*
X685099Y555572D01*
X685111Y555863D01*
X687143Y555813D01*
D02*
G37*
G36*
X1064608Y614002D02*
X1064493Y614216D01*
X1064355Y614408D01*
X1064194Y614577D01*
X1064009Y614724D01*
X1063802Y614848D01*
X1063572Y614949D01*
X1063318Y615028D01*
X1063042Y615085D01*
X1062743Y615119D01*
X1062420Y615130D01*
X1063449Y617670D01*
X1063764Y617675D01*
X1064361Y617716D01*
X1064644Y617752D01*
X1065177Y617855D01*
X1065427Y617922D01*
X1065895Y618086D01*
X1066114Y618184D01*
X1064608Y614002D01*
D02*
G37*
G36*
X842929Y614112D02*
X842743Y614300D01*
X842543Y614468D01*
X842328Y614616D01*
X842099Y614744D01*
X841855Y614853D01*
X841597Y614942D01*
X841324Y615011D01*
X841036Y615061D01*
X840734Y615090D01*
X840418Y615100D01*
X840532Y617640D01*
X840848Y617649D01*
X841150Y617677D01*
X841440Y617722D01*
X841717Y617786D01*
X841982Y617868D01*
X842233Y617969D01*
X842472Y618087D01*
X842698Y618224D01*
X842912Y618380D01*
X843113Y618553D01*
X842929Y614112D01*
D02*
G37*
G36*
X643564Y608033D02*
X643280Y608226D01*
X642714Y608551D01*
X642432Y608684D01*
X642150Y608795D01*
X641869Y608887D01*
X641587Y608958D01*
X641306Y609009D01*
X641026Y609039D01*
X640745Y609049D01*
X640368Y611082D01*
X640665Y611095D01*
X640950Y611135D01*
X641223Y611201D01*
X641484Y611294D01*
X641733Y611414D01*
X641970Y611560D01*
X642194Y611733D01*
X642407Y611933D01*
X642608Y612159D01*
X642796Y612411D01*
X643564Y608033D01*
D02*
G37*
G36*
X652970Y601370D02*
X652711Y601585D01*
X652449Y601778D01*
X652183Y601948D01*
X651915Y602095D01*
X651644Y602219D01*
X651370Y602321D01*
X651092Y602401D01*
X650812Y602457D01*
X650529Y602491D01*
X650243Y602503D01*
X650082Y604534D01*
X650376Y604547D01*
X650660Y604585D01*
X650937Y604649D01*
X651205Y604737D01*
X651465Y604851D01*
X651716Y604991D01*
X651959Y605156D01*
X652194Y605346D01*
X652420Y605562D01*
X652638Y605802D01*
X652970Y601370D01*
D02*
G37*
G36*
X1022643Y611451D02*
X1022671Y611133D01*
X1022720Y610828D01*
X1022791Y610536D01*
X1022882Y610257D01*
X1022994Y609991D01*
X1023127Y609739D01*
X1023282Y609499D01*
X1023457Y609272D01*
X1023653Y609059D01*
X1022217Y607622D01*
X1022003Y607818D01*
X1021777Y607994D01*
X1021537Y608148D01*
X1021284Y608281D01*
X1021018Y608394D01*
X1020740Y608485D01*
X1020447Y608555D01*
X1020142Y608604D01*
X1019824Y608633D01*
X1019493Y608640D01*
X1022636Y611783D01*
X1022643Y611451D01*
D02*
G37*
G36*
X847661Y618380D02*
X847874Y618224D01*
X848101Y618087D01*
X848339Y617969D01*
X848591Y617868D01*
X848856Y617786D01*
X849133Y617722D01*
X849423Y617677D01*
X849725Y617649D01*
X850040Y617640D01*
X850155Y615100D01*
X849838Y615090D01*
X849536Y615061D01*
X849249Y615011D01*
X848976Y614942D01*
X848717Y614853D01*
X848473Y614744D01*
X848244Y614616D01*
X848029Y614468D01*
X847829Y614300D01*
X847644Y614112D01*
X847460Y618553D01*
X847661Y618380D01*
D02*
G37*
G36*
X550405Y618159D02*
X550319Y618243D01*
X550192Y618319D01*
X550024Y618385D01*
X549814Y618442D01*
X549563Y618491D01*
X549270Y618531D01*
X548560Y618584D01*
X547685Y618602D01*
X548646Y623682D01*
X551221Y623790D01*
X550405Y618159D01*
D02*
G37*
G36*
X475802Y625258D02*
X475927Y625200D01*
X476095Y625148D01*
X476304Y625103D01*
X476555Y625066D01*
X477183Y625011D01*
X477977Y624983D01*
X478438Y624980D01*
X478212Y619900D01*
X477751Y619897D01*
X475880Y619771D01*
X475718Y619732D01*
X475598Y619687D01*
X475522Y619637D01*
X475718Y625323D01*
X475802Y625258D01*
D02*
G37*
G36*
X1189776Y620649D02*
X1189578Y620434D01*
X1189404Y620206D01*
X1189252Y619966D01*
X1189124Y619713D01*
X1189019Y619448D01*
X1188936Y619171D01*
X1188878Y618882D01*
X1188842Y618580D01*
X1188829Y618266D01*
X1188840Y617939D01*
X1185524Y620900D01*
X1185859Y620925D01*
X1186180Y620969D01*
X1186487Y621032D01*
X1186781Y621114D01*
X1187061Y621215D01*
X1187327Y621334D01*
X1187579Y621472D01*
X1187818Y621629D01*
X1188042Y621805D01*
X1188253Y622000D01*
X1189776Y620649D01*
D02*
G37*
G36*
X642636Y617845D02*
X642373Y617813D01*
X642114Y617761D01*
X641859Y617689D01*
X641607Y617596D01*
X641359Y617482D01*
X641115Y617348D01*
X640875Y617193D01*
X640639Y617018D01*
X640407Y616822D01*
X640178Y616605D01*
X638204Y618224D01*
X638422Y618456D01*
X638614Y618691D01*
X638779Y618929D01*
X638920Y619171D01*
X639035Y619416D01*
X639123Y619665D01*
X639187Y619916D01*
X639224Y620172D01*
X639236Y620430D01*
X639223Y620692D01*
X642636Y617845D01*
D02*
G37*
G36*
X1028187Y620234D02*
X1027982Y619989D01*
X1027801Y619739D01*
X1027645Y619483D01*
X1027512Y619221D01*
X1027403Y618954D01*
X1027319Y618681D01*
X1027258Y618402D01*
X1027222Y618118D01*
X1027210Y617828D01*
X1025178D01*
X1025166Y618118D01*
X1025130Y618402D01*
X1025070Y618681D01*
X1024985Y618954D01*
X1024876Y619221D01*
X1024744Y619483D01*
X1024587Y619739D01*
X1024406Y619989D01*
X1024201Y620234D01*
X1023972Y620474D01*
X1028417D01*
X1028187Y620234D01*
D02*
G37*
G36*
X776672Y585078D02*
X776633Y584788D01*
X776623Y584508D01*
X776645Y584235D01*
X776696Y583971D01*
X776778Y583716D01*
X776889Y583469D01*
X777031Y583230D01*
X777204Y583000D01*
X777406Y582778D01*
X775557Y581754D01*
X775357Y581941D01*
X775142Y582118D01*
X774912Y582285D01*
X774668Y582441D01*
X774408Y582587D01*
X774134Y582722D01*
X773541Y582961D01*
X773222Y583065D01*
X772888Y583158D01*
X776741Y585375D01*
X776672Y585078D01*
D02*
G37*
G36*
X721089Y584239D02*
X720882Y584089D01*
X720697Y583920D01*
X720534Y583732D01*
X720392Y583526D01*
X720272Y583300D01*
X720174Y583056D01*
X720098Y582792D01*
X720043Y582510D01*
X720011Y582210D01*
X720000Y581890D01*
X717460Y582461D01*
X717453Y582775D01*
X717395Y583370D01*
X717344Y583653D01*
X717279Y583925D01*
X717199Y584186D01*
X717104Y584437D01*
X716995Y584678D01*
X716872Y584909D01*
X716734Y585129D01*
X721089Y584239D01*
D02*
G37*
G36*
X681703Y582490D02*
X681543Y582281D01*
X681402Y582059D01*
X681279Y581823D01*
X681176Y581574D01*
X681091Y581312D01*
X681025Y581036D01*
X680978Y580747D01*
X680949Y580445D01*
X680940Y580129D01*
X678400Y580098D01*
X678390Y580414D01*
X678362Y580716D01*
X678313Y581004D01*
X678246Y581279D01*
X678159Y581540D01*
X678053Y581787D01*
X677928Y582020D01*
X677784Y582239D01*
X677620Y582444D01*
X677437Y582635D01*
X681882Y582686D01*
X681703Y582490D01*
D02*
G37*
G36*
X928316Y556018D02*
X928327Y555731D01*
X928362Y555448D01*
X928419Y555168D01*
X928499Y554892D01*
X928602Y554618D01*
X928728Y554348D01*
X928877Y554082D01*
X929049Y553819D01*
X929243Y553559D01*
X929461Y553303D01*
X925025Y553583D01*
X925264Y553804D01*
X925478Y554034D01*
X925667Y554271D01*
X925831Y554516D01*
X925969Y554769D01*
X926083Y555030D01*
X926171Y555299D01*
X926234Y555576D01*
X926271Y555861D01*
X926284Y556153D01*
X928316Y556018D01*
D02*
G37*
G36*
X910373Y580885D02*
X910138Y580656D01*
X909927Y580420D01*
X909741Y580177D01*
X909580Y579927D01*
X909444Y579671D01*
X909333Y579407D01*
X909246Y579137D01*
X909184Y578859D01*
X909147Y578574D01*
X909134Y578283D01*
X907102Y578363D01*
X907091Y578651D01*
X907056Y578935D01*
X906997Y579214D01*
X906915Y579489D01*
X906809Y579760D01*
X906681Y580027D01*
X906528Y580289D01*
X906353Y580547D01*
X906154Y580801D01*
X905931Y581050D01*
X910373Y580885D01*
D02*
G37*
G36*
X711430Y586073D02*
X711413Y585825D01*
X711425Y585579D01*
X711466Y585335D01*
X711538Y585093D01*
X711638Y584852D01*
X711768Y584613D01*
X711928Y584375D01*
X712117Y584139D01*
X712336Y583905D01*
X710072Y582577D01*
X709846Y582794D01*
X709385Y583176D01*
X709151Y583343D01*
X708915Y583492D01*
X708676Y583624D01*
X708435Y583740D01*
X708191Y583838D01*
X707945Y583920D01*
X707696Y583984D01*
X711477Y586322D01*
X711430Y586073D01*
D02*
G37*
G36*
X766880Y590707D02*
X766675Y590462D01*
X766494Y590212D01*
X766337Y589955D01*
X766205Y589694D01*
X766096Y589426D01*
X766011Y589153D01*
X765951Y588875D01*
X765915Y588591D01*
X765903Y588301D01*
X763871D01*
X763859Y588591D01*
X763823Y588875D01*
X763762Y589153D01*
X763678Y589426D01*
X763569Y589694D01*
X763437Y589955D01*
X763280Y590212D01*
X763099Y590462D01*
X762894Y590707D01*
X762664Y590946D01*
X767109D01*
X766880Y590707D01*
D02*
G37*
G36*
X916812Y591505D02*
X916850Y591460D01*
X917121Y591174D01*
X918092Y590193D01*
X916296Y588397D01*
X916138Y588553D01*
X915639Y588991D01*
X915547Y589054D01*
X915469Y589099D01*
X915404Y589126D01*
X915353Y589134D01*
X915315Y589124D01*
X916799Y591525D01*
X916812Y591505D01*
D02*
G37*
G36*
X952999Y591045D02*
X952981Y590797D01*
X952993Y590551D01*
X953035Y590307D01*
X953106Y590065D01*
X953207Y589824D01*
X953337Y589585D01*
X953497Y589347D01*
X953686Y589111D01*
X953904Y588877D01*
X951640Y587549D01*
X951414Y587766D01*
X950954Y588148D01*
X950720Y588314D01*
X950484Y588464D01*
X950245Y588596D01*
X950003Y588711D01*
X949760Y588810D01*
X949513Y588892D01*
X949265Y588956D01*
X953045Y591294D01*
X952999Y591045D01*
D02*
G37*
G36*
X1001056Y586876D02*
X1000894Y586669D01*
X1000751Y586448D01*
X1000627Y586214D01*
X1000522Y585966D01*
X1000437Y585704D01*
X1000370Y585429D01*
X1000322Y585140D01*
X1000294Y584838D01*
X1000284Y584522D01*
X997744D01*
X997735Y584838D01*
X997706Y585140D01*
X997658Y585429D01*
X997592Y585704D01*
X997506Y585966D01*
X997401Y586214D01*
X997278Y586448D01*
X997135Y586669D01*
X996973Y586876D01*
X996792Y587070D01*
X1001237D01*
X1001056Y586876D01*
D02*
G37*
G36*
X962305Y589651D02*
X962114Y589470D01*
X961943Y589274D01*
X961792Y589062D01*
X961662Y588836D01*
X961551Y588594D01*
X961461Y588338D01*
X961390Y588066D01*
X961340Y587779D01*
X961310Y587477D01*
X961300Y587160D01*
X958760Y587334D01*
X958751Y587649D01*
X958724Y587952D01*
X958680Y588242D01*
X958617Y588520D01*
X958537Y588786D01*
X958439Y589039D01*
X958323Y589280D01*
X958190Y589509D01*
X958038Y589726D01*
X957869Y589930D01*
X962305Y589651D01*
D02*
G37*
G36*
X510576Y775504D02*
X510337Y775733D01*
X510092Y775938D01*
X509841Y776119D01*
X509585Y776276D01*
X509323Y776409D01*
X509056Y776517D01*
X508783Y776602D01*
X508504Y776662D01*
X508220Y776698D01*
X507930Y776710D01*
Y778742D01*
X508220Y778754D01*
X508504Y778791D01*
X508783Y778851D01*
X509056Y778935D01*
X509323Y779044D01*
X509585Y779177D01*
X509841Y779333D01*
X510092Y779514D01*
X510337Y779719D01*
X510576Y779949D01*
Y775504D01*
D02*
G37*
G36*
X977272Y780687D02*
X977300Y780369D01*
X977349Y780064D01*
X977420Y779771D01*
X977511Y779493D01*
X977623Y779227D01*
X977756Y778974D01*
X977911Y778734D01*
X978086Y778508D01*
X978282Y778294D01*
X976846Y776858D01*
X976632Y777054D01*
X976406Y777229D01*
X976166Y777384D01*
X975913Y777517D01*
X975647Y777629D01*
X975368Y777720D01*
X975076Y777791D01*
X974771Y777840D01*
X974453Y777868D01*
X974122Y777875D01*
X977265Y781018D01*
X977272Y780687D01*
D02*
G37*
G36*
X585214Y773112D02*
X584975Y773342D01*
X584730Y773547D01*
X584479Y773728D01*
X584223Y773885D01*
X583961Y774017D01*
X583694Y774126D01*
X583421Y774210D01*
X583142Y774271D01*
X582858Y774307D01*
X582568Y774319D01*
Y776351D01*
X582858Y776363D01*
X583142Y776399D01*
X583421Y776460D01*
X583694Y776544D01*
X583961Y776653D01*
X584223Y776785D01*
X584479Y776942D01*
X584730Y777123D01*
X584975Y777328D01*
X585214Y777558D01*
Y773112D01*
D02*
G37*
G36*
X955443Y771211D02*
X955487Y770890D01*
X955550Y770583D01*
X955632Y770289D01*
X955733Y770009D01*
X955852Y769743D01*
X955990Y769491D01*
X956148Y769252D01*
X956323Y769028D01*
X956518Y768817D01*
X955167Y767294D01*
X954952Y767492D01*
X954724Y767666D01*
X954484Y767818D01*
X954231Y767946D01*
X953966Y768051D01*
X953689Y768133D01*
X953400Y768192D01*
X953098Y768228D01*
X952784Y768241D01*
X952457Y768230D01*
X955417Y771546D01*
X955443Y771211D01*
D02*
G37*
G36*
X758580Y773468D02*
X758592Y773180D01*
X758627Y772896D01*
X758685Y772617D01*
X758766Y772341D01*
X758871Y772070D01*
X759000Y771803D01*
X759151Y771539D01*
X759326Y771280D01*
X759524Y771025D01*
X759746Y770774D01*
X755305Y770965D01*
X755541Y771192D01*
X755752Y771426D01*
X755939Y771668D01*
X756100Y771917D01*
X756237Y772172D01*
X756349Y772436D01*
X756436Y772706D01*
X756498Y772983D01*
X756535Y773268D01*
X756548Y773560D01*
X758580Y773468D01*
D02*
G37*
G36*
X693962Y779897D02*
X694000Y779612D01*
X694063Y779336D01*
X694152Y779067D01*
X694266Y778808D01*
X694405Y778556D01*
X694570Y778313D01*
X694760Y778078D01*
X694975Y777851D01*
X695216Y777632D01*
X690783Y777306D01*
X690999Y777565D01*
X691191Y777827D01*
X691361Y778092D01*
X691509Y778360D01*
X691634Y778632D01*
X691736Y778906D01*
X691815Y779183D01*
X691872Y779463D01*
X691906Y779746D01*
X691917Y780032D01*
X693949Y780190D01*
X693962Y779897D01*
D02*
G37*
G36*
X510576Y785483D02*
X510337Y785712D01*
X510092Y785917D01*
X509841Y786098D01*
X509585Y786255D01*
X509323Y786387D01*
X509056Y786496D01*
X508783Y786581D01*
X508504Y786641D01*
X508220Y786677D01*
X507930Y786689D01*
Y788721D01*
X508220Y788733D01*
X508504Y788769D01*
X508783Y788830D01*
X509056Y788914D01*
X509323Y789023D01*
X509585Y789155D01*
X509841Y789312D01*
X510092Y789493D01*
X510337Y789698D01*
X510576Y789928D01*
Y785483D01*
D02*
G37*
G36*
X752233Y787943D02*
X752269Y787659D01*
X752330Y787381D01*
X752414Y787108D01*
X752523Y786841D01*
X752656Y786579D01*
X752813Y786323D01*
X752994Y786073D01*
X753199Y785828D01*
X753429Y785590D01*
X748984Y785583D01*
X749213Y785822D01*
X749418Y786068D01*
X749599Y786319D01*
X749755Y786575D01*
X749888Y786837D01*
X749996Y787104D01*
X750081Y787377D01*
X750141Y787656D01*
X750177Y787940D01*
X750189Y788230D01*
X752221Y788233D01*
X752233Y787943D01*
D02*
G37*
G36*
X1004958Y786021D02*
X1004986Y785703D01*
X1005035Y785398D01*
X1005106Y785106D01*
X1005197Y784827D01*
X1005309Y784561D01*
X1005442Y784308D01*
X1005597Y784068D01*
X1005772Y783842D01*
X1005968Y783628D01*
X1004532Y782191D01*
X1004318Y782388D01*
X1004092Y782563D01*
X1003852Y782718D01*
X1003599Y782851D01*
X1003333Y782963D01*
X1003055Y783054D01*
X1002762Y783125D01*
X1002457Y783174D01*
X1002139Y783202D01*
X1001808Y783209D01*
X1004951Y786352D01*
X1004958Y786021D01*
D02*
G37*
G36*
X966096Y781449D02*
X966124Y781131D01*
X966173Y780826D01*
X966244Y780534D01*
X966335Y780255D01*
X966447Y779989D01*
X966580Y779736D01*
X966735Y779496D01*
X966910Y779270D01*
X967106Y779056D01*
X965670Y777619D01*
X965456Y777816D01*
X965230Y777991D01*
X964990Y778146D01*
X964737Y778279D01*
X964471Y778391D01*
X964193Y778482D01*
X963900Y778553D01*
X963595Y778602D01*
X963277Y778630D01*
X962946Y778637D01*
X966089Y781780D01*
X966096Y781449D01*
D02*
G37*
G36*
X994036Y785767D02*
X994064Y785449D01*
X994113Y785144D01*
X994184Y784852D01*
X994275Y784573D01*
X994387Y784307D01*
X994520Y784054D01*
X994675Y783814D01*
X994850Y783588D01*
X995046Y783374D01*
X993610Y781937D01*
X993396Y782134D01*
X993170Y782309D01*
X992930Y782464D01*
X992677Y782597D01*
X992411Y782709D01*
X992132Y782800D01*
X991840Y782871D01*
X991535Y782920D01*
X991217Y782948D01*
X990886Y782955D01*
X994029Y786098D01*
X994036Y785767D01*
D02*
G37*
G36*
X644406Y762483D02*
X644141Y762459D01*
X643881Y762414D01*
X643624Y762348D01*
X643372Y762260D01*
X643123Y762151D01*
X642878Y762020D01*
X642638Y761868D01*
X642401Y761694D01*
X642168Y761499D01*
X641939Y761283D01*
X640027Y762963D01*
X640244Y763195D01*
X640437Y763429D01*
X640604Y763668D01*
X640747Y763910D01*
X640865Y764155D01*
X640958Y764404D01*
X641027Y764657D01*
X641070Y764913D01*
X641089Y765173D01*
X641083Y765436D01*
X644406Y762483D01*
D02*
G37*
G36*
X690318Y765775D02*
X690545Y765600D01*
X690784Y765445D01*
X691037Y765312D01*
X691303Y765200D01*
X691582Y765109D01*
X691874Y765038D01*
X692179Y764989D01*
X692497Y764961D01*
X692829Y764954D01*
X689686Y761811D01*
X689678Y762142D01*
X689650Y762460D01*
X689601Y762766D01*
X689531Y763058D01*
X689440Y763336D01*
X689327Y763602D01*
X689194Y763855D01*
X689040Y764095D01*
X688864Y764321D01*
X688668Y764535D01*
X690105Y765972D01*
X690318Y765775D01*
D02*
G37*
G36*
X1065831Y764785D02*
X1066065Y764592D01*
X1066303Y764421D01*
X1066545Y764274D01*
X1066790Y764149D01*
X1067040Y764048D01*
X1067293Y763970D01*
X1067550Y763915D01*
X1067811Y763883D01*
X1068076Y763874D01*
X1064933Y760731D01*
X1064924Y760996D01*
X1064892Y761257D01*
X1064837Y761514D01*
X1064759Y761767D01*
X1064658Y762017D01*
X1064533Y762262D01*
X1064386Y762504D01*
X1064215Y762742D01*
X1064022Y762976D01*
X1063805Y763206D01*
X1065601Y765002D01*
X1065831Y764785D01*
D02*
G37*
G36*
X792882Y757846D02*
X792665Y757618D01*
X792289Y757154D01*
X792128Y756916D01*
X791986Y756675D01*
X791862Y756431D01*
X791757Y756184D01*
X791671Y755933D01*
X791603Y755678D01*
X791554Y755421D01*
X788962Y759032D01*
X789219Y759000D01*
X789472Y758997D01*
X789724Y759021D01*
X789972Y759073D01*
X790218Y759153D01*
X790462Y759260D01*
X790703Y759395D01*
X790941Y759557D01*
X791177Y759748D01*
X791410Y759966D01*
X792882Y757846D01*
D02*
G37*
G36*
X576275Y759703D02*
X576035Y759932D01*
X575790Y760137D01*
X575540Y760318D01*
X575284Y760475D01*
X575022Y760608D01*
X574755Y760716D01*
X574482Y760801D01*
X574203Y760861D01*
X573919Y760897D01*
X573629Y760909D01*
Y762941D01*
X573919Y762953D01*
X574203Y762990D01*
X574482Y763050D01*
X574755Y763134D01*
X575022Y763243D01*
X575284Y763376D01*
X575540Y763532D01*
X575790Y763713D01*
X576035Y763919D01*
X576275Y764148D01*
Y759703D01*
D02*
G37*
G36*
X915734Y767318D02*
X915960Y767143D01*
X916200Y766989D01*
X916453Y766855D01*
X916719Y766743D01*
X916998Y766652D01*
X917290Y766581D01*
X917595Y766532D01*
X917913Y766504D01*
X918244Y766497D01*
X915101Y763354D01*
X915094Y763685D01*
X915066Y764003D01*
X915017Y764309D01*
X914947Y764601D01*
X914855Y764880D01*
X914743Y765145D01*
X914610Y765398D01*
X914455Y765638D01*
X914280Y765864D01*
X914084Y766078D01*
X915520Y767515D01*
X915734Y767318D01*
D02*
G37*
G36*
X966858Y770019D02*
X966886Y769701D01*
X966935Y769396D01*
X967006Y769103D01*
X967097Y768825D01*
X967209Y768559D01*
X967342Y768306D01*
X967497Y768066D01*
X967672Y767840D01*
X967868Y767626D01*
X966432Y766189D01*
X966218Y766386D01*
X965992Y766561D01*
X965752Y766716D01*
X965499Y766849D01*
X965233Y766961D01*
X964955Y767052D01*
X964662Y767123D01*
X964357Y767172D01*
X964039Y767200D01*
X963708Y767207D01*
X966851Y770350D01*
X966858Y770019D01*
D02*
G37*
G36*
X791482Y770101D02*
X791471Y769850D01*
X791489Y769602D01*
X791535Y769355D01*
X791610Y769111D01*
X791714Y768869D01*
X791846Y768628D01*
X792007Y768391D01*
X792197Y768155D01*
X792415Y767921D01*
X790219Y766525D01*
X789992Y766741D01*
X789530Y767121D01*
X789294Y767285D01*
X789056Y767431D01*
X788814Y767559D01*
X788569Y767670D01*
X788322Y767763D01*
X788071Y767838D01*
X787818Y767896D01*
X791522Y770353D01*
X791482Y770101D01*
D02*
G37*
G36*
X510576Y765525D02*
X510337Y765754D01*
X510092Y765959D01*
X509841Y766140D01*
X509585Y766297D01*
X509323Y766430D01*
X509056Y766538D01*
X508783Y766623D01*
X508504Y766683D01*
X508220Y766719D01*
X507930Y766731D01*
Y768763D01*
X508220Y768775D01*
X508504Y768812D01*
X508783Y768872D01*
X509056Y768957D01*
X509323Y769065D01*
X509585Y769198D01*
X509841Y769355D01*
X510092Y769536D01*
X510337Y769741D01*
X510576Y769970D01*
Y765525D01*
D02*
G37*
G36*
X882128Y763508D02*
X882003Y763721D01*
X881856Y763912D01*
X881687Y764080D01*
X881496Y764226D01*
X881283Y764349D01*
X881049Y764450D01*
X880792Y764529D01*
X880514Y764585D01*
X880214Y764619D01*
X879893Y764630D01*
X880781Y767170D01*
X881095Y767176D01*
X881692Y767222D01*
X881975Y767263D01*
X882510Y767379D01*
X882762Y767454D01*
X883004Y767541D01*
X883236Y767639D01*
X883458Y767749D01*
X882128Y763508D01*
D02*
G37*
G36*
X608285Y767987D02*
X608490Y767824D01*
X608709Y767679D01*
X608942Y767554D01*
X609189Y767448D01*
X609450Y767361D01*
X609724Y767294D01*
X610013Y767246D01*
X610315Y767217D01*
X610631Y767207D01*
X610598Y764667D01*
X610283Y764658D01*
X609980Y764630D01*
X609691Y764583D01*
X609415Y764517D01*
X609153Y764432D01*
X608904Y764328D01*
X608668Y764206D01*
X608446Y764065D01*
X608237Y763905D01*
X608041Y763726D01*
X608093Y768170D01*
X608285Y767987D01*
D02*
G37*
G36*
X1014864Y789831D02*
X1014892Y789513D01*
X1014941Y789208D01*
X1015012Y788915D01*
X1015103Y788637D01*
X1015215Y788371D01*
X1015348Y788118D01*
X1015503Y787878D01*
X1015678Y787652D01*
X1015874Y787438D01*
X1014438Y786002D01*
X1014224Y786198D01*
X1013998Y786373D01*
X1013758Y786528D01*
X1013505Y786661D01*
X1013239Y786773D01*
X1012961Y786864D01*
X1012668Y786935D01*
X1012363Y786984D01*
X1012045Y787012D01*
X1011714Y787019D01*
X1014857Y790162D01*
X1014864Y789831D01*
D02*
G37*
G36*
X987803Y834665D02*
X987606Y834409D01*
X987432Y834148D01*
X987281Y833884D01*
X987153Y833616D01*
X987049Y833344D01*
X986968Y833069D01*
X986910Y832789D01*
X986875Y832505D01*
X986863Y832218D01*
X984831Y832115D01*
X984819Y832407D01*
X984781Y832691D01*
X984719Y832969D01*
X984632Y833239D01*
X984519Y833501D01*
X984382Y833756D01*
X984220Y834004D01*
X984033Y834245D01*
X983821Y834478D01*
X983584Y834703D01*
X988024Y834917D01*
X987803Y834665D01*
D02*
G37*
G36*
X747165Y835954D02*
X746926Y835732D01*
X746712Y835502D01*
X746523Y835264D01*
X746360Y835018D01*
X746222Y834765D01*
X746109Y834504D01*
X746021Y834235D01*
X745958Y833958D01*
X745920Y833673D01*
X745907Y833381D01*
X743875Y833510D01*
X743864Y833797D01*
X743829Y834080D01*
X743772Y834360D01*
X743692Y834637D01*
X743588Y834910D01*
X743462Y835179D01*
X743313Y835445D01*
X743141Y835708D01*
X742946Y835967D01*
X742728Y836222D01*
X747165Y835954D01*
D02*
G37*
G36*
X979356Y832680D02*
X979316Y832390D01*
X979307Y832110D01*
X979329Y831837D01*
X979380Y831573D01*
X979462Y831318D01*
X979573Y831071D01*
X979715Y830832D01*
X979888Y830602D01*
X980090Y830380D01*
X978241Y829356D01*
X978041Y829543D01*
X977826Y829720D01*
X977596Y829887D01*
X977352Y830043D01*
X977092Y830189D01*
X976818Y830324D01*
X976225Y830563D01*
X975906Y830667D01*
X975572Y830760D01*
X979425Y832977D01*
X979356Y832680D01*
D02*
G37*
G36*
X564145Y822708D02*
X564093Y822585D01*
X564047Y822419D01*
X564008Y822212D01*
X563974Y821962D01*
X563925Y821336D01*
X563898Y820080D01*
X558818D01*
X558815Y820541D01*
X558708Y822212D01*
X558669Y822419D01*
X558623Y822585D01*
X558571Y822708D01*
X558513Y822788D01*
X564203D01*
X564145Y822708D01*
D02*
G37*
G36*
X740134Y828328D02*
X739932Y828080D01*
X739753Y827826D01*
X739598Y827567D01*
X739466Y827303D01*
X739359Y827035D01*
X739276Y826761D01*
X739216Y826482D01*
X739180Y826198D01*
X739168Y825909D01*
X737136Y825877D01*
X737124Y826167D01*
X737087Y826451D01*
X737027Y826730D01*
X736941Y827002D01*
X736831Y827268D01*
X736697Y827527D01*
X736539Y827781D01*
X736356Y828028D01*
X736148Y828270D01*
X735916Y828505D01*
X740361Y828571D01*
X740134Y828328D01*
D02*
G37*
G36*
X711301Y840303D02*
X711139Y840096D01*
X710997Y839875D01*
X710873Y839641D01*
X710768Y839393D01*
X710682Y839132D01*
X710616Y838857D01*
X710568Y838568D01*
X710539Y838265D01*
X710530Y837949D01*
X707990D01*
X707980Y838265D01*
X707952Y838568D01*
X707904Y838857D01*
X707837Y839132D01*
X707752Y839393D01*
X707647Y839641D01*
X707523Y839875D01*
X707380Y840096D01*
X707218Y840303D01*
X707037Y840497D01*
X711482D01*
X711301Y840303D01*
D02*
G37*
G36*
X1083068Y843077D02*
X1083104Y842793D01*
X1083165Y842514D01*
X1083249Y842242D01*
X1083358Y841974D01*
X1083490Y841712D01*
X1083647Y841456D01*
X1083828Y841206D01*
X1084033Y840961D01*
X1084262Y840721D01*
X1079818D01*
X1080047Y840961D01*
X1080252Y841206D01*
X1080433Y841456D01*
X1080590Y841712D01*
X1080722Y841974D01*
X1080831Y842242D01*
X1080915Y842514D01*
X1080976Y842793D01*
X1081012Y843077D01*
X1081024Y843367D01*
X1083056D01*
X1083068Y843077D01*
D02*
G37*
G36*
X1098435Y849719D02*
X1098473Y849435D01*
X1098535Y849157D01*
X1098622Y848887D01*
X1098733Y848624D01*
X1098870Y848367D01*
X1099031Y848118D01*
X1099217Y847876D01*
X1099428Y847641D01*
X1099664Y847412D01*
X1095223Y847235D01*
X1095445Y847485D01*
X1095643Y847739D01*
X1095818Y847998D01*
X1095970Y848261D01*
X1096099Y848528D01*
X1096204Y848799D01*
X1096286Y849074D01*
X1096344Y849354D01*
X1096379Y849637D01*
X1096391Y849925D01*
X1098423Y850011D01*
X1098435Y849719D01*
D02*
G37*
G36*
X949716Y843148D02*
X949748Y842887D01*
X949803Y842630D01*
X949882Y842377D01*
X949983Y842128D01*
X950107Y841882D01*
X950255Y841640D01*
X950425Y841403D01*
X950619Y841169D01*
X950835Y840938D01*
X949039Y839142D01*
X948809Y839359D01*
X948575Y839553D01*
X948337Y839723D01*
X948095Y839871D01*
X947850Y839995D01*
X947600Y840096D01*
X947347Y840174D01*
X947090Y840229D01*
X946829Y840261D01*
X946564Y840270D01*
X949707Y843413D01*
X949716Y843148D01*
D02*
G37*
G36*
X724519Y840054D02*
X724398Y839964D01*
X724290Y839848D01*
X724194Y839706D01*
X724111Y839539D01*
X724041Y839346D01*
X723984Y839128D01*
X723939Y838885D01*
X723907Y838615D01*
X723888Y838321D01*
X723882Y838001D01*
X721342Y838073D01*
X721336Y838423D01*
X721293Y839041D01*
X721255Y839309D01*
X721206Y839551D01*
X721147Y839765D01*
X721077Y839952D01*
X720995Y840112D01*
X720903Y840246D01*
X720801Y840352D01*
X724519Y840054D01*
D02*
G37*
G36*
X964533Y840184D02*
X964284Y840119D01*
X964037Y840038D01*
X963794Y839939D01*
X963552Y839824D01*
X963314Y839691D01*
X963077Y839542D01*
X962843Y839376D01*
X962383Y838993D01*
X962157Y838776D01*
X959893Y840105D01*
X960111Y840339D01*
X960301Y840575D01*
X960460Y840812D01*
X960590Y841051D01*
X960691Y841292D01*
X960762Y841535D01*
X960804Y841779D01*
X960816Y842025D01*
X960799Y842272D01*
X960752Y842521D01*
X964533Y840184D01*
D02*
G37*
G36*
X829683Y798530D02*
X829902Y797907D01*
X830026Y797618D01*
X830307Y797084D01*
X830463Y796840D01*
X830630Y796610D01*
X830807Y796395D01*
X830994Y796195D01*
X829970Y794346D01*
X829748Y794548D01*
X829518Y794721D01*
X829279Y794863D01*
X829032Y794974D01*
X828777Y795056D01*
X828513Y795107D01*
X828240Y795129D01*
X827960Y795119D01*
X827670Y795080D01*
X827373Y795011D01*
X829590Y798864D01*
X829683Y798530D01*
D02*
G37*
G36*
X510121Y800680D02*
X510385Y800461D01*
X510504Y800380D01*
X510616Y800319D01*
X510719Y800277D01*
X510813Y800254D01*
X510900Y800251D01*
X510978Y800267D01*
X511048Y800302D01*
X509677Y797921D01*
X509670Y797990D01*
X509639Y798076D01*
X509584Y798179D01*
X509506Y798299D01*
X509404Y798437D01*
X509130Y798763D01*
X508540Y799382D01*
X509977Y800818D01*
X510121Y800680D01*
D02*
G37*
G36*
X654432Y795318D02*
X654442Y795040D01*
X654471Y794760D01*
X654520Y794480D01*
X654589Y794197D01*
X654677Y793914D01*
X654785Y793629D01*
X654912Y793344D01*
X655059Y793056D01*
X655412Y792478D01*
X651057Y793369D01*
X651312Y793549D01*
X651540Y793742D01*
X651742Y793948D01*
X651916Y794168D01*
X652064Y794400D01*
X652185Y794646D01*
X652279Y794905D01*
X652346Y795176D01*
X652387Y795461D01*
X652400Y795759D01*
X654432Y795318D01*
D02*
G37*
G36*
X978542Y790593D02*
X978570Y790275D01*
X978619Y789970D01*
X978690Y789678D01*
X978781Y789399D01*
X978893Y789133D01*
X979026Y788880D01*
X979181Y788640D01*
X979356Y788414D01*
X979553Y788200D01*
X978116Y786764D01*
X977902Y786960D01*
X977676Y787135D01*
X977436Y787290D01*
X977183Y787423D01*
X976917Y787535D01*
X976638Y787626D01*
X976346Y787697D01*
X976041Y787746D01*
X975723Y787774D01*
X975392Y787781D01*
X978535Y790924D01*
X978542Y790593D01*
D02*
G37*
G36*
X586625Y787414D02*
X586328Y787484D01*
X586040Y787525D01*
X585762Y787537D01*
X585493Y787519D01*
X585234Y787473D01*
X584985Y787397D01*
X584744Y787292D01*
X584514Y787158D01*
X584293Y786995D01*
X584081Y786803D01*
X583003Y788598D01*
X583191Y788799D01*
X583368Y789014D01*
X583534Y789243D01*
X583690Y789488D01*
X583836Y789747D01*
X583971Y790021D01*
X584210Y790614D01*
X584314Y790933D01*
X584408Y791267D01*
X586625Y787414D01*
D02*
G37*
G36*
X842002Y802188D02*
X842206Y801963D01*
X842422Y801764D01*
X842649Y801592D01*
X842888Y801447D01*
X843138Y801328D01*
X843400Y801235D01*
X843674Y801169D01*
X843959Y801129D01*
X844255Y801116D01*
X843906Y799084D01*
X843625Y799074D01*
X843344Y799043D01*
X843063Y798991D01*
X842783Y798919D01*
X842502Y798826D01*
X842221Y798712D01*
X841940Y798578D01*
X841660Y798423D01*
X841379Y798248D01*
X841099Y798051D01*
X841810Y802439D01*
X842002Y802188D01*
D02*
G37*
G36*
X509669Y811233D02*
X509899Y811061D01*
X510138Y810918D01*
X510386Y810804D01*
X510643Y810720D01*
X510909Y810665D01*
X511184Y810640D01*
X511468Y810644D01*
X511761Y810677D01*
X512063Y810740D01*
X509751Y806944D01*
X509665Y807279D01*
X509460Y807905D01*
X509341Y808195D01*
X509210Y808471D01*
X509067Y808732D01*
X508913Y808978D01*
X508747Y809209D01*
X508571Y809426D01*
X508382Y809627D01*
X509448Y811435D01*
X509669Y811233D01*
D02*
G37*
G36*
X1081645Y818629D02*
X1081673Y818326D01*
X1081721Y818038D01*
X1081787Y817763D01*
X1081873Y817501D01*
X1081978Y817253D01*
X1082102Y817019D01*
X1082245Y816798D01*
X1082407Y816591D01*
X1082588Y816397D01*
X1078143D01*
X1078324Y816591D01*
X1078485Y816798D01*
X1078628Y817019D01*
X1078752Y817253D01*
X1078857Y817501D01*
X1078943Y817763D01*
X1079009Y818038D01*
X1079057Y818326D01*
X1079086Y818629D01*
X1079095Y818945D01*
X1081635D01*
X1081645Y818629D01*
D02*
G37*
G36*
X587166Y802363D02*
X586843Y802383D01*
X586532Y802380D01*
X586233Y802352D01*
X585945Y802299D01*
X585669Y802222D01*
X585405Y802121D01*
X585153Y801995D01*
X584913Y801846D01*
X584684Y801671D01*
X584468Y801473D01*
X583167Y803046D01*
X583361Y803255D01*
X583537Y803479D01*
X583696Y803717D01*
X583837Y803968D01*
X583961Y804234D01*
X584067Y804514D01*
X584156Y804808D01*
X584227Y805116D01*
X584280Y805438D01*
X584316Y805774D01*
X587166Y802363D01*
D02*
G37*
G36*
X642581Y802165D02*
X642376Y801920D01*
X642195Y801670D01*
X642038Y801414D01*
X641906Y801152D01*
X641797Y800884D01*
X641713Y800611D01*
X641652Y800333D01*
X641616Y800049D01*
X641604Y799759D01*
X639572D01*
X639560Y800049D01*
X639524Y800333D01*
X639463Y800611D01*
X639379Y800884D01*
X639270Y801152D01*
X639138Y801414D01*
X638981Y801670D01*
X638800Y801920D01*
X638595Y802165D01*
X638366Y802405D01*
X642811D01*
X642581Y802165D01*
D02*
G37*
G36*
X667662Y802694D02*
X667674Y802405D01*
X667710Y802121D01*
X667769Y801842D01*
X667852Y801568D01*
X667960Y801299D01*
X668091Y801035D01*
X668245Y800776D01*
X668424Y800522D01*
X668626Y800273D01*
X668853Y800029D01*
X664408Y800105D01*
X664640Y800340D01*
X664848Y800580D01*
X665031Y800827D01*
X665190Y801081D01*
X665324Y801340D01*
X665434Y801606D01*
X665520Y801878D01*
X665581Y802156D01*
X665618Y802440D01*
X665630Y802731D01*
X667662Y802694D01*
D02*
G37*
G36*
X644679Y713704D02*
X644708Y713401D01*
X644755Y713113D01*
X644822Y712838D01*
X644908Y712576D01*
X645013Y712328D01*
X645136Y712094D01*
X645279Y711873D01*
X645441Y711666D01*
X645622Y711472D01*
X641177D01*
X641358Y711666D01*
X641520Y711873D01*
X641663Y712094D01*
X641787Y712328D01*
X641891Y712576D01*
X641977Y712838D01*
X642044Y713113D01*
X642092Y713401D01*
X642120Y713704D01*
X642130Y714020D01*
X644670D01*
X644679Y713704D01*
D02*
G37*
G36*
X610554Y716286D02*
X610748Y716058D01*
X610956Y715857D01*
X611177Y715683D01*
X611410Y715535D01*
X611657Y715414D01*
X611916Y715321D01*
X612188Y715254D01*
X612473Y715213D01*
X612771Y715200D01*
X612345Y713168D01*
X612066Y713158D01*
X611786Y713128D01*
X611505Y713079D01*
X611223Y713010D01*
X610940Y712921D01*
X610656Y712812D01*
X610371Y712684D01*
X610085Y712535D01*
X609510Y712180D01*
X610371Y716540D01*
X610554Y716286D01*
D02*
G37*
G36*
X661613Y713015D02*
X661624Y712732D01*
X661656Y712450D01*
X661710Y712169D01*
X661785Y711890D01*
X661882Y711612D01*
X662001Y711335D01*
X662141Y711059D01*
X662303Y710785D01*
X662486Y710512D01*
X662691Y710241D01*
X658280Y710785D01*
X658527Y710989D01*
X658748Y711203D01*
X658943Y711428D01*
X659112Y711662D01*
X659256Y711906D01*
X659373Y712161D01*
X659464Y712426D01*
X659529Y712700D01*
X659568Y712985D01*
X659581Y713280D01*
X661613Y713015D01*
D02*
G37*
G36*
X963441Y705966D02*
X963201Y706195D01*
X962956Y706400D01*
X962706Y706581D01*
X962450Y706738D01*
X962188Y706871D01*
X961920Y706979D01*
X961647Y707064D01*
X961369Y707124D01*
X961085Y707160D01*
X960795Y707172D01*
Y709204D01*
X961085Y709216D01*
X961369Y709252D01*
X961647Y709313D01*
X961920Y709397D01*
X962188Y709506D01*
X962450Y709639D01*
X962706Y709795D01*
X962956Y709976D01*
X963201Y710182D01*
X963441Y710411D01*
Y705966D01*
D02*
G37*
G36*
X908635Y707356D02*
X908395Y707585D01*
X908151Y707790D01*
X907900Y707971D01*
X907644Y708128D01*
X907382Y708261D01*
X907115Y708369D01*
X906842Y708454D01*
X906563Y708514D01*
X906279Y708550D01*
X905989Y708562D01*
Y710594D01*
X906279Y710606D01*
X906563Y710642D01*
X906842Y710703D01*
X907115Y710787D01*
X907382Y710896D01*
X907644Y711029D01*
X907900Y711185D01*
X908151Y711366D01*
X908395Y711572D01*
X908635Y711801D01*
Y707356D01*
D02*
G37*
G36*
X971078Y713296D02*
X970838Y713525D01*
X970593Y713730D01*
X970343Y713911D01*
X970087Y714068D01*
X969825Y714200D01*
X969557Y714309D01*
X969285Y714393D01*
X969006Y714454D01*
X968722Y714490D01*
X968432Y714502D01*
X968432Y716534D01*
X968722Y716546D01*
X969006Y716582D01*
X969285Y716643D01*
X969557Y716727D01*
X969825Y716836D01*
X970087Y716968D01*
X970343Y717125D01*
X970593Y717306D01*
X970838Y717511D01*
X971078Y717740D01*
X971078Y713296D01*
D02*
G37*
G36*
X653514Y719271D02*
X653550Y718858D01*
X653582Y718684D01*
X653623Y718531D01*
X653672Y718400D01*
X653731Y718291D01*
X653799Y718203D01*
X653875Y718137D01*
X653961Y718092D01*
X651102Y717777D01*
X651174Y717838D01*
X651237Y717925D01*
X651294Y718036D01*
X651343Y718172D01*
X651384Y718333D01*
X651418Y718519D01*
X651444Y718729D01*
X651474Y719224D01*
X651478Y719509D01*
X653510D01*
X653514Y719271D01*
D02*
G37*
G36*
X838807Y722441D02*
X839015Y722280D01*
X839235Y722137D01*
X839470Y722013D01*
X839717Y721908D01*
X839979Y721822D01*
X840254Y721756D01*
X840543Y721708D01*
X840845Y721680D01*
X841161Y721670D01*
Y719130D01*
X840845Y719120D01*
X840543Y719092D01*
X840254Y719044D01*
X839979Y718978D01*
X839717Y718892D01*
X839470Y718787D01*
X839235Y718663D01*
X839015Y718520D01*
X838807Y718359D01*
X838614Y718177D01*
Y722623D01*
X838807Y722441D01*
D02*
G37*
G36*
X510576Y715631D02*
X510337Y715860D01*
X510092Y716065D01*
X509841Y716246D01*
X509585Y716403D01*
X509323Y716536D01*
X509056Y716644D01*
X508783Y716729D01*
X508504Y716789D01*
X508220Y716825D01*
X507930Y716837D01*
Y718869D01*
X508220Y718881D01*
X508504Y718918D01*
X508783Y718978D01*
X509056Y719062D01*
X509323Y719171D01*
X509585Y719304D01*
X509841Y719461D01*
X510092Y719641D01*
X510337Y719847D01*
X510576Y720076D01*
Y715631D01*
D02*
G37*
G36*
X599826Y715647D02*
X599678Y715490D01*
X599547Y715313D01*
X599434Y715117D01*
X599338Y714903D01*
X599259Y714669D01*
X599198Y714416D01*
X599154Y714145D01*
X599128Y713854D01*
X599119Y713544D01*
X597088D01*
X597079Y713854D01*
X597053Y714145D01*
X597009Y714416D01*
X596948Y714669D01*
X596869Y714903D01*
X596773Y715117D01*
X596660Y715313D01*
X596529Y715490D01*
X596381Y715647D01*
X596215Y715786D01*
X599992D01*
X599826Y715647D01*
D02*
G37*
G36*
X916272Y714686D02*
X916032Y714915D01*
X915788Y715120D01*
X915537Y715301D01*
X915281Y715458D01*
X915019Y715590D01*
X914752Y715699D01*
X914479Y715783D01*
X914200Y715844D01*
X913916Y715880D01*
X913626Y715892D01*
Y717924D01*
X913916Y717936D01*
X914200Y717972D01*
X914479Y718033D01*
X914752Y718117D01*
X915019Y718226D01*
X915281Y718358D01*
X915537Y718515D01*
X915788Y718696D01*
X916032Y718901D01*
X916272Y719130D01*
Y714686D01*
D02*
G37*
G36*
X577149Y697155D02*
X577374Y696979D01*
X577613Y696822D01*
X577865Y696684D01*
X578132Y696565D01*
X578411Y696466D01*
X578705Y696385D01*
X579012Y696323D01*
X579333Y696281D01*
X579667Y696257D01*
X576367Y693279D01*
X576376Y693606D01*
X576362Y693921D01*
X576325Y694223D01*
X576265Y694513D01*
X576182Y694790D01*
X576076Y695055D01*
X575947Y695308D01*
X575796Y695548D01*
X575621Y695776D01*
X575423Y695991D01*
X576938Y697350D01*
X577149Y697155D01*
D02*
G37*
G36*
X1068823Y700100D02*
X1069058Y699908D01*
X1069296Y699741D01*
X1069538Y699598D01*
X1069784Y699480D01*
X1070033Y699387D01*
X1070286Y699319D01*
X1070542Y699276D01*
X1070801Y699257D01*
X1071065Y699263D01*
X1068117Y695937D01*
X1068093Y696201D01*
X1068047Y696461D01*
X1067980Y696718D01*
X1067892Y696970D01*
X1067783Y697219D01*
X1067652Y697463D01*
X1067499Y697704D01*
X1067326Y697941D01*
X1067131Y698174D01*
X1066914Y698403D01*
X1068592Y700317D01*
X1068823Y700100D01*
D02*
G37*
G36*
X881937Y692224D02*
X881735Y692396D01*
X881520Y692550D01*
X881293Y692686D01*
X881053Y692804D01*
X880801Y692904D01*
X880536Y692985D01*
X880259Y693048D01*
X879969Y693094D01*
X879666Y693121D01*
X879351Y693130D01*
X879217Y695670D01*
X879534Y695680D01*
X879836Y695710D01*
X880124Y695759D01*
X880396Y695829D01*
X880654Y695918D01*
X880897Y696028D01*
X881125Y696157D01*
X881339Y696306D01*
X881538Y696475D01*
X881722Y696664D01*
X881937Y692224D01*
D02*
G37*
G36*
X683711Y692441D02*
X683722Y692158D01*
X683754Y691876D01*
X683808Y691595D01*
X683883Y691316D01*
X683980Y691038D01*
X684099Y690761D01*
X684239Y690485D01*
X684401Y690211D01*
X684585Y689939D01*
X684790Y689667D01*
X680378Y690211D01*
X680625Y690415D01*
X680846Y690629D01*
X681041Y690854D01*
X681210Y691088D01*
X681354Y691332D01*
X681471Y691587D01*
X681562Y691852D01*
X681627Y692126D01*
X681666Y692411D01*
X681679Y692706D01*
X683711Y692441D01*
D02*
G37*
G36*
X963441Y691306D02*
X963201Y691535D01*
X962956Y691741D01*
X962706Y691922D01*
X962450Y692078D01*
X962188Y692211D01*
X961920Y692320D01*
X961647Y692404D01*
X961369Y692465D01*
X961085Y692501D01*
X960795Y692513D01*
Y694545D01*
X961085Y694557D01*
X961369Y694593D01*
X961647Y694653D01*
X961920Y694738D01*
X962188Y694846D01*
X962450Y694979D01*
X962706Y695136D01*
X962956Y695317D01*
X963201Y695522D01*
X963441Y695751D01*
Y691306D01*
D02*
G37*
G36*
X676345Y699299D02*
X676356Y699016D01*
X676388Y698734D01*
X676442Y698453D01*
X676517Y698174D01*
X676615Y697896D01*
X676733Y697619D01*
X676873Y697343D01*
X677035Y697069D01*
X677218Y696796D01*
X677423Y696525D01*
X673012Y697069D01*
X673259Y697273D01*
X673480Y697487D01*
X673675Y697711D01*
X673845Y697946D01*
X673988Y698190D01*
X674105Y698445D01*
X674196Y698709D01*
X674261Y698984D01*
X674300Y699269D01*
X674313Y699564D01*
X676345Y699299D01*
D02*
G37*
G36*
X645441Y706744D02*
X645279Y706537D01*
X645136Y706316D01*
X645013Y706082D01*
X644908Y705834D01*
X644822Y705572D01*
X644755Y705297D01*
X644708Y705008D01*
X644679Y704706D01*
X644670Y704390D01*
X642130D01*
X642120Y704706D01*
X642092Y705008D01*
X642044Y705297D01*
X641977Y705572D01*
X641891Y705834D01*
X641787Y706082D01*
X641663Y706316D01*
X641520Y706537D01*
X641358Y706744D01*
X641177Y706937D01*
X645622D01*
X645441Y706744D01*
D02*
G37*
G36*
X510576Y705652D02*
X510337Y705881D01*
X510092Y706086D01*
X509841Y706267D01*
X509585Y706424D01*
X509323Y706557D01*
X509056Y706665D01*
X508783Y706750D01*
X508504Y706810D01*
X508220Y706846D01*
X507930Y706859D01*
Y708891D01*
X508220Y708903D01*
X508504Y708939D01*
X508783Y708999D01*
X509056Y709083D01*
X509323Y709192D01*
X509585Y709325D01*
X509841Y709482D01*
X510092Y709663D01*
X510337Y709868D01*
X510576Y710097D01*
Y705652D01*
D02*
G37*
G36*
X668979Y706157D02*
X668990Y705874D01*
X669022Y705592D01*
X669076Y705311D01*
X669151Y705032D01*
X669249Y704754D01*
X669367Y704477D01*
X669507Y704201D01*
X669669Y703927D01*
X669853Y703654D01*
X670058Y703383D01*
X665646Y703927D01*
X665893Y704131D01*
X666114Y704345D01*
X666309Y704569D01*
X666479Y704804D01*
X666622Y705048D01*
X666739Y705303D01*
X666830Y705567D01*
X666895Y705842D01*
X666934Y706127D01*
X666947Y706422D01*
X668979Y706157D01*
D02*
G37*
G36*
X822616Y698584D02*
X822438Y698777D01*
X822244Y698950D01*
X822035Y699102D01*
X821810Y699234D01*
X821570Y699346D01*
X821315Y699437D01*
X821044Y699509D01*
X820757Y699559D01*
X820455Y699590D01*
X820138Y699600D01*
X820353Y702140D01*
X820668Y702149D01*
X820971Y702175D01*
X821261Y702219D01*
X821540Y702280D01*
X821806Y702359D01*
X822061Y702455D01*
X822304Y702569D01*
X822534Y702701D01*
X822753Y702849D01*
X822959Y703016D01*
X822616Y698584D01*
D02*
G37*
G36*
X971078Y698636D02*
X970838Y698865D01*
X970593Y699070D01*
X970343Y699251D01*
X970087Y699408D01*
X969825Y699541D01*
X969557Y699650D01*
X969285Y699734D01*
X969006Y699794D01*
X968722Y699830D01*
X968432Y699843D01*
Y701874D01*
X968722Y701887D01*
X969006Y701923D01*
X969285Y701983D01*
X969557Y702068D01*
X969825Y702176D01*
X970087Y702309D01*
X970343Y702466D01*
X970593Y702647D01*
X970838Y702852D01*
X971078Y703081D01*
Y698636D01*
D02*
G37*
G36*
X834079Y718177D02*
X833885Y718359D01*
X833678Y718520D01*
X833458Y718663D01*
X833223Y718787D01*
X832975Y718892D01*
X832714Y718978D01*
X832439Y719044D01*
X832150Y719092D01*
X831847Y719120D01*
X831532Y719130D01*
X831532Y721670D01*
X831848Y721680D01*
X832150Y721708D01*
X832439Y721756D01*
X832714Y721822D01*
X832975Y721908D01*
X833223Y722013D01*
X833458Y722137D01*
X833678Y722280D01*
X833885Y722441D01*
X834079Y722623D01*
X834079Y718177D01*
D02*
G37*
G36*
X916272Y744004D02*
X916032Y744233D01*
X915788Y744439D01*
X915537Y744620D01*
X915281Y744776D01*
X915019Y744909D01*
X914752Y745018D01*
X914479Y745102D01*
X914200Y745163D01*
X913916Y745199D01*
X913626Y745211D01*
Y747243D01*
X913916Y747255D01*
X914200Y747291D01*
X914479Y747351D01*
X914752Y747436D01*
X915019Y747544D01*
X915281Y747677D01*
X915537Y747834D01*
X915788Y748015D01*
X916032Y748220D01*
X916272Y748449D01*
Y744004D01*
D02*
G37*
G36*
X771684Y746836D02*
X771696Y746547D01*
X771732Y746263D01*
X771792Y745984D01*
X771876Y745710D01*
X771983Y745442D01*
X772115Y745179D01*
X772271Y744921D01*
X772450Y744668D01*
X772654Y744421D01*
X772881Y744179D01*
X768437Y744224D01*
X768667Y744460D01*
X768874Y744703D01*
X769056Y744951D01*
X769214Y745206D01*
X769348Y745466D01*
X769457Y745732D01*
X769543Y746005D01*
X769603Y746283D01*
X769640Y746567D01*
X769652Y746858D01*
X771684Y746836D01*
D02*
G37*
G36*
X908635Y736675D02*
X908395Y736904D01*
X908151Y737109D01*
X907900Y737290D01*
X907644Y737447D01*
X907382Y737579D01*
X907115Y737688D01*
X906842Y737773D01*
X906563Y737833D01*
X906279Y737869D01*
X905989Y737881D01*
Y739913D01*
X906279Y739925D01*
X906563Y739961D01*
X906842Y740022D01*
X907115Y740106D01*
X907382Y740215D01*
X907644Y740347D01*
X907900Y740504D01*
X908151Y740685D01*
X908395Y740890D01*
X908635Y741120D01*
Y736675D01*
D02*
G37*
G36*
X694513Y738932D02*
X694740Y738757D01*
X694979Y738603D01*
X695232Y738469D01*
X695498Y738357D01*
X695777Y738266D01*
X696069Y738195D01*
X696374Y738146D01*
X696692Y738118D01*
X697024Y738111D01*
X693881Y734968D01*
X693874Y735299D01*
X693845Y735618D01*
X693796Y735923D01*
X693726Y736215D01*
X693635Y736494D01*
X693522Y736759D01*
X693389Y737012D01*
X693235Y737252D01*
X693059Y737478D01*
X692863Y737692D01*
X694300Y739129D01*
X694513Y738932D01*
D02*
G37*
G36*
X510576Y735588D02*
X510337Y735818D01*
X510092Y736023D01*
X509841Y736204D01*
X509585Y736361D01*
X509323Y736493D01*
X509056Y736602D01*
X508783Y736686D01*
X508504Y736747D01*
X508220Y736783D01*
X507930Y736795D01*
Y738827D01*
X508220Y738839D01*
X508504Y738875D01*
X508783Y738935D01*
X509056Y739020D01*
X509323Y739129D01*
X509585Y739261D01*
X509841Y739418D01*
X510092Y739599D01*
X510337Y739804D01*
X510576Y740033D01*
Y735588D01*
D02*
G37*
G36*
Y745567D02*
X510337Y745797D01*
X510092Y746002D01*
X509841Y746183D01*
X509585Y746339D01*
X509323Y746472D01*
X509056Y746581D01*
X508783Y746665D01*
X508504Y746725D01*
X508220Y746762D01*
X507930Y746774D01*
Y748806D01*
X508220Y748818D01*
X508504Y748854D01*
X508783Y748914D01*
X509056Y748999D01*
X509323Y749107D01*
X509585Y749240D01*
X509841Y749397D01*
X510092Y749578D01*
X510337Y749783D01*
X510576Y750012D01*
Y745567D01*
D02*
G37*
G36*
Y755546D02*
X510337Y755775D01*
X510092Y755980D01*
X509841Y756161D01*
X509585Y756318D01*
X509323Y756451D01*
X509056Y756560D01*
X508783Y756644D01*
X508504Y756704D01*
X508220Y756740D01*
X507930Y756753D01*
Y758785D01*
X508220Y758797D01*
X508504Y758833D01*
X508783Y758893D01*
X509056Y758978D01*
X509323Y759086D01*
X509585Y759219D01*
X509841Y759376D01*
X510092Y759557D01*
X510337Y759762D01*
X510576Y759991D01*
Y755546D01*
D02*
G37*
G36*
X765132Y760279D02*
X765144Y759991D01*
X765179Y759707D01*
X765238Y759428D01*
X765321Y759153D01*
X765427Y758883D01*
X765557Y758618D01*
X765711Y758357D01*
X765888Y758102D01*
X766089Y757850D01*
X766314Y757604D01*
X761870Y757721D01*
X762104Y757953D01*
X762313Y758192D01*
X762497Y758437D01*
X762657Y758689D01*
X762793Y758947D01*
X762903Y759211D01*
X762989Y759483D01*
X763051Y759761D01*
X763088Y760045D01*
X763100Y760336D01*
X765132Y760279D01*
D02*
G37*
G36*
X908360Y757553D02*
X908587Y757377D01*
X908826Y757223D01*
X909079Y757090D01*
X909345Y756977D01*
X909624Y756886D01*
X909916Y756816D01*
X910221Y756767D01*
X910539Y756739D01*
X910871Y756731D01*
X907727Y753588D01*
X907720Y753920D01*
X907692Y754238D01*
X907643Y754543D01*
X907573Y754835D01*
X907481Y755114D01*
X907369Y755380D01*
X907236Y755632D01*
X907082Y755872D01*
X906906Y756099D01*
X906710Y756312D01*
X908147Y757749D01*
X908360Y757553D01*
D02*
G37*
G36*
X575990Y747203D02*
X575751Y747432D01*
X575506Y747638D01*
X575256Y747819D01*
X574999Y747975D01*
X574738Y748108D01*
X574470Y748217D01*
X574197Y748301D01*
X573919Y748362D01*
X573634Y748398D01*
X573345Y748410D01*
Y750442D01*
X573634Y750454D01*
X573919Y750490D01*
X574197Y750550D01*
X574470Y750635D01*
X574738Y750743D01*
X574999Y750876D01*
X575256Y751033D01*
X575506Y751214D01*
X575751Y751419D01*
X575990Y751648D01*
Y747203D01*
D02*
G37*
G36*
X690460Y752570D02*
X690686Y752395D01*
X690926Y752241D01*
X691178Y752107D01*
X691444Y751995D01*
X691723Y751904D01*
X692015Y751833D01*
X692320Y751784D01*
X692639Y751756D01*
X692970Y751749D01*
X689827Y748606D01*
X689820Y748937D01*
X689791Y749256D01*
X689742Y749561D01*
X689672Y749853D01*
X689581Y750132D01*
X689469Y750397D01*
X689335Y750650D01*
X689181Y750890D01*
X689006Y751116D01*
X688809Y751330D01*
X690246Y752767D01*
X690460Y752570D01*
D02*
G37*
G36*
X580354Y726378D02*
X580925Y726059D01*
X581210Y725930D01*
X581493Y725820D01*
X581776Y725730D01*
X582058Y725660D01*
X582338Y725611D01*
X582618Y725581D01*
X582898Y725571D01*
X583310Y723539D01*
X583012Y723525D01*
X582728Y723485D01*
X582455Y723419D01*
X582196Y723325D01*
X581949Y723204D01*
X581714Y723057D01*
X581492Y722884D01*
X581283Y722683D01*
X581086Y722456D01*
X580902Y722201D01*
X580067Y726567D01*
X580354Y726378D01*
D02*
G37*
G36*
X1027801Y728677D02*
X1028033Y728571D01*
X1028276Y728477D01*
X1028528Y728395D01*
X1028791Y728326D01*
X1029064Y728270D01*
X1029640Y728195D01*
X1029944Y728176D01*
X1030257Y728170D01*
X1031046Y725630D01*
X1030724Y725619D01*
X1030424Y725585D01*
X1030145Y725530D01*
X1029886Y725452D01*
X1029649Y725351D01*
X1029432Y725229D01*
X1029237Y725084D01*
X1029062Y724917D01*
X1028908Y724727D01*
X1028775Y724515D01*
X1027578Y728796D01*
X1027801Y728677D01*
D02*
G37*
G36*
X908635Y722015D02*
X908395Y722244D01*
X908151Y722449D01*
X907900Y722630D01*
X907644Y722787D01*
X907382Y722920D01*
X907115Y723029D01*
X906842Y723113D01*
X906563Y723173D01*
X906279Y723210D01*
X905989Y723222D01*
Y725254D01*
X906279Y725266D01*
X906563Y725302D01*
X906842Y725362D01*
X907115Y725447D01*
X907382Y725555D01*
X907644Y725688D01*
X907900Y725845D01*
X908151Y726026D01*
X908395Y726231D01*
X908635Y726460D01*
Y722015D01*
D02*
G37*
G36*
X1066135Y718338D02*
X1065922Y718494D01*
X1065698Y718634D01*
X1065463Y718757D01*
X1065216Y718864D01*
X1064958Y718954D01*
X1064689Y719028D01*
X1064409Y719086D01*
X1064117Y719127D01*
X1063814Y719152D01*
X1063500Y719160D01*
X1063150Y721700D01*
X1063468Y721711D01*
X1063770Y721742D01*
X1064055Y721794D01*
X1064323Y721868D01*
X1064574Y721962D01*
X1064809Y722077D01*
X1065027Y722214D01*
X1065228Y722371D01*
X1065413Y722549D01*
X1065581Y722748D01*
X1066135Y718338D01*
D02*
G37*
G36*
X575990Y721736D02*
X575751Y721965D01*
X575506Y722170D01*
X575256Y722351D01*
X574999Y722508D01*
X574738Y722641D01*
X574470Y722749D01*
X574197Y722834D01*
X573919Y722894D01*
X573634Y722930D01*
X573345Y722942D01*
Y724974D01*
X573634Y724986D01*
X573919Y725023D01*
X574197Y725083D01*
X574470Y725167D01*
X574738Y725276D01*
X574999Y725409D01*
X575256Y725565D01*
X575506Y725746D01*
X575751Y725952D01*
X575990Y726181D01*
Y721736D01*
D02*
G37*
G36*
X593533Y724516D02*
X593236Y724586D01*
X592946Y724625D01*
X592666Y724634D01*
X592393Y724613D01*
X592129Y724561D01*
X591874Y724480D01*
X591627Y724368D01*
X591388Y724226D01*
X591158Y724054D01*
X590936Y723851D01*
X589912Y725701D01*
X590099Y725901D01*
X590276Y726115D01*
X590443Y726345D01*
X590599Y726590D01*
X590744Y726849D01*
X590880Y727123D01*
X591119Y727717D01*
X591223Y728035D01*
X591316Y728369D01*
X593533Y724516D01*
D02*
G37*
G36*
X916272Y729345D02*
X916032Y729574D01*
X915788Y729779D01*
X915537Y729960D01*
X915281Y730117D01*
X915019Y730250D01*
X914752Y730358D01*
X914479Y730443D01*
X914200Y730503D01*
X913916Y730539D01*
X913626Y730551D01*
Y732583D01*
X913916Y732595D01*
X914200Y732632D01*
X914479Y732692D01*
X914752Y732776D01*
X915019Y732885D01*
X915281Y733018D01*
X915537Y733175D01*
X915788Y733355D01*
X916032Y733561D01*
X916272Y733790D01*
Y729345D01*
D02*
G37*
G36*
X575990Y734524D02*
X575751Y734753D01*
X575506Y734958D01*
X575256Y735139D01*
X574999Y735296D01*
X574738Y735429D01*
X574470Y735537D01*
X574197Y735622D01*
X573919Y735682D01*
X573634Y735718D01*
X573345Y735730D01*
Y737762D01*
X573634Y737774D01*
X573919Y737811D01*
X574197Y737871D01*
X574470Y737955D01*
X574738Y738064D01*
X574999Y738197D01*
X575256Y738354D01*
X575506Y738534D01*
X575751Y738740D01*
X575990Y738969D01*
Y734524D01*
D02*
G37*
G36*
X510576Y725610D02*
X510337Y725839D01*
X510092Y726044D01*
X509841Y726225D01*
X509585Y726382D01*
X509323Y726515D01*
X509056Y726623D01*
X508783Y726708D01*
X508504Y726768D01*
X508220Y726804D01*
X507930Y726816D01*
Y728848D01*
X508220Y728860D01*
X508504Y728896D01*
X508783Y728957D01*
X509056Y729041D01*
X509323Y729150D01*
X509585Y729283D01*
X509841Y729439D01*
X510092Y729620D01*
X510337Y729825D01*
X510576Y730055D01*
Y725610D01*
D02*
G37*
G36*
X846463Y724604D02*
X846279Y724793D01*
X846081Y724963D01*
X845868Y725112D01*
X845640Y725241D01*
X845397Y725351D01*
X845139Y725441D01*
X844867Y725510D01*
X844579Y725560D01*
X844277Y725590D01*
X843960Y725600D01*
X844102Y728140D01*
X844417Y728149D01*
X844720Y728176D01*
X845010Y728221D01*
X845288Y728285D01*
X845553Y728366D01*
X845805Y728465D01*
X846045Y728583D01*
X846273Y728718D01*
X846488Y728872D01*
X846690Y729043D01*
X846463Y724604D01*
D02*
G37*
G36*
X851174Y728894D02*
X851390Y728742D01*
X851618Y728608D01*
X851859Y728492D01*
X852113Y728393D01*
X852378Y728313D01*
X852656Y728250D01*
X852947Y728206D01*
X853249Y728179D01*
X853564Y728170D01*
X853733Y725630D01*
X853415Y725620D01*
X853113Y725590D01*
X852826Y725540D01*
X852554Y725470D01*
X852298Y725379D01*
X852056Y725269D01*
X851829Y725138D01*
X851617Y724988D01*
X851421Y724817D01*
X851239Y724627D01*
X850970Y729063D01*
X851174Y728894D01*
D02*
G37*
D10*
X1096518Y824992D02*
D03*
X1080008D02*
D03*
X654859Y529625D02*
D03*
X671369D02*
D03*
D11*
X1077994Y626685D02*
D03*
X594952Y748097D02*
D03*
D12*
X1077994Y610180D02*
D03*
X594952Y764602D02*
D03*
D13*
X1082040Y855980D02*
D03*
X1089660D02*
D03*
X1097280D02*
D03*
X1103630Y514350D02*
D03*
X1096010D02*
D03*
X1088390D02*
D03*
D14*
X777200Y567650D02*
D03*
X770700D02*
D03*
X764200D02*
D03*
X757700D02*
D03*
X751200D02*
D03*
X744700D02*
D03*
X738200D02*
D03*
X731700D02*
D03*
X725200D02*
D03*
X718700D02*
D03*
X712200D02*
D03*
X705700D02*
D03*
X699200D02*
D03*
X692700D02*
D03*
X686200D02*
D03*
X679700D02*
D03*
X673200D02*
D03*
X666700D02*
D03*
X660200D02*
D03*
X653700D02*
D03*
X718700Y814650D02*
D03*
X725200D02*
D03*
X731700D02*
D03*
X738200D02*
D03*
X744700D02*
D03*
X751200D02*
D03*
X757700D02*
D03*
X764200D02*
D03*
X770700D02*
D03*
X777200D02*
D03*
X712200D02*
D03*
X705700D02*
D03*
X699200D02*
D03*
X692700D02*
D03*
X686200D02*
D03*
X679700D02*
D03*
X673200D02*
D03*
X666700D02*
D03*
X660200D02*
D03*
X653700D02*
D03*
X895000D02*
D03*
X901500D02*
D03*
X908000D02*
D03*
X914500D02*
D03*
X921000D02*
D03*
X927500D02*
D03*
X934000D02*
D03*
X940500D02*
D03*
X947000D02*
D03*
X953500D02*
D03*
X1018500D02*
D03*
X1012000D02*
D03*
X1005500D02*
D03*
X999000D02*
D03*
X992500D02*
D03*
X986000D02*
D03*
X979500D02*
D03*
X973000D02*
D03*
X966500D02*
D03*
X960000D02*
D03*
X895000Y567650D02*
D03*
X901500D02*
D03*
X908000D02*
D03*
X914500D02*
D03*
X921000D02*
D03*
X927500D02*
D03*
X934000D02*
D03*
X940500D02*
D03*
X947000D02*
D03*
X953500D02*
D03*
X960000D02*
D03*
X966500D02*
D03*
X973000D02*
D03*
X979500D02*
D03*
X986000D02*
D03*
X992500D02*
D03*
X999000D02*
D03*
X1005500D02*
D03*
X1012000D02*
D03*
X1018500D02*
D03*
D15*
X624450Y596900D02*
D03*
Y603400D02*
D03*
Y609900D02*
D03*
Y616400D02*
D03*
Y622900D02*
D03*
Y629400D02*
D03*
Y635900D02*
D03*
Y642400D02*
D03*
Y648900D02*
D03*
Y655400D02*
D03*
Y661900D02*
D03*
Y668400D02*
D03*
Y674900D02*
D03*
Y681400D02*
D03*
Y687900D02*
D03*
Y694400D02*
D03*
Y700900D02*
D03*
Y707400D02*
D03*
Y713900D02*
D03*
Y720400D02*
D03*
Y726900D02*
D03*
Y733400D02*
D03*
Y739900D02*
D03*
Y746400D02*
D03*
Y752900D02*
D03*
Y759400D02*
D03*
Y765900D02*
D03*
Y772400D02*
D03*
Y778900D02*
D03*
Y785400D02*
D03*
X806450D02*
D03*
Y778900D02*
D03*
Y772400D02*
D03*
Y765900D02*
D03*
Y759400D02*
D03*
Y752900D02*
D03*
Y746400D02*
D03*
Y739900D02*
D03*
Y733400D02*
D03*
Y726900D02*
D03*
Y720400D02*
D03*
Y713900D02*
D03*
Y707400D02*
D03*
Y700900D02*
D03*
Y694400D02*
D03*
Y687900D02*
D03*
Y681400D02*
D03*
Y674900D02*
D03*
Y668400D02*
D03*
Y661900D02*
D03*
Y655400D02*
D03*
Y648900D02*
D03*
Y642400D02*
D03*
Y635900D02*
D03*
Y629400D02*
D03*
Y622900D02*
D03*
Y616400D02*
D03*
Y609900D02*
D03*
Y603400D02*
D03*
Y596900D02*
D03*
X1047750D02*
D03*
Y603400D02*
D03*
Y609900D02*
D03*
Y616400D02*
D03*
Y622900D02*
D03*
Y629400D02*
D03*
Y635900D02*
D03*
Y642400D02*
D03*
Y648900D02*
D03*
Y655400D02*
D03*
Y661900D02*
D03*
Y668400D02*
D03*
Y674900D02*
D03*
Y681400D02*
D03*
Y687900D02*
D03*
Y694400D02*
D03*
Y700900D02*
D03*
Y707400D02*
D03*
Y713900D02*
D03*
Y720400D02*
D03*
Y726900D02*
D03*
Y733400D02*
D03*
Y739900D02*
D03*
Y746400D02*
D03*
Y752900D02*
D03*
Y759400D02*
D03*
Y765900D02*
D03*
Y772400D02*
D03*
Y778900D02*
D03*
Y785400D02*
D03*
X865750D02*
D03*
Y778900D02*
D03*
Y772400D02*
D03*
Y765900D02*
D03*
Y759400D02*
D03*
Y752900D02*
D03*
Y746400D02*
D03*
Y739900D02*
D03*
Y733400D02*
D03*
Y726900D02*
D03*
Y720400D02*
D03*
Y713900D02*
D03*
Y707400D02*
D03*
Y700900D02*
D03*
Y694400D02*
D03*
Y687900D02*
D03*
Y681400D02*
D03*
Y674900D02*
D03*
Y668400D02*
D03*
Y661900D02*
D03*
Y655400D02*
D03*
Y648900D02*
D03*
Y642400D02*
D03*
Y635900D02*
D03*
Y629400D02*
D03*
Y622900D02*
D03*
Y616400D02*
D03*
Y609900D02*
D03*
Y603400D02*
D03*
Y596900D02*
D03*
D16*
X538443Y622236D02*
D03*
X486417Y622299D02*
D03*
X538541Y606788D02*
D03*
X486342Y606852D02*
D03*
X1080706Y762144D02*
D03*
X1080775Y722376D02*
D03*
D17*
X521938Y622236D02*
D03*
X502922Y622299D02*
D03*
X522036Y606788D02*
D03*
X502847Y606852D02*
D03*
X1097211Y762144D02*
D03*
X1097280Y722376D02*
D03*
D18*
X469900Y812800D02*
D03*
Y800100D02*
D03*
Y787400D02*
D03*
Y774700D02*
D03*
Y762000D02*
D03*
Y749300D02*
D03*
Y736600D02*
D03*
Y723900D02*
D03*
Y711200D02*
D03*
Y698500D02*
D03*
Y685800D02*
D03*
Y673100D02*
D03*
Y660400D02*
D03*
Y647700D02*
D03*
X561340D02*
D03*
Y660400D02*
D03*
Y673100D02*
D03*
Y685800D02*
D03*
Y698500D02*
D03*
Y711200D02*
D03*
Y723900D02*
D03*
Y736600D02*
D03*
Y749300D02*
D03*
Y762000D02*
D03*
Y774700D02*
D03*
Y787400D02*
D03*
Y800100D02*
D03*
Y812800D02*
D03*
D19*
X806450Y778900D02*
X865750D01*
X806450Y733400D02*
X865750D01*
X806450Y752900D02*
X865750D01*
X973037Y534961D02*
Y567613D01*
X914704Y544780D02*
Y567446D01*
Y544780D02*
X914908Y544576D01*
X927300Y551380D02*
Y567450D01*
X979462Y545122D02*
Y567612D01*
X927100Y551180D02*
X927300Y551380D01*
X973037Y534961D02*
X973074Y534924D01*
X979424Y545084D02*
X979462Y545122D01*
Y567612D02*
X979500Y567650D01*
X973000D02*
X973037Y567613D01*
X927300Y567450D02*
X927500Y567650D01*
X946956Y567606D02*
X947000Y567650D01*
X940500D02*
X940531Y567619D01*
X914500Y567650D02*
X914704Y567446D01*
X946956Y552660D02*
Y567606D01*
X943356Y545592D02*
Y546760D01*
X940531Y549585D02*
X943356Y546760D01*
X940531Y549585D02*
Y567619D01*
X934000Y542248D02*
X941832Y534416D01*
X934000Y542248D02*
Y567650D01*
X686127Y567577D02*
X686200Y567650D01*
X686127Y551361D02*
Y567577D01*
X686054Y550926D02*
X686308Y551180D01*
X692700Y567650D02*
X692806Y567544D01*
X673023Y567473D02*
X673200Y567650D01*
X672846Y544576D02*
X673023Y544753D01*
Y567473D01*
X692806Y547010D02*
Y567544D01*
X731700Y542216D02*
Y567650D01*
X738200Y535508D02*
Y567650D01*
X727456Y537972D02*
X731700Y542216D01*
X734568Y531876D02*
X738200Y535508D01*
X734568Y512064D02*
Y531876D01*
X728980Y506476D02*
X734568Y512064D01*
X741680Y519251D02*
X744700Y522271D01*
Y567650D01*
X727456Y518414D02*
Y537972D01*
X741680Y518922D02*
Y519251D01*
X705529Y567479D02*
X705700Y567650D01*
X699200Y541872D02*
Y567650D01*
X695960Y537464D02*
Y538633D01*
X699200Y541872D01*
X688340Y542544D02*
X692806Y547010D01*
X688340Y529844D02*
Y542544D01*
Y529844D02*
X688594Y529590D01*
X946956Y552660D02*
X955802Y543814D01*
Y537972D02*
Y543814D01*
X783844Y536956D02*
X801116Y519684D01*
X899414D01*
X908025Y528295D01*
X986000Y567650D02*
X986014Y567636D01*
Y521222D02*
Y567636D01*
Y521222D02*
X986028Y521208D01*
X1012698Y500634D02*
X1032764Y520700D01*
X666700Y567650D02*
Y583134D01*
X806450Y674900D02*
X865750D01*
X806450Y668400D02*
X865750D01*
X806450Y648900D02*
X865750D01*
X806450Y642400D02*
X865750D01*
X806450Y635900D02*
X865750D01*
X806450Y629400D02*
X865750D01*
X806450Y609900D02*
X865750D01*
X806450Y603400D02*
X865750D01*
X806450Y707400D02*
X865750D01*
Y713900D02*
X865797Y713947D01*
X806450Y739900D02*
X865750D01*
X806450Y746400D02*
X865750D01*
X1017016Y629874D02*
X1017253Y629637D01*
X1047513D01*
X1026726Y635958D02*
X1047692D01*
X1026668Y636016D02*
X1026726Y635958D01*
X1017016Y642874D02*
X1017253Y642637D01*
X1047513D01*
X1026668Y649732D02*
X1027216Y649184D01*
X1047466D01*
X624616Y649065D02*
X644865D01*
X645414Y649613D01*
X624332Y648782D02*
X624616Y649065D01*
X624568Y603518D02*
X654828D01*
X655066Y603755D01*
X624332Y603282D02*
X624568Y603518D01*
X624508Y668458D02*
X645474D01*
X865750Y674900D02*
X906754D01*
X865750Y668400D02*
X909398D01*
X947372Y715518D02*
X973328D01*
X865750Y648900D02*
X899247D01*
X906754Y674900D02*
X947372Y715518D01*
X865750Y609900D02*
X897331D01*
X900024Y603400D02*
X960834Y664210D01*
X965708D01*
X865750Y635900D02*
X904632D01*
X865750Y629400D02*
X907324D01*
X865750Y642400D02*
X901940D01*
X865750Y603400D02*
X900024D01*
X949186Y708188D02*
X965708D01*
X909398Y668400D02*
X949186Y708188D01*
X951206Y700859D02*
X973345D01*
X899247Y648900D02*
X951206Y700859D01*
X904632Y635900D02*
X954931Y686199D01*
X901940Y642400D02*
X953068Y693529D01*
X965708D01*
X907324Y629400D02*
X956794Y678869D01*
X965708D01*
X954931Y686199D02*
X973345D01*
X897331Y609900D02*
X958971Y671540D01*
X973345D01*
X990854Y786130D02*
X1024084Y752900D01*
X1015760Y772400D02*
X1047750D01*
X1001776Y786384D02*
X1015760Y772400D01*
X1011682Y790194D02*
X1022976Y778900D01*
X1024084Y752900D02*
X1047750D01*
X1157434D01*
X865750Y772400D02*
X892059D01*
X806450D02*
X865750D01*
X892553Y771906D02*
X910902Y753557D01*
X864870Y771906D02*
X892553D01*
X892059Y772400D02*
X892553Y771906D01*
X865750Y746400D02*
X894440D01*
X901943Y738897D01*
X910902D01*
X897084Y752900D02*
X903757Y746227D01*
X918539D01*
X865750Y752900D02*
X897084D01*
X865750Y733400D02*
X887628D01*
X896790Y724238D02*
X910902D01*
X887628Y733400D02*
X896790Y724238D01*
X898859Y731567D02*
X918539D01*
X890526Y739900D02*
X898859Y731567D01*
X865750Y739900D02*
X890526D01*
X895310Y716908D02*
X918539D01*
X897538Y709578D02*
X910902D01*
X895360Y707400D02*
X897538Y709578D01*
X865750Y707400D02*
X895360D01*
X1019916Y746400D02*
X1047750D01*
X975360Y790956D02*
X1019916Y746400D01*
X1047750D02*
X1154742D01*
X1015240Y739900D02*
X1047750D01*
X974090Y781050D02*
X1015240Y739900D01*
X1047750D02*
X1152049D01*
X1154176Y645160D02*
X1163574Y654558D01*
X1135380Y645160D02*
X1154176D01*
X1149357Y733400D02*
X1163574Y719183D01*
Y654558D02*
Y719183D01*
X751200Y814650D02*
X751205Y814645D01*
Y783463D02*
Y814645D01*
Y783463D02*
X751332Y783336D01*
X624450Y733400D02*
X638603D01*
X770668Y814618D02*
X770700Y814650D01*
X764116Y755815D02*
X764364Y755567D01*
X770700Y814650D02*
Y827342D01*
X914500Y814650D02*
Y830988D01*
X921000Y814650D02*
Y833632D01*
X927500Y814650D02*
Y836022D01*
X934000Y814650D02*
Y838158D01*
X764200Y814650D02*
Y830240D01*
X757700Y814650D02*
Y832122D01*
X751200Y814650D02*
Y834766D01*
X771956Y828598D02*
X906810D01*
X770700Y827342D02*
X771956Y828598D01*
X906810D02*
X908000Y827408D01*
Y814650D02*
Y827408D01*
X764200Y830240D02*
X767663Y833704D01*
X757700Y832122D02*
X764387Y838809D01*
X751200Y834766D02*
X760349Y843914D01*
X692700Y838750D02*
X702970Y849020D01*
X686200Y840632D02*
X699693Y854125D01*
X679700Y814650D02*
Y842514D01*
X666700Y814650D02*
Y846532D01*
X673200Y844904D02*
X692632Y864336D01*
X673200Y814650D02*
Y844904D01*
X911785Y833704D02*
X914500Y830988D01*
X767663Y833704D02*
X911785D01*
X764387Y838809D02*
X915823D01*
X921000Y833632D01*
X919607Y843914D02*
X927500Y836022D01*
X760349Y843914D02*
X919607D01*
X923138Y849020D02*
X934000Y838158D01*
X702970Y849020D02*
X923138D01*
X679700Y842514D02*
X696417Y859231D01*
X977977Y854125D02*
X992500Y839602D01*
X699693Y854125D02*
X977977D01*
X992500Y814650D02*
Y839602D01*
X981253Y859231D02*
X999000Y841484D01*
X696417Y859231D02*
X981253D01*
X999000Y814650D02*
Y841484D01*
X984530Y864336D02*
X1005500Y843366D01*
Y814650D02*
Y843366D01*
X692632Y864336D02*
X984530D01*
X689610Y869442D02*
X988568D01*
X1012000Y846010D01*
Y814650D02*
Y846010D01*
X692700Y814650D02*
Y838750D01*
X764116Y814566D02*
X764200Y814650D01*
X770636Y741934D02*
X770668Y741966D01*
X764116Y755815D02*
Y814566D01*
X770668Y741966D02*
Y814618D01*
X666646Y814596D02*
X666700Y814650D01*
X666592Y797800D02*
X666646Y797854D01*
X666700Y846532D02*
X689610Y869442D01*
X666646Y797854D02*
Y814596D01*
X640588Y790448D02*
Y804672D01*
X827684Y798068D02*
X831487Y794266D01*
X892818D01*
X901500Y802948D01*
X826516Y798068D02*
X827684D01*
X901500Y802948D02*
Y814650D01*
X652780Y790702D02*
X653416Y791338D01*
Y814366D01*
X653700Y814650D01*
X839216Y800608D02*
X839724Y800100D01*
X889150D01*
X895000Y805950D01*
Y814650D01*
X1097280Y855980D02*
X1097407Y855853D01*
Y845185D02*
X1097534Y845058D01*
X1097407Y845185D02*
Y855853D01*
X1081786Y837184D02*
X1082040Y837438D01*
Y838454D01*
Y855980D01*
X469900Y812800D02*
X506646D01*
X510910Y808536D01*
Y807663D02*
Y808536D01*
X469900Y800100D02*
X509259D01*
X511675Y797684D02*
X512843D01*
X509259Y800100D02*
X511675Y797684D01*
X470205Y787705D02*
X512843D01*
X469900Y787400D02*
X470205Y787705D01*
X495443Y777726D02*
X512843D01*
X492417Y774700D02*
X495443Y777726D01*
X469900Y774700D02*
X492417D01*
X492255Y762000D02*
X498003Y767747D01*
X512843D01*
X469900Y762000D02*
X492255D01*
X469900Y749300D02*
X488652D01*
X497121Y757769D02*
X512843D01*
X488652Y749300D02*
X497121Y757769D01*
X469900Y685800D02*
X484168D01*
X506242Y707875D02*
X512843D01*
X484168Y685800D02*
X506242Y707875D01*
X469900Y660400D02*
X485327D01*
X512843Y687917D01*
X469900Y673100D02*
X484995D01*
X508965Y697069D01*
X512017D01*
X512843Y697896D01*
X561340Y660400D02*
X561489Y660549D01*
X561340Y673100D02*
X561388Y673148D01*
X561340Y723900D02*
X561398Y723958D01*
X561340Y736600D02*
X561486Y736746D01*
X578151D01*
X561975Y775335D02*
X587003D01*
X561340Y774700D02*
X561975Y775335D01*
X757564Y814514D02*
X757700Y814650D01*
X757564Y768740D02*
Y814514D01*
X757428Y768604D02*
X757564Y768740D01*
X692700Y814650D02*
X692933Y814417D01*
Y775441D02*
X693166Y775208D01*
X692933Y775441D02*
Y814417D01*
X561340Y787400D02*
X561461Y787521D01*
X586313Y790471D02*
X587481D01*
X583363Y787521D02*
X586313Y790471D01*
X561461Y787521D02*
X583363D01*
X581658Y800100D02*
X587080Y805522D01*
X561340Y800100D02*
X581658D01*
X682306Y687689D02*
X682695Y688078D01*
X667574Y701405D02*
X667963Y701794D01*
X660208Y708263D02*
X660597Y708652D01*
X689672Y680831D02*
X690061Y681220D01*
X674940Y694547D02*
X675329Y694936D01*
X638603Y733400D02*
X652494Y719509D01*
X686200Y768440D02*
Y840632D01*
Y768440D02*
X692860Y761779D01*
X679700Y761876D02*
Y814650D01*
Y761876D02*
X693002Y748574D01*
X673200Y758792D02*
X697056Y734936D01*
X673200Y758792D02*
Y814650D01*
X624450Y739900D02*
X644041D01*
X624450Y746400D02*
X646734D01*
X690061Y681220D02*
Y731775D01*
X660597Y708652D02*
Y723344D01*
X644041Y739900D02*
X660597Y723344D01*
X682695Y688078D02*
Y729949D01*
X667963Y701794D02*
Y725171D01*
X646734Y746400D02*
X667963Y725171D01*
X624450Y752900D02*
X649426D01*
X675329Y726997D01*
Y694936D02*
Y726997D01*
X469900Y711200D02*
X483145D01*
X499777Y727832D01*
X512843D01*
X804266Y527154D02*
X894740D01*
X790448Y540972D02*
X804266Y527154D01*
X894740D02*
X901500Y533914D01*
Y567650D01*
X660200D02*
Y585222D01*
X469900Y698500D02*
X484210D01*
X503564Y717853D01*
X512843D01*
X806958Y533654D02*
X892048D01*
X796948Y543664D02*
X806958Y533654D01*
X892048D02*
X895000Y536606D01*
Y567650D01*
X660427Y545819D02*
Y567423D01*
X660200Y567650D02*
X660427Y567423D01*
Y545819D02*
X660654Y545592D01*
X1047750Y733400D02*
X1149357D01*
X952246Y771398D02*
X952500D01*
X1011326Y733400D02*
X1047750D01*
X962914Y781812D02*
X1011326Y733400D01*
X679696Y567654D02*
X679700Y567650D01*
X921000D02*
X921026Y567676D01*
X999000Y567650D02*
X999014Y567664D01*
X641089Y546884D02*
X641555Y546418D01*
X643607D02*
X653496Y556307D01*
Y567446D02*
X653700Y567650D01*
Y587914D01*
X641555Y546418D02*
X643607D01*
X653496Y556307D02*
Y567446D01*
X681399Y546271D02*
X686054Y550926D01*
X681399Y539274D02*
Y546271D01*
X671369Y529625D02*
X671750D01*
X681399Y539274D01*
X686127Y551361D02*
X686308Y551180D01*
X605800Y765975D02*
X605838Y765937D01*
X624413D02*
X624450Y765900D01*
X578258Y723958D02*
X578854Y724555D01*
X561398Y723958D02*
X578258D01*
X624166Y714184D02*
X624450Y713900D01*
X608331Y714184D02*
X624166D01*
X607716Y714799D02*
X608331Y714184D01*
X652494Y715469D02*
Y719509D01*
Y715469D02*
X652842Y715121D01*
X578854Y724555D02*
X590203D01*
X593222Y727573D01*
X594390D01*
X624687Y675137D02*
X654947D01*
X654828Y629519D02*
X655066Y629756D01*
X645356Y635840D02*
X645414Y635897D01*
X654828Y642518D02*
X655066Y642756D01*
X624389Y635840D02*
X645356D01*
X624332Y635782D02*
X624389Y635840D01*
X624568Y642518D02*
X654828D01*
X624332Y629282D02*
X624568Y629519D01*
X654828D01*
X624332Y642281D02*
X624568Y642518D01*
X624332Y609781D02*
X624616Y610065D01*
X644865D02*
X645414Y610614D01*
X624616Y610065D02*
X644865D01*
X469900Y736600D02*
X485841D01*
X497031Y747790D01*
X512843D01*
X777200Y532678D02*
X796544Y513334D01*
X469900Y723900D02*
X483188D01*
X497099Y737811D01*
X512843D01*
X770700Y530288D02*
X794258Y506730D01*
X1008634D01*
X1025652Y523748D01*
Y580136D01*
X1011936Y577850D02*
Y580898D01*
X1022858Y582930D02*
X1025652Y580136D01*
X1011936Y580898D02*
X1013968Y582930D01*
X1022858D01*
X770700Y530288D02*
Y567650D01*
X770416Y567934D02*
X770700Y567650D01*
X764887Y585195D02*
X770416Y579666D01*
Y567934D02*
Y579666D01*
X764887Y585195D02*
Y593214D01*
X773684Y585064D02*
X777200Y581548D01*
Y532678D02*
Y567650D01*
X773684Y585064D02*
Y586232D01*
X777200Y567650D02*
Y581548D01*
X796948Y543664D02*
Y588579D01*
X790448Y540972D02*
Y587453D01*
X783844Y536956D02*
Y586432D01*
X677708Y611922D02*
X773605D01*
X681312Y606334D02*
X771568D01*
X666700Y583134D02*
X684058Y600492D01*
X660200Y585222D02*
X681312Y606334D01*
X684058Y600492D02*
X769784D01*
X653700Y587914D02*
X677708Y611922D01*
X769784Y600492D02*
X783844Y586432D01*
X771568Y606334D02*
X790448Y587453D01*
X773605Y611922D02*
X796948Y588579D01*
X908118Y567743D02*
Y583115D01*
X908025Y528295D02*
Y567650D01*
X908118Y583115D02*
X908237Y583233D01*
X908025Y567650D02*
X908118Y567743D01*
X1018500Y525486D02*
Y567650D01*
X796544Y513334D02*
X1006348D01*
X1018500Y525486D01*
X992500Y529918D02*
X993902Y528516D01*
X992500Y529918D02*
Y567650D01*
X993902Y527347D02*
Y528516D01*
X966784Y567934D02*
Y578480D01*
X966500Y567650D02*
X966784Y567934D01*
X1026194Y615200D02*
Y622741D01*
Y615200D02*
X1031494Y609900D01*
X1047750D01*
X987011Y598707D02*
X1015348D01*
X966784Y578480D02*
X987011Y598707D01*
X1032764Y520700D02*
Y581291D01*
X1015348Y598707D02*
X1032764Y581291D01*
X1027876Y603400D02*
X1047750D01*
X1019461Y611814D02*
X1027876Y603400D01*
X985847Y814803D02*
Y836922D01*
X985694Y837075D02*
X985847Y836922D01*
Y814803D02*
X986000Y814650D01*
X976368Y832666D02*
Y833834D01*
X979500Y814650D02*
Y829534D01*
X976368Y832666D02*
X979500Y829534D01*
X952500Y771398D02*
X1016498Y707400D01*
X963676Y770382D02*
X1020158Y713900D01*
X1089660Y841260D02*
Y855980D01*
X1020158Y713900D02*
X1047750D01*
X1096010Y514350D02*
Y525748D01*
X1016498Y707400D02*
X1047750D01*
X806639Y681293D02*
X844342D01*
X844449Y681187D01*
X738152Y814698D02*
X738200Y814650D01*
X738105Y830805D02*
X738152Y830758D01*
Y814698D02*
Y830758D01*
X744700Y814650D02*
X744891Y814841D01*
Y838160D01*
X745083Y838352D01*
X568452Y647700D02*
X570484Y645668D01*
Y637067D02*
X570566Y636985D01*
X570484Y637067D02*
Y645668D01*
X561340Y647700D02*
X568452D01*
X865797Y713947D02*
X892349D01*
X895310Y716908D01*
X806450Y713900D02*
X865750D01*
X1029306Y668400D02*
X1047634D01*
X1047692Y668458D01*
X1027794Y666887D02*
X1029306Y668400D01*
X1026625Y666887D02*
X1027794D01*
X1018018Y675011D02*
X1047387D01*
X1017908Y675122D02*
X1018018Y675011D01*
X1047387D02*
X1047513Y675137D01*
X806450Y681482D02*
X806639Y681293D01*
X1089959Y647739D02*
Y688764D01*
X1074475Y713900D02*
X1096346Y692029D01*
Y639909D02*
Y692029D01*
X1071323Y707400D02*
X1089959Y688764D01*
X1047750Y707400D02*
X1071323D01*
X1047750Y713900D02*
X1074475D01*
X660200Y786800D02*
Y814650D01*
X656584Y783184D02*
X660200Y786800D01*
X640588Y790448D02*
X647852Y783184D01*
X656584D01*
X666549Y755287D02*
X690061Y731775D01*
X654053Y772400D02*
X659912Y766541D01*
Y752731D02*
X682695Y729949D01*
X659912Y752731D02*
Y766541D01*
X624450Y772400D02*
X654053D01*
X666549Y755287D02*
Y769558D01*
X624450Y778900D02*
X657206D01*
X666549Y769558D01*
X598103Y713544D02*
X604248Y707400D01*
X624450D01*
X598103Y713544D02*
Y718338D01*
X577772Y657612D02*
X578940D01*
X561489Y660549D02*
X574835D01*
X577772Y657612D01*
X574670Y673148D02*
X579238Y668580D01*
X561388Y673148D02*
X574670D01*
X562033Y685107D02*
X573358D01*
X579536Y678929D01*
X561340Y685800D02*
X562033Y685107D01*
X561340Y698500D02*
X561383Y698457D01*
X574395D01*
X579767Y693085D01*
X1185672Y617728D02*
Y617982D01*
X1029193Y681400D02*
X1047750D01*
X1074477D01*
X1082836Y673041D01*
X1096518Y824992D02*
Y834402D01*
X1089660Y841260D02*
X1096518Y834402D01*
Y799793D02*
Y824992D01*
Y799793D02*
X1111307Y785004D01*
X1127287Y600413D02*
X1178550D01*
X1114665Y587790D02*
X1127287Y600413D01*
X1114665Y507766D02*
Y587790D01*
X1050555Y502909D02*
X1109808D01*
X1114665Y507766D01*
X1032764Y520700D02*
X1050555Y502909D01*
X1185672Y617982D02*
X1193128Y625438D01*
X1175258Y639572D02*
X1175396Y639710D01*
X1185672Y630326D02*
X1187217Y631872D01*
X1185672Y629158D02*
Y630326D01*
X1152049Y739900D02*
X1169485Y722464D01*
X1154742Y746400D02*
X1175396Y725746D01*
Y639710D02*
Y725746D01*
X1193128Y625438D02*
Y736099D01*
X1153859Y785004D02*
X1199039Y739825D01*
X1111307Y785004D02*
X1153859D01*
X1199039Y620902D02*
Y739825D01*
X1187217Y631872D02*
Y732818D01*
X1047750Y772400D02*
X1147635D01*
X1187217Y732818D01*
X1135380Y625348D02*
X1172271D01*
X1181488Y634566D02*
Y728846D01*
X1172271Y625348D02*
X1181488Y634566D01*
X1157434Y752900D02*
X1181488Y728846D01*
X1135380Y635254D02*
X1153784D01*
X1169485Y650955D02*
Y722464D01*
X1153784Y635254D02*
X1169485Y650955D01*
X1087432Y534326D02*
X1096010Y525748D01*
X1082836Y641612D02*
Y673041D01*
X1087432Y534326D02*
Y637015D01*
X1082836Y641612D02*
X1087432Y637015D01*
X865750Y778900D02*
X902698D01*
X918276Y763322D01*
X705358Y525696D02*
X705529Y525867D01*
Y567479D01*
X757700Y533128D02*
Y567650D01*
X1178550Y600413D02*
X1199039Y620902D01*
X790194Y500634D02*
X1012698D01*
X757700Y533128D02*
X790194Y500634D01*
X751139Y513649D02*
Y567589D01*
X751200Y567650D01*
X751078Y513588D02*
X751139Y513649D01*
X561340Y749300D02*
X561466Y749426D01*
X578258D02*
X578446D01*
X561466D02*
X578258D01*
X561340Y762000D02*
X561415Y761925D01*
X578542D01*
X1047750Y778900D02*
X1150328D01*
X1193128Y736099D01*
X1022976Y778900D02*
X1047750D01*
D20*
X999014Y567664D02*
Y589337D01*
X605838Y765937D02*
X624413D01*
X607505Y726900D02*
X624450D01*
Y720400D02*
X638260D01*
X643400Y715260D01*
Y698940D02*
Y709205D01*
Y715260D01*
X624450Y694400D02*
X638860D01*
X643400Y698940D01*
X624450Y661900D02*
X638260D01*
X640946Y659214D01*
X641681D02*
Y659338D01*
X607252Y655400D02*
X624450D01*
X643791Y685006D02*
X644822D01*
X640185Y681400D02*
X643791Y685006D01*
X624450Y681400D02*
X640185D01*
X624450Y616400D02*
X638177D01*
X642382Y620605D01*
Y621010D01*
X624424Y622926D02*
X624450Y622900D01*
X607946Y622926D02*
X624424D01*
X679670Y567680D02*
Y584892D01*
Y567680D02*
X679696Y567654D01*
X679634Y584928D02*
X679670Y584892D01*
X708394Y586051D02*
Y587082D01*
X712200Y567650D02*
Y582245D01*
X708394Y586051D02*
X712200Y582245D01*
X718730Y567680D02*
Y586270D01*
X718700Y567650D02*
X718730Y567680D01*
Y586270D02*
X719365Y586906D01*
X712200Y553818D02*
Y567650D01*
Y553818D02*
X713688Y552330D01*
X723712D02*
X725200Y553818D01*
Y567650D01*
X713688Y552330D02*
X723712D01*
X758034Y585523D02*
X764200Y579357D01*
Y567650D02*
Y579357D01*
X787097Y661826D02*
X787141Y661870D01*
X806420D02*
X806450Y661900D01*
X1005500Y567650D02*
X1005500Y567650D01*
X960030Y591677D02*
X960229Y591876D01*
X960000Y567650D02*
X960030Y567680D01*
Y591677D01*
X788416Y755904D02*
X789144D01*
X788416Y770124D02*
X792640Y765900D01*
Y759400D02*
X806450D01*
X792640Y765900D02*
X806450D01*
X789144Y755904D02*
X792640Y759400D01*
X788416Y770124D02*
Y771014D01*
X953500Y814650D02*
Y836478D01*
X946533Y843445D02*
X953500Y836478D01*
X963835Y842250D02*
Y843281D01*
X960000Y838416D02*
X963835Y842250D01*
X960000Y814650D02*
Y838416D01*
X1062907Y765900D02*
X1068108Y760699D01*
X1047750Y765900D02*
X1062907D01*
X1079611Y760699D02*
X1080747Y761835D01*
X1066690Y720430D02*
X1067086Y720826D01*
X1047780Y720430D02*
X1066690D01*
X1047750Y720400D02*
X1047780Y720430D01*
X1047750Y616400D02*
X1065387D01*
X824980Y687930D02*
X825223Y688174D01*
X806450Y687900D02*
X806480Y687930D01*
X824980D01*
X824277Y700870D02*
X824522Y700625D01*
X806480Y700870D02*
X824277D01*
X806450Y700900D02*
X806480Y700870D01*
X824522Y700625D02*
X825048D01*
X893277Y759723D02*
X894308D01*
X891307Y757753D02*
X893277Y759723D01*
X865780Y759370D02*
X875284D01*
X880893Y757753D02*
X891307D01*
X875284Y759370D02*
X875413Y759241D01*
X879406D02*
X880893Y757753D01*
X875413Y759241D02*
X879406D01*
X865750Y759400D02*
X865780Y759370D01*
X865750Y765900D02*
X882976D01*
X883925Y764950D01*
X884957D01*
X712170Y814680D02*
X712200Y814650D01*
X712170Y814680D02*
Y834509D01*
X709260Y837419D02*
Y842764D01*
Y837419D02*
X712170Y834509D01*
X718700Y814650D02*
Y834089D01*
X722612Y838001D01*
Y842293D01*
X722865Y842546D01*
X848679Y726870D02*
X848841Y726708D01*
X806450Y726900D02*
X806480Y726870D01*
X848679D01*
X850601Y726900D02*
X865750D01*
X836346Y720400D02*
X865750D01*
X865750Y720400D01*
X845418Y616370D02*
X865720D01*
X845155D02*
X845286Y616239D01*
X806450Y616400D02*
X806480Y616370D01*
X845286Y616239D02*
X845418Y616370D01*
X865720D02*
X865750Y616400D01*
X806480Y616370D02*
X845155D01*
X832945Y623035D02*
X833050Y622930D01*
X865720D02*
X865750Y622900D01*
X806480Y622930D02*
X832841D01*
X833050D02*
X865720D01*
X832841D02*
X832945Y623035D01*
X806450Y622900D02*
X806480Y622930D01*
X836327Y659102D02*
X840028Y655400D01*
X806450D02*
X830563D01*
X840028D02*
X865750D01*
X830563D02*
X834265Y659102D01*
X1032736Y661900D02*
X1047750D01*
X1025993Y726045D02*
X1027024D01*
X1027878Y726900D01*
X1047750D01*
X1017381Y657430D02*
X1028265D01*
X1032736Y661900D01*
X1064029Y687930D02*
X1064314Y688215D01*
X1047750Y687900D02*
X1047780Y687930D01*
X1064029D01*
X1047750Y700900D02*
X1066213D01*
X1071288Y695826D02*
Y696096D01*
X1080008Y824992D02*
X1080365Y824635D01*
Y814130D02*
Y824635D01*
X624450Y759400D02*
X638260D01*
X644251Y765391D01*
Y765655D01*
X882197Y681400D02*
X882565Y681768D01*
X865750Y681400D02*
X882197D01*
X882565Y681768D02*
X883990D01*
X884031Y681727D01*
X917194Y589295D02*
X919213D01*
X921000Y587508D01*
X914669Y591820D02*
X917194Y589295D01*
X913638Y591820D02*
X914669D01*
X921000Y567702D02*
Y587508D01*
X953500Y567650D02*
Y587485D01*
X949963Y591023D02*
Y592054D01*
Y591023D02*
X953500Y587485D01*
X1064353Y622900D02*
X1067342Y625889D01*
X1047750Y622900D02*
X1064353D01*
X1067342Y625889D02*
X1068373D01*
X1064330Y655400D02*
X1065246Y654484D01*
X1047750Y655400D02*
X1064330D01*
X921000Y567702D02*
X921026Y567676D01*
X834265Y659102D02*
X835296D01*
X836327D01*
X1066213Y700900D02*
X1071288Y695826D01*
X640946Y659214D02*
X641681D01*
X787141Y661870D02*
X806420D01*
X865750Y661900D02*
X885029D01*
X806450Y720400D02*
X837047D01*
X865750Y694400D02*
X885029D01*
X1033980Y759400D02*
X1047750D01*
X1031634Y761746D02*
X1033980Y759400D01*
X1030732Y761746D02*
X1031634D01*
X1103630Y514350D02*
X1103633Y514353D01*
X1103225Y523362D02*
X1103633Y522954D01*
Y514353D02*
Y522954D01*
X1103225Y523362D02*
Y523910D01*
X1103636Y524321D01*
X1005500Y540257D02*
X1005500Y540257D01*
X1005500Y540257D02*
Y567650D01*
D21*
X1088390Y514302D02*
Y514350D01*
X596082Y765732D02*
X605557D01*
X594952Y764602D02*
X596082Y765732D01*
X605557D02*
X605800Y765975D01*
X594571Y748097D02*
X594952D01*
X589922Y743448D02*
X594571Y748097D01*
X589922Y736219D02*
Y743448D01*
Y736219D02*
X590165Y735976D01*
X598428D02*
X607505Y726900D01*
X590165Y735976D02*
X598428D01*
X581466Y646813D02*
X590053Y655400D01*
X607252D01*
X607920Y622951D02*
X607946Y622926D01*
X581337Y622951D02*
X607920D01*
X1068108Y760699D02*
X1079611D01*
X1068108Y720826D02*
X1068351Y720583D01*
X1080228D01*
X1080706Y720105D01*
X1078546Y609554D02*
X1078926Y609174D01*
Y608793D02*
Y609174D01*
X561358Y812818D02*
Y825691D01*
X561340Y812800D02*
X561358Y812818D01*
X539537Y621142D02*
X553281D01*
X538492Y606838D02*
X538541Y606788D01*
X538492Y606838D02*
Y622187D01*
X538443Y622236D02*
X538492Y622187D01*
X539537Y621142D01*
X486379Y606890D02*
Y622262D01*
X486417Y622299D01*
X486342Y606852D02*
X486379Y606890D01*
X486276Y622440D02*
X486417Y622299D01*
X472860Y622440D02*
X486276D01*
X472719Y622580D02*
X472860Y622440D01*
X1126236Y722376D02*
X1135888Y712724D01*
X1097280Y722376D02*
X1126236D01*
X1097266Y762199D02*
X1135833D01*
X1097211Y762144D02*
X1097266Y762199D01*
X1135833D02*
X1135888Y762254D01*
X579030Y708406D02*
X579374D01*
X576744Y710692D02*
X579030Y708406D01*
X561848Y710692D02*
X576744D01*
X561340Y711200D02*
X561848Y710692D01*
X1065246Y654484D02*
X1068373Y651357D01*
Y625889D02*
Y651357D01*
Y625889D02*
X1068616Y626132D01*
X1078549D02*
X1079061Y626643D01*
X1067838Y615325D02*
X1070864Y612298D01*
X1067494Y615325D02*
X1067838D01*
X1070864Y612298D02*
X1076901D01*
X1075246Y514302D02*
X1088390D01*
X1068616Y626132D02*
X1078549D01*
X553281Y621142D02*
X553864Y620558D01*
X1076901Y612298D02*
X1079061Y610138D01*
X644469Y529660D02*
X644486Y529642D01*
X654841D02*
X654859Y529625D01*
X644486Y529642D02*
X654841D01*
D22*
X513105Y642907D02*
X513999D01*
X469900Y647700D02*
X508312D01*
X513105Y642907D01*
D23*
X479087Y628106D02*
D03*
D24*
X546669Y626886D02*
D03*
D25*
X512542Y628967D02*
D03*
D26*
X1135700Y828300D02*
D03*
Y547300D02*
D03*
X513400D02*
D03*
Y828300D02*
D03*
D27*
X973074Y534924D02*
D03*
X914908Y544576D02*
D03*
X927100Y551180D02*
D03*
X979424Y545084D02*
D03*
X943356Y545592D02*
D03*
X941832Y534416D02*
D03*
X686054Y550926D02*
D03*
X672846Y544576D02*
D03*
X728980Y506476D02*
D03*
X727456Y518414D02*
D03*
X741680Y518922D02*
D03*
X695960Y537464D02*
D03*
X688594Y529590D02*
D03*
X955802Y537972D02*
D03*
X986028Y521208D02*
D03*
X655066Y629756D02*
D03*
Y642756D02*
D03*
X645414Y649613D02*
D03*
X1017016Y629874D02*
D03*
X1026668Y636016D02*
D03*
X1017016Y642874D02*
D03*
X1026668Y649732D02*
D03*
X655066Y603755D02*
D03*
X645532Y668516D02*
D03*
X655184Y675374D02*
D03*
X965708Y693529D02*
D03*
Y678869D02*
D03*
X973345Y671540D02*
D03*
X965708Y664210D02*
D03*
X973345Y700859D02*
D03*
X965708Y708188D02*
D03*
X973345Y715518D02*
D03*
Y686199D02*
D03*
X990854Y786130D02*
D03*
X1001776Y786384D02*
D03*
X1011682Y790194D02*
D03*
X918539Y731567D02*
D03*
X910902Y753557D02*
D03*
X918539Y746227D02*
D03*
X910902Y709578D02*
D03*
X918539Y716908D02*
D03*
X910902Y724238D02*
D03*
Y738897D02*
D03*
X975360Y790956D02*
D03*
X1175258Y639572D02*
D03*
X974090Y781050D02*
D03*
X1135380Y635254D02*
D03*
X962914Y781812D02*
D03*
X1135380Y645160D02*
D03*
X963676Y770382D02*
D03*
X952246Y771398D02*
D03*
X751210Y783319D02*
D03*
X770636Y741934D02*
D03*
X764032Y755396D02*
D03*
X666592Y797800D02*
D03*
X640588Y804672D02*
D03*
X826516Y798068D02*
D03*
X652780Y790702D02*
D03*
X839216Y800608D02*
D03*
X1097534Y845058D02*
D03*
X1082040Y838454D02*
D03*
X512843Y807663D02*
D03*
Y797684D02*
D03*
Y787705D02*
D03*
Y777726D02*
D03*
Y767747D02*
D03*
Y757769D02*
D03*
Y707875D02*
D03*
Y697896D02*
D03*
Y687917D02*
D03*
X578258Y723958D02*
D03*
Y736746D02*
D03*
X587481Y775335D02*
D03*
X757428Y768604D02*
D03*
X693166Y775208D02*
D03*
X587481Y790471D02*
D03*
Y805522D02*
D03*
X682306Y687689D02*
D03*
X674940Y694547D02*
D03*
X667574Y701405D02*
D03*
X660208Y708263D02*
D03*
X689672Y680831D02*
D03*
X692860Y761779D02*
D03*
X693002Y748574D02*
D03*
X697056Y734936D02*
D03*
X512843Y717853D02*
D03*
X660654Y545592D02*
D03*
X641089D02*
D03*
X605800Y765975D02*
D03*
X589922Y736219D02*
D03*
X607716Y714799D02*
D03*
X652842Y715121D02*
D03*
X594390Y727573D02*
D03*
X643400Y709205D02*
D03*
X641681Y659338D02*
D03*
X581466Y646813D02*
D03*
X644822Y685006D02*
D03*
X645414Y635897D02*
D03*
Y610614D02*
D03*
X642382Y621010D02*
D03*
X512843Y747790D02*
D03*
Y737811D02*
D03*
X764887Y593214D02*
D03*
X581337Y622951D02*
D03*
X679634Y584928D02*
D03*
X643661Y594490D02*
D03*
X708394Y587082D02*
D03*
X719365Y586906D02*
D03*
X758034Y585523D02*
D03*
X773684Y586232D02*
D03*
X788213Y661717D02*
D03*
X884094Y662053D02*
D03*
X908237Y583233D02*
D03*
X993902Y527347D02*
D03*
X1026194Y622741D02*
D03*
X960229Y592054D02*
D03*
X999014Y589337D02*
D03*
X1039030Y588612D02*
D03*
X1019461Y611814D02*
D03*
X884094Y694553D02*
D03*
X788416Y755904D02*
D03*
Y771014D02*
D03*
X985694Y837075D02*
D03*
X976368Y833834D02*
D03*
X946533Y843445D02*
D03*
X963835Y843281D02*
D03*
X1068108Y760699D02*
D03*
Y720826D02*
D03*
X1067494Y615325D02*
D03*
X1096346Y639909D02*
D03*
X1089959Y647739D02*
D03*
X844449Y681187D02*
D03*
X825223Y688174D02*
D03*
X825048Y700625D02*
D03*
X894308Y759723D02*
D03*
X884957Y764950D02*
D03*
X738105Y830805D02*
D03*
X745083Y838352D02*
D03*
X709260Y842764D02*
D03*
X722865D02*
D03*
X570566Y636985D02*
D03*
X848841Y726708D02*
D03*
X836346Y720400D02*
D03*
X845286Y616239D02*
D03*
X832945Y623035D02*
D03*
X835296Y659102D02*
D03*
X1026625Y682333D02*
D03*
X1025993Y726045D02*
D03*
X1017381Y657430D02*
D03*
X1026625Y666887D02*
D03*
X1017381Y675122D02*
D03*
X1064314Y688215D02*
D03*
X1071288Y696096D02*
D03*
X1135888Y712724D02*
D03*
Y762254D02*
D03*
X1135470Y810300D02*
D03*
X1080365Y814130D02*
D03*
X644251Y765655D02*
D03*
X533892Y821283D02*
D03*
X513999Y642907D02*
D03*
X516957Y653440D02*
D03*
X512426Y619003D02*
D03*
X512542Y607450D02*
D03*
X513147Y573872D02*
D03*
X512843Y727832D02*
D03*
X598103Y718338D02*
D03*
X579536Y657612D02*
D03*
Y668270D02*
D03*
Y678929D02*
D03*
Y693085D02*
D03*
X579374Y708406D02*
D03*
X788410Y674974D02*
D03*
X746141Y662311D02*
D03*
X918798Y702119D02*
D03*
X884031Y682202D02*
D03*
X913638Y591820D02*
D03*
X949963Y592054D02*
D03*
X1068373Y625889D02*
D03*
X1185672Y629158D02*
D03*
Y617728D02*
D03*
X1135380Y625348D02*
D03*
Y661717D02*
D03*
X1094905Y608794D02*
D03*
X1030732Y761746D02*
D03*
X1103636Y524321D02*
D03*
X644469Y529660D02*
D03*
X918276Y763322D02*
D03*
X1005500Y540257D02*
D03*
X705358Y525696D02*
D03*
X751078Y513588D02*
D03*
X578258Y749426D02*
D03*
X578542Y761925D02*
D03*
D28*
X553685Y602681D02*
D03*
Y582741D02*
D03*
X473115Y607859D02*
D03*
Y587859D02*
D03*
X1075246Y514302D02*
D03*
X561358Y825691D02*
D03*
X553685Y620558D02*
D03*
Y632872D02*
D03*
X472719Y622580D02*
D03*
X472757Y634290D02*
D03*
M02*
