%FSLAX44Y44*%
%MOMM*%
G71*
G01*
G75*
G04 Layer_Physical_Order=3*
G04 Layer_Color=128*
%ADD10R,0.9652X0.8890*%
%ADD11R,1.0160X0.9398*%
%ADD12R,1.0160X0.9400*%
%ADD13R,0.5080X0.7620*%
%ADD14R,0.2600X2.0000*%
%ADD15R,2.0000X0.2600*%
%ADD16R,0.9400X1.0160*%
%ADD17R,0.9398X1.0160*%
%ADD18R,2.0320X0.6096*%
%ADD19C,0.2032*%
%ADD20C,0.2540*%
%ADD21C,0.5080*%
%ADD22C,0.3048*%
%ADD23R,2.4804X2.2690*%
%ADD24R,2.5943X2.2690*%
%ADD25R,3.0073X5.6504*%
%ADD26C,1.3000*%
%ADD27C,0.6350*%
%ADD28C,0.8128*%
%ADD29C,1.0160*%
%ADD30C,1.8080*%
%ADD31C,0.8382*%
%ADD32C,0.9398*%
D22*
X577104Y820805D02*
Y874703D01*
X559164Y802865D02*
X577104Y820805D01*
X500149Y802865D02*
X559164D01*
X465370Y618725D02*
X468486Y615610D01*
X490280D01*
X505925Y599965D01*
X526815D01*
X538390Y611540D01*
X599656D01*
X627318Y583878D01*
X653077D01*
X663332Y594132D01*
X689164D01*
X710514Y572783D01*
X869456D01*
X897223Y600550D01*
X921871D01*
X941247Y581174D01*
X969413D01*
X986336Y598097D01*
X1007090D01*
X1030065Y575122D01*
X1204218D01*
X493964Y796680D02*
X500149Y802865D01*
X493964Y674742D02*
Y796680D01*
X465370Y646148D02*
X493964Y674742D01*
X465370Y618725D02*
Y646148D01*
D29*
X444500Y520700D02*
G03*
X469900Y495300I25400J0D01*
G01*
X1181100D02*
G03*
X1206500Y520700I0J25400D01*
G01*
Y850900D02*
G03*
X1181100Y876300I-25400J0D01*
G01*
X469900D02*
G03*
X444500Y850900I0J-25400D01*
G01*
X469900Y495300D02*
X1181100D01*
X1206500Y520700D02*
Y850900D01*
X469900Y876300D02*
X1181100D01*
X444500Y520700D02*
Y850900D01*
D30*
X1135700Y828300D02*
D03*
Y547300D02*
D03*
X513400D02*
D03*
Y828300D02*
D03*
D31*
X973074Y534924D02*
D03*
X914908Y544576D02*
D03*
X927100Y551180D02*
D03*
X979424Y545084D02*
D03*
X943356Y545592D02*
D03*
X941832Y534416D02*
D03*
X686054Y550926D02*
D03*
X672846Y544576D02*
D03*
X728980Y506476D02*
D03*
X727456Y518414D02*
D03*
X741680Y518922D02*
D03*
X695960Y537464D02*
D03*
X688594Y529590D02*
D03*
X955802Y537972D02*
D03*
X986028Y521208D02*
D03*
X655066Y629756D02*
D03*
Y642756D02*
D03*
X645414Y649613D02*
D03*
X1017016Y629874D02*
D03*
X1026668Y636016D02*
D03*
X1017016Y642874D02*
D03*
X1026668Y649732D02*
D03*
X655066Y603755D02*
D03*
X645532Y668516D02*
D03*
X655184Y675374D02*
D03*
X965708Y693529D02*
D03*
Y678869D02*
D03*
X973345Y671540D02*
D03*
X965708Y664210D02*
D03*
X973345Y700859D02*
D03*
X965708Y708188D02*
D03*
X973345Y715518D02*
D03*
Y686199D02*
D03*
X990854Y786130D02*
D03*
X1001776Y786384D02*
D03*
X1011682Y790194D02*
D03*
X918539Y731567D02*
D03*
X910902Y753557D02*
D03*
X918539Y746227D02*
D03*
X910902Y709578D02*
D03*
X918539Y716908D02*
D03*
X910902Y724238D02*
D03*
Y738897D02*
D03*
X975360Y790956D02*
D03*
X1175258Y639572D02*
D03*
X974090Y781050D02*
D03*
X1135380Y635254D02*
D03*
X962914Y781812D02*
D03*
X1135380Y645160D02*
D03*
X963676Y770382D02*
D03*
X952246Y771398D02*
D03*
X751210Y783319D02*
D03*
X770636Y741934D02*
D03*
X764032Y755396D02*
D03*
X666592Y797800D02*
D03*
X640588Y804672D02*
D03*
X826516Y798068D02*
D03*
X652780Y790702D02*
D03*
X839216Y800608D02*
D03*
X1097534Y845058D02*
D03*
X1082040Y838454D02*
D03*
X512843Y807663D02*
D03*
Y797684D02*
D03*
Y787705D02*
D03*
Y777726D02*
D03*
Y767747D02*
D03*
Y757769D02*
D03*
Y707875D02*
D03*
Y697896D02*
D03*
Y687917D02*
D03*
X578258Y723958D02*
D03*
Y736746D02*
D03*
X587481Y775335D02*
D03*
X757428Y768604D02*
D03*
X693166Y775208D02*
D03*
X587481Y790471D02*
D03*
Y805522D02*
D03*
X682306Y687689D02*
D03*
X674940Y694547D02*
D03*
X667574Y701405D02*
D03*
X660208Y708263D02*
D03*
X689672Y680831D02*
D03*
X692860Y761779D02*
D03*
X693002Y748574D02*
D03*
X697056Y734936D02*
D03*
X512843Y717853D02*
D03*
X660654Y545592D02*
D03*
X641089D02*
D03*
X589922Y736219D02*
D03*
X607716Y714799D02*
D03*
X652842Y715121D02*
D03*
X594390Y727573D02*
D03*
X581466Y646813D02*
D03*
X644822Y685006D02*
D03*
X645414Y635897D02*
D03*
Y610614D02*
D03*
X512843Y747790D02*
D03*
Y737811D02*
D03*
X764887Y593214D02*
D03*
X581337Y622951D02*
D03*
X643661Y594490D02*
D03*
X708394Y587082D02*
D03*
X758034Y585523D02*
D03*
X773684Y586232D02*
D03*
X908237Y583233D02*
D03*
X993902Y527347D02*
D03*
X1026194Y622741D02*
D03*
X1039030Y588612D02*
D03*
X1019461Y611814D02*
D03*
X788416Y755904D02*
D03*
X985694Y837075D02*
D03*
X976368Y833834D02*
D03*
X963835Y843281D02*
D03*
X1096346Y639909D02*
D03*
X1089959Y647739D02*
D03*
X844449Y681187D02*
D03*
X825048Y700625D02*
D03*
X894308Y759723D02*
D03*
X738105Y830805D02*
D03*
X745083Y838352D02*
D03*
X722865Y842764D02*
D03*
X570566Y636985D02*
D03*
X848841Y726708D02*
D03*
X832945Y623035D02*
D03*
X835296Y659102D02*
D03*
X1026625Y682333D02*
D03*
X1025993Y726045D02*
D03*
X1026625Y666887D02*
D03*
X1017381Y675122D02*
D03*
X1071288Y696096D02*
D03*
X1135888Y712724D02*
D03*
Y762254D02*
D03*
X1135470Y810300D02*
D03*
X1080365Y814130D02*
D03*
X644251Y765655D02*
D03*
X533892Y821283D02*
D03*
X513999Y642907D02*
D03*
X516957Y653440D02*
D03*
X512426Y619003D02*
D03*
X512542Y607450D02*
D03*
X513147Y573872D02*
D03*
X512843Y727832D02*
D03*
X598103Y718338D02*
D03*
X579536Y657612D02*
D03*
Y668270D02*
D03*
Y678929D02*
D03*
Y693085D02*
D03*
X579374Y708406D02*
D03*
X788410Y674974D02*
D03*
X746141Y662311D02*
D03*
X918798Y702119D02*
D03*
X884031Y682202D02*
D03*
X949963Y592054D02*
D03*
X1068373Y625889D02*
D03*
X1185672Y629158D02*
D03*
Y617728D02*
D03*
X1135380Y625348D02*
D03*
Y661717D02*
D03*
X1094905Y608794D02*
D03*
X1030732Y761746D02*
D03*
X1103636Y524321D02*
D03*
X918276Y763322D02*
D03*
X1005500Y540257D02*
D03*
X705358Y525696D02*
D03*
X751078Y513588D02*
D03*
X578258Y749426D02*
D03*
X578542Y761925D02*
D03*
M02*
