%FSLAX44Y44*%
%MOMM*%
G71*
G01*
G75*
%ADD10R,0.9652X0.8890*%
%ADD11R,1.0160X0.9398*%
%ADD12R,1.0160X0.9400*%
%ADD13R,0.5080X0.7620*%
%ADD14R,0.2600X2.0000*%
%ADD15R,2.0000X0.2600*%
%ADD16R,0.9400X1.0160*%
%ADD17R,0.9398X1.0160*%
%ADD18R,2.0320X0.6096*%
%ADD19C,0.2032*%
%ADD20C,0.2540*%
%ADD21C,0.5080*%
%ADD22C,0.3048*%
%ADD23R,2.4804X2.2690*%
%ADD24R,2.5943X2.2690*%
%ADD25R,3.0073X5.6504*%
%ADD26C,1.3000*%
%ADD27C,0.6350*%
%ADD28C,0.8128*%
%ADD29C,1.0160*%
%ADD30C,1.8080*%
%ADD31C,0.8382*%
%ADD32C,0.9398*%
%ADD33R,2.2000X0.3600*%
%ADD34R,3.0000X1.0000*%
%ADD35C,0.3302*%
%ADD36R,0.9424X1.9914*%
%ADD37R,2.5048X2.1810*%
%ADD38R,2.9171X1.1903*%
%ADD39C,0.1270*%
%ADD40C,0.1524*%
%ADD41C,0.1500*%
%ADD42R,1.1684X1.0922*%
%ADD43R,1.2192X1.1430*%
%ADD44R,1.2192X1.1432*%
%ADD45R,0.7112X0.9652*%
%ADD46R,0.4632X2.2032*%
%ADD47R,2.2032X0.4632*%
%ADD48R,1.1432X1.2192*%
%ADD49R,1.1430X1.2192*%
%ADD50R,2.2352X0.8128*%
%ADD51R,2.4032X0.5632*%
%ADD52R,3.2032X1.2032*%
%ADD53C,0.1693*%
D39*
X1129200Y828300D02*
X1142200D01*
X1135700Y821800D02*
Y834800D01*
X1129200Y547300D02*
X1142200D01*
X1135700Y540800D02*
Y553800D01*
X971423Y534924D02*
X974725D01*
X973074Y533273D02*
Y536575D01*
X913257Y544576D02*
X916559D01*
X914908Y542925D02*
Y546227D01*
X925449Y551180D02*
X928751D01*
X927100Y549529D02*
Y552831D01*
X977773Y545084D02*
X981075D01*
X979424Y543433D02*
Y546735D01*
X941705Y545592D02*
X945007D01*
X943356Y543941D02*
Y547243D01*
X940181Y534416D02*
X943483D01*
X941832Y532765D02*
Y536067D01*
X684403Y550926D02*
X687705D01*
X686054Y549275D02*
Y552577D01*
X671195Y544576D02*
X674497D01*
X672846Y542925D02*
Y546227D01*
X727329Y506476D02*
X730631D01*
X728980Y504825D02*
Y508127D01*
X725805Y518414D02*
X729107D01*
X727456Y516763D02*
Y520065D01*
X740029Y518922D02*
X743331D01*
X741680Y517271D02*
Y520573D01*
X694309Y537464D02*
X697611D01*
X695960Y535813D02*
Y539115D01*
X686943Y529590D02*
X690245D01*
X688594Y527939D02*
Y531241D01*
X954151Y537972D02*
X957453D01*
X955802Y536321D02*
Y539623D01*
X984377Y521208D02*
X987679D01*
X986028Y519557D02*
Y522859D01*
X653415Y629756D02*
X656717D01*
X655066Y628105D02*
Y631407D01*
X653415Y642756D02*
X656717D01*
X655066Y641105D02*
Y644407D01*
X643763Y649613D02*
X647065D01*
X645414Y647962D02*
Y651264D01*
X1015365Y629874D02*
X1018667D01*
X1017016Y628223D02*
Y631525D01*
X1025017Y636016D02*
X1028319D01*
X1026668Y634365D02*
Y637667D01*
X1015365Y642874D02*
X1018667D01*
X1017016Y641223D02*
Y644525D01*
X1025017Y649732D02*
X1028319D01*
X1026668Y648081D02*
Y651383D01*
X653415Y603755D02*
X656717D01*
X655066Y602104D02*
Y605406D01*
X643881Y668516D02*
X647183D01*
X645532Y666865D02*
Y670167D01*
X653533Y675374D02*
X656835D01*
X655184Y673723D02*
Y677025D01*
X964057Y693529D02*
X967359D01*
X965708Y691878D02*
Y695180D01*
X964057Y678869D02*
X967359D01*
X965708Y677218D02*
Y680520D01*
X971694Y671540D02*
X974996D01*
X973345Y669889D02*
Y673191D01*
X964057Y664210D02*
X967359D01*
X965708Y662559D02*
Y665861D01*
X971694Y700859D02*
X974996D01*
X973345Y699208D02*
Y702510D01*
X964057Y708188D02*
X967359D01*
X965708Y706537D02*
Y709839D01*
X971694Y715518D02*
X974996D01*
X973345Y713867D02*
Y717169D01*
X971694Y686199D02*
X974996D01*
X973345Y684548D02*
Y687850D01*
X989203Y786130D02*
X992505D01*
X990854Y784479D02*
Y787781D01*
X1000125Y786384D02*
X1003427D01*
X1001776Y784733D02*
Y788035D01*
X1010031Y790194D02*
X1013333D01*
X1011682Y788543D02*
Y791845D01*
X916888Y731567D02*
X920190D01*
X918539Y729916D02*
Y733218D01*
X909251Y753557D02*
X912553D01*
X910902Y751906D02*
Y755208D01*
X916888Y746227D02*
X920190D01*
X918539Y744576D02*
Y747878D01*
X909251Y709578D02*
X912553D01*
X910902Y707927D02*
Y711229D01*
X916888Y716908D02*
X920190D01*
X918539Y715257D02*
Y718559D01*
X909251Y724238D02*
X912553D01*
X910902Y722587D02*
Y725889D01*
X909251Y738897D02*
X912553D01*
X910902Y737246D02*
Y740548D01*
X973709Y790956D02*
X977011D01*
X975360Y789305D02*
Y792607D01*
X1173607Y639572D02*
X1176909D01*
X1175258Y637921D02*
Y641223D01*
X972439Y781050D02*
X975741D01*
X974090Y779399D02*
Y782701D01*
X1133729Y635254D02*
X1137031D01*
X1135380Y633603D02*
Y636905D01*
X961263Y781812D02*
X964565D01*
X962914Y780161D02*
Y783463D01*
X1133729Y645160D02*
X1137031D01*
X1135380Y643509D02*
Y646811D01*
X962025Y770382D02*
X965327D01*
X963676Y768731D02*
Y772033D01*
X950595Y771398D02*
X953897D01*
X952246Y769747D02*
Y773049D01*
X749559Y783319D02*
X752861D01*
X751210Y781668D02*
Y784970D01*
X768985Y741934D02*
X772287D01*
X770636Y740283D02*
Y743585D01*
X762381Y755396D02*
X765683D01*
X764032Y753745D02*
Y757047D01*
X664941Y797800D02*
X668243D01*
X666592Y796149D02*
Y799451D01*
X638937Y804672D02*
X642239D01*
X640588Y803021D02*
Y806323D01*
X824865Y798068D02*
X828167D01*
X826516Y796417D02*
Y799719D01*
X651129Y790702D02*
X654431D01*
X652780Y789051D02*
Y792353D01*
X837565Y800608D02*
X840867D01*
X839216Y798957D02*
Y802259D01*
X1095883Y845058D02*
X1099185D01*
X1097534Y843407D02*
Y846709D01*
X1080389Y838454D02*
X1083691D01*
X1082040Y836803D02*
Y840105D01*
X511192Y807663D02*
X514494D01*
X512843Y806012D02*
Y809314D01*
X511192Y797684D02*
X514494D01*
X512843Y796033D02*
Y799335D01*
X511192Y787705D02*
X514494D01*
X512843Y786054D02*
Y789356D01*
X511192Y777726D02*
X514494D01*
X512843Y776075D02*
Y779377D01*
X511192Y767747D02*
X514494D01*
X512843Y766096D02*
Y769398D01*
X511192Y757769D02*
X514494D01*
X512843Y756118D02*
Y759420D01*
X511192Y707875D02*
X514494D01*
X512843Y706224D02*
Y709526D01*
X511192Y697896D02*
X514494D01*
X512843Y696245D02*
Y699547D01*
X511192Y687917D02*
X514494D01*
X512843Y686266D02*
Y689568D01*
X576607Y723958D02*
X579909D01*
X578258Y722307D02*
Y725609D01*
X576607Y736746D02*
X579909D01*
X578258Y735095D02*
Y738397D01*
X585830Y775335D02*
X589132D01*
X587481Y773684D02*
Y776986D01*
X755777Y768604D02*
X759079D01*
X757428Y766953D02*
Y770255D01*
X691515Y775208D02*
X694817D01*
X693166Y773557D02*
Y776859D01*
X585830Y790471D02*
X589132D01*
X587481Y788820D02*
Y792122D01*
X585830Y805522D02*
X589132D01*
X587481Y803871D02*
Y807173D01*
X680655Y687689D02*
X683957D01*
X682306Y686038D02*
Y689340D01*
X673289Y694547D02*
X676591D01*
X674940Y692896D02*
Y696198D01*
X665923Y701405D02*
X669225D01*
X667574Y699754D02*
Y703056D01*
X658557Y708263D02*
X661859D01*
X660208Y706612D02*
Y709914D01*
X688021Y680831D02*
X691323D01*
X689672Y679180D02*
Y682482D01*
X691209Y761779D02*
X694511D01*
X692860Y760128D02*
Y763430D01*
X691351Y748574D02*
X694653D01*
X693002Y746923D02*
Y750225D01*
X695405Y734936D02*
X698707D01*
X697056Y733285D02*
Y736587D01*
X511192Y717853D02*
X514494D01*
X512843Y716202D02*
Y719504D01*
X659003Y545592D02*
X662305D01*
X660654Y543941D02*
Y547243D01*
X551526Y602681D02*
X555844D01*
X553685Y600522D02*
Y604840D01*
X551526Y582741D02*
X555844D01*
X553685Y580582D02*
Y584900D01*
X470956Y607859D02*
X475274D01*
X473115Y605700D02*
Y610018D01*
X470956Y587859D02*
X475274D01*
X473115Y585700D02*
Y590018D01*
X1073087Y514302D02*
X1077405D01*
X1075246Y512143D02*
Y516461D01*
X639438Y545592D02*
X642740D01*
X641089Y543941D02*
Y547243D01*
X604149Y765975D02*
X607451D01*
X605800Y764324D02*
Y767626D01*
X588271Y736219D02*
X591573D01*
X589922Y734568D02*
Y737870D01*
X606065Y714799D02*
X609367D01*
X607716Y713148D02*
Y716450D01*
X651191Y715121D02*
X654493D01*
X652842Y713470D02*
Y716772D01*
X592739Y727573D02*
X596041D01*
X594390Y725922D02*
Y729224D01*
X641749Y709205D02*
X645051D01*
X643400Y707554D02*
Y710856D01*
X640030Y659338D02*
X643332D01*
X641681Y657687D02*
Y660989D01*
X579815Y646813D02*
X583117D01*
X581466Y645162D02*
Y648464D01*
X643171Y685006D02*
X646473D01*
X644822Y683355D02*
Y686657D01*
X643763Y635897D02*
X647065D01*
X645414Y634246D02*
Y637548D01*
X643763Y610614D02*
X647065D01*
X645414Y608963D02*
Y612265D01*
X640731Y621010D02*
X644033D01*
X642382Y619359D02*
Y622661D01*
X511192Y747790D02*
X514494D01*
X512843Y746139D02*
Y749441D01*
X511192Y737811D02*
X514494D01*
X512843Y736160D02*
Y739462D01*
X763236Y593214D02*
X766538D01*
X764887Y591563D02*
Y594865D01*
X579686Y622951D02*
X582988D01*
X581337Y621300D02*
Y624602D01*
X677983Y584928D02*
X681285D01*
X679634Y583277D02*
Y586579D01*
X642010Y594490D02*
X645312D01*
X643661Y592839D02*
Y596141D01*
X706743Y587082D02*
X710045D01*
X708394Y585431D02*
Y588733D01*
X717714Y586906D02*
X721016D01*
X719365Y585255D02*
Y588557D01*
X756383Y585523D02*
X759685D01*
X758034Y583872D02*
Y587174D01*
X772033Y586232D02*
X775335D01*
X773684Y584581D02*
Y587883D01*
X786562Y661717D02*
X789864D01*
X788213Y660066D02*
Y663368D01*
X882443Y662053D02*
X885745D01*
X884094Y660402D02*
Y663704D01*
X906586Y583233D02*
X909888D01*
X908237Y581582D02*
Y584884D01*
X992251Y527347D02*
X995553D01*
X993902Y525696D02*
Y528998D01*
X1024543Y622741D02*
X1027845D01*
X1026194Y621090D02*
Y624392D01*
X958578Y592054D02*
X961880D01*
X960229Y590403D02*
Y593705D01*
X997363Y589337D02*
X1000665D01*
X999014Y587686D02*
Y590988D01*
X1037379Y588612D02*
X1040681D01*
X1039030Y586961D02*
Y590263D01*
X1017810Y611814D02*
X1021112D01*
X1019461Y610163D02*
Y613465D01*
X882443Y694553D02*
X885745D01*
X884094Y692902D02*
Y696204D01*
X786765Y755904D02*
X790067D01*
X788416Y754253D02*
Y757555D01*
X786765Y771014D02*
X790067D01*
X788416Y769363D02*
Y772665D01*
X506900Y547300D02*
X519900D01*
X513400Y540800D02*
Y553800D01*
X506900Y828300D02*
X519900D01*
X513400Y821800D02*
Y834800D01*
X984043Y837075D02*
X987345D01*
X985694Y835424D02*
Y838726D01*
X974717Y833834D02*
X978019D01*
X976368Y832183D02*
Y835485D01*
X944882Y843445D02*
X948184D01*
X946533Y841794D02*
Y845096D01*
X962184Y843281D02*
X965486D01*
X963835Y841630D02*
Y844932D01*
X1066457Y760699D02*
X1069759D01*
X1068108Y759048D02*
Y762350D01*
X1066457Y720826D02*
X1069759D01*
X1068108Y719175D02*
Y722477D01*
X1065843Y615325D02*
X1069145D01*
X1067494Y613674D02*
Y616976D01*
X1094695Y639909D02*
X1097997D01*
X1096346Y638258D02*
Y641560D01*
X1088308Y647739D02*
X1091610D01*
X1089959Y646088D02*
Y649390D01*
X842798Y681187D02*
X846100D01*
X844449Y679536D02*
Y682838D01*
X823572Y688174D02*
X826874D01*
X825223Y686523D02*
Y689825D01*
X823397Y700625D02*
X826699D01*
X825048Y698974D02*
Y702276D01*
X892657Y759723D02*
X895959D01*
X894308Y758072D02*
Y761374D01*
X883306Y764950D02*
X886608D01*
X884957Y763299D02*
Y766601D01*
X736454Y830805D02*
X739756D01*
X738105Y829154D02*
Y832456D01*
X743432Y838352D02*
X746734D01*
X745083Y836701D02*
Y840003D01*
X559199Y825691D02*
X563517D01*
X561358Y823532D02*
Y827850D01*
X707609Y842764D02*
X710911D01*
X709260Y841113D02*
Y844415D01*
X721214Y842764D02*
X724516D01*
X722865Y841113D02*
Y844415D01*
X551526Y620558D02*
X555844D01*
X553685Y618399D02*
Y622717D01*
X568915Y636985D02*
X572217D01*
X570566Y635334D02*
Y638636D01*
X551526Y632872D02*
X555844D01*
X553685Y630713D02*
Y635031D01*
X470560Y622580D02*
X474878D01*
X472719Y620421D02*
Y624739D01*
X470598Y634290D02*
X474916D01*
X472757Y632131D02*
Y636449D01*
X847190Y726708D02*
X850492D01*
X848841Y725057D02*
Y728359D01*
X834695Y720400D02*
X837997D01*
X836346Y718749D02*
Y722051D01*
X843635Y616239D02*
X846937D01*
X845286Y614588D02*
Y617890D01*
X831294Y623035D02*
X834596D01*
X832945Y621384D02*
Y624686D01*
X833645Y659102D02*
X836947D01*
X835296Y657451D02*
Y660753D01*
X1024974Y682333D02*
X1028276D01*
X1026625Y680682D02*
Y683984D01*
X1024342Y726045D02*
X1027644D01*
X1025993Y724394D02*
Y727696D01*
X1015730Y657430D02*
X1019032D01*
X1017381Y655779D02*
Y659081D01*
X1024974Y666887D02*
X1028276D01*
X1026625Y665236D02*
Y668538D01*
X1015730Y675122D02*
X1019032D01*
X1017381Y673471D02*
Y676773D01*
X1062663Y688215D02*
X1065965D01*
X1064314Y686564D02*
Y689866D01*
X1069637Y696096D02*
X1072939D01*
X1071288Y694445D02*
Y697747D01*
X1134237Y712724D02*
X1137539D01*
X1135888Y711073D02*
Y714375D01*
X1134237Y762254D02*
X1137539D01*
X1135888Y760603D02*
Y763905D01*
X1133819Y810300D02*
X1137121D01*
X1135470Y808649D02*
Y811951D01*
X1078714Y814130D02*
X1082016D01*
X1080365Y812479D02*
Y815781D01*
X642600Y765655D02*
X645902D01*
X644251Y764004D02*
Y767306D01*
X532241Y821283D02*
X535543D01*
X533892Y819632D02*
Y822934D01*
X512348Y642907D02*
X515650D01*
X513999Y641256D02*
Y644558D01*
X515306Y653440D02*
X518608D01*
X516957Y651789D02*
Y655091D01*
X510775Y619003D02*
X514077D01*
X512426Y617352D02*
Y620654D01*
X510891Y607450D02*
X514193D01*
X512542Y605799D02*
Y609101D01*
X511496Y573872D02*
X514798D01*
X513147Y572221D02*
Y575523D01*
X511192Y727832D02*
X514494D01*
X512843Y726181D02*
Y729483D01*
X596452Y718338D02*
X599754D01*
X598103Y716687D02*
Y719989D01*
X577885Y657612D02*
X581187D01*
X579536Y655961D02*
Y659263D01*
X577885Y668270D02*
X581187D01*
X579536Y666619D02*
Y669921D01*
X577885Y678929D02*
X581187D01*
X579536Y677278D02*
Y680580D01*
X577885Y693085D02*
X581187D01*
X579536Y691434D02*
Y694736D01*
X577723Y708406D02*
X581025D01*
X579374Y706755D02*
Y710057D01*
X786759Y674974D02*
X790061D01*
X788410Y673323D02*
Y676625D01*
X744490Y662311D02*
X747792D01*
X746141Y660660D02*
Y663962D01*
X917147Y702119D02*
X920449D01*
X918798Y700468D02*
Y703770D01*
X882380Y682202D02*
X885682D01*
X884031Y680551D02*
Y683853D01*
X911987Y591820D02*
X915289D01*
X913638Y590169D02*
Y593471D01*
X948312Y592054D02*
X951614D01*
X949963Y590403D02*
Y593705D01*
X1066722Y625889D02*
X1070024D01*
X1068373Y624238D02*
Y627540D01*
X1184021Y629158D02*
X1187323D01*
X1185672Y627507D02*
Y630809D01*
X1184021Y617728D02*
X1187323D01*
X1185672Y616077D02*
Y619379D01*
X1133729Y625348D02*
X1137031D01*
X1135380Y623697D02*
Y626999D01*
X1133729Y661717D02*
X1137031D01*
X1135380Y660066D02*
Y663368D01*
X1093254Y608794D02*
X1096556D01*
X1094905Y607143D02*
Y610445D01*
X1029081Y761746D02*
X1032383D01*
X1030732Y760095D02*
Y763397D01*
X1101985Y524321D02*
X1105287D01*
X1103636Y522670D02*
Y525972D01*
X642818Y529660D02*
X646120D01*
X644469Y528009D02*
Y531311D01*
X916625Y763322D02*
X919927D01*
X918276Y761671D02*
Y764973D01*
X1003849Y540257D02*
X1007151D01*
X1005500Y538606D02*
Y541908D01*
X703707Y525696D02*
X707009D01*
X705358Y524045D02*
Y527347D01*
X749427Y513588D02*
X752729D01*
X751078Y511937D02*
Y515239D01*
X576607Y749426D02*
X579909D01*
X578258Y747775D02*
Y751077D01*
X576891Y761925D02*
X580193D01*
X578542Y760274D02*
Y763576D01*
M02*
