%FSLAX44Y44*%
%MOMM*%
G71*
G01*
G75*
%ADD10R,0.9652X0.8890*%
%ADD11R,1.0160X0.9398*%
%ADD12R,1.0160X0.9400*%
%ADD13R,0.5080X0.7620*%
%ADD14R,0.2600X2.0000*%
%ADD15R,2.0000X0.2600*%
%ADD16R,0.9400X1.0160*%
%ADD17R,0.9398X1.0160*%
%ADD18R,2.0320X0.6096*%
%ADD19C,0.2032*%
%ADD20C,0.2540*%
%ADD21C,0.5080*%
%ADD22C,0.3048*%
%ADD23R,2.4804X2.2690*%
%ADD24R,2.5943X2.2690*%
%ADD25R,3.0073X5.6504*%
%ADD26C,1.3000*%
%ADD27C,0.6350*%
%ADD28C,0.8128*%
%ADD29C,1.0160*%
%ADD30C,1.8080*%
%ADD31C,0.8382*%
%ADD32C,0.9398*%
%ADD33R,2.2000X0.3600*%
%ADD34R,3.0000X1.0000*%
%ADD35C,0.3302*%
%ADD36R,0.9424X1.9914*%
%ADD37R,2.5048X2.1810*%
%ADD38R,2.9171X1.1903*%
%ADD39C,0.1270*%
%ADD40C,0.1524*%
%ADD41C,0.1500*%
G36*
X667119Y519270D02*
X663909D01*
Y510652D01*
X662617D01*
Y519270D01*
X659407D01*
Y520414D01*
X667119D01*
Y519270D01*
D02*
G37*
G36*
X671428Y520444D02*
X671547Y520429D01*
X671681Y520414D01*
X671829Y520399D01*
X671992Y520355D01*
X672349Y520265D01*
X672721Y520132D01*
X672914Y520042D01*
X673092Y519939D01*
X673255Y519805D01*
X673419Y519671D01*
X673434Y519656D01*
X673449Y519641D01*
X673493Y519597D01*
X673553Y519537D01*
X673612Y519448D01*
X673687Y519359D01*
X673835Y519136D01*
X673984Y518854D01*
X674117Y518527D01*
X674221Y518156D01*
X674236Y517947D01*
X674251Y517739D01*
Y517710D01*
Y517635D01*
X674236Y517517D01*
X674221Y517368D01*
X674192Y517190D01*
X674147Y516996D01*
X674088Y516788D01*
X673998Y516580D01*
X673984Y516551D01*
X673954Y516476D01*
X673895Y516372D01*
X673805Y516224D01*
X673701Y516045D01*
X673568Y515837D01*
X673389Y515629D01*
X673196Y515392D01*
X673166Y515362D01*
X673092Y515273D01*
X672958Y515139D01*
X672869Y515050D01*
X672765Y514946D01*
X672646Y514827D01*
X672498Y514693D01*
X672349Y514560D01*
X672186Y514396D01*
X672007Y514233D01*
X671799Y514054D01*
X671591Y513876D01*
X671354Y513668D01*
X671339Y513653D01*
X671309Y513624D01*
X671250Y513579D01*
X671175Y513519D01*
X670997Y513371D01*
X670774Y513178D01*
X670551Y512970D01*
X670313Y512762D01*
X670120Y512583D01*
X670046Y512509D01*
X669972Y512435D01*
X669957Y512420D01*
X669927Y512375D01*
X669868Y512316D01*
X669793Y512227D01*
X669630Y512034D01*
X669466Y511796D01*
X674266D01*
Y510652D01*
X667802D01*
Y510667D01*
Y510726D01*
Y510815D01*
X667817Y510919D01*
X667832Y511038D01*
X667847Y511172D01*
X667891Y511320D01*
X667936Y511469D01*
Y511484D01*
X667951Y511499D01*
X667981Y511588D01*
X668040Y511707D01*
X668129Y511885D01*
X668233Y512078D01*
X668382Y512301D01*
X668530Y512524D01*
X668724Y512762D01*
Y512776D01*
X668753Y512791D01*
X668828Y512881D01*
X668946Y513014D01*
X669125Y513192D01*
X669348Y513401D01*
X669615Y513653D01*
X669942Y513936D01*
X670299Y514248D01*
X670313Y514262D01*
X670373Y514307D01*
X670447Y514366D01*
X670551Y514470D01*
X670685Y514574D01*
X670834Y514708D01*
X671160Y514991D01*
X671517Y515332D01*
X671874Y515674D01*
X672052Y515837D01*
X672201Y516001D01*
X672334Y516164D01*
X672453Y516313D01*
Y516328D01*
X672483Y516343D01*
X672513Y516387D01*
X672542Y516447D01*
X672632Y516595D01*
X672736Y516788D01*
X672840Y517011D01*
X672929Y517249D01*
X672988Y517517D01*
X673018Y517769D01*
Y517784D01*
Y517799D01*
X673003Y517888D01*
X672988Y518022D01*
X672958Y518185D01*
X672884Y518378D01*
X672795Y518572D01*
X672676Y518779D01*
X672498Y518973D01*
X672468Y518988D01*
X672409Y519047D01*
X672290Y519121D01*
X672141Y519225D01*
X671948Y519314D01*
X671725Y519389D01*
X671458Y519448D01*
X671160Y519463D01*
X671071D01*
X671012Y519448D01*
X670863Y519433D01*
X670670Y519404D01*
X670447Y519329D01*
X670210Y519240D01*
X669987Y519106D01*
X669779Y518928D01*
X669764Y518898D01*
X669704Y518839D01*
X669615Y518720D01*
X669526Y518557D01*
X669422Y518349D01*
X669348Y518111D01*
X669288Y517829D01*
X669258Y517502D01*
X668025Y517635D01*
Y517650D01*
Y517695D01*
X668040Y517769D01*
X668055Y517858D01*
X668085Y517977D01*
X668100Y518111D01*
X668189Y518408D01*
X668307Y518750D01*
X668471Y519092D01*
X668694Y519433D01*
X668813Y519582D01*
X668961Y519730D01*
X668976Y519745D01*
X669006Y519760D01*
X669051Y519805D01*
X669110Y519849D01*
X669199Y519894D01*
X669303Y519968D01*
X669422Y520028D01*
X669556Y520102D01*
X669704Y520161D01*
X669868Y520236D01*
X670061Y520295D01*
X670254Y520340D01*
X670700Y520429D01*
X670938Y520444D01*
X671190Y520459D01*
X671324D01*
X671428Y520444D01*
D02*
G37*
G36*
X654964Y520399D02*
X655083D01*
X655380Y520384D01*
X655692Y520355D01*
X656019Y520295D01*
X656331Y520236D01*
X656480Y520191D01*
X656613Y520147D01*
X656628D01*
X656643Y520132D01*
X656732Y520102D01*
X656851Y520028D01*
X657000Y519924D01*
X657178Y519805D01*
X657356Y519641D01*
X657535Y519448D01*
X657698Y519210D01*
X657713Y519181D01*
X657758Y519092D01*
X657832Y518958D01*
X657906Y518779D01*
X657980Y518557D01*
X658055Y518304D01*
X658099Y518037D01*
X658114Y517739D01*
Y517724D01*
Y517695D01*
Y517635D01*
X658099Y517561D01*
Y517472D01*
X658084Y517368D01*
X658025Y517130D01*
X657951Y516848D01*
X657832Y516566D01*
X657654Y516268D01*
X657550Y516120D01*
X657431Y515986D01*
X657401Y515956D01*
X657356Y515927D01*
X657312Y515867D01*
X657237Y515823D01*
X657148Y515748D01*
X657044Y515689D01*
X656926Y515615D01*
X656792Y515540D01*
X656628Y515466D01*
X656465Y515392D01*
X656272Y515317D01*
X656078Y515243D01*
X655856Y515184D01*
X655618Y515139D01*
X655365Y515094D01*
X655395Y515080D01*
X655454Y515050D01*
X655544Y515005D01*
X655648Y514946D01*
X655900Y514782D01*
X656034Y514693D01*
X656138Y514604D01*
X656168Y514574D01*
X656242Y514515D01*
X656346Y514396D01*
X656480Y514248D01*
X656643Y514054D01*
X656822Y513831D01*
X657015Y513579D01*
X657208Y513297D01*
X658902Y510652D01*
X657282D01*
X655989Y512673D01*
Y512687D01*
X655960Y512717D01*
X655930Y512762D01*
X655900Y512821D01*
X655796Y512970D01*
X655663Y513163D01*
X655514Y513386D01*
X655350Y513609D01*
X655202Y513817D01*
X655053Y514010D01*
X655038Y514025D01*
X654994Y514084D01*
X654920Y514173D01*
X654845Y514277D01*
X654622Y514485D01*
X654518Y514589D01*
X654399Y514664D01*
X654385Y514678D01*
X654355Y514693D01*
X654296Y514723D01*
X654221Y514768D01*
X654043Y514857D01*
X653820Y514931D01*
X653805D01*
X653775Y514946D01*
X653716D01*
X653642Y514961D01*
X653538Y514976D01*
X653419D01*
X653270Y514991D01*
X651606D01*
Y510652D01*
X650313D01*
Y520414D01*
X654845D01*
X654964Y520399D01*
D02*
G37*
G36*
X492317Y829492D02*
Y829477D01*
Y829433D01*
Y829359D01*
Y829255D01*
X492302Y829121D01*
Y828987D01*
X492287Y828824D01*
X492272Y828645D01*
X492228Y828274D01*
X492168Y827888D01*
X492094Y827501D01*
X491975Y827160D01*
Y827145D01*
X491960Y827115D01*
X491945Y827070D01*
X491916Y827011D01*
X491827Y826862D01*
X491708Y826654D01*
X491544Y826431D01*
X491336Y826194D01*
X491069Y825971D01*
X490772Y825748D01*
X490757D01*
X490727Y825718D01*
X490682Y825703D01*
X490608Y825659D01*
X490534Y825629D01*
X490430Y825584D01*
X490296Y825525D01*
X490162Y825480D01*
X490014Y825436D01*
X489836Y825376D01*
X489657Y825332D01*
X489449Y825302D01*
X489003Y825243D01*
X488498Y825213D01*
X488364D01*
X488275Y825228D01*
X488157D01*
X488023Y825243D01*
X487874Y825257D01*
X487711Y825272D01*
X487354Y825332D01*
X486983Y825406D01*
X486596Y825525D01*
X486255Y825674D01*
X486240D01*
X486210Y825703D01*
X486180Y825718D01*
X486121Y825763D01*
X485957Y825867D01*
X485779Y826030D01*
X485571Y826223D01*
X485378Y826446D01*
X485185Y826729D01*
X485021Y827041D01*
Y827056D01*
X485006Y827085D01*
X484991Y827130D01*
X484962Y827204D01*
X484932Y827293D01*
X484902Y827412D01*
X484873Y827546D01*
X484843Y827694D01*
X484798Y827858D01*
X484769Y828036D01*
X484739Y828244D01*
X484709Y828452D01*
X484679Y828690D01*
X484665Y828943D01*
X484650Y829210D01*
Y829492D01*
Y835139D01*
X485942D01*
Y829492D01*
Y829477D01*
Y829433D01*
Y829373D01*
Y829284D01*
Y829180D01*
X485957Y829061D01*
X485972Y828779D01*
X486002Y828482D01*
X486032Y828170D01*
X486091Y827873D01*
X486121Y827739D01*
X486165Y827620D01*
X486180Y827590D01*
X486210Y827516D01*
X486269Y827412D01*
X486358Y827278D01*
X486463Y827130D01*
X486611Y826966D01*
X486775Y826818D01*
X486983Y826684D01*
X487012Y826669D01*
X487087Y826639D01*
X487206Y826580D01*
X487369Y826535D01*
X487577Y826476D01*
X487815Y826416D01*
X488082Y826387D01*
X488379Y826372D01*
X488513D01*
X488617Y826387D01*
X488736D01*
X488870Y826402D01*
X489167Y826446D01*
X489509Y826535D01*
X489836Y826639D01*
X490148Y826803D01*
X490296Y826892D01*
X490415Y827011D01*
Y827026D01*
X490445Y827041D01*
X490475Y827085D01*
X490504Y827145D01*
X490564Y827219D01*
X490608Y827308D01*
X490668Y827427D01*
X490727Y827561D01*
X490772Y827724D01*
X490831Y827902D01*
X490891Y828096D01*
X490935Y828333D01*
X490965Y828586D01*
X490994Y828853D01*
X491024Y829165D01*
Y829492D01*
Y835139D01*
X492317D01*
Y829492D01*
D02*
G37*
G36*
X497324Y835169D02*
X497518Y835139D01*
X497741Y835094D01*
X497993Y835035D01*
X498246Y834946D01*
X498498Y834827D01*
X498513D01*
X498528Y834812D01*
X498617Y834767D01*
X498736Y834693D01*
X498885Y834589D01*
X499048Y834455D01*
X499226Y834292D01*
X499390Y834099D01*
X499538Y833891D01*
X499553Y833861D01*
X499598Y833787D01*
X499657Y833668D01*
X499717Y833519D01*
X499776Y833326D01*
X499836Y833118D01*
X499880Y832895D01*
X499895Y832643D01*
Y832613D01*
Y832538D01*
X499880Y832420D01*
X499851Y832271D01*
X499806Y832093D01*
X499747Y831899D01*
X499672Y831692D01*
X499553Y831498D01*
X499538Y831469D01*
X499494Y831409D01*
X499405Y831320D01*
X499301Y831201D01*
X499152Y831067D01*
X498989Y830934D01*
X498781Y830785D01*
X498543Y830666D01*
X498558D01*
X498587Y830651D01*
X498632D01*
X498691Y830622D01*
X498840Y830577D01*
X499033Y830488D01*
X499241Y830384D01*
X499464Y830235D01*
X499687Y830057D01*
X499880Y829834D01*
X499895Y829804D01*
X499954Y829715D01*
X500029Y829582D01*
X500133Y829403D01*
X500222Y829180D01*
X500296Y828913D01*
X500356Y828601D01*
X500371Y828259D01*
Y828244D01*
Y828200D01*
Y828140D01*
X500356Y828051D01*
X500341Y827932D01*
X500326Y827813D01*
X500296Y827665D01*
X500252Y827516D01*
X500148Y827174D01*
X500073Y826981D01*
X499969Y826803D01*
X499865Y826625D01*
X499747Y826446D01*
X499598Y826268D01*
X499434Y826090D01*
X499420Y826075D01*
X499390Y826045D01*
X499345Y826015D01*
X499271Y825956D01*
X499182Y825882D01*
X499063Y825807D01*
X498929Y825733D01*
X498796Y825659D01*
X498632Y825570D01*
X498454Y825495D01*
X498261Y825421D01*
X498052Y825347D01*
X497830Y825287D01*
X497592Y825257D01*
X497339Y825228D01*
X497087Y825213D01*
X496968D01*
X496879Y825228D01*
X496760Y825243D01*
X496641Y825257D01*
X496492Y825272D01*
X496344Y825302D01*
X496002Y825391D01*
X495645Y825540D01*
X495467Y825614D01*
X495304Y825718D01*
X495125Y825837D01*
X494962Y825971D01*
X494947Y825986D01*
X494932Y826001D01*
X494888Y826045D01*
X494828Y826105D01*
X494769Y826194D01*
X494694Y826283D01*
X494605Y826387D01*
X494531Y826506D01*
X494353Y826803D01*
X494204Y827145D01*
X494070Y827531D01*
X494026Y827739D01*
X493996Y827962D01*
X495200Y828125D01*
Y828111D01*
X495215Y828081D01*
Y828021D01*
X495244Y827962D01*
X495289Y827784D01*
X495363Y827561D01*
X495452Y827323D01*
X495571Y827070D01*
X495720Y826847D01*
X495883Y826654D01*
X495913Y826639D01*
X495972Y826580D01*
X496076Y826520D01*
X496225Y826431D01*
X496388Y826357D01*
X496596Y826283D01*
X496834Y826223D01*
X497087Y826208D01*
X497176D01*
X497235Y826223D01*
X497384Y826238D01*
X497577Y826283D01*
X497815Y826357D01*
X498052Y826446D01*
X498290Y826595D01*
X498513Y826788D01*
X498543Y826818D01*
X498602Y826892D01*
X498691Y827011D01*
X498810Y827189D01*
X498914Y827397D01*
X499003Y827650D01*
X499063Y827932D01*
X499093Y828244D01*
Y828259D01*
Y828274D01*
Y828318D01*
X499078Y828378D01*
X499063Y828527D01*
X499018Y828720D01*
X498959Y828928D01*
X498855Y829165D01*
X498721Y829388D01*
X498543Y829596D01*
X498513Y829626D01*
X498454Y829686D01*
X498335Y829760D01*
X498171Y829864D01*
X497978Y829968D01*
X497741Y830042D01*
X497488Y830102D01*
X497191Y830131D01*
X497057D01*
X496953Y830116D01*
X496834Y830102D01*
X496685Y830087D01*
X496522Y830057D01*
X496344Y830012D01*
X496478Y831067D01*
X496552D01*
X496611Y831052D01*
X496804D01*
X496938Y831067D01*
X497131Y831097D01*
X497339Y831142D01*
X497562Y831216D01*
X497800Y831305D01*
X498038Y831439D01*
X498067Y831454D01*
X498142Y831513D01*
X498231Y831617D01*
X498350Y831751D01*
X498469Y831914D01*
X498558Y832122D01*
X498632Y832375D01*
X498662Y832672D01*
Y832687D01*
Y832702D01*
Y832776D01*
X498632Y832895D01*
X498602Y833058D01*
X498558Y833222D01*
X498469Y833400D01*
X498365Y833593D01*
X498216Y833757D01*
X498201Y833772D01*
X498142Y833831D01*
X498038Y833905D01*
X497904Y833980D01*
X497741Y834069D01*
X497547Y834128D01*
X497324Y834188D01*
X497072Y834203D01*
X496953D01*
X496819Y834173D01*
X496671Y834143D01*
X496478Y834099D01*
X496284Y834009D01*
X496091Y833905D01*
X495898Y833757D01*
X495883Y833742D01*
X495824Y833683D01*
X495749Y833579D01*
X495660Y833430D01*
X495556Y833252D01*
X495467Y833029D01*
X495378Y832761D01*
X495318Y832449D01*
X494115Y832657D01*
Y832672D01*
X494130Y832717D01*
X494145Y832776D01*
X494160Y832850D01*
X494189Y832954D01*
X494219Y833073D01*
X494323Y833341D01*
X494442Y833638D01*
X494620Y833950D01*
X494828Y834247D01*
X495096Y834515D01*
X495111Y834529D01*
X495125Y834544D01*
X495170Y834574D01*
X495244Y834619D01*
X495318Y834663D01*
X495408Y834723D01*
X495630Y834856D01*
X495913Y834975D01*
X496255Y835079D01*
X496626Y835154D01*
X496834Y835183D01*
X497176D01*
X497324Y835169D01*
D02*
G37*
G36*
X1124001Y509285D02*
X1122797D01*
Y516922D01*
X1122782Y516908D01*
X1122723Y516848D01*
X1122619Y516774D01*
X1122485Y516670D01*
X1122322Y516536D01*
X1122129Y516402D01*
X1121906Y516239D01*
X1121653Y516090D01*
X1121638D01*
X1121623Y516076D01*
X1121534Y516016D01*
X1121401Y515942D01*
X1121237Y515853D01*
X1121044Y515749D01*
X1120836Y515659D01*
X1120613Y515555D01*
X1120405Y515466D01*
Y516640D01*
X1120420D01*
X1120450Y516655D01*
X1120509Y516685D01*
X1120568Y516729D01*
X1120658Y516774D01*
X1120761Y516818D01*
X1120999Y516952D01*
X1121267Y517116D01*
X1121564Y517309D01*
X1121861Y517532D01*
X1122143Y517769D01*
X1122158Y517784D01*
X1122173Y517799D01*
X1122262Y517888D01*
X1122396Y518022D01*
X1122560Y518186D01*
X1122738Y518394D01*
X1122916Y518616D01*
X1123080Y518854D01*
X1123213Y519092D01*
X1124001D01*
Y509285D01*
D02*
G37*
G36*
X1133065Y517755D02*
X1129172D01*
X1128637Y515125D01*
X1128652Y515139D01*
X1128681Y515154D01*
X1128726Y515184D01*
X1128785Y515229D01*
X1128875Y515273D01*
X1128964Y515318D01*
X1129201Y515437D01*
X1129469Y515555D01*
X1129781Y515645D01*
X1130123Y515719D01*
X1130479Y515749D01*
X1130598D01*
X1130687Y515734D01*
X1130806Y515719D01*
X1130925Y515704D01*
X1131074Y515674D01*
X1131222Y515645D01*
X1131564Y515526D01*
X1131742Y515466D01*
X1131921Y515377D01*
X1132114Y515273D01*
X1132292Y515154D01*
X1132470Y515020D01*
X1132634Y514857D01*
X1132649Y514842D01*
X1132679Y514813D01*
X1132723Y514768D01*
X1132768Y514694D01*
X1132842Y514604D01*
X1132916Y514500D01*
X1132990Y514382D01*
X1133080Y514248D01*
X1133169Y514084D01*
X1133243Y513921D01*
X1133317Y513728D01*
X1133392Y513535D01*
X1133436Y513312D01*
X1133481Y513089D01*
X1133511Y512836D01*
X1133525Y512584D01*
Y512569D01*
Y512524D01*
Y512450D01*
X1133511Y512361D01*
X1133496Y512242D01*
X1133481Y512108D01*
X1133466Y511960D01*
X1133436Y511796D01*
X1133332Y511440D01*
X1133198Y511068D01*
X1133109Y510860D01*
X1133005Y510667D01*
X1132887Y510474D01*
X1132753Y510295D01*
X1132738Y510280D01*
X1132708Y510251D01*
X1132649Y510191D01*
X1132574Y510117D01*
X1132485Y510028D01*
X1132366Y509924D01*
X1132233Y509820D01*
X1132069Y509716D01*
X1131906Y509597D01*
X1131713Y509493D01*
X1131490Y509389D01*
X1131267Y509300D01*
X1131014Y509226D01*
X1130762Y509166D01*
X1130479Y509136D01*
X1130182Y509122D01*
X1130048D01*
X1129959Y509136D01*
X1129855Y509151D01*
X1129722Y509166D01*
X1129573Y509181D01*
X1129409Y509211D01*
X1129068Y509300D01*
X1128711Y509434D01*
X1128533Y509523D01*
X1128354Y509627D01*
X1128176Y509731D01*
X1128013Y509864D01*
X1127998Y509879D01*
X1127983Y509894D01*
X1127938Y509939D01*
X1127879Y509998D01*
X1127820Y510073D01*
X1127745Y510162D01*
X1127671Y510266D01*
X1127582Y510384D01*
X1127418Y510667D01*
X1127255Y511009D01*
X1127136Y511395D01*
X1127092Y511618D01*
X1127062Y511841D01*
X1128325Y511930D01*
Y511915D01*
Y511885D01*
X1128340Y511841D01*
X1128354Y511781D01*
X1128399Y511618D01*
X1128458Y511410D01*
X1128533Y511187D01*
X1128652Y510964D01*
X1128785Y510741D01*
X1128964Y510548D01*
X1128993Y510533D01*
X1129053Y510474D01*
X1129157Y510414D01*
X1129305Y510325D01*
X1129484Y510251D01*
X1129692Y510177D01*
X1129930Y510117D01*
X1130182Y510102D01*
X1130271D01*
X1130331Y510117D01*
X1130494Y510132D01*
X1130702Y510177D01*
X1130925Y510266D01*
X1131178Y510370D01*
X1131415Y510533D01*
X1131534Y510622D01*
X1131653Y510741D01*
Y510756D01*
X1131683Y510771D01*
X1131742Y510860D01*
X1131846Y511009D01*
X1131950Y511202D01*
X1132054Y511454D01*
X1132158Y511752D01*
X1132218Y512093D01*
X1132247Y512480D01*
Y512495D01*
Y512524D01*
Y512584D01*
X1132233Y512643D01*
Y512732D01*
X1132218Y512836D01*
X1132173Y513074D01*
X1132114Y513327D01*
X1132010Y513594D01*
X1131861Y513862D01*
X1131668Y514099D01*
X1131638Y514129D01*
X1131564Y514188D01*
X1131445Y514292D01*
X1131267Y514396D01*
X1131059Y514500D01*
X1130791Y514604D01*
X1130494Y514664D01*
X1130167Y514694D01*
X1130063D01*
X1129959Y514679D01*
X1129811Y514664D01*
X1129647Y514619D01*
X1129469Y514575D01*
X1129291Y514500D01*
X1129112Y514411D01*
X1129097Y514396D01*
X1129038Y514367D01*
X1128949Y514307D01*
X1128845Y514233D01*
X1128741Y514129D01*
X1128622Y514010D01*
X1128503Y513876D01*
X1128399Y513728D01*
X1127270Y513891D01*
X1128221Y518899D01*
X1133065D01*
Y517755D01*
D02*
G37*
G36*
X1098208Y804715D02*
X1097004D01*
Y812353D01*
X1096989Y812338D01*
X1096930Y812279D01*
X1096826Y812204D01*
X1096692Y812100D01*
X1096529Y811966D01*
X1096336Y811833D01*
X1096113Y811669D01*
X1095860Y811521D01*
X1095845D01*
X1095830Y811506D01*
X1095741Y811446D01*
X1095608Y811372D01*
X1095444Y811283D01*
X1095251Y811179D01*
X1095043Y811090D01*
X1094820Y810986D01*
X1094612Y810897D01*
Y812070D01*
X1094627D01*
X1094657Y812085D01*
X1094716Y812115D01*
X1094775Y812160D01*
X1094865Y812204D01*
X1094969Y812249D01*
X1095206Y812383D01*
X1095474Y812546D01*
X1095771Y812739D01*
X1096068Y812962D01*
X1096350Y813200D01*
X1096365Y813215D01*
X1096380Y813230D01*
X1096469Y813319D01*
X1096603Y813452D01*
X1096767Y813616D01*
X1096945Y813824D01*
X1097123Y814047D01*
X1097287Y814285D01*
X1097420Y814522D01*
X1098208D01*
Y804715D01*
D02*
G37*
G36*
X1080689Y814463D02*
X1080808D01*
X1081105Y814448D01*
X1081417Y814418D01*
X1081744Y814359D01*
X1082056Y814299D01*
X1082205Y814255D01*
X1082338Y814210D01*
X1082353D01*
X1082368Y814195D01*
X1082457Y814166D01*
X1082576Y814091D01*
X1082725Y813987D01*
X1082903Y813868D01*
X1083081Y813705D01*
X1083260Y813512D01*
X1083423Y813274D01*
X1083438Y813244D01*
X1083483Y813155D01*
X1083557Y813021D01*
X1083631Y812843D01*
X1083706Y812620D01*
X1083780Y812368D01*
X1083824Y812100D01*
X1083839Y811803D01*
Y811788D01*
Y811758D01*
Y811699D01*
X1083824Y811625D01*
Y811536D01*
X1083810Y811432D01*
X1083750Y811194D01*
X1083676Y810911D01*
X1083557Y810629D01*
X1083379Y810332D01*
X1083275Y810183D01*
X1083156Y810050D01*
X1083126Y810020D01*
X1083081Y809990D01*
X1083037Y809931D01*
X1082962Y809886D01*
X1082873Y809812D01*
X1082769Y809753D01*
X1082651Y809678D01*
X1082517Y809604D01*
X1082353Y809530D01*
X1082190Y809455D01*
X1081997Y809381D01*
X1081804Y809307D01*
X1081581Y809247D01*
X1081343Y809203D01*
X1081090Y809158D01*
X1081120Y809143D01*
X1081179Y809113D01*
X1081269Y809069D01*
X1081373Y809009D01*
X1081625Y808846D01*
X1081759Y808757D01*
X1081863Y808668D01*
X1081893Y808638D01*
X1081967Y808579D01*
X1082071Y808460D01*
X1082205Y808311D01*
X1082368Y808118D01*
X1082546Y807895D01*
X1082740Y807643D01*
X1082933Y807360D01*
X1084627Y804715D01*
X1083007D01*
X1081714Y806736D01*
Y806751D01*
X1081685Y806781D01*
X1081655Y806825D01*
X1081625Y806885D01*
X1081521Y807033D01*
X1081387Y807226D01*
X1081239Y807449D01*
X1081075Y807672D01*
X1080927Y807880D01*
X1080778Y808073D01*
X1080763Y808088D01*
X1080719Y808148D01*
X1080645Y808237D01*
X1080570Y808341D01*
X1080347Y808549D01*
X1080243Y808653D01*
X1080124Y808727D01*
X1080110Y808742D01*
X1080080Y808757D01*
X1080020Y808787D01*
X1079946Y808831D01*
X1079768Y808920D01*
X1079545Y808995D01*
X1079530D01*
X1079500Y809009D01*
X1079441D01*
X1079367Y809024D01*
X1079263Y809039D01*
X1079144D01*
X1078995Y809054D01*
X1077331D01*
Y804715D01*
X1076038D01*
Y814478D01*
X1080570D01*
X1080689Y814463D01*
D02*
G37*
G36*
X1092844Y813334D02*
X1089634D01*
Y804715D01*
X1088342D01*
Y813334D01*
X1085132D01*
Y814478D01*
X1092844D01*
Y813334D01*
D02*
G37*
G36*
X1097546Y782656D02*
X1097725Y782627D01*
X1097933Y782597D01*
X1098170Y782538D01*
X1098408Y782448D01*
X1098631Y782344D01*
X1098661Y782330D01*
X1098735Y782285D01*
X1098839Y782211D01*
X1098988Y782122D01*
X1099136Y781988D01*
X1099300Y781824D01*
X1099463Y781646D01*
X1099612Y781438D01*
X1099626Y781408D01*
X1099671Y781334D01*
X1099745Y781200D01*
X1099835Y781037D01*
X1099924Y780829D01*
X1100028Y780576D01*
X1100132Y780294D01*
X1100221Y779982D01*
Y779967D01*
X1100236Y779937D01*
Y779893D01*
X1100251Y779818D01*
X1100280Y779744D01*
X1100295Y779640D01*
X1100310Y779506D01*
X1100340Y779373D01*
X1100355Y779209D01*
X1100369Y779046D01*
X1100399Y778853D01*
X1100414Y778644D01*
X1100429Y778422D01*
Y778199D01*
X1100444Y777679D01*
Y777664D01*
Y777604D01*
Y777515D01*
Y777396D01*
X1100429Y777248D01*
Y777084D01*
X1100414Y776891D01*
X1100399Y776683D01*
X1100355Y776237D01*
X1100295Y775777D01*
X1100206Y775316D01*
X1100146Y775108D01*
X1100087Y774900D01*
Y774885D01*
X1100072Y774855D01*
X1100057Y774796D01*
X1100028Y774722D01*
X1099983Y774633D01*
X1099939Y774544D01*
X1099820Y774306D01*
X1099671Y774038D01*
X1099493Y773771D01*
X1099285Y773503D01*
X1099032Y773266D01*
X1099017D01*
X1099002Y773236D01*
X1098958Y773221D01*
X1098913Y773176D01*
X1098750Y773087D01*
X1098557Y772983D01*
X1098289Y772879D01*
X1097992Y772790D01*
X1097650Y772731D01*
X1097264Y772701D01*
X1097130D01*
X1097026Y772716D01*
X1096907Y772731D01*
X1096774Y772760D01*
X1096625Y772790D01*
X1096461Y772820D01*
X1096105Y772939D01*
X1095912Y773028D01*
X1095733Y773117D01*
X1095540Y773236D01*
X1095362Y773370D01*
X1095199Y773518D01*
X1095035Y773697D01*
X1095020Y773711D01*
X1094990Y773756D01*
X1094946Y773830D01*
X1094886Y773934D01*
X1094812Y774068D01*
X1094738Y774231D01*
X1094649Y774425D01*
X1094560Y774662D01*
X1094470Y774915D01*
X1094381Y775212D01*
X1094307Y775539D01*
X1094233Y775896D01*
X1094173Y776297D01*
X1094129Y776713D01*
X1094099Y777188D01*
X1094084Y777679D01*
Y777694D01*
Y777753D01*
Y777842D01*
Y777961D01*
X1094099Y778110D01*
Y778273D01*
X1094114Y778466D01*
X1094129Y778674D01*
X1094173Y779120D01*
X1094233Y779581D01*
X1094307Y780041D01*
X1094366Y780249D01*
X1094426Y780457D01*
Y780472D01*
X1094441Y780502D01*
X1094470Y780561D01*
X1094500Y780636D01*
X1094530Y780725D01*
X1094574Y780829D01*
X1094693Y781067D01*
X1094842Y781334D01*
X1095020Y781601D01*
X1095228Y781854D01*
X1095481Y782092D01*
X1095496D01*
X1095510Y782122D01*
X1095555Y782151D01*
X1095614Y782181D01*
X1095763Y782270D01*
X1095971Y782389D01*
X1096224Y782493D01*
X1096536Y782582D01*
X1096878Y782642D01*
X1097264Y782671D01*
X1097398D01*
X1097546Y782656D01*
D02*
G37*
G36*
X1089968D02*
X1090087Y782642D01*
X1090221Y782627D01*
X1090369Y782612D01*
X1090533Y782567D01*
X1090889Y782478D01*
X1091261Y782344D01*
X1091454Y782255D01*
X1091632Y782151D01*
X1091796Y782018D01*
X1091959Y781884D01*
X1091974Y781869D01*
X1091989Y781854D01*
X1092033Y781809D01*
X1092093Y781750D01*
X1092152Y781661D01*
X1092227Y781572D01*
X1092375Y781349D01*
X1092524Y781067D01*
X1092658Y780740D01*
X1092762Y780368D01*
X1092776Y780160D01*
X1092791Y779952D01*
Y779922D01*
Y779848D01*
X1092776Y779729D01*
X1092762Y779581D01*
X1092732Y779402D01*
X1092687Y779209D01*
X1092628Y779001D01*
X1092539Y778793D01*
X1092524Y778763D01*
X1092494Y778689D01*
X1092435Y778585D01*
X1092346Y778437D01*
X1092242Y778258D01*
X1092108Y778050D01*
X1091929Y777842D01*
X1091736Y777604D01*
X1091707Y777575D01*
X1091632Y777486D01*
X1091499Y777352D01*
X1091410Y777263D01*
X1091305Y777159D01*
X1091187Y777040D01*
X1091038Y776906D01*
X1090889Y776772D01*
X1090726Y776609D01*
X1090548Y776445D01*
X1090340Y776267D01*
X1090132Y776089D01*
X1089894Y775881D01*
X1089879Y775866D01*
X1089849Y775836D01*
X1089790Y775792D01*
X1089715Y775732D01*
X1089537Y775584D01*
X1089314Y775390D01*
X1089091Y775182D01*
X1088854Y774974D01*
X1088661Y774796D01*
X1088586Y774722D01*
X1088512Y774648D01*
X1088497Y774633D01*
X1088467Y774588D01*
X1088408Y774529D01*
X1088334Y774439D01*
X1088170Y774246D01*
X1088007Y774008D01*
X1092806D01*
Y772864D01*
X1086342D01*
Y772879D01*
Y772939D01*
Y773028D01*
X1086357Y773132D01*
X1086372Y773251D01*
X1086387Y773384D01*
X1086432Y773533D01*
X1086476Y773682D01*
Y773697D01*
X1086491Y773711D01*
X1086521Y773801D01*
X1086580Y773919D01*
X1086669Y774098D01*
X1086773Y774291D01*
X1086922Y774514D01*
X1087071Y774737D01*
X1087264Y774974D01*
Y774989D01*
X1087293Y775004D01*
X1087368Y775093D01*
X1087487Y775227D01*
X1087665Y775405D01*
X1087888Y775613D01*
X1088155Y775866D01*
X1088482Y776148D01*
X1088839Y776460D01*
X1088854Y776475D01*
X1088913Y776520D01*
X1088987Y776579D01*
X1089091Y776683D01*
X1089225Y776787D01*
X1089374Y776921D01*
X1089701Y777203D01*
X1090057Y777545D01*
X1090414Y777887D01*
X1090592Y778050D01*
X1090741Y778214D01*
X1090874Y778377D01*
X1090993Y778526D01*
Y778540D01*
X1091023Y778555D01*
X1091053Y778600D01*
X1091083Y778659D01*
X1091172Y778808D01*
X1091276Y779001D01*
X1091380Y779224D01*
X1091469Y779462D01*
X1091528Y779729D01*
X1091558Y779982D01*
Y779997D01*
Y780012D01*
X1091543Y780101D01*
X1091528Y780235D01*
X1091499Y780398D01*
X1091424Y780591D01*
X1091335Y780784D01*
X1091216Y780992D01*
X1091038Y781185D01*
X1091008Y781200D01*
X1090949Y781260D01*
X1090830Y781334D01*
X1090681Y781438D01*
X1090488Y781527D01*
X1090265Y781601D01*
X1089998Y781661D01*
X1089701Y781676D01*
X1089612D01*
X1089552Y781661D01*
X1089404Y781646D01*
X1089210Y781616D01*
X1088987Y781542D01*
X1088750Y781453D01*
X1088527Y781319D01*
X1088319Y781141D01*
X1088304Y781111D01*
X1088244Y781052D01*
X1088155Y780933D01*
X1088066Y780769D01*
X1087962Y780561D01*
X1087888Y780324D01*
X1087828Y780041D01*
X1087799Y779714D01*
X1086565Y779848D01*
Y779863D01*
Y779908D01*
X1086580Y779982D01*
X1086595Y780071D01*
X1086625Y780190D01*
X1086640Y780324D01*
X1086729Y780621D01*
X1086848Y780963D01*
X1087011Y781304D01*
X1087234Y781646D01*
X1087353Y781795D01*
X1087502Y781943D01*
X1087516Y781958D01*
X1087546Y781973D01*
X1087591Y782018D01*
X1087650Y782062D01*
X1087739Y782107D01*
X1087843Y782181D01*
X1087962Y782240D01*
X1088096Y782315D01*
X1088244Y782374D01*
X1088408Y782448D01*
X1088601Y782508D01*
X1088794Y782552D01*
X1089240Y782642D01*
X1089478Y782656D01*
X1089730Y782671D01*
X1089864D01*
X1089968Y782656D01*
D02*
G37*
G36*
X1081964Y742198D02*
X1082083Y742184D01*
X1082231Y742169D01*
X1082395Y742154D01*
X1082573Y742124D01*
X1082959Y742035D01*
X1083375Y741901D01*
X1083583Y741812D01*
X1083791Y741708D01*
X1083985Y741589D01*
X1084178Y741456D01*
X1084193Y741441D01*
X1084222Y741426D01*
X1084267Y741381D01*
X1084341Y741322D01*
X1084415Y741248D01*
X1084519Y741144D01*
X1084623Y741040D01*
X1084727Y740921D01*
X1084846Y740772D01*
X1084950Y740623D01*
X1085069Y740445D01*
X1085188Y740252D01*
X1085292Y740059D01*
X1085396Y739836D01*
X1085574Y739361D01*
X1084297Y739063D01*
Y739078D01*
X1084282Y739108D01*
X1084267Y739167D01*
X1084237Y739242D01*
X1084193Y739331D01*
X1084148Y739435D01*
X1084044Y739658D01*
X1083910Y739910D01*
X1083732Y740178D01*
X1083539Y740415D01*
X1083301Y740623D01*
X1083271Y740638D01*
X1083182Y740698D01*
X1083048Y740772D01*
X1082855Y740876D01*
X1082632Y740965D01*
X1082350Y741040D01*
X1082038Y741099D01*
X1081681Y741114D01*
X1081577D01*
X1081503Y741099D01*
X1081399D01*
X1081295Y741084D01*
X1081028Y741040D01*
X1080730Y740980D01*
X1080418Y740876D01*
X1080106Y740742D01*
X1079809Y740564D01*
X1079794D01*
X1079779Y740534D01*
X1079690Y740460D01*
X1079557Y740341D01*
X1079393Y740178D01*
X1079230Y739970D01*
X1079051Y739732D01*
X1078888Y739435D01*
X1078754Y739108D01*
Y739093D01*
X1078739Y739063D01*
X1078724Y739019D01*
X1078710Y738944D01*
X1078680Y738870D01*
X1078665Y738766D01*
X1078606Y738528D01*
X1078546Y738246D01*
X1078502Y737934D01*
X1078472Y737592D01*
X1078457Y737236D01*
Y737221D01*
Y737176D01*
Y737117D01*
Y737028D01*
X1078472Y736924D01*
Y736790D01*
X1078487Y736656D01*
X1078502Y736507D01*
X1078546Y736166D01*
X1078606Y735794D01*
X1078695Y735423D01*
X1078814Y735066D01*
Y735051D01*
X1078828Y735022D01*
X1078858Y734977D01*
X1078888Y734918D01*
X1078962Y734739D01*
X1079081Y734546D01*
X1079245Y734308D01*
X1079438Y734085D01*
X1079661Y733863D01*
X1079928Y733670D01*
X1079943D01*
X1079958Y733655D01*
X1080002Y733625D01*
X1080062Y733595D01*
X1080225Y733536D01*
X1080433Y733447D01*
X1080671Y733372D01*
X1080953Y733298D01*
X1081265Y733239D01*
X1081592Y733224D01*
X1081696D01*
X1081770Y733239D01*
X1081860D01*
X1081979Y733253D01*
X1082231Y733298D01*
X1082514Y733372D01*
X1082825Y733491D01*
X1083123Y733640D01*
X1083420Y733848D01*
X1083435Y733863D01*
X1083450Y733877D01*
X1083539Y733967D01*
X1083672Y734115D01*
X1083836Y734308D01*
X1083999Y734576D01*
X1084178Y734888D01*
X1084326Y735274D01*
X1084445Y735705D01*
X1085738Y735378D01*
Y735363D01*
X1085723Y735304D01*
X1085693Y735230D01*
X1085664Y735111D01*
X1085604Y734992D01*
X1085545Y734828D01*
X1085485Y734665D01*
X1085396Y734487D01*
X1085203Y734085D01*
X1084936Y733684D01*
X1084638Y733298D01*
X1084460Y733120D01*
X1084267Y732956D01*
X1084252Y732941D01*
X1084222Y732926D01*
X1084163Y732882D01*
X1084074Y732822D01*
X1083970Y732763D01*
X1083851Y732689D01*
X1083717Y732615D01*
X1083554Y732540D01*
X1083375Y732466D01*
X1083182Y732392D01*
X1082959Y732317D01*
X1082736Y732258D01*
X1082246Y732154D01*
X1081979Y732139D01*
X1081696Y732124D01*
X1081548D01*
X1081429Y732139D01*
X1081295D01*
X1081146Y732154D01*
X1080968Y732184D01*
X1080790Y732198D01*
X1080374Y732288D01*
X1079943Y732392D01*
X1079527Y732555D01*
X1079319Y732644D01*
X1079126Y732763D01*
X1079111Y732778D01*
X1079081Y732793D01*
X1079036Y732837D01*
X1078962Y732882D01*
X1078784Y733030D01*
X1078576Y733239D01*
X1078323Y733491D01*
X1078085Y733818D01*
X1077833Y734190D01*
X1077625Y734621D01*
Y734635D01*
X1077610Y734680D01*
X1077580Y734739D01*
X1077551Y734828D01*
X1077506Y734947D01*
X1077461Y735081D01*
X1077417Y735230D01*
X1077372Y735408D01*
X1077328Y735586D01*
X1077283Y735794D01*
X1077194Y736240D01*
X1077134Y736716D01*
X1077120Y737236D01*
Y737251D01*
Y737310D01*
Y737384D01*
X1077134Y737488D01*
Y737622D01*
X1077149Y737785D01*
X1077164Y737949D01*
X1077194Y738142D01*
X1077268Y738558D01*
X1077357Y739004D01*
X1077506Y739464D01*
X1077699Y739895D01*
Y739910D01*
X1077729Y739940D01*
X1077759Y739999D01*
X1077803Y740089D01*
X1077863Y740178D01*
X1077937Y740282D01*
X1078130Y740534D01*
X1078353Y740817D01*
X1078635Y741099D01*
X1078977Y741381D01*
X1079349Y741619D01*
X1079363D01*
X1079393Y741649D01*
X1079453Y741678D01*
X1079542Y741708D01*
X1079631Y741753D01*
X1079750Y741812D01*
X1079898Y741857D01*
X1080047Y741916D01*
X1080210Y741976D01*
X1080389Y742020D01*
X1080790Y742124D01*
X1081236Y742184D01*
X1081711Y742213D01*
X1081860D01*
X1081964Y742198D01*
D02*
G37*
G36*
X1090300Y742080D02*
X1090418Y742065D01*
X1090552Y742050D01*
X1090701Y742035D01*
X1090864Y741991D01*
X1091221Y741901D01*
X1091592Y741768D01*
X1091786Y741678D01*
X1091964Y741574D01*
X1092127Y741441D01*
X1092291Y741307D01*
X1092306Y741292D01*
X1092320Y741277D01*
X1092365Y741233D01*
X1092424Y741173D01*
X1092484Y741084D01*
X1092558Y740995D01*
X1092707Y740772D01*
X1092855Y740490D01*
X1092989Y740163D01*
X1093093Y739791D01*
X1093108Y739583D01*
X1093123Y739375D01*
Y739346D01*
Y739271D01*
X1093108Y739152D01*
X1093093Y739004D01*
X1093063Y738826D01*
X1093019Y738632D01*
X1092959Y738424D01*
X1092870Y738216D01*
X1092855Y738187D01*
X1092826Y738112D01*
X1092766Y738008D01*
X1092677Y737860D01*
X1092573Y737681D01*
X1092439Y737473D01*
X1092261Y737265D01*
X1092068Y737028D01*
X1092038Y736998D01*
X1091964Y736909D01*
X1091830Y736775D01*
X1091741Y736686D01*
X1091637Y736582D01*
X1091518Y736463D01*
X1091369Y736329D01*
X1091221Y736196D01*
X1091057Y736032D01*
X1090879Y735869D01*
X1090671Y735690D01*
X1090463Y735512D01*
X1090225Y735304D01*
X1090210Y735289D01*
X1090181Y735259D01*
X1090121Y735215D01*
X1090047Y735155D01*
X1089869Y735007D01*
X1089646Y734814D01*
X1089423Y734606D01*
X1089185Y734398D01*
X1088992Y734219D01*
X1088918Y734145D01*
X1088843Y734071D01*
X1088829Y734056D01*
X1088799Y734011D01*
X1088739Y733952D01*
X1088665Y733863D01*
X1088502Y733670D01*
X1088338Y733432D01*
X1093138D01*
Y732288D01*
X1086674D01*
Y732302D01*
Y732362D01*
Y732451D01*
X1086689Y732555D01*
X1086704Y732674D01*
X1086719Y732808D01*
X1086763Y732956D01*
X1086808Y733105D01*
Y733120D01*
X1086823Y733135D01*
X1086852Y733224D01*
X1086912Y733343D01*
X1087001Y733521D01*
X1087105Y733714D01*
X1087253Y733937D01*
X1087402Y734160D01*
X1087595Y734398D01*
Y734412D01*
X1087625Y734427D01*
X1087699Y734516D01*
X1087818Y734650D01*
X1087997Y734828D01*
X1088219Y735036D01*
X1088487Y735289D01*
X1088814Y735571D01*
X1089170Y735883D01*
X1089185Y735898D01*
X1089245Y735943D01*
X1089319Y736002D01*
X1089423Y736106D01*
X1089557Y736210D01*
X1089705Y736344D01*
X1090032Y736626D01*
X1090389Y736968D01*
X1090745Y737310D01*
X1090924Y737473D01*
X1091072Y737637D01*
X1091206Y737800D01*
X1091325Y737949D01*
Y737964D01*
X1091355Y737979D01*
X1091384Y738023D01*
X1091414Y738083D01*
X1091503Y738231D01*
X1091607Y738424D01*
X1091711Y738647D01*
X1091800Y738885D01*
X1091860Y739152D01*
X1091889Y739405D01*
Y739420D01*
Y739435D01*
X1091875Y739524D01*
X1091860Y739658D01*
X1091830Y739821D01*
X1091756Y740014D01*
X1091667Y740207D01*
X1091548Y740415D01*
X1091369Y740609D01*
X1091340Y740623D01*
X1091280Y740683D01*
X1091161Y740757D01*
X1091013Y740861D01*
X1090820Y740950D01*
X1090597Y741025D01*
X1090329Y741084D01*
X1090032Y741099D01*
X1089943D01*
X1089883Y741084D01*
X1089735Y741069D01*
X1089542Y741040D01*
X1089319Y740965D01*
X1089081Y740876D01*
X1088858Y740742D01*
X1088650Y740564D01*
X1088635Y740534D01*
X1088576Y740475D01*
X1088487Y740356D01*
X1088398Y740193D01*
X1088294Y739985D01*
X1088219Y739747D01*
X1088160Y739464D01*
X1088130Y739138D01*
X1086897Y739271D01*
Y739286D01*
Y739331D01*
X1086912Y739405D01*
X1086927Y739494D01*
X1086956Y739613D01*
X1086971Y739747D01*
X1087060Y740044D01*
X1087179Y740386D01*
X1087343Y740727D01*
X1087566Y741069D01*
X1087684Y741218D01*
X1087833Y741366D01*
X1087848Y741381D01*
X1087878Y741396D01*
X1087922Y741441D01*
X1087982Y741485D01*
X1088071Y741530D01*
X1088175Y741604D01*
X1088294Y741664D01*
X1088427Y741738D01*
X1088576Y741797D01*
X1088739Y741872D01*
X1088933Y741931D01*
X1089126Y741976D01*
X1089572Y742065D01*
X1089809Y742080D01*
X1090062Y742094D01*
X1090196D01*
X1090300Y742080D01*
D02*
G37*
G36*
X1098933Y732288D02*
X1097729D01*
Y739925D01*
X1097714Y739910D01*
X1097655Y739851D01*
X1097551Y739777D01*
X1097417Y739672D01*
X1097254Y739539D01*
X1097060Y739405D01*
X1096838Y739242D01*
X1096585Y739093D01*
X1096570D01*
X1096555Y739078D01*
X1096466Y739019D01*
X1096332Y738944D01*
X1096169Y738855D01*
X1095976Y738751D01*
X1095768Y738662D01*
X1095545Y738558D01*
X1095337Y738469D01*
Y739643D01*
X1095352D01*
X1095381Y739658D01*
X1095441Y739687D01*
X1095500Y739732D01*
X1095589Y739777D01*
X1095693Y739821D01*
X1095931Y739955D01*
X1096199Y740118D01*
X1096496Y740311D01*
X1096793Y740534D01*
X1097075Y740772D01*
X1097090Y740787D01*
X1097105Y740802D01*
X1097194Y740891D01*
X1097328Y741025D01*
X1097491Y741188D01*
X1097670Y741396D01*
X1097848Y741619D01*
X1098011Y741857D01*
X1098145Y742094D01*
X1098933D01*
Y732288D01*
D02*
G37*
G36*
X629216Y828416D02*
X628012D01*
Y836053D01*
X627997Y836039D01*
X627938Y835979D01*
X627834Y835905D01*
X627700Y835801D01*
X627537Y835667D01*
X627343Y835534D01*
X627120Y835370D01*
X626868Y835221D01*
X626853D01*
X626838Y835207D01*
X626749Y835147D01*
X626615Y835073D01*
X626452Y834984D01*
X626259Y834880D01*
X626051Y834790D01*
X625828Y834687D01*
X625620Y834597D01*
Y835771D01*
X625634D01*
X625664Y835786D01*
X625724Y835816D01*
X625783Y835860D01*
X625872Y835905D01*
X625976Y835949D01*
X626214Y836083D01*
X626482Y836247D01*
X626779Y836440D01*
X627076Y836663D01*
X627358Y836900D01*
X627373Y836915D01*
X627388Y836930D01*
X627477Y837019D01*
X627611Y837153D01*
X627774Y837317D01*
X627952Y837525D01*
X628131Y837747D01*
X628294Y837985D01*
X628428Y838223D01*
X629216D01*
Y828416D01*
D02*
G37*
G36*
X623034Y832532D02*
Y832517D01*
Y832473D01*
Y832398D01*
Y832294D01*
X623019Y832160D01*
Y832027D01*
X623004Y831863D01*
X622990Y831685D01*
X622945Y831313D01*
X622886Y830927D01*
X622811Y830541D01*
X622692Y830199D01*
Y830184D01*
X622678Y830154D01*
X622663Y830110D01*
X622633Y830051D01*
X622544Y829902D01*
X622425Y829694D01*
X622262Y829471D01*
X622053Y829233D01*
X621786Y829010D01*
X621489Y828788D01*
X621474D01*
X621444Y828758D01*
X621400Y828743D01*
X621325Y828698D01*
X621251Y828669D01*
X621147Y828624D01*
X621013Y828565D01*
X620880Y828520D01*
X620731Y828475D01*
X620553Y828416D01*
X620374Y828371D01*
X620166Y828342D01*
X619721Y828282D01*
X619215Y828253D01*
X619082D01*
X618993Y828267D01*
X618874D01*
X618740Y828282D01*
X618591Y828297D01*
X618428Y828312D01*
X618071Y828371D01*
X617700Y828446D01*
X617313Y828565D01*
X616972Y828713D01*
X616957D01*
X616927Y828743D01*
X616897Y828758D01*
X616838Y828802D01*
X616674Y828906D01*
X616496Y829070D01*
X616288Y829263D01*
X616095Y829486D01*
X615902Y829768D01*
X615738Y830080D01*
Y830095D01*
X615724Y830125D01*
X615709Y830169D01*
X615679Y830244D01*
X615649Y830333D01*
X615620Y830452D01*
X615590Y830585D01*
X615560Y830734D01*
X615516Y830898D01*
X615486Y831076D01*
X615456Y831284D01*
X615426Y831492D01*
X615397Y831730D01*
X615382Y831982D01*
X615367Y832250D01*
Y832532D01*
Y838178D01*
X616660D01*
Y832532D01*
Y832517D01*
Y832473D01*
Y832413D01*
Y832324D01*
Y832220D01*
X616674Y832101D01*
X616689Y831819D01*
X616719Y831522D01*
X616749Y831209D01*
X616808Y830912D01*
X616838Y830779D01*
X616883Y830660D01*
X616897Y830630D01*
X616927Y830556D01*
X616987Y830452D01*
X617076Y830318D01*
X617180Y830169D01*
X617328Y830006D01*
X617492Y829857D01*
X617700Y829724D01*
X617729Y829709D01*
X617804Y829679D01*
X617923Y829620D01*
X618086Y829575D01*
X618294Y829516D01*
X618532Y829456D01*
X618799Y829426D01*
X619097Y829412D01*
X619230D01*
X619334Y829426D01*
X619453D01*
X619587Y829441D01*
X619884Y829486D01*
X620226Y829575D01*
X620553Y829679D01*
X620865Y829843D01*
X621013Y829932D01*
X621132Y830051D01*
Y830065D01*
X621162Y830080D01*
X621192Y830125D01*
X621221Y830184D01*
X621281Y830258D01*
X621325Y830348D01*
X621385Y830467D01*
X621444Y830600D01*
X621489Y830764D01*
X621548Y830942D01*
X621608Y831135D01*
X621652Y831373D01*
X621682Y831626D01*
X621712Y831893D01*
X621741Y832205D01*
Y832532D01*
Y838178D01*
X623034D01*
Y832532D01*
D02*
G37*
G36*
X869923Y840166D02*
Y840152D01*
Y840107D01*
Y840033D01*
Y839929D01*
X869909Y839795D01*
Y839661D01*
X869894Y839498D01*
X869879Y839319D01*
X869834Y838948D01*
X869775Y838562D01*
X869700Y838175D01*
X869582Y837833D01*
Y837819D01*
X869567Y837789D01*
X869552Y837744D01*
X869522Y837685D01*
X869433Y837536D01*
X869314Y837328D01*
X869151Y837105D01*
X868943Y836868D01*
X868675Y836645D01*
X868378Y836422D01*
X868363D01*
X868333Y836392D01*
X868289Y836377D01*
X868215Y836333D01*
X868140Y836303D01*
X868036Y836258D01*
X867903Y836199D01*
X867769Y836154D01*
X867620Y836110D01*
X867442Y836050D01*
X867264Y836006D01*
X867056Y835976D01*
X866610Y835917D01*
X866105Y835887D01*
X865971D01*
X865882Y835902D01*
X865763D01*
X865629Y835917D01*
X865480Y835932D01*
X865317Y835946D01*
X864960Y836006D01*
X864589Y836080D01*
X864203Y836199D01*
X863861Y836348D01*
X863846D01*
X863816Y836377D01*
X863787Y836392D01*
X863727Y836437D01*
X863564Y836541D01*
X863385Y836704D01*
X863177Y836897D01*
X862984Y837120D01*
X862791Y837403D01*
X862628Y837715D01*
Y837729D01*
X862613Y837759D01*
X862598Y837804D01*
X862568Y837878D01*
X862538Y837967D01*
X862509Y838086D01*
X862479Y838220D01*
X862449Y838368D01*
X862405Y838532D01*
X862375Y838710D01*
X862345Y838918D01*
X862316Y839126D01*
X862286Y839364D01*
X862271Y839617D01*
X862256Y839884D01*
Y840166D01*
Y845813D01*
X863549D01*
Y840166D01*
Y840152D01*
Y840107D01*
Y840048D01*
Y839958D01*
Y839854D01*
X863564Y839735D01*
X863579Y839453D01*
X863608Y839156D01*
X863638Y838844D01*
X863697Y838547D01*
X863727Y838413D01*
X863772Y838294D01*
X863787Y838264D01*
X863816Y838190D01*
X863876Y838086D01*
X863965Y837952D01*
X864069Y837804D01*
X864218Y837640D01*
X864381Y837492D01*
X864589Y837358D01*
X864619Y837343D01*
X864693Y837313D01*
X864812Y837254D01*
X864975Y837209D01*
X865183Y837150D01*
X865421Y837091D01*
X865688Y837061D01*
X865986Y837046D01*
X866120D01*
X866224Y837061D01*
X866342D01*
X866476Y837076D01*
X866773Y837120D01*
X867115Y837209D01*
X867442Y837313D01*
X867754Y837477D01*
X867903Y837566D01*
X868021Y837685D01*
Y837700D01*
X868051Y837715D01*
X868081Y837759D01*
X868111Y837819D01*
X868170Y837893D01*
X868215Y837982D01*
X868274Y838101D01*
X868333Y838235D01*
X868378Y838398D01*
X868438Y838577D01*
X868497Y838770D01*
X868541Y839007D01*
X868571Y839260D01*
X868601Y839527D01*
X868631Y839839D01*
Y840166D01*
Y845813D01*
X869923D01*
Y840166D01*
D02*
G37*
G36*
X1081632Y782775D02*
X1081751Y782760D01*
X1081900Y782746D01*
X1082063Y782731D01*
X1082241Y782701D01*
X1082628Y782612D01*
X1083044Y782478D01*
X1083252Y782389D01*
X1083460Y782285D01*
X1083653Y782166D01*
X1083846Y782032D01*
X1083861Y782018D01*
X1083891Y782003D01*
X1083935Y781958D01*
X1084010Y781899D01*
X1084084Y781824D01*
X1084188Y781720D01*
X1084292Y781616D01*
X1084396Y781497D01*
X1084515Y781349D01*
X1084619Y781200D01*
X1084738Y781022D01*
X1084857Y780829D01*
X1084961Y780636D01*
X1085065Y780413D01*
X1085243Y779937D01*
X1083965Y779640D01*
Y779655D01*
X1083950Y779685D01*
X1083935Y779744D01*
X1083906Y779818D01*
X1083861Y779908D01*
X1083817Y780012D01*
X1083712Y780235D01*
X1083579Y780487D01*
X1083400Y780754D01*
X1083207Y780992D01*
X1082970Y781200D01*
X1082940Y781215D01*
X1082851Y781275D01*
X1082717Y781349D01*
X1082524Y781453D01*
X1082301Y781542D01*
X1082019Y781616D01*
X1081706Y781676D01*
X1081350Y781691D01*
X1081246D01*
X1081172Y781676D01*
X1081068D01*
X1080964Y781661D01*
X1080696Y781616D01*
X1080399Y781557D01*
X1080087Y781453D01*
X1079775Y781319D01*
X1079478Y781141D01*
X1079463D01*
X1079448Y781111D01*
X1079359Y781037D01*
X1079225Y780918D01*
X1079062Y780754D01*
X1078898Y780546D01*
X1078720Y780309D01*
X1078556Y780012D01*
X1078423Y779685D01*
Y779670D01*
X1078408Y779640D01*
X1078393Y779595D01*
X1078378Y779521D01*
X1078348Y779447D01*
X1078334Y779343D01*
X1078274Y779105D01*
X1078215Y778823D01*
X1078170Y778511D01*
X1078140Y778169D01*
X1078126Y777812D01*
Y777798D01*
Y777753D01*
Y777694D01*
Y777604D01*
X1078140Y777500D01*
Y777367D01*
X1078155Y777233D01*
X1078170Y777084D01*
X1078215Y776743D01*
X1078274Y776371D01*
X1078363Y776000D01*
X1078482Y775643D01*
Y775628D01*
X1078497Y775598D01*
X1078527Y775554D01*
X1078556Y775494D01*
X1078631Y775316D01*
X1078750Y775123D01*
X1078913Y774885D01*
X1079106Y774662D01*
X1079329Y774439D01*
X1079596Y774246D01*
X1079611D01*
X1079626Y774231D01*
X1079671Y774202D01*
X1079730Y774172D01*
X1079894Y774112D01*
X1080102Y774023D01*
X1080340Y773949D01*
X1080622Y773875D01*
X1080934Y773815D01*
X1081261Y773801D01*
X1081365D01*
X1081439Y773815D01*
X1081528D01*
X1081647Y773830D01*
X1081900Y773875D01*
X1082182Y773949D01*
X1082494Y774068D01*
X1082791Y774217D01*
X1083088Y774425D01*
X1083103Y774439D01*
X1083118Y774454D01*
X1083207Y774544D01*
X1083341Y774692D01*
X1083504Y774885D01*
X1083668Y775153D01*
X1083846Y775465D01*
X1083995Y775851D01*
X1084114Y776282D01*
X1085406Y775955D01*
Y775940D01*
X1085392Y775881D01*
X1085362Y775807D01*
X1085332Y775688D01*
X1085273Y775569D01*
X1085213Y775405D01*
X1085154Y775242D01*
X1085065Y775063D01*
X1084872Y774662D01*
X1084604Y774261D01*
X1084307Y773875D01*
X1084128Y773697D01*
X1083935Y773533D01*
X1083921Y773518D01*
X1083891Y773503D01*
X1083831Y773459D01*
X1083742Y773399D01*
X1083638Y773340D01*
X1083519Y773266D01*
X1083386Y773191D01*
X1083222Y773117D01*
X1083044Y773043D01*
X1082851Y772968D01*
X1082628Y772894D01*
X1082405Y772835D01*
X1081915Y772731D01*
X1081647Y772716D01*
X1081365Y772701D01*
X1081216D01*
X1081097Y772716D01*
X1080964D01*
X1080815Y772731D01*
X1080637Y772760D01*
X1080458Y772775D01*
X1080042Y772864D01*
X1079611Y772968D01*
X1079195Y773132D01*
X1078987Y773221D01*
X1078794Y773340D01*
X1078779Y773355D01*
X1078750Y773370D01*
X1078705Y773414D01*
X1078631Y773459D01*
X1078452Y773607D01*
X1078244Y773815D01*
X1077992Y774068D01*
X1077754Y774395D01*
X1077501Y774766D01*
X1077293Y775197D01*
Y775212D01*
X1077279Y775257D01*
X1077249Y775316D01*
X1077219Y775405D01*
X1077175Y775524D01*
X1077130Y775658D01*
X1077085Y775807D01*
X1077041Y775985D01*
X1076996Y776163D01*
X1076952Y776371D01*
X1076862Y776817D01*
X1076803Y777292D01*
X1076788Y777812D01*
Y777827D01*
Y777887D01*
Y777961D01*
X1076803Y778065D01*
Y778199D01*
X1076818Y778362D01*
X1076833Y778526D01*
X1076862Y778719D01*
X1076937Y779135D01*
X1077026Y779581D01*
X1077175Y780041D01*
X1077368Y780472D01*
Y780487D01*
X1077397Y780517D01*
X1077427Y780576D01*
X1077472Y780665D01*
X1077531Y780754D01*
X1077605Y780859D01*
X1077799Y781111D01*
X1078021Y781394D01*
X1078304Y781676D01*
X1078646Y781958D01*
X1079017Y782196D01*
X1079032D01*
X1079062Y782226D01*
X1079121Y782255D01*
X1079210Y782285D01*
X1079299Y782330D01*
X1079418Y782389D01*
X1079567Y782434D01*
X1079715Y782493D01*
X1079879Y782552D01*
X1080057Y782597D01*
X1080458Y782701D01*
X1080904Y782760D01*
X1081380Y782790D01*
X1081528D01*
X1081632Y782775D01*
D02*
G37*
G36*
X875050Y845843D02*
X875169Y845828D01*
X875302Y845813D01*
X875451Y845798D01*
X875614Y845753D01*
X875971Y845664D01*
X876342Y845530D01*
X876536Y845441D01*
X876714Y845337D01*
X876877Y845204D01*
X877041Y845070D01*
X877056Y845055D01*
X877070Y845040D01*
X877115Y844995D01*
X877175Y844936D01*
X877234Y844847D01*
X877308Y844758D01*
X877457Y844535D01*
X877606Y844253D01*
X877739Y843926D01*
X877843Y843554D01*
X877858Y843346D01*
X877873Y843138D01*
Y843108D01*
Y843034D01*
X877858Y842915D01*
X877843Y842767D01*
X877813Y842588D01*
X877769Y842395D01*
X877710Y842187D01*
X877620Y841979D01*
X877606Y841949D01*
X877576Y841875D01*
X877516Y841771D01*
X877427Y841622D01*
X877323Y841444D01*
X877189Y841236D01*
X877011Y841028D01*
X876818Y840790D01*
X876788Y840761D01*
X876714Y840672D01*
X876580Y840538D01*
X876491Y840449D01*
X876387Y840345D01*
X876268Y840226D01*
X876120Y840092D01*
X875971Y839958D01*
X875807Y839795D01*
X875629Y839631D01*
X875421Y839453D01*
X875213Y839275D01*
X874975Y839067D01*
X874961Y839052D01*
X874931Y839022D01*
X874871Y838978D01*
X874797Y838918D01*
X874619Y838770D01*
X874396Y838577D01*
X874173Y838368D01*
X873935Y838160D01*
X873742Y837982D01*
X873668Y837908D01*
X873594Y837833D01*
X873579Y837819D01*
X873549Y837774D01*
X873490Y837715D01*
X873415Y837626D01*
X873252Y837432D01*
X873088Y837195D01*
X877888D01*
Y836050D01*
X871424D01*
Y836065D01*
Y836125D01*
Y836214D01*
X871439Y836318D01*
X871454Y836437D01*
X871469Y836571D01*
X871513Y836719D01*
X871558Y836868D01*
Y836882D01*
X871573Y836897D01*
X871602Y836986D01*
X871662Y837105D01*
X871751Y837284D01*
X871855Y837477D01*
X872004Y837700D01*
X872152Y837923D01*
X872345Y838160D01*
Y838175D01*
X872375Y838190D01*
X872449Y838279D01*
X872568Y838413D01*
X872747Y838591D01*
X872970Y838799D01*
X873237Y839052D01*
X873564Y839334D01*
X873920Y839646D01*
X873935Y839661D01*
X873995Y839706D01*
X874069Y839765D01*
X874173Y839869D01*
X874307Y839973D01*
X874455Y840107D01*
X874782Y840389D01*
X875139Y840731D01*
X875496Y841073D01*
X875674Y841236D01*
X875822Y841400D01*
X875956Y841563D01*
X876075Y841712D01*
Y841727D01*
X876105Y841741D01*
X876134Y841786D01*
X876164Y841845D01*
X876253Y841994D01*
X876357Y842187D01*
X876461Y842410D01*
X876551Y842648D01*
X876610Y842915D01*
X876640Y843168D01*
Y843183D01*
Y843198D01*
X876625Y843287D01*
X876610Y843420D01*
X876580Y843584D01*
X876506Y843777D01*
X876417Y843970D01*
X876298Y844178D01*
X876120Y844371D01*
X876090Y844386D01*
X876030Y844446D01*
X875911Y844520D01*
X875763Y844624D01*
X875570Y844713D01*
X875347Y844788D01*
X875079Y844847D01*
X874782Y844862D01*
X874693D01*
X874634Y844847D01*
X874485Y844832D01*
X874292Y844802D01*
X874069Y844728D01*
X873831Y844639D01*
X873608Y844505D01*
X873400Y844327D01*
X873385Y844297D01*
X873326Y844238D01*
X873237Y844119D01*
X873148Y843955D01*
X873044Y843747D01*
X872970Y843510D01*
X872910Y843227D01*
X872880Y842900D01*
X871647Y843034D01*
Y843049D01*
Y843094D01*
X871662Y843168D01*
X871677Y843257D01*
X871706Y843376D01*
X871721Y843510D01*
X871810Y843807D01*
X871929Y844149D01*
X872093Y844490D01*
X872316Y844832D01*
X872434Y844981D01*
X872583Y845129D01*
X872598Y845144D01*
X872628Y845159D01*
X872672Y845204D01*
X872732Y845248D01*
X872821Y845293D01*
X872925Y845367D01*
X873044Y845426D01*
X873177Y845501D01*
X873326Y845560D01*
X873490Y845635D01*
X873683Y845694D01*
X873876Y845739D01*
X874322Y845828D01*
X874559Y845843D01*
X874812Y845857D01*
X874946D01*
X875050Y845843D01*
D02*
G37*
G36*
X1117864Y512391D02*
Y512376D01*
Y512331D01*
Y512272D01*
Y512182D01*
X1117849Y512078D01*
Y511960D01*
X1117834Y511692D01*
X1117790Y511380D01*
X1117745Y511068D01*
X1117671Y510756D01*
X1117567Y510489D01*
X1117552Y510459D01*
X1117507Y510384D01*
X1117433Y510266D01*
X1117344Y510117D01*
X1117210Y509939D01*
X1117047Y509775D01*
X1116839Y509612D01*
X1116616Y509463D01*
X1116586Y509448D01*
X1116497Y509404D01*
X1116363Y509359D01*
X1116185Y509300D01*
X1115962Y509226D01*
X1115710Y509181D01*
X1115412Y509136D01*
X1115100Y509122D01*
X1114981D01*
X1114892Y509136D01*
X1114788Y509151D01*
X1114654Y509166D01*
X1114372Y509211D01*
X1114060Y509300D01*
X1113733Y509434D01*
X1113570Y509508D01*
X1113421Y509612D01*
X1113273Y509716D01*
X1113139Y509850D01*
Y509864D01*
X1113109Y509879D01*
X1113079Y509924D01*
X1113035Y509983D01*
X1112975Y510073D01*
X1112931Y510162D01*
X1112857Y510280D01*
X1112797Y510399D01*
X1112738Y510548D01*
X1112678Y510711D01*
X1112619Y510890D01*
X1112574Y511098D01*
X1112530Y511306D01*
X1112500Y511544D01*
X1112485Y511781D01*
Y512049D01*
X1113644Y512212D01*
Y512197D01*
Y512168D01*
Y512108D01*
X1113659Y512034D01*
Y511945D01*
X1113674Y511841D01*
X1113718Y511603D01*
X1113763Y511335D01*
X1113837Y511083D01*
X1113941Y510860D01*
X1114001Y510756D01*
X1114060Y510667D01*
X1114075Y510652D01*
X1114134Y510607D01*
X1114209Y510533D01*
X1114328Y510474D01*
X1114476Y510399D01*
X1114654Y510325D01*
X1114863Y510280D01*
X1115100Y510266D01*
X1115189D01*
X1115279Y510280D01*
X1115383Y510295D01*
X1115516Y510325D01*
X1115665Y510355D01*
X1115799Y510414D01*
X1115932Y510489D01*
X1115947Y510503D01*
X1115992Y510533D01*
X1116051Y510578D01*
X1116125Y510652D01*
X1116215Y510726D01*
X1116289Y510830D01*
X1116363Y510949D01*
X1116423Y511083D01*
Y511098D01*
X1116452Y511157D01*
X1116467Y511246D01*
X1116497Y511380D01*
X1116527Y511558D01*
X1116542Y511766D01*
X1116571Y512019D01*
Y512316D01*
Y519047D01*
X1117864D01*
Y512391D01*
D02*
G37*
G36*
X597975Y791903D02*
X598078Y791888D01*
X598212Y791873D01*
X598509Y791813D01*
X598836Y791694D01*
X599015Y791635D01*
X599193Y791546D01*
X599371Y791442D01*
X599550Y791323D01*
X599713Y791189D01*
X599877Y791026D01*
X599891Y791011D01*
X599906Y790981D01*
X599951Y790937D01*
X600010Y790862D01*
X600070Y790773D01*
X600144Y790669D01*
X600218Y790550D01*
X600293Y790402D01*
X600382Y790238D01*
X600456Y790060D01*
X600530Y789867D01*
X600590Y789659D01*
X600649Y789451D01*
X600694Y789213D01*
X600709Y788960D01*
X600723Y788693D01*
Y788678D01*
Y788634D01*
Y788559D01*
X600709Y788455D01*
X600694Y788336D01*
X600679Y788188D01*
X600649Y788039D01*
X600619Y787861D01*
X600515Y787489D01*
X600441Y787296D01*
X600367Y787103D01*
X600263Y786910D01*
X600159Y786717D01*
X600025Y786538D01*
X599877Y786360D01*
X599862Y786345D01*
X599832Y786316D01*
X599787Y786286D01*
X599728Y786226D01*
X599639Y786152D01*
X599535Y786078D01*
X599416Y786003D01*
X599282Y785929D01*
X599133Y785840D01*
X598970Y785766D01*
X598614Y785617D01*
X598405Y785558D01*
X598197Y785528D01*
X597975Y785498D01*
X597737Y785483D01*
X597648D01*
X597573Y785498D01*
X597499D01*
X597395Y785513D01*
X597187Y785543D01*
X596934Y785602D01*
X596667Y785692D01*
X596399Y785796D01*
X596147Y785959D01*
X596132D01*
X596117Y785989D01*
X596043Y786048D01*
X595924Y786167D01*
X595790Y786316D01*
X595642Y786509D01*
X595493Y786747D01*
X595359Y787029D01*
X595255Y787341D01*
Y787326D01*
X595241Y787311D01*
X595211Y787222D01*
X595136Y787088D01*
X595062Y786925D01*
X594943Y786732D01*
X594810Y786553D01*
X594661Y786375D01*
X594483Y786226D01*
X594453Y786212D01*
X594394Y786167D01*
X594290Y786107D01*
X594141Y786048D01*
X593963Y785989D01*
X593755Y785929D01*
X593532Y785885D01*
X593279Y785870D01*
X593175D01*
X593101Y785885D01*
X593012Y785900D01*
X592908Y785914D01*
X592655Y785959D01*
X592373Y786048D01*
X592076Y786197D01*
X591912Y786271D01*
X591763Y786375D01*
X591615Y786494D01*
X591481Y786628D01*
X591466Y786643D01*
X591451Y786657D01*
X591407Y786702D01*
X591362Y786761D01*
X591318Y786851D01*
X591243Y786940D01*
X591184Y787044D01*
X591110Y787177D01*
X590976Y787460D01*
X590872Y787816D01*
X590783Y788217D01*
X590768Y788426D01*
X590753Y788663D01*
Y788678D01*
Y788723D01*
Y788782D01*
X590768Y788871D01*
Y788990D01*
X590798Y789109D01*
X590842Y789406D01*
X590931Y789733D01*
X591065Y790075D01*
X591154Y790253D01*
X591243Y790417D01*
X591362Y790580D01*
X591496Y790729D01*
X591511Y790744D01*
X591526Y790758D01*
X591570Y790803D01*
X591630Y790848D01*
X591704Y790907D01*
X591793Y790981D01*
X592001Y791130D01*
X592269Y791264D01*
X592581Y791397D01*
X592923Y791487D01*
X593116Y791501D01*
X593309Y791516D01*
X593428D01*
X593546Y791501D01*
X593710Y791472D01*
X593903Y791427D01*
X594096Y791368D01*
X594304Y791279D01*
X594497Y791160D01*
X594512Y791145D01*
X594572Y791100D01*
X594661Y791011D01*
X594780Y790892D01*
X594899Y790744D01*
X595018Y790550D01*
X595151Y790328D01*
X595255Y790075D01*
Y790090D01*
X595270Y790119D01*
X595285Y790164D01*
X595315Y790223D01*
X595389Y790387D01*
X595478Y790580D01*
X595612Y790803D01*
X595775Y791026D01*
X595983Y791249D01*
X596206Y791442D01*
X596236Y791457D01*
X596325Y791516D01*
X596459Y791590D01*
X596652Y791680D01*
X596875Y791769D01*
X597142Y791843D01*
X597440Y791903D01*
X597766Y791917D01*
X597885D01*
X597975Y791903D01*
D02*
G37*
G36*
X465947Y627783D02*
X466140Y627753D01*
X466363Y627708D01*
X466616Y627649D01*
X466868Y627560D01*
X467121Y627441D01*
X467136D01*
X467151Y627426D01*
X467240Y627381D01*
X467359Y627307D01*
X467507Y627203D01*
X467671Y627069D01*
X467849Y626906D01*
X468013Y626713D01*
X468161Y626505D01*
X468176Y626475D01*
X468221Y626401D01*
X468280Y626282D01*
X468340Y626133D01*
X468399Y625940D01*
X468458Y625732D01*
X468503Y625509D01*
X468518Y625256D01*
Y625227D01*
Y625152D01*
X468503Y625033D01*
X468473Y624885D01*
X468429Y624707D01*
X468369Y624514D01*
X468295Y624305D01*
X468176Y624112D01*
X468161Y624083D01*
X468117Y624023D01*
X468027Y623934D01*
X467923Y623815D01*
X467775Y623681D01*
X467611Y623548D01*
X467403Y623399D01*
X467166Y623280D01*
X467180D01*
X467210Y623265D01*
X467255D01*
X467314Y623236D01*
X467463Y623191D01*
X467656Y623102D01*
X467864Y622998D01*
X468087Y622849D01*
X468310Y622671D01*
X468503Y622448D01*
X468518Y622418D01*
X468577Y622329D01*
X468652Y622196D01*
X468755Y622017D01*
X468845Y621794D01*
X468919Y621527D01*
X468978Y621215D01*
X468993Y620873D01*
Y620858D01*
Y620814D01*
Y620754D01*
X468978Y620665D01*
X468964Y620546D01*
X468949Y620427D01*
X468919Y620279D01*
X468874Y620130D01*
X468770Y619788D01*
X468696Y619595D01*
X468592Y619417D01*
X468488Y619239D01*
X468369Y619060D01*
X468221Y618882D01*
X468057Y618704D01*
X468042Y618689D01*
X468013Y618659D01*
X467968Y618629D01*
X467894Y618570D01*
X467805Y618496D01*
X467686Y618421D01*
X467552Y618347D01*
X467418Y618273D01*
X467255Y618184D01*
X467076Y618109D01*
X466883Y618035D01*
X466675Y617961D01*
X466452Y617901D01*
X466215Y617872D01*
X465962Y617842D01*
X465709Y617827D01*
X465591D01*
X465501Y617842D01*
X465382Y617857D01*
X465264Y617872D01*
X465115Y617886D01*
X464967Y617916D01*
X464625Y618005D01*
X464268Y618154D01*
X464090Y618228D01*
X463926Y618332D01*
X463748Y618451D01*
X463585Y618585D01*
X463570Y618600D01*
X463555Y618615D01*
X463510Y618659D01*
X463451Y618718D01*
X463391Y618808D01*
X463317Y618897D01*
X463228Y619001D01*
X463154Y619120D01*
X462975Y619417D01*
X462827Y619759D01*
X462693Y620145D01*
X462649Y620353D01*
X462619Y620576D01*
X463822Y620739D01*
Y620724D01*
X463837Y620695D01*
Y620635D01*
X463867Y620576D01*
X463912Y620397D01*
X463986Y620175D01*
X464075Y619937D01*
X464194Y619684D01*
X464342Y619461D01*
X464506Y619268D01*
X464536Y619253D01*
X464595Y619194D01*
X464699Y619134D01*
X464848Y619045D01*
X465011Y618971D01*
X465219Y618897D01*
X465457Y618837D01*
X465709Y618823D01*
X465799D01*
X465858Y618837D01*
X466007Y618852D01*
X466200Y618897D01*
X466437Y618971D01*
X466675Y619060D01*
X466913Y619209D01*
X467136Y619402D01*
X467166Y619432D01*
X467225Y619506D01*
X467314Y619625D01*
X467433Y619803D01*
X467537Y620011D01*
X467626Y620264D01*
X467686Y620546D01*
X467715Y620858D01*
Y620873D01*
Y620888D01*
Y620933D01*
X467701Y620992D01*
X467686Y621141D01*
X467641Y621334D01*
X467582Y621542D01*
X467478Y621779D01*
X467344Y622002D01*
X467166Y622210D01*
X467136Y622240D01*
X467076Y622299D01*
X466958Y622374D01*
X466794Y622478D01*
X466601Y622582D01*
X466363Y622656D01*
X466111Y622715D01*
X465813Y622745D01*
X465680D01*
X465576Y622730D01*
X465457Y622715D01*
X465308Y622701D01*
X465145Y622671D01*
X464967Y622626D01*
X465100Y623681D01*
X465174D01*
X465234Y623666D01*
X465427D01*
X465561Y623681D01*
X465754Y623711D01*
X465962Y623756D01*
X466185Y623830D01*
X466423Y623919D01*
X466660Y624053D01*
X466690Y624068D01*
X466764Y624127D01*
X466854Y624231D01*
X466972Y624365D01*
X467091Y624528D01*
X467180Y624736D01*
X467255Y624989D01*
X467285Y625286D01*
Y625301D01*
Y625316D01*
Y625390D01*
X467255Y625509D01*
X467225Y625672D01*
X467180Y625836D01*
X467091Y626014D01*
X466987Y626207D01*
X466839Y626371D01*
X466824Y626386D01*
X466764Y626445D01*
X466660Y626519D01*
X466527Y626594D01*
X466363Y626683D01*
X466170Y626742D01*
X465947Y626802D01*
X465695Y626817D01*
X465576D01*
X465442Y626787D01*
X465293Y626757D01*
X465100Y626713D01*
X464907Y626623D01*
X464714Y626519D01*
X464521Y626371D01*
X464506Y626356D01*
X464446Y626297D01*
X464372Y626193D01*
X464283Y626044D01*
X464179Y625866D01*
X464090Y625643D01*
X464001Y625375D01*
X463941Y625063D01*
X462738Y625271D01*
Y625286D01*
X462752Y625331D01*
X462767Y625390D01*
X462782Y625465D01*
X462812Y625569D01*
X462842Y625687D01*
X462946Y625955D01*
X463064Y626252D01*
X463243Y626564D01*
X463451Y626861D01*
X463718Y627129D01*
X463733Y627144D01*
X463748Y627158D01*
X463793Y627188D01*
X463867Y627233D01*
X463941Y627277D01*
X464030Y627337D01*
X464253Y627470D01*
X464536Y627589D01*
X464877Y627693D01*
X465249Y627768D01*
X465457Y627797D01*
X465799D01*
X465947Y627783D01*
D02*
G37*
G36*
X560822Y627113D02*
X560941Y627098D01*
X561089Y627084D01*
X561253Y627069D01*
X561431Y627039D01*
X561817Y626950D01*
X562233Y626816D01*
X562441Y626727D01*
X562649Y626623D01*
X562843Y626504D01*
X563036Y626370D01*
X563051Y626355D01*
X563080Y626341D01*
X563125Y626296D01*
X563199Y626236D01*
X563274Y626162D01*
X563378Y626058D01*
X563482Y625954D01*
X563586Y625835D01*
X563704Y625687D01*
X563809Y625538D01*
X563927Y625360D01*
X564046Y625167D01*
X564150Y624973D01*
X564254Y624751D01*
X564433Y624275D01*
X563155Y623978D01*
Y623993D01*
X563140Y624023D01*
X563125Y624082D01*
X563095Y624156D01*
X563051Y624245D01*
X563006Y624349D01*
X562902Y624572D01*
X562768Y624825D01*
X562590Y625092D01*
X562397Y625330D01*
X562159Y625538D01*
X562129Y625553D01*
X562040Y625612D01*
X561907Y625687D01*
X561713Y625791D01*
X561491Y625880D01*
X561208Y625954D01*
X560896Y626014D01*
X560540Y626029D01*
X560435D01*
X560361Y626014D01*
X560257D01*
X560153Y625999D01*
X559886Y625954D01*
X559589Y625895D01*
X559277Y625791D01*
X558965Y625657D01*
X558667Y625479D01*
X558652D01*
X558638Y625449D01*
X558548Y625375D01*
X558415Y625256D01*
X558251Y625092D01*
X558088Y624884D01*
X557910Y624647D01*
X557746Y624349D01*
X557612Y624023D01*
Y624008D01*
X557597Y623978D01*
X557583Y623933D01*
X557568Y623859D01*
X557538Y623785D01*
X557523Y623681D01*
X557464Y623443D01*
X557404Y623161D01*
X557360Y622849D01*
X557330Y622507D01*
X557315Y622150D01*
Y622136D01*
Y622091D01*
Y622031D01*
Y621942D01*
X557330Y621838D01*
Y621704D01*
X557345Y621571D01*
X557360Y621422D01*
X557404Y621081D01*
X557464Y620709D01*
X557553Y620337D01*
X557672Y619981D01*
Y619966D01*
X557687Y619936D01*
X557716Y619892D01*
X557746Y619832D01*
X557820Y619654D01*
X557939Y619461D01*
X558103Y619223D01*
X558296Y619000D01*
X558519Y618777D01*
X558786Y618584D01*
X558801D01*
X558816Y618569D01*
X558861Y618540D01*
X558920Y618510D01*
X559083Y618450D01*
X559291Y618361D01*
X559529Y618287D01*
X559811Y618213D01*
X560123Y618153D01*
X560450Y618138D01*
X560554D01*
X560629Y618153D01*
X560718D01*
X560837Y618168D01*
X561089Y618213D01*
X561372Y618287D01*
X561684Y618406D01*
X561981Y618554D01*
X562278Y618763D01*
X562293Y618777D01*
X562308Y618792D01*
X562397Y618881D01*
X562531Y619030D01*
X562694Y619223D01*
X562858Y619491D01*
X563036Y619803D01*
X563184Y620189D01*
X563303Y620620D01*
X564596Y620293D01*
Y620278D01*
X564581Y620219D01*
X564551Y620144D01*
X564522Y620025D01*
X564462Y619907D01*
X564403Y619743D01*
X564343Y619580D01*
X564254Y619401D01*
X564061Y619000D01*
X563794Y618599D01*
X563497Y618213D01*
X563318Y618034D01*
X563125Y617871D01*
X563110Y617856D01*
X563080Y617841D01*
X563021Y617797D01*
X562932Y617737D01*
X562828Y617678D01*
X562709Y617603D01*
X562575Y617529D01*
X562412Y617455D01*
X562233Y617381D01*
X562040Y617306D01*
X561817Y617232D01*
X561595Y617173D01*
X561104Y617068D01*
X560837Y617054D01*
X560554Y617039D01*
X560406D01*
X560287Y617054D01*
X560153D01*
X560005Y617068D01*
X559826Y617098D01*
X559648Y617113D01*
X559232Y617202D01*
X558801Y617306D01*
X558385Y617470D01*
X558177Y617559D01*
X557984Y617678D01*
X557969Y617693D01*
X557939Y617707D01*
X557895Y617752D01*
X557820Y617797D01*
X557642Y617945D01*
X557434Y618153D01*
X557181Y618406D01*
X556944Y618733D01*
X556691Y619104D01*
X556483Y619535D01*
Y619550D01*
X556468Y619595D01*
X556438Y619654D01*
X556409Y619743D01*
X556364Y619862D01*
X556320Y619996D01*
X556275Y620144D01*
X556230Y620323D01*
X556186Y620501D01*
X556141Y620709D01*
X556052Y621155D01*
X555993Y621630D01*
X555978Y622150D01*
Y622165D01*
Y622225D01*
Y622299D01*
X555993Y622403D01*
Y622537D01*
X556007Y622700D01*
X556022Y622864D01*
X556052Y623057D01*
X556126Y623473D01*
X556216Y623918D01*
X556364Y624379D01*
X556557Y624810D01*
Y624825D01*
X556587Y624855D01*
X556617Y624914D01*
X556661Y625003D01*
X556721Y625092D01*
X556795Y625196D01*
X556988Y625449D01*
X557211Y625731D01*
X557493Y626014D01*
X557835Y626296D01*
X558207Y626534D01*
X558222D01*
X558251Y626563D01*
X558311Y626593D01*
X558400Y626623D01*
X558489Y626668D01*
X558608Y626727D01*
X558756Y626772D01*
X558905Y626831D01*
X559068Y626890D01*
X559247Y626935D01*
X559648Y627039D01*
X560094Y627098D01*
X560569Y627128D01*
X560718D01*
X560822Y627113D01*
D02*
G37*
G36*
X597544Y784384D02*
X597618Y784354D01*
X597737Y784324D01*
X597856Y784265D01*
X598019Y784206D01*
X598182Y784146D01*
X598361Y784057D01*
X598762Y783864D01*
X599163Y783596D01*
X599550Y783299D01*
X599728Y783121D01*
X599891Y782928D01*
X599906Y782913D01*
X599921Y782883D01*
X599966Y782824D01*
X600025Y782735D01*
X600084Y782630D01*
X600159Y782512D01*
X600233Y782378D01*
X600307Y782215D01*
X600382Y782036D01*
X600456Y781843D01*
X600530Y781620D01*
X600590Y781397D01*
X600694Y780907D01*
X600709Y780639D01*
X600723Y780357D01*
Y780342D01*
Y780283D01*
Y780209D01*
X600709Y780090D01*
Y779956D01*
X600694Y779807D01*
X600664Y779629D01*
X600649Y779451D01*
X600560Y779035D01*
X600456Y778604D01*
X600293Y778188D01*
X600203Y777980D01*
X600084Y777786D01*
X600070Y777772D01*
X600055Y777742D01*
X600010Y777697D01*
X599966Y777623D01*
X599817Y777445D01*
X599609Y777237D01*
X599356Y776984D01*
X599030Y776746D01*
X598658Y776494D01*
X598227Y776286D01*
X598212D01*
X598168Y776271D01*
X598108Y776241D01*
X598019Y776211D01*
X597900Y776167D01*
X597766Y776122D01*
X597618Y776078D01*
X597440Y776033D01*
X597261Y775989D01*
X597053Y775944D01*
X596608Y775855D01*
X596132Y775795D01*
X595612Y775780D01*
X595463D01*
X595359Y775795D01*
X595226D01*
X595062Y775810D01*
X594899Y775825D01*
X594706Y775855D01*
X594290Y775929D01*
X593844Y776018D01*
X593383Y776167D01*
X592952Y776360D01*
X592937D01*
X592908Y776390D01*
X592848Y776420D01*
X592759Y776464D01*
X592670Y776524D01*
X592566Y776598D01*
X592313Y776791D01*
X592031Y777014D01*
X591749Y777296D01*
X591466Y777638D01*
X591228Y778009D01*
Y778024D01*
X591199Y778054D01*
X591169Y778113D01*
X591139Y778203D01*
X591095Y778292D01*
X591035Y778411D01*
X590991Y778559D01*
X590931Y778708D01*
X590872Y778871D01*
X590827Y779050D01*
X590723Y779451D01*
X590664Y779896D01*
X590634Y780372D01*
Y780387D01*
Y780431D01*
Y780521D01*
X590649Y780625D01*
X590664Y780743D01*
X590679Y780892D01*
X590694Y781056D01*
X590723Y781234D01*
X590812Y781620D01*
X590946Y782036D01*
X591035Y782244D01*
X591139Y782452D01*
X591258Y782645D01*
X591392Y782839D01*
X591407Y782853D01*
X591422Y782883D01*
X591466Y782928D01*
X591526Y783002D01*
X591600Y783076D01*
X591704Y783180D01*
X591808Y783284D01*
X591927Y783388D01*
X592076Y783507D01*
X592224Y783611D01*
X592402Y783730D01*
X592596Y783849D01*
X592789Y783953D01*
X593012Y784057D01*
X593487Y784235D01*
X593784Y782957D01*
X593769D01*
X593740Y782943D01*
X593680Y782928D01*
X593606Y782898D01*
X593517Y782853D01*
X593413Y782809D01*
X593190Y782705D01*
X592937Y782571D01*
X592670Y782393D01*
X592432Y782200D01*
X592224Y781962D01*
X592209Y781932D01*
X592150Y781843D01*
X592076Y781709D01*
X591972Y781516D01*
X591882Y781293D01*
X591808Y781011D01*
X591749Y780699D01*
X591734Y780342D01*
Y780327D01*
Y780298D01*
Y780238D01*
X591749Y780164D01*
Y780060D01*
X591763Y779956D01*
X591808Y779688D01*
X591867Y779391D01*
X591972Y779079D01*
X592105Y778767D01*
X592284Y778470D01*
Y778455D01*
X592313Y778440D01*
X592388Y778351D01*
X592506Y778217D01*
X592670Y778054D01*
X592878Y777890D01*
X593116Y777712D01*
X593413Y777549D01*
X593740Y777415D01*
X593755D01*
X593784Y777400D01*
X593829Y777385D01*
X593903Y777371D01*
X593978Y777341D01*
X594081Y777326D01*
X594319Y777266D01*
X594602Y777207D01*
X594914Y777162D01*
X595255Y777133D01*
X595612Y777118D01*
X595820D01*
X595924Y777133D01*
X596058D01*
X596191Y777148D01*
X596340Y777162D01*
X596682Y777207D01*
X597053Y777266D01*
X597425Y777356D01*
X597781Y777475D01*
X597796D01*
X597826Y777489D01*
X597870Y777519D01*
X597930Y777549D01*
X598108Y777623D01*
X598301Y777742D01*
X598539Y777905D01*
X598762Y778099D01*
X598985Y778321D01*
X599178Y778589D01*
Y778604D01*
X599193Y778619D01*
X599223Y778663D01*
X599252Y778723D01*
X599312Y778886D01*
X599401Y779094D01*
X599475Y779332D01*
X599550Y779614D01*
X599609Y779926D01*
X599624Y780253D01*
Y780268D01*
Y780298D01*
Y780357D01*
X599609Y780431D01*
Y780521D01*
X599594Y780639D01*
X599550Y780892D01*
X599475Y781174D01*
X599356Y781486D01*
X599208Y781784D01*
X599000Y782081D01*
X598985Y782096D01*
X598970Y782111D01*
X598881Y782200D01*
X598732Y782333D01*
X598539Y782497D01*
X598272Y782660D01*
X597960Y782839D01*
X597573Y782987D01*
X597142Y783106D01*
X597469Y784399D01*
X597484D01*
X597544Y784384D01*
D02*
G37*
G36*
X457730Y627901D02*
X457849Y627887D01*
X457998Y627872D01*
X458161Y627857D01*
X458339Y627827D01*
X458726Y627738D01*
X459142Y627604D01*
X459350Y627515D01*
X459558Y627411D01*
X459751Y627292D01*
X459944Y627158D01*
X459959Y627144D01*
X459989Y627129D01*
X460033Y627084D01*
X460108Y627025D01*
X460182Y626950D01*
X460286Y626846D01*
X460390Y626742D01*
X460494Y626623D01*
X460613Y626475D01*
X460717Y626326D01*
X460836Y626148D01*
X460955Y625955D01*
X461059Y625762D01*
X461163Y625539D01*
X461341Y625063D01*
X460063Y624766D01*
Y624781D01*
X460048Y624811D01*
X460033Y624870D01*
X460004Y624944D01*
X459959Y625033D01*
X459914Y625138D01*
X459810Y625360D01*
X459677Y625613D01*
X459498Y625881D01*
X459305Y626118D01*
X459067Y626326D01*
X459038Y626341D01*
X458949Y626401D01*
X458815Y626475D01*
X458622Y626579D01*
X458399Y626668D01*
X458116Y626742D01*
X457804Y626802D01*
X457448Y626817D01*
X457344D01*
X457270Y626802D01*
X457165D01*
X457062Y626787D01*
X456794Y626742D01*
X456497Y626683D01*
X456185Y626579D01*
X455873Y626445D01*
X455576Y626267D01*
X455561D01*
X455546Y626237D01*
X455457Y626163D01*
X455323Y626044D01*
X455159Y625881D01*
X454996Y625672D01*
X454818Y625435D01*
X454654Y625138D01*
X454521Y624811D01*
Y624796D01*
X454506Y624766D01*
X454491Y624721D01*
X454476Y624647D01*
X454446Y624573D01*
X454431Y624469D01*
X454372Y624231D01*
X454313Y623949D01*
X454268Y623637D01*
X454238Y623295D01*
X454223Y622938D01*
Y622924D01*
Y622879D01*
Y622820D01*
Y622730D01*
X454238Y622626D01*
Y622493D01*
X454253Y622359D01*
X454268Y622210D01*
X454313Y621869D01*
X454372Y621497D01*
X454461Y621126D01*
X454580Y620769D01*
Y620754D01*
X454595Y620724D01*
X454625Y620680D01*
X454654Y620620D01*
X454729Y620442D01*
X454847Y620249D01*
X455011Y620011D01*
X455204Y619788D01*
X455427Y619565D01*
X455695Y619372D01*
X455709D01*
X455724Y619357D01*
X455769Y619328D01*
X455828Y619298D01*
X455992Y619239D01*
X456200Y619149D01*
X456437Y619075D01*
X456720Y619001D01*
X457032Y618941D01*
X457359Y618927D01*
X457463D01*
X457537Y618941D01*
X457626D01*
X457745Y618956D01*
X457998Y619001D01*
X458280Y619075D01*
X458592Y619194D01*
X458889Y619343D01*
X459186Y619551D01*
X459201Y619565D01*
X459216Y619580D01*
X459305Y619669D01*
X459439Y619818D01*
X459602Y620011D01*
X459766Y620279D01*
X459944Y620591D01*
X460093Y620977D01*
X460212Y621408D01*
X461504Y621081D01*
Y621066D01*
X461489Y621007D01*
X461460Y620933D01*
X461430Y620814D01*
X461371Y620695D01*
X461311Y620531D01*
X461252Y620368D01*
X461163Y620190D01*
X460969Y619788D01*
X460702Y619387D01*
X460405Y619001D01*
X460227Y618823D01*
X460033Y618659D01*
X460018Y618644D01*
X459989Y618629D01*
X459929Y618585D01*
X459840Y618525D01*
X459736Y618466D01*
X459617Y618392D01*
X459483Y618317D01*
X459320Y618243D01*
X459142Y618169D01*
X458949Y618094D01*
X458726Y618020D01*
X458503Y617961D01*
X458013Y617857D01*
X457745Y617842D01*
X457463Y617827D01*
X457314D01*
X457195Y617842D01*
X457062D01*
X456913Y617857D01*
X456735Y617886D01*
X456556Y617901D01*
X456140Y617990D01*
X455709Y618094D01*
X455293Y618258D01*
X455085Y618347D01*
X454892Y618466D01*
X454877Y618481D01*
X454847Y618496D01*
X454803Y618540D01*
X454729Y618585D01*
X454550Y618733D01*
X454342Y618941D01*
X454090Y619194D01*
X453852Y619521D01*
X453599Y619892D01*
X453391Y620323D01*
Y620338D01*
X453377Y620383D01*
X453347Y620442D01*
X453317Y620531D01*
X453272Y620650D01*
X453228Y620784D01*
X453183Y620933D01*
X453139Y621111D01*
X453094Y621289D01*
X453050Y621497D01*
X452960Y621943D01*
X452901Y622418D01*
X452886Y622938D01*
Y622953D01*
Y623013D01*
Y623087D01*
X452901Y623191D01*
Y623325D01*
X452916Y623488D01*
X452931Y623652D01*
X452960Y623845D01*
X453035Y624261D01*
X453124Y624707D01*
X453272Y625167D01*
X453466Y625598D01*
Y625613D01*
X453495Y625643D01*
X453525Y625702D01*
X453570Y625791D01*
X453629Y625881D01*
X453703Y625984D01*
X453896Y626237D01*
X454119Y626519D01*
X454402Y626802D01*
X454743Y627084D01*
X455115Y627322D01*
X455130D01*
X455159Y627352D01*
X455219Y627381D01*
X455308Y627411D01*
X455397Y627456D01*
X455516Y627515D01*
X455665Y627560D01*
X455813Y627619D01*
X455977Y627678D01*
X456155Y627723D01*
X456556Y627827D01*
X457002Y627887D01*
X457477Y627916D01*
X457626D01*
X457730Y627901D01*
D02*
G37*
G36*
X467277Y602228D02*
X466074D01*
Y609865D01*
X466059Y609851D01*
X466000Y609791D01*
X465896Y609717D01*
X465762Y609613D01*
X465598Y609479D01*
X465405Y609345D01*
X465182Y609182D01*
X464930Y609033D01*
X464915D01*
X464900Y609019D01*
X464811Y608959D01*
X464677Y608885D01*
X464514Y608796D01*
X464320Y608692D01*
X464113Y608602D01*
X463890Y608498D01*
X463681Y608409D01*
Y609583D01*
X463696D01*
X463726Y609598D01*
X463786Y609628D01*
X463845Y609672D01*
X463934Y609717D01*
X464038Y609761D01*
X464276Y609895D01*
X464543Y610059D01*
X464841Y610252D01*
X465138Y610475D01*
X465420Y610712D01*
X465435Y610727D01*
X465450Y610742D01*
X465539Y610831D01*
X465673Y610965D01*
X465836Y611128D01*
X466014Y611337D01*
X466193Y611559D01*
X466356Y611797D01*
X466490Y612035D01*
X467277D01*
Y602228D01*
D02*
G37*
G36*
X457887Y612139D02*
X458005Y612124D01*
X458154Y612109D01*
X458317Y612094D01*
X458496Y612065D01*
X458882Y611975D01*
X459298Y611842D01*
X459506Y611753D01*
X459714Y611648D01*
X459907Y611530D01*
X460101Y611396D01*
X460115Y611381D01*
X460145Y611366D01*
X460190Y611322D01*
X460264Y611262D01*
X460338Y611188D01*
X460442Y611084D01*
X460546Y610980D01*
X460650Y610861D01*
X460769Y610712D01*
X460873Y610564D01*
X460992Y610386D01*
X461111Y610192D01*
X461215Y609999D01*
X461319Y609776D01*
X461497Y609301D01*
X460219Y609004D01*
Y609019D01*
X460205Y609048D01*
X460190Y609108D01*
X460160Y609182D01*
X460115Y609271D01*
X460071Y609375D01*
X459967Y609598D01*
X459833Y609851D01*
X459655Y610118D01*
X459462Y610356D01*
X459224Y610564D01*
X459194Y610579D01*
X459105Y610638D01*
X458971Y610712D01*
X458778Y610816D01*
X458555Y610906D01*
X458273Y610980D01*
X457961Y611039D01*
X457604Y611054D01*
X457500D01*
X457426Y611039D01*
X457322D01*
X457218Y611024D01*
X456950Y610980D01*
X456653Y610920D01*
X456341Y610816D01*
X456029Y610683D01*
X455732Y610504D01*
X455717D01*
X455702Y610475D01*
X455613Y610400D01*
X455479Y610281D01*
X455316Y610118D01*
X455153Y609910D01*
X454974Y609672D01*
X454811Y609375D01*
X454677Y609048D01*
Y609033D01*
X454662Y609004D01*
X454647Y608959D01*
X454632Y608885D01*
X454603Y608810D01*
X454588Y608706D01*
X454528Y608469D01*
X454469Y608186D01*
X454424Y607874D01*
X454395Y607533D01*
X454380Y607176D01*
Y607161D01*
Y607117D01*
Y607057D01*
Y606968D01*
X454395Y606864D01*
Y606730D01*
X454409Y606596D01*
X454424Y606448D01*
X454469Y606106D01*
X454528Y605735D01*
X454618Y605363D01*
X454736Y605006D01*
Y604992D01*
X454751Y604962D01*
X454781Y604917D01*
X454811Y604858D01*
X454885Y604680D01*
X455004Y604487D01*
X455167Y604249D01*
X455360Y604026D01*
X455583Y603803D01*
X455851Y603610D01*
X455866D01*
X455881Y603595D01*
X455925Y603565D01*
X455985Y603535D01*
X456148Y603476D01*
X456356Y603387D01*
X456594Y603313D01*
X456876Y603238D01*
X457188Y603179D01*
X457515Y603164D01*
X457619D01*
X457693Y603179D01*
X457783D01*
X457901Y603194D01*
X458154Y603238D01*
X458436Y603313D01*
X458748Y603432D01*
X459045Y603580D01*
X459343Y603788D01*
X459358Y603803D01*
X459372Y603818D01*
X459462Y603907D01*
X459595Y604056D01*
X459759Y604249D01*
X459922Y604516D01*
X460101Y604828D01*
X460249Y605215D01*
X460368Y605645D01*
X461661Y605319D01*
Y605304D01*
X461646Y605244D01*
X461616Y605170D01*
X461586Y605051D01*
X461527Y604932D01*
X461468Y604769D01*
X461408Y604605D01*
X461319Y604427D01*
X461126Y604026D01*
X460858Y603625D01*
X460561Y603238D01*
X460383Y603060D01*
X460190Y602897D01*
X460175Y602882D01*
X460145Y602867D01*
X460086Y602822D01*
X459996Y602763D01*
X459893Y602703D01*
X459774Y602629D01*
X459640Y602555D01*
X459476Y602481D01*
X459298Y602406D01*
X459105Y602332D01*
X458882Y602258D01*
X458659Y602198D01*
X458169Y602094D01*
X457901Y602079D01*
X457619Y602065D01*
X457471D01*
X457352Y602079D01*
X457218D01*
X457069Y602094D01*
X456891Y602124D01*
X456713Y602139D01*
X456297Y602228D01*
X455866Y602332D01*
X455450Y602495D01*
X455242Y602584D01*
X455048Y602703D01*
X455034Y602718D01*
X455004Y602733D01*
X454959Y602778D01*
X454885Y602822D01*
X454707Y602971D01*
X454499Y603179D01*
X454246Y603432D01*
X454008Y603758D01*
X453756Y604130D01*
X453548Y604561D01*
Y604576D01*
X453533Y604620D01*
X453503Y604680D01*
X453473Y604769D01*
X453429Y604888D01*
X453384Y605021D01*
X453340Y605170D01*
X453295Y605348D01*
X453251Y605527D01*
X453206Y605735D01*
X453117Y606180D01*
X453057Y606656D01*
X453042Y607176D01*
Y607191D01*
Y607250D01*
Y607324D01*
X453057Y607429D01*
Y607562D01*
X453072Y607726D01*
X453087Y607889D01*
X453117Y608082D01*
X453191Y608498D01*
X453280Y608944D01*
X453429Y609405D01*
X453622Y609836D01*
Y609851D01*
X453652Y609880D01*
X453681Y609940D01*
X453726Y610029D01*
X453786Y610118D01*
X453860Y610222D01*
X454053Y610475D01*
X454276Y610757D01*
X454558Y611039D01*
X454900Y611322D01*
X455271Y611559D01*
X455286D01*
X455316Y611589D01*
X455375Y611619D01*
X455465Y611648D01*
X455554Y611693D01*
X455672Y611753D01*
X455821Y611797D01*
X455970Y611856D01*
X456133Y611916D01*
X456311Y611960D01*
X456713Y612065D01*
X457158Y612124D01*
X457634Y612154D01*
X457783D01*
X457887Y612139D01*
D02*
G37*
G36*
X571093Y612335D02*
X571212Y612320D01*
X571346Y612305D01*
X571495Y612291D01*
X571658Y612246D01*
X572015Y612157D01*
X572386Y612023D01*
X572579Y611934D01*
X572758Y611830D01*
X572921Y611696D01*
X573085Y611563D01*
X573100Y611548D01*
X573114Y611533D01*
X573159Y611488D01*
X573218Y611429D01*
X573278Y611340D01*
X573352Y611250D01*
X573501Y611028D01*
X573649Y610745D01*
X573783Y610418D01*
X573887Y610047D01*
X573902Y609839D01*
X573917Y609631D01*
Y609601D01*
Y609527D01*
X573902Y609408D01*
X573887Y609259D01*
X573857Y609081D01*
X573813Y608888D01*
X573753Y608680D01*
X573664Y608472D01*
X573649Y608442D01*
X573620Y608368D01*
X573560Y608264D01*
X573471Y608115D01*
X573367Y607937D01*
X573233Y607729D01*
X573055Y607521D01*
X572862Y607283D01*
X572832Y607253D01*
X572758Y607164D01*
X572624Y607031D01*
X572535Y606941D01*
X572431Y606837D01*
X572312Y606718D01*
X572163Y606585D01*
X572015Y606451D01*
X571851Y606288D01*
X571673Y606124D01*
X571465Y605946D01*
X571257Y605768D01*
X571019Y605560D01*
X571004Y605545D01*
X570975Y605515D01*
X570915Y605470D01*
X570841Y605411D01*
X570663Y605262D01*
X570440Y605069D01*
X570217Y604861D01*
X569979Y604653D01*
X569786Y604475D01*
X569712Y604400D01*
X569637Y604326D01*
X569622Y604311D01*
X569593Y604267D01*
X569533Y604207D01*
X569459Y604118D01*
X569296Y603925D01*
X569132Y603687D01*
X573932D01*
Y602543D01*
X567468D01*
Y602558D01*
Y602617D01*
Y602707D01*
X567483Y602811D01*
X567498Y602929D01*
X567513Y603063D01*
X567557Y603212D01*
X567602Y603360D01*
Y603375D01*
X567617Y603390D01*
X567646Y603479D01*
X567706Y603598D01*
X567795Y603777D01*
X567899Y603970D01*
X568047Y604193D01*
X568196Y604415D01*
X568389Y604653D01*
Y604668D01*
X568419Y604683D01*
X568493Y604772D01*
X568612Y604906D01*
X568790Y605084D01*
X569013Y605292D01*
X569281Y605545D01*
X569608Y605827D01*
X569964Y606139D01*
X569979Y606154D01*
X570039Y606199D01*
X570113Y606258D01*
X570217Y606362D01*
X570351Y606466D01*
X570499Y606600D01*
X570826Y606882D01*
X571183Y607224D01*
X571539Y607565D01*
X571718Y607729D01*
X571866Y607892D01*
X572000Y608056D01*
X572119Y608204D01*
Y608219D01*
X572149Y608234D01*
X572178Y608279D01*
X572208Y608338D01*
X572297Y608487D01*
X572401Y608680D01*
X572505Y608903D01*
X572594Y609141D01*
X572654Y609408D01*
X572683Y609661D01*
Y609675D01*
Y609690D01*
X572669Y609780D01*
X572654Y609913D01*
X572624Y610077D01*
X572550Y610270D01*
X572461Y610463D01*
X572342Y610671D01*
X572163Y610864D01*
X572134Y610879D01*
X572074Y610938D01*
X571955Y611013D01*
X571807Y611117D01*
X571614Y611206D01*
X571391Y611280D01*
X571123Y611340D01*
X570826Y611355D01*
X570737D01*
X570677Y611340D01*
X570529Y611325D01*
X570336Y611295D01*
X570113Y611221D01*
X569875Y611132D01*
X569652Y610998D01*
X569444Y610820D01*
X569429Y610790D01*
X569370Y610731D01*
X569281Y610612D01*
X569192Y610448D01*
X569088Y610240D01*
X569013Y610002D01*
X568954Y609720D01*
X568924Y609393D01*
X567691Y609527D01*
Y609542D01*
Y609586D01*
X567706Y609661D01*
X567721Y609750D01*
X567750Y609869D01*
X567765Y610002D01*
X567854Y610300D01*
X567973Y610641D01*
X568137Y610983D01*
X568359Y611325D01*
X568478Y611473D01*
X568627Y611622D01*
X568642Y611637D01*
X568671Y611652D01*
X568716Y611696D01*
X568775Y611741D01*
X568865Y611786D01*
X568969Y611860D01*
X569088Y611919D01*
X569221Y611993D01*
X569370Y612053D01*
X569533Y612127D01*
X569726Y612187D01*
X569920Y612231D01*
X570365Y612320D01*
X570603Y612335D01*
X570856Y612350D01*
X570989D01*
X571093Y612335D01*
D02*
G37*
G36*
X562758Y612454D02*
X562877Y612439D01*
X563025Y612424D01*
X563189Y612410D01*
X563367Y612380D01*
X563753Y612291D01*
X564169Y612157D01*
X564377Y612068D01*
X564585Y611964D01*
X564779Y611845D01*
X564972Y611711D01*
X564986Y611696D01*
X565016Y611682D01*
X565061Y611637D01*
X565135Y611577D01*
X565209Y611503D01*
X565313Y611399D01*
X565417Y611295D01*
X565521Y611176D01*
X565640Y611028D01*
X565744Y610879D01*
X565863Y610701D01*
X565982Y610508D01*
X566086Y610314D01*
X566190Y610092D01*
X566368Y609616D01*
X565090Y609319D01*
Y609334D01*
X565076Y609363D01*
X565061Y609423D01*
X565031Y609497D01*
X564986Y609586D01*
X564942Y609690D01*
X564838Y609913D01*
X564704Y610166D01*
X564526Y610433D01*
X564333Y610671D01*
X564095Y610879D01*
X564065Y610894D01*
X563976Y610953D01*
X563842Y611028D01*
X563649Y611132D01*
X563426Y611221D01*
X563144Y611295D01*
X562832Y611355D01*
X562475Y611369D01*
X562371D01*
X562297Y611355D01*
X562193D01*
X562089Y611340D01*
X561822Y611295D01*
X561524Y611236D01*
X561212Y611132D01*
X560900Y610998D01*
X560603Y610820D01*
X560588D01*
X560573Y610790D01*
X560484Y610716D01*
X560350Y610597D01*
X560187Y610433D01*
X560024Y610225D01*
X559845Y609987D01*
X559682Y609690D01*
X559548Y609363D01*
Y609349D01*
X559533Y609319D01*
X559518Y609274D01*
X559504Y609200D01*
X559474Y609126D01*
X559459Y609022D01*
X559399Y608784D01*
X559340Y608502D01*
X559296Y608190D01*
X559266Y607848D01*
X559251Y607491D01*
Y607476D01*
Y607432D01*
Y607372D01*
Y607283D01*
X559266Y607179D01*
Y607045D01*
X559281Y606912D01*
X559296Y606763D01*
X559340Y606421D01*
X559399Y606050D01*
X559489Y605678D01*
X559608Y605322D01*
Y605307D01*
X559622Y605277D01*
X559652Y605233D01*
X559682Y605173D01*
X559756Y604995D01*
X559875Y604802D01*
X560038Y604564D01*
X560232Y604341D01*
X560454Y604118D01*
X560722Y603925D01*
X560737D01*
X560752Y603910D01*
X560796Y603881D01*
X560856Y603851D01*
X561019Y603791D01*
X561227Y603702D01*
X561465Y603628D01*
X561747Y603554D01*
X562059Y603494D01*
X562386Y603479D01*
X562490D01*
X562565Y603494D01*
X562654D01*
X562772Y603509D01*
X563025Y603554D01*
X563307Y603628D01*
X563619Y603747D01*
X563917Y603895D01*
X564214Y604103D01*
X564229Y604118D01*
X564244Y604133D01*
X564333Y604222D01*
X564466Y604371D01*
X564630Y604564D01*
X564793Y604832D01*
X564972Y605144D01*
X565120Y605530D01*
X565239Y605961D01*
X566532Y605634D01*
Y605619D01*
X566517Y605560D01*
X566487Y605485D01*
X566457Y605366D01*
X566398Y605247D01*
X566339Y605084D01*
X566279Y604921D01*
X566190Y604742D01*
X565997Y604341D01*
X565729Y603940D01*
X565432Y603554D01*
X565254Y603375D01*
X565061Y603212D01*
X565046Y603197D01*
X565016Y603182D01*
X564957Y603138D01*
X564868Y603078D01*
X564764Y603019D01*
X564645Y602944D01*
X564511Y602870D01*
X564348Y602796D01*
X564169Y602721D01*
X563976Y602647D01*
X563753Y602573D01*
X563530Y602514D01*
X563040Y602409D01*
X562772Y602395D01*
X562490Y602380D01*
X562342D01*
X562223Y602395D01*
X562089D01*
X561940Y602409D01*
X561762Y602439D01*
X561584Y602454D01*
X561168Y602543D01*
X560737Y602647D01*
X560321Y602811D01*
X560113Y602900D01*
X559920Y603019D01*
X559905Y603033D01*
X559875Y603048D01*
X559830Y603093D01*
X559756Y603138D01*
X559578Y603286D01*
X559370Y603494D01*
X559117Y603747D01*
X558880Y604074D01*
X558627Y604445D01*
X558419Y604876D01*
Y604891D01*
X558404Y604935D01*
X558374Y604995D01*
X558344Y605084D01*
X558300Y605203D01*
X558255Y605337D01*
X558211Y605485D01*
X558166Y605664D01*
X558122Y605842D01*
X558077Y606050D01*
X557988Y606496D01*
X557929Y606971D01*
X557914Y607491D01*
Y607506D01*
Y607565D01*
Y607640D01*
X557929Y607744D01*
Y607878D01*
X557943Y608041D01*
X557958Y608204D01*
X557988Y608398D01*
X558062Y608814D01*
X558151Y609259D01*
X558300Y609720D01*
X558493Y610151D01*
Y610166D01*
X558523Y610196D01*
X558553Y610255D01*
X558597Y610344D01*
X558657Y610433D01*
X558731Y610537D01*
X558924Y610790D01*
X559147Y611072D01*
X559429Y611355D01*
X559771Y611637D01*
X560143Y611875D01*
X560157D01*
X560187Y611904D01*
X560247Y611934D01*
X560336Y611964D01*
X560425Y612008D01*
X560544Y612068D01*
X560692Y612112D01*
X560841Y612172D01*
X561004Y612231D01*
X561183Y612276D01*
X561584Y612380D01*
X562030Y612439D01*
X562505Y612469D01*
X562654D01*
X562758Y612454D01*
D02*
G37*
G36*
X570213Y617202D02*
X569009D01*
Y624840D01*
X568994Y624825D01*
X568935Y624766D01*
X568831Y624691D01*
X568697Y624587D01*
X568534Y624454D01*
X568340Y624320D01*
X568118Y624156D01*
X567865Y624008D01*
X567850D01*
X567835Y623993D01*
X567746Y623933D01*
X567612Y623859D01*
X567449Y623770D01*
X567256Y623666D01*
X567048Y623577D01*
X566825Y623473D01*
X566617Y623384D01*
Y624557D01*
X566632D01*
X566661Y624572D01*
X566721Y624602D01*
X566780Y624647D01*
X566870Y624691D01*
X566973Y624736D01*
X567211Y624869D01*
X567479Y625033D01*
X567776Y625226D01*
X568073Y625449D01*
X568355Y625687D01*
X568370Y625702D01*
X568385Y625717D01*
X568474Y625806D01*
X568608Y625939D01*
X568771Y626103D01*
X568950Y626311D01*
X569128Y626534D01*
X569291Y626772D01*
X569425Y627009D01*
X570213D01*
Y617202D01*
D02*
G37*
G36*
X1094234Y615373D02*
X1094308Y615343D01*
X1094427Y615314D01*
X1094546Y615254D01*
X1094710Y615195D01*
X1094873Y615135D01*
X1095051Y615046D01*
X1095452Y614853D01*
X1095854Y614585D01*
X1096240Y614288D01*
X1096418Y614110D01*
X1096582Y613917D01*
X1096597Y613902D01*
X1096611Y613872D01*
X1096656Y613813D01*
X1096716Y613724D01*
X1096775Y613620D01*
X1096849Y613501D01*
X1096924Y613367D01*
X1096998Y613204D01*
X1097072Y613025D01*
X1097147Y612832D01*
X1097221Y612609D01*
X1097280Y612386D01*
X1097384Y611896D01*
X1097399Y611629D01*
X1097414Y611346D01*
Y611331D01*
Y611272D01*
Y611198D01*
X1097399Y611079D01*
Y610945D01*
X1097384Y610797D01*
X1097355Y610618D01*
X1097340Y610440D01*
X1097251Y610024D01*
X1097147Y609593D01*
X1096983Y609177D01*
X1096894Y608969D01*
X1096775Y608776D01*
X1096760Y608761D01*
X1096745Y608731D01*
X1096701Y608686D01*
X1096656Y608612D01*
X1096507Y608434D01*
X1096300Y608226D01*
X1096047Y607973D01*
X1095720Y607735D01*
X1095349Y607483D01*
X1094918Y607275D01*
X1094903D01*
X1094858Y607260D01*
X1094799Y607230D01*
X1094710Y607201D01*
X1094591Y607156D01*
X1094457Y607111D01*
X1094308Y607067D01*
X1094130Y607022D01*
X1093952Y606978D01*
X1093744Y606933D01*
X1093298Y606844D01*
X1092822Y606785D01*
X1092302Y606770D01*
X1092154D01*
X1092050Y606785D01*
X1091916D01*
X1091753Y606799D01*
X1091589Y606814D01*
X1091396Y606844D01*
X1090980Y606918D01*
X1090534Y607007D01*
X1090074Y607156D01*
X1089643Y607349D01*
X1089628D01*
X1089598Y607379D01*
X1089539Y607409D01*
X1089449Y607453D01*
X1089360Y607513D01*
X1089256Y607587D01*
X1089004Y607780D01*
X1088721Y608003D01*
X1088439Y608285D01*
X1088157Y608627D01*
X1087919Y608998D01*
Y609013D01*
X1087889Y609043D01*
X1087860Y609103D01*
X1087830Y609192D01*
X1087785Y609281D01*
X1087726Y609400D01*
X1087681Y609548D01*
X1087622Y609697D01*
X1087562Y609860D01*
X1087518Y610039D01*
X1087414Y610440D01*
X1087354Y610886D01*
X1087325Y611361D01*
Y611376D01*
Y611421D01*
Y611510D01*
X1087339Y611614D01*
X1087354Y611733D01*
X1087369Y611881D01*
X1087384Y612045D01*
X1087414Y612223D01*
X1087503Y612609D01*
X1087637Y613025D01*
X1087726Y613233D01*
X1087830Y613441D01*
X1087949Y613634D01*
X1088083Y613828D01*
X1088097Y613843D01*
X1088112Y613872D01*
X1088157Y613917D01*
X1088216Y613991D01*
X1088290Y614065D01*
X1088394Y614170D01*
X1088499Y614273D01*
X1088617Y614378D01*
X1088766Y614496D01*
X1088915Y614600D01*
X1089093Y614719D01*
X1089286Y614838D01*
X1089479Y614942D01*
X1089702Y615046D01*
X1090178Y615224D01*
X1090475Y613947D01*
X1090460D01*
X1090430Y613932D01*
X1090371Y613917D01*
X1090296Y613887D01*
X1090207Y613843D01*
X1090103Y613798D01*
X1089880Y613694D01*
X1089628Y613560D01*
X1089360Y613382D01*
X1089123Y613189D01*
X1088915Y612951D01*
X1088900Y612921D01*
X1088840Y612832D01*
X1088766Y612698D01*
X1088662Y612505D01*
X1088573Y612282D01*
X1088499Y612000D01*
X1088439Y611688D01*
X1088424Y611331D01*
Y611316D01*
Y611287D01*
Y611227D01*
X1088439Y611153D01*
Y611049D01*
X1088454Y610945D01*
X1088499Y610678D01*
X1088558Y610380D01*
X1088662Y610068D01*
X1088796Y609756D01*
X1088974Y609459D01*
Y609444D01*
X1089004Y609429D01*
X1089078Y609340D01*
X1089197Y609207D01*
X1089360Y609043D01*
X1089568Y608880D01*
X1089806Y608701D01*
X1090103Y608538D01*
X1090430Y608404D01*
X1090445D01*
X1090475Y608389D01*
X1090519Y608374D01*
X1090594Y608360D01*
X1090668Y608330D01*
X1090772Y608315D01*
X1091010Y608256D01*
X1091292Y608196D01*
X1091604Y608152D01*
X1091946Y608122D01*
X1092302Y608107D01*
X1092511D01*
X1092615Y608122D01*
X1092748D01*
X1092882Y608137D01*
X1093030Y608152D01*
X1093372Y608196D01*
X1093744Y608256D01*
X1094115Y608345D01*
X1094472Y608464D01*
X1094487D01*
X1094516Y608479D01*
X1094561Y608508D01*
X1094620Y608538D01*
X1094799Y608612D01*
X1094992Y608731D01*
X1095230Y608895D01*
X1095452Y609088D01*
X1095675Y609311D01*
X1095869Y609578D01*
Y609593D01*
X1095883Y609608D01*
X1095913Y609652D01*
X1095943Y609712D01*
X1096002Y609875D01*
X1096092Y610083D01*
X1096166Y610321D01*
X1096240Y610603D01*
X1096300Y610915D01*
X1096314Y611242D01*
Y611257D01*
Y611287D01*
Y611346D01*
X1096300Y611421D01*
Y611510D01*
X1096285Y611629D01*
X1096240Y611881D01*
X1096166Y612164D01*
X1096047Y612476D01*
X1095898Y612773D01*
X1095690Y613070D01*
X1095675Y613085D01*
X1095661Y613100D01*
X1095571Y613189D01*
X1095423Y613322D01*
X1095230Y613486D01*
X1094962Y613649D01*
X1094650Y613828D01*
X1094264Y613976D01*
X1093833Y614095D01*
X1094160Y615388D01*
X1094175D01*
X1094234Y615373D01*
D02*
G37*
G36*
X1097251Y619801D02*
X1089613D01*
X1089628Y619786D01*
X1089687Y619727D01*
X1089762Y619623D01*
X1089866Y619489D01*
X1089999Y619325D01*
X1090133Y619132D01*
X1090296Y618909D01*
X1090445Y618657D01*
Y618642D01*
X1090460Y618627D01*
X1090519Y618538D01*
X1090594Y618404D01*
X1090683Y618241D01*
X1090787Y618048D01*
X1090876Y617840D01*
X1090980Y617617D01*
X1091069Y617409D01*
X1089895D01*
Y617424D01*
X1089880Y617453D01*
X1089851Y617513D01*
X1089806Y617572D01*
X1089762Y617661D01*
X1089717Y617765D01*
X1089583Y618003D01*
X1089420Y618270D01*
X1089227Y618568D01*
X1089004Y618865D01*
X1088766Y619147D01*
X1088751Y619162D01*
X1088736Y619177D01*
X1088647Y619266D01*
X1088513Y619400D01*
X1088350Y619563D01*
X1088142Y619742D01*
X1087919Y619920D01*
X1087681Y620083D01*
X1087443Y620217D01*
Y621005D01*
X1097251D01*
Y619801D01*
D02*
G37*
G36*
X1111537Y854376D02*
Y854361D01*
Y854316D01*
Y854257D01*
Y854168D01*
X1111522Y854064D01*
Y853945D01*
X1111507Y853677D01*
X1111462Y853365D01*
X1111418Y853053D01*
X1111343Y852741D01*
X1111239Y852474D01*
X1111225Y852444D01*
X1111180Y852370D01*
X1111106Y852251D01*
X1111016Y852102D01*
X1110883Y851924D01*
X1110719Y851760D01*
X1110511Y851597D01*
X1110288Y851448D01*
X1110259Y851434D01*
X1110170Y851389D01*
X1110036Y851344D01*
X1109857Y851285D01*
X1109635Y851211D01*
X1109382Y851166D01*
X1109085Y851122D01*
X1108773Y851107D01*
X1108654D01*
X1108565Y851122D01*
X1108461Y851136D01*
X1108327Y851151D01*
X1108045Y851196D01*
X1107733Y851285D01*
X1107406Y851419D01*
X1107242Y851493D01*
X1107094Y851597D01*
X1106945Y851701D01*
X1106811Y851835D01*
Y851850D01*
X1106782Y851864D01*
X1106752Y851909D01*
X1106707Y851969D01*
X1106648Y852058D01*
X1106603Y852147D01*
X1106529Y852266D01*
X1106470Y852385D01*
X1106410Y852533D01*
X1106351Y852697D01*
X1106291Y852875D01*
X1106247Y853083D01*
X1106202Y853291D01*
X1106172Y853529D01*
X1106158Y853766D01*
Y854034D01*
X1107317Y854197D01*
Y854183D01*
Y854153D01*
Y854093D01*
X1107331Y854019D01*
Y853930D01*
X1107346Y853826D01*
X1107391Y853588D01*
X1107436Y853321D01*
X1107510Y853068D01*
X1107614Y852845D01*
X1107673Y852741D01*
X1107733Y852652D01*
X1107747Y852637D01*
X1107807Y852593D01*
X1107881Y852518D01*
X1108000Y852459D01*
X1108149Y852385D01*
X1108327Y852310D01*
X1108535Y852266D01*
X1108773Y852251D01*
X1108862D01*
X1108951Y852266D01*
X1109055Y852281D01*
X1109189Y852310D01*
X1109337Y852340D01*
X1109471Y852399D01*
X1109605Y852474D01*
X1109620Y852489D01*
X1109664Y852518D01*
X1109724Y852563D01*
X1109798Y852637D01*
X1109887Y852711D01*
X1109961Y852815D01*
X1110036Y852934D01*
X1110095Y853068D01*
Y853083D01*
X1110125Y853142D01*
X1110140Y853232D01*
X1110170Y853365D01*
X1110199Y853544D01*
X1110214Y853752D01*
X1110244Y854004D01*
Y854301D01*
Y861032D01*
X1111537D01*
Y854376D01*
D02*
G37*
G36*
X1117673Y851270D02*
X1116470D01*
Y858908D01*
X1116455Y858893D01*
X1116395Y858833D01*
X1116292Y858759D01*
X1116158Y858655D01*
X1115994Y858521D01*
X1115801Y858388D01*
X1115578Y858224D01*
X1115326Y858076D01*
X1115311D01*
X1115296Y858061D01*
X1115207Y858001D01*
X1115073Y857927D01*
X1114910Y857838D01*
X1114716Y857734D01*
X1114508Y857645D01*
X1114286Y857541D01*
X1114078Y857451D01*
Y858625D01*
X1114092D01*
X1114122Y858640D01*
X1114182Y858670D01*
X1114241Y858715D01*
X1114330Y858759D01*
X1114434Y858804D01*
X1114672Y858937D01*
X1114939Y859101D01*
X1115237Y859294D01*
X1115534Y859517D01*
X1115816Y859755D01*
X1115831Y859770D01*
X1115846Y859784D01*
X1115935Y859874D01*
X1116069Y860007D01*
X1116232Y860171D01*
X1116410Y860379D01*
X1116589Y860602D01*
X1116752Y860839D01*
X1116886Y861077D01*
X1117673D01*
Y851270D01*
D02*
G37*
G36*
X1125251D02*
X1124048D01*
Y858908D01*
X1124033Y858893D01*
X1123974Y858833D01*
X1123870Y858759D01*
X1123736Y858655D01*
X1123572Y858521D01*
X1123379Y858388D01*
X1123156Y858224D01*
X1122904Y858076D01*
X1122889D01*
X1122874Y858061D01*
X1122785Y858001D01*
X1122651Y857927D01*
X1122488Y857838D01*
X1122294Y857734D01*
X1122086Y857645D01*
X1121864Y857541D01*
X1121656Y857451D01*
Y858625D01*
X1121670D01*
X1121700Y858640D01*
X1121760Y858670D01*
X1121819Y858715D01*
X1121908Y858759D01*
X1122012Y858804D01*
X1122250Y858937D01*
X1122517Y859101D01*
X1122815Y859294D01*
X1123112Y859517D01*
X1123394Y859755D01*
X1123409Y859770D01*
X1123424Y859784D01*
X1123513Y859874D01*
X1123647Y860007D01*
X1123810Y860171D01*
X1123988Y860379D01*
X1124167Y860602D01*
X1124330Y860839D01*
X1124464Y861077D01*
X1125251D01*
Y851270D01*
D02*
G37*
G36*
X1097251Y627379D02*
X1089613D01*
X1089628Y627364D01*
X1089687Y627305D01*
X1089762Y627201D01*
X1089866Y627067D01*
X1089999Y626904D01*
X1090133Y626711D01*
X1090296Y626488D01*
X1090445Y626235D01*
Y626220D01*
X1090460Y626205D01*
X1090519Y626116D01*
X1090594Y625982D01*
X1090683Y625819D01*
X1090787Y625626D01*
X1090876Y625418D01*
X1090980Y625195D01*
X1091069Y624987D01*
X1089895D01*
Y625002D01*
X1089880Y625031D01*
X1089851Y625091D01*
X1089806Y625150D01*
X1089762Y625239D01*
X1089717Y625343D01*
X1089583Y625581D01*
X1089420Y625849D01*
X1089227Y626146D01*
X1089004Y626443D01*
X1088766Y626725D01*
X1088751Y626740D01*
X1088736Y626755D01*
X1088647Y626844D01*
X1088513Y626978D01*
X1088350Y627141D01*
X1088142Y627320D01*
X1087919Y627498D01*
X1087681Y627661D01*
X1087443Y627795D01*
Y628583D01*
X1097251D01*
Y627379D01*
D02*
G37*
G36*
X576736Y626994D02*
X576914Y626965D01*
X577122Y626935D01*
X577360Y626875D01*
X577598Y626786D01*
X577821Y626682D01*
X577850Y626668D01*
X577924Y626623D01*
X578029Y626549D01*
X578177Y626459D01*
X578326Y626326D01*
X578489Y626162D01*
X578653Y625984D01*
X578801Y625776D01*
X578816Y625746D01*
X578861Y625672D01*
X578935Y625538D01*
X579024Y625375D01*
X579113Y625167D01*
X579217Y624914D01*
X579321Y624632D01*
X579410Y624320D01*
Y624305D01*
X579425Y624275D01*
Y624231D01*
X579440Y624156D01*
X579470Y624082D01*
X579485Y623978D01*
X579500Y623844D01*
X579529Y623711D01*
X579544Y623547D01*
X579559Y623384D01*
X579589Y623190D01*
X579604Y622982D01*
X579618Y622760D01*
Y622537D01*
X579633Y622017D01*
Y622002D01*
Y621942D01*
Y621853D01*
Y621734D01*
X579618Y621586D01*
Y621422D01*
X579604Y621229D01*
X579589Y621021D01*
X579544Y620575D01*
X579485Y620115D01*
X579396Y619654D01*
X579336Y619446D01*
X579277Y619238D01*
Y619223D01*
X579262Y619193D01*
X579247Y619134D01*
X579217Y619060D01*
X579173Y618970D01*
X579128Y618881D01*
X579009Y618644D01*
X578861Y618376D01*
X578682Y618109D01*
X578474Y617841D01*
X578222Y617603D01*
X578207D01*
X578192Y617574D01*
X578147Y617559D01*
X578103Y617514D01*
X577939Y617425D01*
X577746Y617321D01*
X577479Y617217D01*
X577182Y617128D01*
X576840Y617068D01*
X576454Y617039D01*
X576320D01*
X576216Y617054D01*
X576097Y617068D01*
X575963Y617098D01*
X575815Y617128D01*
X575651Y617158D01*
X575294Y617277D01*
X575101Y617366D01*
X574923Y617455D01*
X574730Y617574D01*
X574552Y617707D01*
X574388Y617856D01*
X574225Y618034D01*
X574210Y618049D01*
X574180Y618094D01*
X574136Y618168D01*
X574076Y618272D01*
X574002Y618406D01*
X573927Y618569D01*
X573838Y618763D01*
X573749Y619000D01*
X573660Y619253D01*
X573571Y619550D01*
X573497Y619877D01*
X573422Y620233D01*
X573363Y620635D01*
X573318Y621051D01*
X573288Y621526D01*
X573274Y622017D01*
Y622031D01*
Y622091D01*
Y622180D01*
Y622299D01*
X573288Y622448D01*
Y622611D01*
X573303Y622804D01*
X573318Y623012D01*
X573363Y623458D01*
X573422Y623918D01*
X573497Y624379D01*
X573556Y624587D01*
X573615Y624795D01*
Y624810D01*
X573630Y624840D01*
X573660Y624899D01*
X573690Y624973D01*
X573719Y625063D01*
X573764Y625167D01*
X573883Y625404D01*
X574031Y625672D01*
X574210Y625939D01*
X574418Y626192D01*
X574670Y626430D01*
X574685D01*
X574700Y626459D01*
X574745Y626489D01*
X574804Y626519D01*
X574953Y626608D01*
X575161Y626727D01*
X575413Y626831D01*
X575725Y626920D01*
X576067Y626979D01*
X576454Y627009D01*
X576587D01*
X576736Y626994D01*
D02*
G37*
%LPC*%
G36*
X576439Y626014D02*
X576364D01*
X576305Y625999D01*
X576156Y625984D01*
X575963Y625924D01*
X575755Y625835D01*
X575532Y625717D01*
X575309Y625538D01*
X575205Y625419D01*
X575116Y625300D01*
Y625286D01*
X575087Y625256D01*
X575057Y625196D01*
X575027Y625122D01*
X574982Y625018D01*
X574923Y624899D01*
X574864Y624736D01*
X574819Y624557D01*
X574760Y624349D01*
X574700Y624112D01*
X574656Y623844D01*
X574596Y623532D01*
X574566Y623205D01*
X574537Y622849D01*
X574507Y622448D01*
Y622017D01*
Y621987D01*
Y621913D01*
Y621794D01*
X574522Y621630D01*
Y621437D01*
X574537Y621214D01*
X574552Y620962D01*
X574581Y620709D01*
X574641Y620174D01*
X574745Y619639D01*
X574804Y619401D01*
X574879Y619179D01*
X574968Y618970D01*
X575057Y618807D01*
Y618792D01*
X575087Y618777D01*
X575161Y618688D01*
X575280Y618554D01*
X575443Y618421D01*
X575651Y618272D01*
X575889Y618138D01*
X576156Y618049D01*
X576305Y618034D01*
X576454Y618019D01*
X576528D01*
X576587Y618034D01*
X576736Y618064D01*
X576929Y618124D01*
X577152Y618213D01*
X577375Y618346D01*
X577494Y618436D01*
X577612Y618554D01*
X577731Y618673D01*
X577835Y618807D01*
Y618822D01*
X577865Y618852D01*
X577895Y618896D01*
X577924Y618970D01*
X577969Y619060D01*
X578014Y619193D01*
X578058Y619342D01*
X578118Y619505D01*
X578177Y619713D01*
X578222Y619936D01*
X578266Y620204D01*
X578311Y620501D01*
X578355Y620828D01*
X578370Y621185D01*
X578400Y621586D01*
Y622017D01*
Y622046D01*
Y622121D01*
Y622239D01*
X578385Y622403D01*
Y622596D01*
X578370Y622819D01*
X578355Y623057D01*
X578326Y623324D01*
X578266Y623859D01*
X578162Y624379D01*
X578103Y624632D01*
X578029Y624855D01*
X577939Y625048D01*
X577835Y625211D01*
Y625226D01*
X577806Y625241D01*
X577731Y625330D01*
X577612Y625464D01*
X577449Y625612D01*
X577241Y625761D01*
X577003Y625895D01*
X576736Y625984D01*
X576587Y625999D01*
X576439Y626014D01*
D02*
G37*
G36*
X1080407Y813393D02*
X1077331D01*
Y810169D01*
X1080243D01*
X1080407Y810183D01*
X1080600Y810198D01*
X1080823Y810213D01*
X1081061Y810243D01*
X1081283Y810287D01*
X1081477Y810347D01*
X1081506Y810362D01*
X1081566Y810377D01*
X1081655Y810421D01*
X1081759Y810481D01*
X1081878Y810570D01*
X1082011Y810674D01*
X1082130Y810793D01*
X1082234Y810926D01*
X1082249Y810941D01*
X1082279Y811001D01*
X1082324Y811075D01*
X1082368Y811194D01*
X1082413Y811313D01*
X1082457Y811461D01*
X1082487Y811625D01*
X1082502Y811803D01*
Y811818D01*
Y811833D01*
Y811922D01*
X1082472Y812041D01*
X1082442Y812204D01*
X1082383Y812383D01*
X1082294Y812576D01*
X1082160Y812769D01*
X1081997Y812947D01*
X1081967Y812962D01*
X1081908Y813021D01*
X1081774Y813096D01*
X1081610Y813170D01*
X1081387Y813259D01*
X1081120Y813319D01*
X1080793Y813378D01*
X1080407Y813393D01*
D02*
G37*
G36*
X593294Y790283D02*
X593190D01*
X593056Y790253D01*
X592908Y790223D01*
X592744Y790164D01*
X592551Y790090D01*
X592373Y789971D01*
X592194Y789822D01*
X592179Y789807D01*
X592120Y789748D01*
X592046Y789644D01*
X591957Y789510D01*
X591882Y789347D01*
X591808Y789154D01*
X591749Y788946D01*
X591734Y788693D01*
Y788678D01*
Y788663D01*
Y788574D01*
X591763Y788455D01*
X591793Y788292D01*
X591838Y788113D01*
X591927Y787920D01*
X592031Y787727D01*
X592179Y787549D01*
X592194Y787534D01*
X592254Y787475D01*
X592358Y787415D01*
X592477Y787326D01*
X592625Y787252D01*
X592818Y787177D01*
X593012Y787118D01*
X593234Y787103D01*
X593353D01*
X593472Y787133D01*
X593636Y787162D01*
X593814Y787207D01*
X593992Y787281D01*
X594185Y787385D01*
X594364Y787534D01*
X594379Y787549D01*
X594423Y787608D01*
X594497Y787712D01*
X594572Y787846D01*
X594661Y788009D01*
X594720Y788217D01*
X594780Y788440D01*
X594795Y788693D01*
Y788708D01*
Y788723D01*
Y788812D01*
X594765Y788931D01*
X594735Y789094D01*
X594691Y789273D01*
X594616Y789466D01*
X594512Y789659D01*
X594364Y789837D01*
X594349Y789852D01*
X594290Y789911D01*
X594200Y789986D01*
X594067Y790060D01*
X593918Y790149D01*
X593725Y790209D01*
X593517Y790268D01*
X593294Y790283D01*
D02*
G37*
G36*
X654682Y519329D02*
X651606D01*
Y516105D01*
X654518D01*
X654682Y516120D01*
X654875Y516135D01*
X655098Y516149D01*
X655336Y516179D01*
X655558Y516224D01*
X655752Y516283D01*
X655781Y516298D01*
X655841Y516313D01*
X655930Y516357D01*
X656034Y516417D01*
X656153Y516506D01*
X656287Y516610D01*
X656405Y516729D01*
X656509Y516863D01*
X656524Y516878D01*
X656554Y516937D01*
X656599Y517011D01*
X656643Y517130D01*
X656688Y517249D01*
X656732Y517398D01*
X656762Y517561D01*
X656777Y517739D01*
Y517754D01*
Y517769D01*
Y517858D01*
X656747Y517977D01*
X656718Y518141D01*
X656658Y518319D01*
X656569Y518512D01*
X656435Y518705D01*
X656272Y518884D01*
X656242Y518898D01*
X656183Y518958D01*
X656049Y519032D01*
X655885Y519106D01*
X655663Y519196D01*
X655395Y519255D01*
X655068Y519314D01*
X654682Y519329D01*
D02*
G37*
G36*
X597781Y790684D02*
X597692D01*
X597633Y790669D01*
X597484Y790654D01*
X597276Y790610D01*
X597053Y790550D01*
X596815Y790446D01*
X596578Y790298D01*
X596355Y790105D01*
X596325Y790075D01*
X596266Y790001D01*
X596177Y789882D01*
X596058Y789718D01*
X595954Y789510D01*
X595864Y789258D01*
X595805Y788975D01*
X595775Y788663D01*
Y788648D01*
Y788634D01*
Y788589D01*
X595790Y788530D01*
X595805Y788366D01*
X595850Y788173D01*
X595909Y787950D01*
X596013Y787712D01*
X596147Y787489D01*
X596340Y787266D01*
X596370Y787237D01*
X596444Y787177D01*
X596563Y787088D01*
X596726Y786999D01*
X596934Y786895D01*
X597172Y786806D01*
X597454Y786747D01*
X597752Y786717D01*
X597841D01*
X597930Y786732D01*
X598064Y786747D01*
X598212Y786776D01*
X598391Y786821D01*
X598569Y786880D01*
X598747Y786954D01*
X598762Y786969D01*
X598821Y786999D01*
X598911Y787058D01*
X599015Y787133D01*
X599133Y787237D01*
X599267Y787356D01*
X599386Y787504D01*
X599490Y787668D01*
X599505Y787698D01*
X599535Y787757D01*
X599564Y787846D01*
X599609Y787980D01*
X599668Y788143D01*
X599698Y788307D01*
X599728Y788500D01*
X599743Y788708D01*
Y788723D01*
Y788752D01*
Y788797D01*
X599728Y788857D01*
X599713Y789005D01*
X599668Y789213D01*
X599609Y789436D01*
X599505Y789674D01*
X599371Y789897D01*
X599193Y790119D01*
X599163Y790149D01*
X599089Y790209D01*
X598970Y790298D01*
X598807Y790402D01*
X598614Y790506D01*
X598361Y790595D01*
X598093Y790654D01*
X597781Y790684D01*
D02*
G37*
G36*
X1097249Y781676D02*
X1097175D01*
X1097115Y781661D01*
X1096967Y781646D01*
X1096774Y781587D01*
X1096565Y781497D01*
X1096343Y781379D01*
X1096120Y781200D01*
X1096016Y781081D01*
X1095927Y780963D01*
Y780948D01*
X1095897Y780918D01*
X1095867Y780859D01*
X1095837Y780784D01*
X1095793Y780680D01*
X1095733Y780561D01*
X1095674Y780398D01*
X1095629Y780220D01*
X1095570Y780012D01*
X1095510Y779774D01*
X1095466Y779506D01*
X1095406Y779194D01*
X1095377Y778867D01*
X1095347Y778511D01*
X1095317Y778110D01*
Y777679D01*
Y777649D01*
Y777575D01*
Y777456D01*
X1095332Y777292D01*
Y777099D01*
X1095347Y776876D01*
X1095362Y776624D01*
X1095392Y776371D01*
X1095451Y775836D01*
X1095555Y775301D01*
X1095614Y775063D01*
X1095689Y774841D01*
X1095778Y774633D01*
X1095867Y774469D01*
Y774454D01*
X1095897Y774439D01*
X1095971Y774350D01*
X1096090Y774217D01*
X1096254Y774083D01*
X1096461Y773934D01*
X1096699Y773801D01*
X1096967Y773711D01*
X1097115Y773697D01*
X1097264Y773682D01*
X1097338D01*
X1097398Y773697D01*
X1097546Y773726D01*
X1097739Y773786D01*
X1097962Y773875D01*
X1098185Y774008D01*
X1098304Y774098D01*
X1098423Y774217D01*
X1098542Y774335D01*
X1098646Y774469D01*
Y774484D01*
X1098676Y774514D01*
X1098705Y774558D01*
X1098735Y774633D01*
X1098780Y774722D01*
X1098824Y774855D01*
X1098869Y775004D01*
X1098928Y775167D01*
X1098988Y775376D01*
X1099032Y775598D01*
X1099077Y775866D01*
X1099121Y776163D01*
X1099166Y776490D01*
X1099181Y776847D01*
X1099210Y777248D01*
Y777679D01*
Y777708D01*
Y777783D01*
Y777902D01*
X1099196Y778065D01*
Y778258D01*
X1099181Y778481D01*
X1099166Y778719D01*
X1099136Y778986D01*
X1099077Y779521D01*
X1098973Y780041D01*
X1098913Y780294D01*
X1098839Y780517D01*
X1098750Y780710D01*
X1098646Y780873D01*
Y780888D01*
X1098616Y780903D01*
X1098542Y780992D01*
X1098423Y781126D01*
X1098259Y781275D01*
X1098051Y781423D01*
X1097814Y781557D01*
X1097546Y781646D01*
X1097398Y781661D01*
X1097249Y781676D01*
D02*
G37*
%LPD*%
D20*
X508155Y819150D02*
G03*
X523398Y819150I7622J0D01*
G01*
X798830Y558800D02*
X814070Y574040D01*
X786130Y558800D02*
X798830D01*
X814070Y574040D02*
Y586740D01*
X615950Y558800D02*
Y586740D01*
Y558800D02*
X643890D01*
X615950Y822960D02*
X643890D01*
X615950Y795020D02*
Y822960D01*
X786130D02*
X814070D01*
Y795020D02*
Y822960D01*
X1055370Y795020D02*
Y822960D01*
X1027430D02*
X1055370D01*
X857250Y795020D02*
Y822960D01*
X885190D01*
X857250Y558800D02*
X885190D01*
X857250D02*
Y586740D01*
X1055370Y574040D02*
Y586740D01*
X1027430Y558800D02*
X1040130D01*
X1055370Y574040D01*
X487680Y641350D02*
Y819150D01*
Y641350D02*
X543560D01*
Y819150D01*
X523398D02*
X543560D01*
X487680D02*
X508155D01*
D39*
X1071671Y604482D02*
G03*
X1084445Y604627I6323J5694D01*
G01*
X1084382Y632430D02*
G03*
X1071606Y632430I-6388J-5999D01*
G01*
X516193Y628624D02*
G03*
X516193Y615848I5999J-6388D01*
G01*
X544142Y615912D02*
G03*
X543997Y628687I-5694J6323D01*
G01*
X601276Y770301D02*
G03*
X588501Y770156I-6323J-5694D01*
G01*
X588564Y742353D02*
G03*
X601340Y742353I6388J5999D01*
G01*
X508666Y615911D02*
G03*
X508666Y628687I-5999J6388D01*
G01*
X480718Y628623D02*
G03*
X480863Y615848I5694J-6323D01*
G01*
X516292Y613176D02*
G03*
X516292Y600401I5999J-6388D01*
G01*
X544240Y600465D02*
G03*
X544095Y613240I-5694J6323D01*
G01*
X508591Y600464D02*
G03*
X508591Y613240I-5999J6388D01*
G01*
X480643Y613176D02*
G03*
X480788Y600401I5694J-6323D01*
G01*
X1075007Y768467D02*
G03*
X1075152Y755693I5694J-6323D01*
G01*
X1102955Y755756D02*
G03*
X1102955Y768532I-5999J6388D01*
G01*
X1075076Y728699D02*
G03*
X1075221Y715925I5694J-6323D01*
G01*
X1103025Y715988D02*
G03*
X1103025Y728764I-5999J6388D01*
G01*
X1084388Y632426D02*
X1084446Y604628D01*
X1071609Y632433D02*
X1071670Y604483D01*
X516190Y615850D02*
X544140Y615911D01*
X516198Y628629D02*
X543995Y628687D01*
X588501Y770155D02*
X588559Y742357D01*
X601277Y770300D02*
X601338Y742349D01*
X480719Y628624D02*
X508670Y628685D01*
X480864Y615848D02*
X508662Y615906D01*
X516288Y600403D02*
X544238Y600464D01*
X516296Y613182D02*
X544094Y613240D01*
X480645Y613177D02*
X508595Y613238D01*
X480789Y600401D02*
X508587Y600459D01*
X1075153Y755692D02*
X1102951Y755751D01*
X1075009Y768468D02*
X1102959Y768529D01*
X1075223Y715924D02*
X1103020Y715983D01*
X1075078Y728701D02*
X1103028Y728762D01*
D40*
X1073658Y818642D02*
Y831342D01*
X1102868Y818642D02*
Y831342D01*
X1076960Y849630D02*
X1102360D01*
X1076960D02*
Y862330D01*
X1102360D01*
Y849630D02*
Y862330D01*
X677719Y523275D02*
Y535975D01*
X648509Y523275D02*
Y535975D01*
X1108710Y508000D02*
Y520700D01*
X1083310D02*
X1108710D01*
X1083310Y508000D02*
Y520700D01*
Y508000D02*
X1108710D01*
D41*
X1073658Y818642D02*
X1102868D01*
X1073658Y831342D02*
X1102868D01*
X648509Y535975D02*
X677719D01*
X648509Y523275D02*
X677719D01*
M02*
