M48
;Layer_Color=9474304
;FILE_FORMAT=4:4
METRIC,TZ
;TYPE=PLATED
T1F00S00C0.3302
T2F00S00C0.4318
T3F00S00C1.3000
%
T01
X832945Y623035
X845286Y616239
X835296Y659102
X844449Y681187
X825223Y688174
X825048Y700625
X836346Y720400
X848841Y726708
X910902Y724238
Y709578
X918539Y716908
Y731567
Y746227
X910902Y753557
Y738897
X918276Y763322
X894308Y759723
X884957Y764950
X884094Y694553
X884031Y682202
X884094Y662053
X918798Y702119
X965708Y708188
Y693529
Y678869
Y664210
X973345Y671540
Y686199
Y700859
Y715518
X1025993Y726045
X1030732Y761746
X1068108Y760699
Y720826
X1071288Y696096
X1064314Y688215
X1026625Y682333
Y666887
X1026668Y649732
Y636016
X1026194Y622741
X1017016Y629874
Y642874
X1017381Y657430
Y675122
X1019461Y611814
X1039030Y588612
X999014Y589337
X960229Y592054
X949963
X913638Y591820
X908237Y583233
X914908Y544576
X927100Y551180
X943356Y545592
X941832Y534416
X955802Y537972
X973074Y534924
X979424Y545084
X986028Y521208
X993902Y527347
X1005500Y540257
X1103636Y524321
X1094905Y608794
X1096346Y639909
X1089959Y647739
X1068373Y625889
X1067494Y615325
X1135380Y625348
Y635254
Y645160
Y661717
X1135888Y712724
Y762254
X1011682Y790194
X1001776Y786384
X990854Y786130
X975360Y790956
X974090Y781050
X962914Y781812
X963676Y770382
X952246Y771398
X1175258Y639572
X1185672Y629158
Y617728
X788213Y661717
X788410Y674974
X746141Y662311
X689672Y680831
X682306Y687689
X674940Y694547
X667574Y701405
X660208Y708263
X652842Y715121
X643400Y709205
X644822Y685006
X645532Y668516
X641681Y659338
X645414Y649613
Y635897
X655066Y629756
Y642756
X655184Y675374
X642382Y621010
X645414Y610614
X655066Y603755
X643661Y594490
X679634Y584928
X708394Y587082
X719365Y586906
X758034Y585523
X764887Y593214
X773684Y586232
X751078Y513588
X741680Y518922
X727456Y518414
X728980Y506476
X705358Y525696
X688594Y529590
X695960Y537464
X686054Y550926
X672846Y544576
X660654Y545592
X641089
X644469Y529660
X581337Y622951
X581466Y646813
X579536Y657612
Y668270
Y678929
Y693085
X579374Y708406
X578258Y723958
Y736746
X589922Y736219
X594390Y727573
X598103Y718338
X607716Y714799
X605800Y765975
X587481Y775335
Y790471
X578542Y761925
X578258Y749426
X512843Y747790
Y757769
Y767747
Y777726
Y787705
Y737811
Y727832
Y717853
Y707875
Y697896
Y687917
X516957Y653440
X513999Y642907
X512426Y619003
X512542Y607450
X513147Y573872
X570566Y636985
X644251Y765655
X652780Y790702
X693166Y775208
X692860Y761779
X693002Y748574
X697056Y734936
X770636Y741934
X764032Y755396
X757428Y768604
X751210Y783319
X788416Y771014
Y755904
X738105Y830805
X745083Y838352
X722865Y842764
X709260
X666592Y797800
X640588Y804672
X587481Y805522
X533892Y821283
X512843Y807663
Y797684
X826516Y798068
X839216Y800608
X946533Y843445
X963835Y843281
X976368Y833834
X985694Y837075
X1082040Y838454
X1097534Y845058
X1080365Y814130
X1135470Y810300
T02
X1075246Y514302
X553685Y582741
Y602681
Y620558
Y632872
X472757Y634290
X472719Y622580
X473115Y607859
Y587859
X561358Y825691
T03
X1135700Y547300
X513400
Y828300
X1135700
M30
