M48
;Layer_Color=9474304
;FILE_FORMAT=4:4
METRIC,TZ
;TYPE=PLATED
T1F00S00C0.3048
T2F00S00C0.3302
T3F00S00C0.3556
T4F00S00C0.3810
T5F00S00C0.4318
T6F00S00C0.4572
T7F00S00C0.5588
T8F00S00C0.6350
T9F00S00C0.7000
T10F00S00C0.7620
T11F00S00C0.8000
T13F00S00C0.9000
T14F00S00C0.9398
T15F00S00C0.9652
T16F00S00C0.9906
T17F00S00C1.0000
T18F00S00C1.0160
T19F00S00C1.3000
T20F00S00C1.5000
T21F00S00C1.6000
T22F00S00C2.2000
T23F00S00C3.0000
%
T01
X2010410Y1201580
Y1221580
T02
X1250569Y1056640
X1250632Y1074928
X1638300Y1122426
X1849882Y1114298
X1937693Y1106165
X2104785Y1119519
X2161032Y1129030
X2161540Y1088644
X2152904
X2146808Y1075944
X2202434Y1119378
Y1127760
X2084324Y1183132
X2139188Y983234
X2378964Y990092
X2373884Y1003046
X2367788Y1013714
X2362454Y1026855
X2356866Y1038352
X2396236Y1020572
X2391039Y1007872
X2385822Y996188
X2418588Y984504
X2413254Y975614
X2494280Y969010
X2486406Y1054354
X2480796Y1079466
X2474976Y1089406
X2468971Y1100074
X2491766Y1114534
X2502968Y1110178
X2497328Y1126490
X2422583Y1105069
X2429764Y1094486
X2435098Y1083564
X2440940Y1072134
X2446528Y1060450
X2451862Y1053084
X2457704Y1045464
X2463292Y1032256
X2401824Y1066292
X2399792Y1103630
X2807208Y1167892
X2949194Y1162304
X3161434Y1115122
Y1105122
X3161500Y1095090
X3162046Y1082802
X3161500Y1065090
Y1055090
Y1045090
Y1034288
Y1015090
Y1005090
Y995090
Y985090
Y965090
Y955090
Y945090
Y934930
X3166364Y927354
X3108960Y924560
X3101340Y938530
X3108452Y952500
X3088640Y918972
X3057652Y933958
X3208274Y932688
X3201153Y950131
X3209027Y960733
X3201416Y972566
X3209027Y990733
X3201153Y1000131
X3209027Y1010733
X3201162Y1022096
X3201153Y1039557
X3209027Y1050733
X3201153Y1060131
X3209036Y1071307
X3209290Y1088644
X3201305Y1099979
X3209036Y1110742
X3201162Y1120140
X3207512Y900684
X3479292Y1007618
X3521484Y1061600
X3550800Y1069600
Y1085600
X3601207Y1050646
X3601339Y1021461
X3485388Y1211580
X3477260Y1252220
X3477006Y1308608
X3416046Y1315720
X3440938Y1350010
X3211830Y1493774
X3205480Y1500886
X3185668Y1507080
X3180016Y1513303
X3173730Y1518920
X3168650Y1525725
X3163062Y1531972
X3156458Y1544066
X3150616Y1557274
X3121406Y1554226
X3109491Y1557002
X3103322Y1563533
X3097154Y1570065
X3090985Y1576596
X3084817Y1583128
X3115564Y1567688
X2960624Y1460246
Y1451610
X2963926Y1425448
X2692636Y1475214
X2665984Y1480312
X2660142Y1473962
X2653538Y1480566
X2645918Y1475232
X2651252Y1502664
X2644326Y1508291
X2638044Y1513840
X2632117Y1519767
X2614168Y1470152
X2608133Y1464122
X2602257Y1458144
X2595788Y1452806
X2589484Y1447282
X2583187Y1441739
X2577338Y1434338
X2474468Y1433830
X2457450Y1425020
X2447136Y1441033
Y1452887
Y1464486
X2439516Y1458898
Y1446875
X2439416Y1470914
X2439516Y1488282
Y1500305
Y1512327
Y1524350
X2447136Y1518000
Y1506147
Y1494293
Y1482440
X2457467Y1476502
X2456942Y1531112
X2447036Y1541018
Y1557274
Y1569127
Y1580981
X2439416Y1575139
Y1587161
Y1563116
X2457367Y1550924
X2486859Y1546741
Y1535565
X2482850Y1526794
X2497582Y1539494
X2655824Y1578102
X2691384Y1577340
X2696624Y1585091
X2702306Y1570228
X2708656Y1563878
X2317496Y1553972
X2302002Y1550416
X2294382Y1556004
X2288540Y1544320
X2281682Y1532890
X2300224Y1534414
X2306074Y1562092
X2300224Y1568095
X2278126Y1492758
X2269363
X2260600
X2205990Y1551178
X2181352Y1541018
X2157476Y1434084
X2150872Y1426718
X2116328Y1424940
X2108454Y1410716
X2127250Y1409954
X2130552Y1396492
X2140712Y1385062
X2073402Y1310894
X2066544Y1303274
X2070608Y1281430
X2077974Y1286764
X2062988Y1275842
X2008124Y1341374
X2189734Y1260094
X2206498Y1261364
X2216591Y1261177
X2223008Y1255268
X2250948Y1272286
X1136435Y1613994
X1766824Y1793240
X1765808Y1801622
X1770126Y1809242
X1769604Y1817864
X2204720Y1709641
X2230628Y1694942
X2242312
X2253742
X2265426Y1689608
Y1746250
X2219198Y1633220
X2206752Y1617980
X2199138Y1611884
X2191512Y1606296
X2439416Y1599184
X2447036Y1592834
X2442464Y1667764
X2452116Y1674114
X2484120Y1683766
Y1693672
X2413000Y1695958
X2403602
X2394204
X2601440Y1643917
X2600438Y1635012
X2609342Y1636014
X2608439Y1627011
X2617470Y1627886
X2616567Y1618883
X2625471Y1619885
X2668061Y1668227
X2678176Y1670050
X2669808Y1678418
X2659888Y1676400
X2661891Y1686306
X2651252Y1685036
X2660396Y1701038
X2666695Y1707388
X2672842Y1713738
X2679294Y1720088
X2685593Y1726438
X2691892Y1732788
X2649220Y1750822
X2659888Y1860042
X2672080Y1853184
X2697480Y1853692
X2710434
X2722626
X2735326Y1858010
X2748026Y1860804
X2761234Y1865376
X2685288Y1865884
X2735580Y1702054
X2734056Y1607962
X2727535Y1602308
X2721356Y1596644
X2715663Y1590492
X2788158Y1641602
X2787291Y1650371
X2796286Y1649984
X2805828Y1648175
X2804936Y1657364
X2825750Y1644396
X2834386Y1643888
X2842955Y1643059
X2922778Y1637890
X2923794Y1647288
X2932303Y1638779
X2931287Y1629381
X2940431Y1630651
X2939669Y1620999
X2949067Y1622015
X2963164Y1626870
X2969006Y1633728
X3001518Y1640840
X3010408Y1635784
X3019044Y1634490
X3036824Y1625346
X3047492Y1626108
X3057652Y1626870
X3078648Y1589659
X3173730Y1590802
X3061970Y1801114
X3055807Y1852237
X3068320Y1852168
X3042920Y1851152
X3030220Y1869186
X3017520Y1862582
X3004820Y1856740
X2966720Y1875028
X2966466Y1823720
X2954274Y1817624
X2978658Y1811274
X2991104Y1804924
X2913761Y1818865
X2901061
X2888361
X2875661
X2862961
X2850134Y1818738
X2837688Y1818992
X2825242Y1819148
X2800350Y1822450
X2813304Y1874774
X2812796Y1750822
X2803906Y1750568
X2825750Y1750822
X2839212
X2851150
X2863850
X2876550
X2889250
X2901950
X2847086Y1735582
X3184906Y1588770
X2812965Y2133346
X2806954Y2127504
X2793494Y2138851
X2785110Y2122170
X2914142Y2293620
X2908554Y2313178
X2925318Y2331720
X2902712Y2350262
X2973324Y2374900
X3020568Y2362200
X2756916Y2110740
X2745994Y2116582
X2742692Y2105152
X2720340Y2099310
X2706370Y2093722
X2624074Y2093468
X2636520Y2150872
X2522220Y2104898
X2320290Y2061464
X2313432Y2055876
X1558756Y2477199
X1620012Y2477008
X1704594Y2626614
X2275078Y2465832
X2327910Y2395728
X2715514Y2443226
X2897124Y2463038
X2891790Y2480056
X2885694Y2497074
X2880106Y2514346
X2874518Y2531110
X2868676Y2548128
X2863040Y2564960
X2997708Y2602230
X3014218Y2628646
X3028188Y2652268
X3044190Y2677922
X3003042Y2432050
X3008630Y2413000
X3014472Y2387600
X2967228Y2400300
X2961640Y2425700
X2955544Y2438400
X2919730Y2446020
T03
X1650492Y1149604
X1676289Y1149731
X1701546Y1149350
X1727200
X1752600Y1171956
X1778923Y1164429
X1803908Y1156716
X1828800Y1148842
X1855470
X1862497Y1156462
X1869525Y1164082
X1876552Y1171702
X1859069Y1132883
X1859026Y1120394
X1850136Y1126490
X1849882Y1139190
X2936240Y1186180
X3043682Y1180338
X3049778Y1173988
X3010916Y1210564
X3030220Y1235202
X3023870Y1247140
X3017520Y1253490
X3037134Y1278268
X3036824Y1365504
X3023870
X3010916
X3017393Y1373886
X3030347
X3043301
X3049778Y1365504
X2951478Y1357884
X2942334
X2930144Y1357376
X2906478Y1357884
X2896478
X2886478
X2867660
X2854960
X2836478
X2786424Y1357938
X2786380Y1271778
X2836418Y1283970
X2855073Y1321144
X2861425Y1314837
X2867660Y1308862
X2874772Y1302766
X2886456Y1290320
X2896616Y1277874
X2929890Y1259840
X2907030Y1235202
X2958084Y1198372
X2951750Y1192034
X2956262Y1387348
X2936262
X2871262
X2861262
X2766262
X2756262
X2731262
X2726478Y1357884
X2761478
X2733040Y1265682
X2726436Y1216660
X2761488Y1223010
X2768346Y1204468
X2661158Y1229106
X2654046Y1296162
X2654300Y1380744
X2660650Y1388364
X2206498Y1472184
X2109216Y1494028
X2069846Y1492504
X2063242Y1505204
X2056892Y1517904
X2053109Y1530624
X2054606Y1542796
X2056892Y1556258
X2024126Y1556004
Y1543050
Y1530604
Y1517904
Y1505204
Y1492504
Y1479804
Y1467104
Y1454404
X2083317Y1467434
X2076450Y1479804
X2101850Y1447546
X2107876Y1429004
X2115058Y1435100
X1235528Y1638462
X1259719Y1942713
X1253914Y1968924
X1751584Y1824736
X1759458Y1818640
X1797745Y1789363
X2074164Y1714754
X2094484Y1710690
X2094992Y1721866
X2094250Y1696622
X2147570Y1692148
X2173732Y1695958
Y1686052
Y1661362
X2178558Y1645666
X2173478Y1636014
X2181352Y1630426
X2317496Y1972818
X2346706Y1965706
X2358644Y1981454
X2961365Y2007753
Y2019881
Y2031615
Y2043349
X2971316Y2037507
Y2049242
Y2025773
Y2014039
X2381758Y2118106
X2387600Y2148332
X2393442Y2158746
X2399284Y2219198
X2405367Y2244598
X2411234Y2269490
X2417064Y2295906
X2422906Y2310892
X2427732Y2335530
X2434082Y2346198
X2243836Y2352548
X2237994Y2363724
X2255520Y2365248
X2249678Y2327656
X2255597Y2320461
X2262124Y2302256
X2267966Y2276602
X2273300Y2250694
X2281402Y2225934
X2288286Y2198370
X2288133Y2142567
X2294382Y2124710
X2300478Y2098040
X2305643Y2068576
X2323338Y2042414
X2341118Y2048510
X2334768Y2022094
X2352548Y2015490
X2363978Y2006346
X2329053Y1997202
X2311654Y1990598
X2369820Y2082292
X2375916Y2108200
X2116836Y2098040
X1940690Y2072311
X1907924Y2295831
X1659767Y2362200
X1223275Y2222978
X1247601Y2197225
X1211433Y2171834
X1199304Y2146470
X1193208Y2095670
X1205369Y2070270
X1217464Y2044850
X1229614Y2019300
X1241576Y1993876
X1271694Y2501816
X1284140Y2527470
X1296083Y2553124
X1308862Y2578608
X1303782Y2604008
X1290828Y2629408
X1278044Y2654470
X1265766Y2679784
X1659767Y2438400
Y2412303
Y2387854
X2232194Y2396024
X2226310Y2403602
X2219960Y2429002
X2451862Y2423922
X2443734Y2413254
X2438654Y2386584
X2458212Y2451100
X2470658Y2478532
X2464308Y2489200
T04
X2694940Y1406906
X2710363Y1478146
X2709855Y1493132
X2691227Y1500983
X2692908Y1526286
X2695377Y1538598
X2693162Y1552194
X2663051Y1520318
T05
X1261618Y895558
X1289464Y1056794
X1241044Y1104600
X1523492Y962198
X1472792Y825584
X2021486Y878243
X2029808Y988922
X2059078Y976465
X2088134Y966724
X2042795Y1024763
X2148586Y1012444
X2131400Y1137412
X2067714Y1158329
X2280920Y1163320
X2309368Y1103884
X2309622Y1029716
X2205228Y855218
X2188564Y855815
X2485290Y864197
X2541664Y892416
X2539880Y932554
X2582232Y960560
X2592392Y969704
X2581978Y980118
X2608934Y976033
X2609242Y874357
X2580962Y1050222
X2576136Y1136582
X2624374Y1145286
X2934208Y1133902
X3142810Y1133788
X3124776Y1075368
X3125030Y1025330
X3125009Y974976
X3121982Y931350
X3182620Y1139698
X3407818Y1078141
X3408172Y1037590
X3437039Y1045618
X3455132Y1034570
X3470910Y1034034
X3454808Y1074077
X3439414Y1008634
X3527646Y1179676
X3626617Y1020831
X3581121Y1533801
X3567938Y1505966
X3482853Y1543553
X3482429Y1555596
X3266186Y1453388
X3555906Y1283870
X2988795Y1381080
X2970784Y1372108
X2946610Y1387469
X2921326Y1387331
X2891282Y1387094
X2846324
X2845562Y1352296
X2804414Y1356868
X2801366Y1388110
X2779930Y1413167
X2865374Y1417066
X2941469Y1414437
X2962910Y1412240
X2974086Y1409954
X2971546Y1444244
X2960624Y1435862
X2916384Y1465701
X2923540Y1493520
X2917548Y1359119
X3023362Y1538986
X3007360Y1567434
X3006090Y1582420
X2723134Y1568450
X2735237Y1552294
X2735491Y1527148
X2711428Y1406640
X2697734Y1375410
X2711450Y1357630
X2746248Y1357122
X2775712Y1357630
X2777998Y1387348
X2742438Y1387094
X2678684Y1391920
X2642362Y1447038
X2456688Y1411732
X2410968Y1437132
X2287943Y1456536
X2275586Y1429004
X2176018Y1463294
X2177288Y1530858
X2173985Y1553212
X2091690Y1558798
X2023110Y1568704
X2139396Y1247394
X2139861Y1234848
X2144014Y1195832
X2201672Y1221740
X1834896Y1293322
X1701292Y1296162
X1901952Y1469390
X1108102Y1382184
X1062836Y1614081
X1051606Y1633220
X1062836Y1680629
X1051606Y1779270
X1679956Y1637284
X1834896Y1588770
X1919986Y1614170
Y1627632
X1958594Y1687576
X2200756Y1686141
X2190904Y1661833
X2179574Y1723390
X2157311Y1740308
X2205228Y1739646
X2274824Y1682242
X2319020Y1691894
X2362962Y1690370
X2444496Y1685290
X2455672Y1641094
X2455418Y1615948
X2482596Y1717294
X2622296Y1800352
X2659634Y1873250
X2692903Y1660149
X2707894Y1665986
X2692395Y1627891
X2813558Y1667256
X2801366Y1698244
X2800604Y1716532
X2785364Y1748028
X2846324Y1699260
X2880868Y1697228
X2881122Y1668526
X2916174Y1668272
X2914142Y1696212
X2938709Y1697165
X2956560Y1697736
X2971800Y1687068
X2975864Y1610360
X3026918Y1627124
X3166110Y1620012
X3069082Y1782572
X2925572Y1765976
X2936575Y1882264
X2953258Y1882394
X2800350Y1881886
X2783840Y1882394
X3177540Y1607566
X3622448Y1782666
X3578771Y2139088
X3568456Y2111756
X3564039Y2035964
X3546985Y2011431
X3479635Y2048356
X3498088Y2072640
X3498826Y2176691
X2801366Y2246884
X2768092Y2248916
X2590546Y2229607
X2643632Y2326391
X2300732Y2208276
X2304288Y2134108
X2077289Y2018444
X2062226Y2287778
X1862074Y2285746
X1871472Y2316607
X1849728Y2349335
X1862996Y2210916
X1868513Y2019962
X1062990Y2271984
X1062836Y2351951
X1062990Y2551130
X1027584Y2574379
X1028292Y2611539
X1870362Y2644041
X1850236Y2426043
X2052828Y2426970
X2079846Y2395374
X2072292Y2579016
X2278380Y2578100
X2264872Y2629408
X2266442Y2437638
X2521204Y2514854
X2602484Y2507742
X2729484Y2547366
X2741676Y2547112
X2768156Y2442205
X2800858Y2443988
X3632350Y2383879
T06
X3524250Y1791970
X3665220Y1772158
X3528822Y2405126
X3670300Y2405634
T07
X2484120Y908304
Y922020
X2498598
Y908304
X2500572Y950360
X2486094
X2580444Y944884
X2594922
X2596896Y916940
Y903224
X2582418
Y916940
X3655568Y1050290
X3670046
X3762248Y997204
Y983488
X3776726
Y997204
X3768598Y1291844
Y1305560
X3754120
Y1291844
X3750310Y1409954
Y1423670
X3764788
Y1409954
Y1469898
Y1483614
X3750310
Y1469898
X3668014Y1457960
X3653536
Y1443482
X3668014
X3610864Y1481328
Y1495806
X3596386
Y1481328
X3642106Y1533144
X3563874Y1579880
X3549396
X3293110Y1526794
X3278632
Y1512316
X3293110
X3299460Y1598930
Y1613408
X3313938
Y1598930
X3329432
Y1613408
X3549396Y1593596
X3563874
X3509772Y1783080
Y1795526
X3531362Y1851914
X3620008Y1847596
X3634486
Y1833118
X3620008
X3750056Y1847088
Y1860804
X3764534
Y1847088
X3766058Y1613408
Y1599692
X3751580
Y1613408
X3641598Y1994916
Y2009394
X3627120
Y1994916
X3629914Y2080514
Y2094992
X3644392
Y2080514
Y2110486
Y2124964
X3629914
Y2110486
X3749294Y2187194
Y2200910
X3763772
Y2187194
X3554984Y2234184
X3541268
Y2248662
X3554984
X2773680Y2679700
X2548128Y2638806
X2503932Y2639314
X2507996Y2544064
X2455672Y2565654
Y2579370
X2441194
Y2565654
X2807716Y2708910
Y2722626
X2822194
Y2708910
X3480562Y2438654
Y2424938
X3495040
Y2438654
X3651504Y2514346
X3665982
Y2528824
X3651504
X3651250Y2543556
X3665728
Y2558034
X3651250
X3612642Y2598420
Y2612136
X3598164
Y2598420
X3750564Y2469642
Y2455926
X3765042
Y2469642
T08
X2493264Y1973072
X2569464
Y1998472
Y2023872
Y2049272
Y2074672
Y2100072
Y2125472
Y2150872
Y2176272
Y2201672
Y2262632
Y2288032
Y2313432
Y2338832
Y2364232
X2493264
Y2338832
Y2313432
Y2288032
Y2262632
Y2201672
Y2176272
Y2150872
Y2125472
Y2100072
Y2074672
Y2049272
Y2023872
Y1998472
X2666492Y2252218
Y2277618
Y2303018
Y2328418
Y2353818
Y2379218
X2742692
Y2353818
Y2328418
Y2303018
Y2277618
Y2252218
Y2404618
X2666492
X2569464Y2415032
Y2440432
Y2465832
Y2491232
X2493264
Y2465832
Y2440432
Y2415032
Y2389632
X2569464
T09
X3769360Y2713990
X3743960
T10
X2379472Y942594
X2404872
X3325114Y1493520
Y1518920
X2617724Y1393444
Y1368044
X2199894Y1810766
Y1836166
X2145538
Y1810766
X2072894Y1916430
Y1941830
X2975610Y1735836
Y1710436
X3222244Y1597152
X3247644
X2795524Y2210308
X2770124
T11
X2208276Y976706
X2242276Y1026706
X2208276Y1076706
X2302002Y988568
X2327402
X2352802
X3732530Y1181100
X3752850
X3773170
X1574800Y1422400
Y1447800
Y1473200
Y1498600
Y1524000
Y1549400
Y1574800
X1524000
Y1549400
Y1524000
Y1498600
Y1473200
Y1447800
Y1422400
X1371600
Y1447800
Y1473200
Y1498600
Y1524000
Y1549400
Y1574800
X1320800
Y1549400
Y1524000
Y1498600
Y1473200
Y1447800
Y1422400
X1168400
Y1447800
Y1473200
Y1498600
Y1524000
Y1549400
Y1574800
X1117600
Y1549400
Y1524000
Y1498600
Y1473200
Y1447800
Y1422400
Y1600200
Y1625600
Y1651000
Y1676400
Y1701800
Y1727200
Y1752600
Y1778000
Y1803400
Y1828800
Y1854200
X1168400
Y1828800
Y1803400
Y1778000
Y1752600
Y1727200
Y1701800
Y1676400
Y1651000
Y1625600
Y1600200
Y1955800
Y1981200
X1117600
Y1955800
X1320800
Y1981200
X1371600
Y1955800
Y1854200
Y1828800
Y1803400
Y1778000
Y1752600
Y1727200
Y1701800
Y1676400
Y1651000
Y1625600
Y1600200
X1320800
Y1625600
Y1651000
Y1676400
Y1701800
Y1727200
Y1752600
Y1778000
Y1803400
Y1828800
Y1854200
X1524000
Y1828800
Y1803400
Y1778000
Y1752600
Y1727200
Y1701800
Y1676400
Y1651000
Y1625600
Y1600200
X1574800
Y1625600
Y1651000
Y1676400
Y1701800
Y1727200
Y1752600
Y1778000
Y1803400
Y1828800
Y1854200
Y1955800
Y1981200
X1524000
Y1955800
X3134360Y1943100
Y1917700
Y1892300
Y1866900
Y1841500
Y1816100
Y1790700
Y1765300
Y1739900
X3159760Y1752600
Y1778000
Y1803400
Y1828800
Y1854200
Y1879600
Y1905000
Y1930400
Y1955800
Y1981200
X3134360Y1968500
X3220720
Y1943100
Y1917700
Y1892300
Y1866900
Y1841500
Y1816100
Y1790700
Y1765300
Y1739900
X3246120Y1752600
Y1778000
Y1803400
Y1828800
Y1854200
Y1879600
Y1905000
Y1930400
Y1955800
Y1981200
X3307080Y1968500
Y1943100
Y1917700
Y1892300
Y1866900
Y1841500
Y1816100
Y1790700
Y1765300
Y1739900
X3332480Y1752600
Y1778000
Y1803400
Y1828800
Y1854200
Y1879600
Y1905000
Y1930400
Y1955800
Y1981200
X3393440Y1968500
Y1943100
Y1917700
Y1892300
Y1866900
Y1841500
Y1816100
Y1790700
Y1765300
Y1739900
X3418840Y1752600
Y1778000
Y1803400
Y1828800
Y1854200
Y1879600
Y1905000
Y1930400
Y1955800
Y1981200
Y2006600
Y2032000
Y2057400
Y2082800
Y2108200
Y2133600
Y2159000
Y2184400
X3393440Y2171700
Y2146300
Y2120900
Y2095500
Y2070100
Y2044700
Y2019300
Y1993900
X3332480Y2006600
Y2032000
Y2057400
Y2082800
Y2108200
Y2133600
Y2159000
Y2184400
X3307080Y2171700
Y2146300
Y2120900
Y2095500
Y2070100
Y2044700
Y2019300
Y1993900
X3246120Y2006600
Y2032000
Y2057400
Y2082800
Y2108200
Y2133600
Y2159000
Y2184400
X3220720Y2171700
Y2146300
Y2120900
Y2095500
Y2070100
Y2044700
Y2019300
Y1993900
Y2247900
Y2273300
Y2298700
Y2324100
Y2349500
Y2374900
X3246120Y2362200
Y2336800
Y2311400
Y2286000
Y2260600
X3307080Y2247900
Y2273300
Y2298700
Y2324100
Y2349500
Y2374900
X3332480Y2362200
Y2336800
Y2311400
Y2286000
Y2260600
X3393440Y2273300
Y2298700
Y2324100
Y2349500
Y2374900
X3418840Y2362200
Y2336800
Y2311400
Y2286000
Y2260600
X3393440Y2247900
X3159760Y2260600
Y2286000
Y2311400
Y2336800
Y2362200
X3134360Y2349500
Y2324100
Y2298700
Y2273300
Y2247900
Y2171700
Y2146300
Y2120900
Y2095500
Y2070100
Y2044700
Y2019300
Y1993900
X3159760Y2006600
Y2032000
Y2057400
Y2082800
Y2108200
Y2133600
Y2159000
Y2184400
X3134360Y2374900
X1574800Y2362200
Y2336800
Y2311400
Y2286000
Y2260600
Y2235200
Y2209800
Y2184400
Y2159000
Y2133600
Y2108200
Y2082800
Y2057400
Y2032000
Y2006600
X1524000
Y2032000
Y2057400
Y2082800
Y2108200
Y2133600
Y2159000
Y2184400
Y2209800
Y2235200
Y2260600
Y2286000
Y2311400
Y2336800
Y2362200
X1371600
Y2336800
Y2311400
Y2286000
Y2260600
Y2235200
Y2209800
Y2184400
Y2159000
Y2133600
Y2108200
Y2082800
Y2057400
Y2032000
Y2006600
X1320800
Y2032000
Y2057400
Y2082800
Y2108200
Y2133600
Y2159000
Y2184400
Y2209800
Y2235200
Y2260600
Y2286000
Y2311400
Y2336800
Y2362200
X1168400
Y2336800
Y2311400
Y2286000
Y2260600
Y2235200
Y2209800
Y2184400
Y2159000
Y2133600
Y2108200
Y2082800
Y2057400
Y2032000
Y2006600
X1117600
Y2032000
Y2057400
Y2082800
Y2108200
Y2133600
Y2159000
Y2184400
Y2209800
Y2235200
Y2260600
Y2286000
Y2311400
Y2336800
Y2362200
Y2387600
Y2413000
Y2438400
Y2463800
Y2489200
Y2514600
Y2540000
Y2565400
Y2590800
Y2616200
Y2641600
Y2667000
Y2692400
Y2717800
X1168400
Y2692400
Y2667000
Y2641600
Y2616200
Y2590800
Y2565400
Y2540000
Y2514600
Y2489200
Y2463800
Y2438400
Y2413000
Y2387600
X1320800
Y2413000
Y2438400
Y2463800
Y2489200
Y2514600
Y2540000
Y2565400
Y2590800
Y2616200
Y2641600
Y2667000
Y2692400
Y2717800
X1371600
Y2692400
Y2667000
Y2641600
Y2616200
Y2590800
Y2565400
Y2540000
Y2514600
Y2489200
Y2463800
Y2438400
Y2413000
Y2387600
X1524000
Y2413000
Y2438400
Y2463800
Y2489200
Y2514600
Y2540000
Y2565400
Y2590800
Y2616200
Y2641600
Y2667000
Y2692400
Y2717800
X1574800
Y2692400
Y2667000
Y2641600
Y2616200
Y2590800
Y2565400
Y2540000
Y2514600
Y2489200
Y2463800
Y2438400
Y2413000
Y2387600
X3134360Y2400300
Y2425700
Y2451100
Y2476500
Y2501900
Y2527300
Y2552700
Y2578100
Y2603500
Y2628900
Y2654300
Y2679700
X3159760Y2667000
Y2641600
Y2616200
Y2590800
Y2565400
Y2540000
Y2514600
Y2489200
Y2463800
Y2438400
Y2413000
Y2387600
Y2692400
X3220720Y2679700
Y2654300
Y2628900
Y2603500
Y2578100
Y2552700
Y2527300
Y2501900
Y2476500
Y2451100
Y2425700
Y2400300
X3246120Y2413000
Y2438400
Y2463800
Y2489200
Y2514600
Y2540000
Y2565400
Y2590800
Y2616200
Y2641600
Y2667000
Y2692400
X3307080Y2679700
Y2654300
Y2628900
Y2603500
Y2578100
Y2552700
Y2527300
Y2501900
Y2476500
Y2451100
Y2425700
Y2400300
X3332480Y2387600
Y2413000
Y2438400
Y2463800
Y2489200
Y2514600
Y2540000
Y2565400
Y2590800
Y2616200
Y2641600
Y2667000
Y2692400
X3393440Y2679700
Y2654300
Y2628900
Y2603500
Y2578100
Y2552700
Y2527300
Y2501900
Y2476500
Y2451100
Y2425700
Y2400300
X3418840Y2413000
Y2438400
Y2463800
Y2489200
Y2514600
Y2540000
Y2565400
Y2590800
Y2616200
Y2641600
Y2667000
Y2692400
Y2387600
X3246120
X3721100Y2597950
Y2622950
Y2647950
X3781100
Y2622950
Y2597950
T13
X3744770Y1049388
Y1093388
X1803400Y1243076
Y1268476
Y1293876
Y1319276
Y1344676
Y1370076
Y1395476
Y1420876
X1727200
Y1395476
Y1370076
Y1344676
Y1319276
Y1293876
Y1268476
Y1243076
Y1558290
Y1583690
X1803400
Y1558290
Y1609090
Y1634490
Y1659890
Y1685290
Y1710690
Y1736090
X1727200
Y1710690
Y1685290
Y1659890
Y1634490
Y1609090
T14
X1727200Y1917700
Y1943100
Y1968500
X1752600Y1955800
Y1930400
X1778000Y1917700
Y1943100
Y1968500
X1752600Y1981200
X1803400
Y1955800
Y1930400
X1930400Y1917700
Y1943100
Y1968500
X1955800Y1955800
Y1930400
X1981200Y1917700
Y1943100
Y1968500
X1955800Y1981200
X2006600
Y1955800
Y1930400
X2133600Y1943100
Y1968500
X2159000Y1981200
Y1955800
Y1930400
X2184400Y1943100
Y1968500
X2209800Y1981200
Y1955800
Y1930400
X2184400Y1917700
X2133600
Y1993900
Y2019300
Y2044700
X2159000Y2032000
Y2006600
X2184400Y2019300
Y2044700
X2209800Y2032000
Y2006600
X2184400Y1993900
Y2095500
Y2120900
Y2146300
Y2171700
Y2197100
Y2222500
Y2247900
Y2273300
Y2298700
Y2324100
Y2349500
Y2374900
X2209800Y2362200
Y2336800
Y2311400
Y2286000
Y2260600
Y2235200
Y2209800
Y2184400
Y2159000
Y2133600
Y2108200
Y2082800
X2159000
Y2108200
Y2133600
Y2159000
Y2184400
Y2209800
Y2235200
Y2260600
Y2286000
Y2311400
Y2336800
Y2362200
X2133600Y2374900
Y2349500
Y2324100
Y2298700
Y2273300
Y2247900
Y2222500
Y2197100
Y2171700
Y2146300
Y2120900
Y2095500
X2006600Y2082800
Y2108200
Y2133600
Y2159000
Y2184400
Y2209800
Y2235200
Y2260600
Y2286000
Y2311400
Y2336800
Y2362200
Y2032000
Y2006600
X1981200Y1993900
Y2019300
Y2044700
X1955800Y2032000
Y2006600
X1930400Y1993900
Y2019300
Y2044700
Y2095500
Y2120900
Y2146300
Y2171700
Y2197100
Y2222500
Y2247900
Y2273300
Y2298700
Y2324100
Y2349500
Y2374900
X1955800Y2362200
Y2336800
Y2311400
Y2286000
Y2260600
Y2235200
Y2209800
Y2184400
Y2159000
Y2133600
Y2108200
Y2082800
X1981200Y2095500
Y2120900
Y2146300
Y2171700
Y2197100
Y2222500
Y2247900
Y2273300
Y2298700
Y2324100
Y2349500
Y2374900
X1803400Y2362200
Y2336800
Y2311400
Y2286000
Y2260600
Y2235200
Y2209800
Y2184400
Y2159000
Y2133600
Y2108200
Y2082800
X1778000Y2095500
Y2120900
Y2146300
Y2171700
Y2197100
Y2222500
Y2247900
Y2273300
Y2298700
Y2324100
Y2349500
Y2374900
X1752600Y2362200
Y2336800
Y2311400
Y2286000
Y2260600
Y2235200
Y2209800
Y2184400
Y2159000
Y2133600
Y2108200
Y2082800
X1727200Y2095500
Y2120900
Y2146300
Y2171700
Y2197100
Y2222500
Y2247900
Y2273300
Y2298700
Y2324100
Y2349500
Y2374900
Y2044700
Y2019300
Y1993900
X1752600Y2006600
Y2032000
X1778000Y2019300
Y1993900
X1803400Y2006600
Y2032000
X1778000Y2044700
Y2400300
Y2425700
Y2451100
Y2476500
Y2501900
Y2527300
Y2552700
Y2578100
Y2603500
Y2628900
Y2654300
Y2679700
X1752600Y2667000
Y2641600
Y2616200
Y2590800
Y2565400
Y2540000
Y2514600
Y2489200
Y2463800
Y2438400
Y2413000
Y2387600
X1727200Y2400300
Y2425700
Y2451100
Y2476500
Y2501900
Y2527300
Y2552700
Y2578100
Y2603500
Y2628900
Y2654300
Y2679700
X1752600Y2692400
X1803400
Y2667000
Y2641600
Y2616200
Y2590800
Y2565400
Y2540000
Y2514600
Y2489200
Y2463800
Y2438400
Y2413000
Y2387600
X1930400Y2400300
Y2425700
Y2451100
Y2476500
Y2501900
Y2527300
Y2552700
Y2578100
Y2603500
Y2628900
Y2654300
Y2679700
X1955800Y2667000
Y2641600
Y2616200
Y2590800
Y2565400
Y2540000
Y2514600
Y2489200
Y2463800
Y2438400
Y2413000
Y2387600
X1981200Y2400300
Y2425700
Y2451100
Y2476500
Y2501900
Y2527300
Y2552700
Y2578100
Y2603500
Y2628900
Y2654300
Y2679700
X1955800Y2692400
X2006600
Y2667000
Y2641600
Y2616200
Y2590800
Y2565400
Y2540000
Y2514600
Y2489200
Y2463800
Y2438400
Y2413000
Y2387600
X2133600Y2400300
Y2425700
Y2451100
Y2476500
Y2501900
Y2527300
Y2552700
Y2578100
Y2603500
Y2628900
Y2654300
Y2679700
X2159000Y2692400
Y2667000
Y2641600
Y2616200
Y2590800
Y2565400
Y2540000
Y2514600
Y2489200
Y2463800
Y2438400
Y2413000
Y2387600
X2184400Y2400300
Y2425700
Y2451100
Y2476500
Y2501900
Y2527300
Y2552700
Y2578100
Y2603500
Y2628900
Y2654300
Y2679700
X2209800Y2692400
Y2667000
Y2641600
Y2616200
Y2590800
Y2565400
Y2540000
Y2514600
Y2489200
Y2463800
Y2438400
Y2413000
Y2387600
T15
X1963166Y899668
X2039366
T16
X3278886Y1569466
X3304286
X3329686
T17
X1107440Y1173480
X1132840
X1158240
X1183640
X1209040
X1234440
X1259840
X1285240
X1310640
X1336040
X1361440
X1386840
X1412240
X1437640
X1463040
X1488440
X1498600Y1061720
X1473200
X1447800
X1422400
X1397000
X1371600
Y1036320
X1397000
X1422400
X1447800
X1473200
X1498600
X1524000
Y1061720
X1549400
Y1036320
X1574800
Y1061720
Y914400
X1549400
X1524000
X1498600
X1473200
X1447800
X1422400
X1397000
X1371600
Y889000
X1397000
X1422400
X1447800
X1473200
X1498600
X1524000
X1549400
X1574800
X1249172Y938276
Y963676
Y989076
Y1014476
X1600200Y1036320
Y1061720
X1625600
Y1036320
X1651000
Y1061720
X1676400
Y1036320
X1701800
Y1061720
X1727200
Y1036320
X1752600
Y1061720
X1778000
Y1036320
X1803400
Y1061720
X1828800
Y1036320
X1854200
Y1061720
Y914400
X1828800
X1803400
X1778000
X1752600
X1727200
X1701800
X1676400
X1651000
X1625600
X1600200
Y889000
X1625600
X1651000
X1676400
X1701800
X1727200
X1752600
X1778000
X1803400
X1828800
X1854200
X3389122Y976630
X3414522
X3439922
X3465322
X3490722
X3516122
X3541522
X3566922
X3579622Y1372870
X3606292
X3593846Y1448054
X3568446
X3543046
X3517646
X3492246
X3466846
X3441446
X3416046
X3390646
X3365246
X3376422Y1372870
X3351022
X3401822
X3427222
X3452622
X3478022
X3503422
X3528822
X3554222
X1662938Y1240028
Y1214628
X1624076
Y1240028
X1488440Y1325880
X1463040
X1437640
X1412240
X1386840
X1361440
X1336040
X1310640
X1285240
X1259840
X1234440
X1209040
X1183640
X1158240
X1132840
X1107440
X2778252Y2355088
Y2380488
X2803652
Y2355088
X2732532Y2501138
X2707132
X2681732
T18
X2102866Y845566
X2148586
Y909066
X2102866
X3409696
X3455416
X3501644
X3547364
Y845566
X3501644
X3455416
X3409696
X3237738Y1499108
Y1524508
Y1549908
T19
X2540508Y864622
Y1145622
X3162808
Y864622
T20
X1025680Y967200
Y1067200
X1145680
X1122680Y1092200
Y1017200
X1145680Y967200
X1122680Y942200
T21
X3233420Y2216150
X3319780
X3406140
X3147060
X3147060Y2776400
X3233420
X3319780
X3406140
T22
X3147060Y1655900
X3233420
X3319780
X3406140
T23
X1041400Y863600
X2286000
X3759200
Y2794000
X2286000
X1041400
M30
