%FSLAX44Y44*%
%MOMM*%
G71*
G01*
G75*
G04 Layer_Color=8421504*
%ADD10C,0.2032*%
%ADD11R,0.9652X0.8890*%
%ADD12R,1.0160X0.9398*%
%ADD13R,1.0160X0.9400*%
%ADD14R,2.2098X1.9050*%
%ADD15R,0.9144X0.9144*%
%ADD16R,1.2700X0.9144*%
%ADD17R,0.8890X0.9652*%
%ADD18R,1.9050X2.2098*%
%ADD19R,0.9000X0.8000*%
%ADD20R,0.9398X1.0160*%
%ADD21R,0.9400X1.0160*%
%ADD22R,2.2000X0.3600*%
%ADD23R,3.0000X1.0000*%
%ADD24R,3.5000X1.0000*%
%ADD25R,4.0000X1.4000*%
%ADD26O,2.2000X0.6000*%
%ADD27R,3.2000X1.6500*%
%ADD28R,1.2000X1.2000*%
%ADD29R,1.6000X1.5000*%
%ADD30O,0.6000X2.2000*%
%ADD31R,1.0668X3.5560*%
%ADD32R,10.6680X8.8900*%
%ADD33R,3.8100X5.5880*%
%ADD34R,1.9050X0.5588*%
%ADD35R,2.2000X1.8000*%
%ADD36R,2.4000X0.4000*%
%ADD37R,0.5000X2.0000*%
%ADD38R,3.2000X1.6000*%
%ADD39R,6.0000X7.0000*%
%ADD40O,1.4500X0.5000*%
%ADD41O,0.5000X1.4500*%
%ADD42O,2.0320X0.5588*%
%ADD43O,1.4000X0.3000*%
%ADD44O,0.3000X1.4000*%
%ADD45R,0.9000X1.0000*%
%ADD46R,2.5000X1.8000*%
%ADD47R,2.2000X1.5000*%
%ADD48R,0.5588X1.9050*%
%ADD49C,0.1778*%
%ADD50C,0.2540*%
%ADD51C,0.7620*%
%ADD52C,0.5080*%
%ADD53C,1.2700*%
%ADD54C,0.3810*%
%ADD55C,0.7000*%
%ADD56C,0.8890*%
%ADD57C,0.6350*%
%ADD58C,0.3048*%
%ADD59R,6.8834X6.6294*%
%ADD60R,7.4168X2.9972*%
%ADD61R,3.9116X9.0424*%
%ADD62R,6.6294X4.3688*%
%ADD63R,2.2098X8.4836*%
%ADD64R,7.2390X2.3368*%
%ADD65R,7.5692X1.4224*%
%ADD66R,5.3086X2.3876*%
%ADD67R,6.4770X2.3876*%
%ADD68R,0.8492X4.9022*%
%ADD69R,1.1176X9.9060*%
%ADD70R,7.4930X2.5908*%
%ADD71R,6.6548X1.4732*%
%ADD72R,5.1816X1.4732*%
%ADD73R,3.2258X4.2672*%
%ADD74R,11.5824X3.8608*%
%ADD75R,9.6012X3.5814*%
%ADD76R,10.6426X2.4638*%
%ADD77R,4.2672X4.9530*%
%ADD78R,5.3086X3.6322*%
%ADD79R,2.2860X2.4638*%
%ADD80R,3.6322X5.3086*%
%ADD81R,6.7818X2.8702*%
%ADD82R,2.5654X7.4676*%
%ADD83R,7.3660X2.3876*%
%ADD84R,1.6256X4.7752*%
%ADD85R,4.2164X2.8956*%
%ADD86R,2.2606X6.3754*%
%ADD87C,5.0000*%
%ADD88C,1.7780*%
%ADD89O,1.6510X1.0160*%
%ADD90C,1.2700*%
%ADD91R,1.2700X1.2700*%
%ADD92O,1.7780X1.5240*%
%ADD93O,1.5240X1.7780*%
%ADD94C,1.0000*%
%ADD95C,2.4384*%
%ADD96R,1.3800X2.5000*%
%ADD97O,1.3800X2.5000*%
%ADD98C,0.5080*%
%ADD99C,1.5000*%
%ADD100R,1.5000X1.5000*%
%ADD101O,1.2700X1.0160*%
%ADD102C,1.3000*%
%ADD103O,1.0000X1.7000*%
%ADD104C,1.1430*%
%ADD105C,1.5240*%
%ADD106O,1.4000X3.8000*%
%ADD107O,3.8000X1.4000*%
%ADD108O,1.0160X1.6510*%
%ADD109C,1.3800*%
%ADD110C,2.5000*%
%ADD111C,1.5748*%
%ADD112R,1.5748X1.5748*%
%ADD113C,1.3970*%
%ADD114C,1.1000*%
%ADD115R,1.5240X1.5240*%
%ADD116O,3.0480X1.5240*%
%ADD117C,2.0320*%
%ADD118C,2.2000*%
%ADD119C,1.6000*%
%ADD120C,0.9000*%
%ADD121C,0.6604*%
%ADD122C,0.6858*%
%ADD123C,0.6350*%
%ADD124C,0.8636*%
%ADD125C,1.0160*%
%ADD126C,0.7112*%
%ADD127C,1.0160*%
%ADD128C,1.5080*%
%ADD129C,1.3080*%
%ADD130C,2.9464*%
%ADD131C,1.4478*%
%ADD132C,1.5080*%
%ADD133C,0.8128*%
%ADD134C,1.4080*%
%ADD135O,1.3080X2.0080*%
%ADD136C,1.3080*%
%ADD137O,3.7080X1.3080*%
%ADD138C,1.2080*%
%ADD139C,2.0080*%
%ADD140C,1.4732*%
%ADD141C,1.4986*%
%ADD142C,1.8080*%
%ADD143C,2.7080*%
%ADD144C,2.1080*%
%ADD145C,0.8382*%
%ADD146C,0.9652*%
%ADD147C,1.0668*%
%ADD148C,0.9398*%
%ADD149C,0.8890*%
%ADD150C,3.5080*%
%ADD151O,1.3080X3.7080*%
%ADD152R,0.9144X0.9144*%
%ADD153R,0.9144X1.2700*%
%ADD154R,1.3000X1.2000*%
%ADD155C,2.0000*%
%ADD156R,3.9116X4.4958*%
%ADD157R,2.8956X1.2700*%
%ADD158R,0.9652X1.9050*%
%ADD159R,2.2098X5.6134*%
%ADD160R,4.3688X2.6162*%
%ADD161C,0.1270*%
%ADD162C,0.2500*%
%ADD163C,0.3000*%
%ADD164C,0.2500*%
%ADD165C,0.2000*%
%ADD166C,0.1000*%
%ADD167C,0.2096*%
%ADD168C,0.1524*%
%ADD169C,0.1500*%
%ADD170C,0.2286*%
%ADD171R,1.9836X0.9960*%
%ADD172R,4.8436X1.4084*%
%ADD173R,4.1000X1.9000*%
D11*
X1311402Y963676D02*
D03*
X1294892D02*
D03*
X1311402Y987806D02*
D03*
X1294892D02*
D03*
X2288032Y1088136D02*
D03*
X2271522D02*
D03*
X1240790Y1093470D02*
D03*
X1224280D02*
D03*
X1240790Y1075055D02*
D03*
X1224280D02*
D03*
X1240790Y1056640D02*
D03*
X1224280D02*
D03*
X2329942Y1020318D02*
D03*
X2346452D02*
D03*
X3575812Y1032510D02*
D03*
X3592322D02*
D03*
X3575812Y1050290D02*
D03*
X3592322D02*
D03*
X3476752Y1240790D02*
D03*
X3493262D02*
D03*
X3476752Y1223010D02*
D03*
X3493262D02*
D03*
X3665728Y1761236D02*
D03*
X3682238D02*
D03*
X3670300Y2395220D02*
D03*
X3686810D02*
D03*
X1696720Y1684020D02*
D03*
X1680210D02*
D03*
X2250440Y2617470D02*
D03*
X2266950D02*
D03*
X1079500Y1497330D02*
D03*
X1062990D02*
D03*
X1079500Y1546860D02*
D03*
X1062990D02*
D03*
X1079500Y1601470D02*
D03*
X1062990D02*
D03*
X1079500Y2339340D02*
D03*
X1062990D02*
D03*
X1079500Y1668018D02*
D03*
X1062990D02*
D03*
X2103882Y1686560D02*
D03*
X2120392D02*
D03*
X2103882Y1670050D02*
D03*
X2120392D02*
D03*
X2103882Y1719580D02*
D03*
X2120392D02*
D03*
X2103882Y1703070D02*
D03*
X2120392D02*
D03*
X1631950Y2692400D02*
D03*
X1615440D02*
D03*
X1631950Y2667000D02*
D03*
X1615440D02*
D03*
X1631950Y2641600D02*
D03*
X1615440D02*
D03*
X1631950Y2616200D02*
D03*
X1615440D02*
D03*
X1631950Y2590800D02*
D03*
X1615440D02*
D03*
X1631950Y2565400D02*
D03*
X1615440D02*
D03*
X1631950Y2540000D02*
D03*
X1615440D02*
D03*
X1631950Y2514600D02*
D03*
X1615440D02*
D03*
X1631950Y2362200D02*
D03*
X1615440D02*
D03*
X1631950Y2387600D02*
D03*
X1615440D02*
D03*
X1631950Y2411730D02*
D03*
X1615440D02*
D03*
X1631950Y2438400D02*
D03*
X1615440D02*
D03*
X1079500Y1826260D02*
D03*
X1062990D02*
D03*
X1079500Y2133600D02*
D03*
X1062990D02*
D03*
X1079500Y2539746D02*
D03*
X1062990D02*
D03*
X1079500Y1869948D02*
D03*
X1062990D02*
D03*
X1079500Y1650619D02*
D03*
X1062990D02*
D03*
X1079500Y2411730D02*
D03*
X1062990D02*
D03*
X1079500Y1633220D02*
D03*
X1062990D02*
D03*
X1079500Y1848866D02*
D03*
X1062990D02*
D03*
X1079500Y2388870D02*
D03*
X1062990D02*
D03*
X1079500Y2438400D02*
D03*
X1062990D02*
D03*
X1079500Y2105660D02*
D03*
X1062990D02*
D03*
X1079500Y2260600D02*
D03*
X1062990D02*
D03*
X1079500Y2459990D02*
D03*
X1062990D02*
D03*
X1079500Y2637790D02*
D03*
X1062990D02*
D03*
X1696720Y1581150D02*
D03*
X1680210D02*
D03*
X1079500Y2211070D02*
D03*
X1062990D02*
D03*
X1079500Y2184400D02*
D03*
X1062990D02*
D03*
X1079500Y2156460D02*
D03*
X1062990D02*
D03*
X1079500Y2503170D02*
D03*
X1062990D02*
D03*
X1079500Y1779270D02*
D03*
X1062990D02*
D03*
X1079500Y1751330D02*
D03*
X1062990D02*
D03*
X1079500Y1701800D02*
D03*
X1062990D02*
D03*
X1079500Y1724660D02*
D03*
X1062990D02*
D03*
X1079500Y2692400D02*
D03*
X1062990D02*
D03*
X1079500Y2729230D02*
D03*
X1062990D02*
D03*
X1079500Y1803400D02*
D03*
X1062990D02*
D03*
X3610102Y1050290D02*
D03*
X3626612D02*
D03*
Y1032510D02*
D03*
X3610102D02*
D03*
X2593594Y2100072D02*
D03*
X2610104D02*
D03*
X2593594Y2150872D02*
D03*
X2610104D02*
D03*
X2593594Y2133092D02*
D03*
X2610104D02*
D03*
X3010154Y1481836D02*
D03*
X3026664D02*
D03*
X2607564Y1121156D02*
D03*
X2624074D02*
D03*
X1062990Y2481580D02*
D03*
X1079500D02*
D03*
D12*
X3568700Y1533647D02*
D03*
Y2139691D02*
D03*
X2040890Y1195065D02*
D03*
X3683000Y1034039D02*
D03*
X2477770Y2562860D02*
D03*
X2495550D02*
D03*
X2768092Y2276343D02*
D03*
X2784602Y2276348D02*
D03*
X3622294Y1795277D02*
D03*
X2768092Y2324603D02*
D03*
X2643632Y2353818D02*
D03*
X2643696Y2379218D02*
D03*
X1912620Y1469639D02*
D03*
X2621280Y1813311D02*
D03*
X3156966Y1612133D02*
D03*
X2590546Y2218685D02*
D03*
Y2507483D02*
D03*
X2485136Y876305D02*
D03*
X2784666Y2414778D02*
D03*
X2768156D02*
D03*
X2773680Y2692405D02*
D03*
X2791460D02*
D03*
X2609024Y963925D02*
D03*
X2609088Y886465D02*
D03*
D13*
X3568700Y1517142D02*
D03*
Y2123186D02*
D03*
X2040890Y1178560D02*
D03*
X3683000Y1050544D02*
D03*
X2477770Y2546355D02*
D03*
X2495550D02*
D03*
X2768092Y2259838D02*
D03*
X2784602Y2259843D02*
D03*
X3622294Y1811782D02*
D03*
X2768092Y2308098D02*
D03*
X2643632Y2337313D02*
D03*
X2643696Y2395723D02*
D03*
X1912620Y1453134D02*
D03*
X2621280Y1829816D02*
D03*
X3156966Y1595628D02*
D03*
X2590546Y2202180D02*
D03*
Y2490978D02*
D03*
X2485136Y892810D02*
D03*
X2784666Y2431283D02*
D03*
X2768156D02*
D03*
X2773680Y2708910D02*
D03*
X2791460D02*
D03*
X2609024Y947420D02*
D03*
X2609088Y902970D02*
D03*
D14*
X2279142Y1019048D02*
D03*
Y1063498D02*
D03*
X3660140Y1230630D02*
D03*
Y1275080D02*
D03*
D15*
X2327402Y1057910D02*
D03*
Y1038860D02*
D03*
D16*
X2347722Y1048258D02*
D03*
D17*
X1234682Y867156D02*
D03*
Y883666D02*
D03*
X2039620Y1231900D02*
D03*
Y1248410D02*
D03*
X2309622Y1057148D02*
D03*
Y1040638D02*
D03*
Y1091946D02*
D03*
Y1075436D02*
D03*
X1261606Y867156D02*
D03*
Y883666D02*
D03*
X2705862Y2456688D02*
D03*
Y2473198D02*
D03*
X2681732Y2456688D02*
D03*
Y2473198D02*
D03*
X2731262D02*
D03*
Y2456688D02*
D03*
X3613150Y2651760D02*
D03*
Y2668270D02*
D03*
X2178050Y1758696D02*
D03*
Y1775206D02*
D03*
X2197100Y1758696D02*
D03*
Y1775206D02*
D03*
X1523746Y990600D02*
D03*
Y974090D02*
D03*
X1714500Y1173480D02*
D03*
Y1156970D02*
D03*
X1791335Y1173480D02*
D03*
Y1156970D02*
D03*
X1651000Y1138936D02*
D03*
Y1122426D02*
D03*
X1676400Y1138936D02*
D03*
Y1122426D02*
D03*
X1701800Y1138936D02*
D03*
Y1122426D02*
D03*
X1727200Y1138936D02*
D03*
Y1122426D02*
D03*
X1803400Y1138936D02*
D03*
Y1122426D02*
D03*
X1752600Y1138936D02*
D03*
Y1122426D02*
D03*
X1828800Y1138936D02*
D03*
Y1122426D02*
D03*
X1842770Y1173480D02*
D03*
Y1156970D02*
D03*
X1817052Y1173480D02*
D03*
Y1156970D02*
D03*
X1739900Y1173480D02*
D03*
Y1156970D02*
D03*
X1765618Y1173480D02*
D03*
Y1156970D02*
D03*
X1778000Y1138936D02*
D03*
Y1122426D02*
D03*
X1663700Y1173480D02*
D03*
Y1156970D02*
D03*
X1689100Y1173480D02*
D03*
Y1156970D02*
D03*
X2801100Y2414778D02*
D03*
Y2431288D02*
D03*
X2265426Y1758696D02*
D03*
Y1775206D02*
D03*
X1834642Y1265174D02*
D03*
Y1281684D02*
D03*
X3266186Y1465072D02*
D03*
Y1481582D02*
D03*
X3266440Y1498854D02*
D03*
Y1515364D02*
D03*
X3278632Y1598676D02*
D03*
Y1615186D02*
D03*
D18*
X2104136Y964184D02*
D03*
X2148586D02*
D03*
X3496310Y2218690D02*
D03*
X3540760D02*
D03*
X1071880Y2592070D02*
D03*
X1027430D02*
D03*
X3536950Y1610360D02*
D03*
X3492500D02*
D03*
D19*
X1261618Y831614D02*
D03*
Y848614D02*
D03*
X1234694D02*
D03*
Y831614D02*
D03*
D20*
X3543295Y1283716D02*
D03*
X3556762Y1179830D02*
D03*
X3676396Y1313180D02*
D03*
X3683503Y1690878D02*
D03*
X3567435Y1785620D02*
D03*
X3632195Y2396490D02*
D03*
X3687821Y2323084D02*
D03*
X3566160Y2396490D02*
D03*
X2042419Y989076D02*
D03*
X2783845Y1860042D02*
D03*
X2936753D02*
D03*
X2266691Y2578354D02*
D03*
X1857751Y2643886D02*
D03*
X2059681Y2578862D02*
D03*
X3684011Y2108962D02*
D03*
Y2091436D02*
D03*
X2604008Y2410714D02*
D03*
X1260348Y1074928D02*
D03*
Y1056640D02*
D03*
D21*
X3526790Y1283716D02*
D03*
X3540257Y1179830D02*
D03*
X3659891Y1313180D02*
D03*
X3666998Y1690878D02*
D03*
X3583940Y1785620D02*
D03*
X3615690Y2396490D02*
D03*
X3671316Y2323084D02*
D03*
X3582665Y2396490D02*
D03*
X2058924Y989076D02*
D03*
X2800350Y1860042D02*
D03*
X2953258D02*
D03*
X2250186Y2578354D02*
D03*
X1841246Y2643886D02*
D03*
X2043176Y2578862D02*
D03*
X3667506Y2108962D02*
D03*
Y2091436D02*
D03*
X2620513Y2410714D02*
D03*
X1276853Y1074928D02*
D03*
Y1056640D02*
D03*
D22*
X2560508Y1040122D02*
D03*
Y1050122D02*
D03*
Y1060122D02*
D03*
Y1070122D02*
D03*
Y1080122D02*
D03*
Y1030122D02*
D03*
Y1020122D02*
D03*
Y1010122D02*
D03*
Y1000122D02*
D03*
Y990122D02*
D03*
Y980122D02*
D03*
Y970122D02*
D03*
Y960122D02*
D03*
Y950122D02*
D03*
Y940122D02*
D03*
Y930122D02*
D03*
Y920122D02*
D03*
Y910122D02*
D03*
Y900122D02*
D03*
Y890122D02*
D03*
Y880122D02*
D03*
Y1090122D02*
D03*
Y1100122D02*
D03*
Y1110122D02*
D03*
Y1120122D02*
D03*
Y1130122D02*
D03*
X2520508Y985122D02*
D03*
Y995122D02*
D03*
Y1005122D02*
D03*
Y1015122D02*
D03*
Y1025122D02*
D03*
Y1035122D02*
D03*
Y1045122D02*
D03*
Y1055122D02*
D03*
Y1065122D02*
D03*
Y1075122D02*
D03*
Y1125122D02*
D03*
Y1115122D02*
D03*
Y1105122D02*
D03*
Y1095122D02*
D03*
Y1085122D02*
D03*
Y975122D02*
D03*
Y965122D02*
D03*
Y955122D02*
D03*
Y945122D02*
D03*
Y935122D02*
D03*
Y925122D02*
D03*
Y915122D02*
D03*
Y905122D02*
D03*
Y895122D02*
D03*
Y885122D02*
D03*
X3142808D02*
D03*
Y895122D02*
D03*
Y905122D02*
D03*
Y915122D02*
D03*
Y925122D02*
D03*
Y935122D02*
D03*
Y945122D02*
D03*
Y955122D02*
D03*
Y965122D02*
D03*
Y975122D02*
D03*
Y1085122D02*
D03*
Y1095122D02*
D03*
Y1105122D02*
D03*
Y1115122D02*
D03*
Y1125122D02*
D03*
Y1075122D02*
D03*
Y1065122D02*
D03*
Y1055122D02*
D03*
Y1045122D02*
D03*
Y1035122D02*
D03*
Y1025122D02*
D03*
Y1015122D02*
D03*
Y1005122D02*
D03*
Y995122D02*
D03*
Y985122D02*
D03*
X3182808Y1130122D02*
D03*
Y1120122D02*
D03*
Y1110122D02*
D03*
Y1100122D02*
D03*
Y1090122D02*
D03*
Y880122D02*
D03*
Y890122D02*
D03*
Y900122D02*
D03*
Y910122D02*
D03*
Y920122D02*
D03*
Y930122D02*
D03*
Y940122D02*
D03*
Y950122D02*
D03*
Y960122D02*
D03*
Y970122D02*
D03*
Y980122D02*
D03*
Y990122D02*
D03*
Y1000122D02*
D03*
Y1010122D02*
D03*
Y1020122D02*
D03*
Y1030122D02*
D03*
Y1080122D02*
D03*
Y1070122D02*
D03*
Y1060122D02*
D03*
Y1050122D02*
D03*
Y1040122D02*
D03*
D23*
X2540508Y849122D02*
D03*
Y1161122D02*
D03*
X3162808D02*
D03*
Y849122D02*
D03*
D24*
X3755046Y1455420D02*
D03*
X3700298D02*
D03*
X3755046Y1273810D02*
D03*
X3700298D02*
D03*
D25*
X3752546Y1583690D02*
D03*
X3663950D02*
D03*
X3752546Y2487930D02*
D03*
X3663950D02*
D03*
X3752546Y2218690D02*
D03*
X3663950D02*
D03*
Y1831340D02*
D03*
X3752546D02*
D03*
D26*
X3498980Y1555750D02*
D03*
Y1543050D02*
D03*
Y1530350D02*
D03*
Y1517650D02*
D03*
X3546980Y1555750D02*
D03*
Y1543050D02*
D03*
Y1530350D02*
D03*
Y1517650D02*
D03*
X3498980Y2061210D02*
D03*
Y2048510D02*
D03*
Y2035810D02*
D03*
Y2023110D02*
D03*
X3546980Y2061210D02*
D03*
Y2048510D02*
D03*
Y2035810D02*
D03*
Y2023110D02*
D03*
Y2125980D02*
D03*
Y2138680D02*
D03*
Y2151380D02*
D03*
Y2164080D02*
D03*
X3498980Y2125980D02*
D03*
Y2138680D02*
D03*
Y2151380D02*
D03*
Y2164080D02*
D03*
D27*
X3602990Y2015260D02*
D03*
Y2080260D02*
D03*
Y2125750D02*
D03*
Y2190750D02*
D03*
Y1509800D02*
D03*
Y1574800D02*
D03*
D28*
X3669350Y2374900D02*
D03*
X3689350D02*
D03*
X3683856Y1743452D02*
D03*
X3663856D02*
D03*
D29*
X3679350Y2342900D02*
D03*
X3673856Y1711452D02*
D03*
D30*
X3671570Y2649090D02*
D03*
X3658870D02*
D03*
X3646170D02*
D03*
X3633470D02*
D03*
X3671570Y2601090D02*
D03*
X3658870D02*
D03*
X3646170D02*
D03*
X3633470D02*
D03*
D31*
X3583432Y2432050D02*
D03*
X3515868D02*
D03*
X3533140D02*
D03*
X3549904D02*
D03*
X3566414D02*
D03*
Y1822450D02*
D03*
X3549904D02*
D03*
X3533140D02*
D03*
X3515868D02*
D03*
X3583432D02*
D03*
D32*
X3549650Y2527300D02*
D03*
Y1917700D02*
D03*
D33*
X3623310Y2315718D02*
D03*
X3496310D02*
D03*
Y1704340D02*
D03*
X3623310D02*
D03*
D34*
X3064678Y1595120D02*
D03*
Y1582420D02*
D03*
Y1569720D02*
D03*
Y1557020D02*
D03*
Y1544320D02*
D03*
Y1531620D02*
D03*
Y1518920D02*
D03*
Y1506220D02*
D03*
Y1493520D02*
D03*
Y1480820D02*
D03*
X3136138Y1595120D02*
D03*
Y1582420D02*
D03*
Y1569720D02*
D03*
Y1557020D02*
D03*
Y1544320D02*
D03*
Y1531620D02*
D03*
Y1518920D02*
D03*
Y1506220D02*
D03*
Y1493520D02*
D03*
Y1480820D02*
D03*
X2131400Y1012190D02*
D03*
Y1024890D02*
D03*
Y1037590D02*
D03*
Y1050290D02*
D03*
Y1062990D02*
D03*
Y1075690D02*
D03*
Y1088390D02*
D03*
Y1101090D02*
D03*
Y1113790D02*
D03*
Y1126490D02*
D03*
X2059940Y1012190D02*
D03*
Y1024890D02*
D03*
Y1037590D02*
D03*
Y1050290D02*
D03*
Y1062990D02*
D03*
Y1075690D02*
D03*
Y1088390D02*
D03*
Y1101090D02*
D03*
Y1113790D02*
D03*
Y1126490D02*
D03*
X1935140Y1728470D02*
D03*
Y1715770D02*
D03*
Y1703070D02*
D03*
Y1690370D02*
D03*
Y1677670D02*
D03*
Y1664970D02*
D03*
Y1652270D02*
D03*
Y1639570D02*
D03*
Y1626870D02*
D03*
Y1614170D02*
D03*
X2006600Y1728470D02*
D03*
Y1715770D02*
D03*
Y1703070D02*
D03*
Y1690370D02*
D03*
Y1677670D02*
D03*
Y1664970D02*
D03*
Y1652270D02*
D03*
Y1639570D02*
D03*
Y1626870D02*
D03*
Y1614170D02*
D03*
X1935140Y1568450D02*
D03*
Y1555750D02*
D03*
Y1543050D02*
D03*
Y1530350D02*
D03*
Y1517650D02*
D03*
Y1504950D02*
D03*
Y1492250D02*
D03*
Y1479550D02*
D03*
Y1466850D02*
D03*
Y1454150D02*
D03*
X2006600Y1568450D02*
D03*
Y1555750D02*
D03*
Y1543050D02*
D03*
Y1530350D02*
D03*
Y1517650D02*
D03*
Y1504950D02*
D03*
Y1492250D02*
D03*
Y1479550D02*
D03*
Y1466850D02*
D03*
Y1454150D02*
D03*
D35*
X3721100Y1116330D02*
D03*
Y1026414D02*
D03*
X3769360D02*
D03*
Y1116330D02*
D03*
D36*
X3712580Y1087390D02*
D03*
Y1079390D02*
D03*
Y1071390D02*
D03*
Y1063390D02*
D03*
Y1055390D02*
D03*
D37*
X3607562Y1260230D02*
D03*
X3544062Y1205230D02*
D03*
X3531362D02*
D03*
X3518662D02*
D03*
X3582162D02*
D03*
X3569462D02*
D03*
X3556762D02*
D03*
X3594862D02*
D03*
X3518662Y1260230D02*
D03*
X3531362D02*
D03*
X3544062D02*
D03*
X3556762D02*
D03*
X3569462D02*
D03*
X3582162D02*
D03*
X3594862D02*
D03*
X3607562Y1205230D02*
D03*
D38*
X3661990Y1388250D02*
D03*
Y1342250D02*
D03*
D39*
X3729990Y1365250D02*
D03*
D40*
X3422142Y1117600D02*
D03*
Y1109600D02*
D03*
Y1101600D02*
D03*
Y1093600D02*
D03*
Y1085600D02*
D03*
Y1077600D02*
D03*
Y1069600D02*
D03*
Y1061600D02*
D03*
Y1053600D02*
D03*
Y1045600D02*
D03*
Y1037600D02*
D03*
X3536142D02*
D03*
Y1045600D02*
D03*
Y1053600D02*
D03*
Y1061600D02*
D03*
Y1069600D02*
D03*
Y1077600D02*
D03*
Y1085600D02*
D03*
Y1093600D02*
D03*
Y1101600D02*
D03*
Y1109600D02*
D03*
Y1117600D02*
D03*
D41*
X3439142Y1020600D02*
D03*
X3447142D02*
D03*
X3455142D02*
D03*
X3463142D02*
D03*
X3471142D02*
D03*
X3479142D02*
D03*
X3487142D02*
D03*
X3495142D02*
D03*
X3503142D02*
D03*
X3511142D02*
D03*
X3519142D02*
D03*
Y1134600D02*
D03*
X3511142D02*
D03*
X3503142D02*
D03*
X3495142D02*
D03*
X3487142D02*
D03*
X3479142D02*
D03*
X3471142D02*
D03*
X3463142D02*
D03*
X3455142D02*
D03*
X3447142D02*
D03*
X3439142D02*
D03*
D42*
X2123440Y1247140D02*
D03*
Y1234440D02*
D03*
Y1221740D02*
D03*
Y1209040D02*
D03*
Y1196340D02*
D03*
Y1183640D02*
D03*
Y1170940D02*
D03*
X2067560D02*
D03*
Y1183640D02*
D03*
Y1196340D02*
D03*
Y1209040D02*
D03*
Y1221740D02*
D03*
Y1234440D02*
D03*
Y1247140D02*
D03*
D43*
X2160090Y1441090D02*
D03*
Y1446090D02*
D03*
Y1451090D02*
D03*
Y1456090D02*
D03*
Y1461090D02*
D03*
Y1466090D02*
D03*
Y1471090D02*
D03*
Y1476090D02*
D03*
Y1481090D02*
D03*
Y1486090D02*
D03*
Y1491090D02*
D03*
Y1496090D02*
D03*
Y1501090D02*
D03*
Y1506090D02*
D03*
Y1511090D02*
D03*
Y1516090D02*
D03*
Y1521090D02*
D03*
Y1526090D02*
D03*
Y1531090D02*
D03*
Y1536090D02*
D03*
Y1541090D02*
D03*
Y1546090D02*
D03*
Y1551090D02*
D03*
Y1556090D02*
D03*
Y1561090D02*
D03*
Y1566090D02*
D03*
Y1571090D02*
D03*
Y1576090D02*
D03*
Y1581090D02*
D03*
Y1586090D02*
D03*
Y1591090D02*
D03*
Y1596090D02*
D03*
Y1601090D02*
D03*
Y1606090D02*
D03*
Y1611090D02*
D03*
Y1616090D02*
D03*
Y1621090D02*
D03*
Y1626090D02*
D03*
Y1631090D02*
D03*
Y1636090D02*
D03*
Y1641090D02*
D03*
Y1646090D02*
D03*
Y1651090D02*
D03*
Y1656090D02*
D03*
Y1661090D02*
D03*
Y1666090D02*
D03*
Y1671090D02*
D03*
Y1676090D02*
D03*
Y1681090D02*
D03*
Y1686090D02*
D03*
Y1691090D02*
D03*
Y1696090D02*
D03*
X2470250D02*
D03*
Y1691090D02*
D03*
Y1686090D02*
D03*
Y1681090D02*
D03*
Y1676090D02*
D03*
Y1671090D02*
D03*
Y1666090D02*
D03*
Y1661090D02*
D03*
Y1656090D02*
D03*
Y1651090D02*
D03*
Y1646090D02*
D03*
Y1641090D02*
D03*
Y1636090D02*
D03*
Y1631090D02*
D03*
Y1626090D02*
D03*
Y1621090D02*
D03*
Y1616090D02*
D03*
Y1611090D02*
D03*
Y1606090D02*
D03*
Y1601090D02*
D03*
Y1596090D02*
D03*
Y1591090D02*
D03*
Y1586090D02*
D03*
Y1581090D02*
D03*
Y1576090D02*
D03*
Y1571090D02*
D03*
Y1566090D02*
D03*
Y1561090D02*
D03*
Y1556090D02*
D03*
Y1551090D02*
D03*
Y1546090D02*
D03*
Y1541090D02*
D03*
Y1536090D02*
D03*
Y1531090D02*
D03*
Y1526090D02*
D03*
Y1521090D02*
D03*
Y1516090D02*
D03*
Y1511090D02*
D03*
Y1506090D02*
D03*
Y1501090D02*
D03*
Y1496090D02*
D03*
Y1491090D02*
D03*
Y1486090D02*
D03*
Y1481090D02*
D03*
Y1476090D02*
D03*
Y1471090D02*
D03*
Y1466090D02*
D03*
Y1461090D02*
D03*
Y1456090D02*
D03*
Y1451090D02*
D03*
Y1446090D02*
D03*
Y1441090D02*
D03*
X2678790Y1400196D02*
D03*
Y1405196D02*
D03*
Y1410196D02*
D03*
Y1415196D02*
D03*
Y1420196D02*
D03*
Y1425196D02*
D03*
Y1430196D02*
D03*
Y1435196D02*
D03*
Y1440196D02*
D03*
Y1445196D02*
D03*
Y1450196D02*
D03*
Y1455196D02*
D03*
Y1460196D02*
D03*
Y1465196D02*
D03*
Y1470196D02*
D03*
Y1475196D02*
D03*
Y1480196D02*
D03*
Y1485196D02*
D03*
Y1490196D02*
D03*
Y1495196D02*
D03*
Y1500196D02*
D03*
Y1505196D02*
D03*
Y1510196D02*
D03*
Y1515196D02*
D03*
Y1520196D02*
D03*
Y1525196D02*
D03*
Y1530196D02*
D03*
Y1535196D02*
D03*
Y1540196D02*
D03*
Y1545196D02*
D03*
Y1550196D02*
D03*
Y1555196D02*
D03*
Y1560196D02*
D03*
Y1565196D02*
D03*
Y1570196D02*
D03*
Y1575196D02*
D03*
Y1580196D02*
D03*
Y1585196D02*
D03*
Y1590196D02*
D03*
Y1595196D02*
D03*
Y1600196D02*
D03*
Y1605196D02*
D03*
Y1610196D02*
D03*
Y1615196D02*
D03*
Y1620196D02*
D03*
Y1625196D02*
D03*
Y1630196D02*
D03*
Y1635196D02*
D03*
Y1640196D02*
D03*
Y1645196D02*
D03*
Y1650196D02*
D03*
Y1655196D02*
D03*
X2988950D02*
D03*
Y1650196D02*
D03*
Y1645196D02*
D03*
Y1640196D02*
D03*
Y1635196D02*
D03*
Y1630196D02*
D03*
Y1625196D02*
D03*
Y1620196D02*
D03*
Y1615196D02*
D03*
Y1610196D02*
D03*
Y1605196D02*
D03*
Y1600196D02*
D03*
Y1595196D02*
D03*
Y1590196D02*
D03*
Y1585196D02*
D03*
Y1580196D02*
D03*
Y1575196D02*
D03*
Y1570196D02*
D03*
Y1565196D02*
D03*
Y1560196D02*
D03*
Y1555196D02*
D03*
Y1550196D02*
D03*
Y1545196D02*
D03*
Y1540196D02*
D03*
Y1535196D02*
D03*
Y1530196D02*
D03*
Y1525196D02*
D03*
Y1520196D02*
D03*
Y1515196D02*
D03*
Y1510196D02*
D03*
Y1505196D02*
D03*
Y1500196D02*
D03*
Y1495196D02*
D03*
Y1490196D02*
D03*
Y1485196D02*
D03*
Y1480196D02*
D03*
Y1475196D02*
D03*
Y1470196D02*
D03*
Y1465196D02*
D03*
Y1460196D02*
D03*
Y1455196D02*
D03*
Y1450196D02*
D03*
Y1445196D02*
D03*
Y1440196D02*
D03*
Y1435196D02*
D03*
Y1430196D02*
D03*
Y1425196D02*
D03*
Y1420196D02*
D03*
Y1415196D02*
D03*
Y1410196D02*
D03*
Y1405196D02*
D03*
Y1400196D02*
D03*
D44*
X2187670Y1723390D02*
D03*
X2192670D02*
D03*
X2197670D02*
D03*
X2202670D02*
D03*
X2207670D02*
D03*
X2212670D02*
D03*
X2217670D02*
D03*
X2222670D02*
D03*
X2227670D02*
D03*
X2232670D02*
D03*
X2237670D02*
D03*
X2242670D02*
D03*
X2247670D02*
D03*
X2252670D02*
D03*
X2257670D02*
D03*
X2262670D02*
D03*
X2267670D02*
D03*
X2272670D02*
D03*
X2277670D02*
D03*
X2282670D02*
D03*
X2287670D02*
D03*
X2292670D02*
D03*
X2297670D02*
D03*
X2302670D02*
D03*
X2307670D02*
D03*
X2312670D02*
D03*
X2317670D02*
D03*
X2322670D02*
D03*
X2327670D02*
D03*
X2332670D02*
D03*
X2337670D02*
D03*
X2342670D02*
D03*
X2347670D02*
D03*
X2352670D02*
D03*
X2357670D02*
D03*
X2362670D02*
D03*
X2367670D02*
D03*
X2372670D02*
D03*
X2377670D02*
D03*
X2382670D02*
D03*
X2387670D02*
D03*
X2392670D02*
D03*
X2397670D02*
D03*
X2402670D02*
D03*
X2407670D02*
D03*
X2412670D02*
D03*
X2417670D02*
D03*
X2422670D02*
D03*
X2427670D02*
D03*
X2432670D02*
D03*
X2437670D02*
D03*
X2442670D02*
D03*
Y1413510D02*
D03*
X2437670D02*
D03*
X2432670D02*
D03*
X2427670D02*
D03*
X2422670D02*
D03*
X2417670D02*
D03*
X2412670D02*
D03*
X2407670D02*
D03*
X2402670D02*
D03*
X2397670D02*
D03*
X2392670D02*
D03*
X2387670D02*
D03*
X2382670D02*
D03*
X2377670D02*
D03*
X2372670D02*
D03*
X2367670D02*
D03*
X2362670D02*
D03*
X2357670D02*
D03*
X2352670D02*
D03*
X2347670D02*
D03*
X2342670D02*
D03*
X2337670D02*
D03*
X2332670D02*
D03*
X2327670D02*
D03*
X2322670D02*
D03*
X2317670D02*
D03*
X2312670D02*
D03*
X2307670D02*
D03*
X2302670D02*
D03*
X2297670D02*
D03*
X2292670D02*
D03*
X2287670D02*
D03*
X2282670D02*
D03*
X2277670D02*
D03*
X2272670D02*
D03*
X2267670D02*
D03*
X2262670D02*
D03*
X2257670D02*
D03*
X2252670D02*
D03*
X2247670D02*
D03*
X2242670D02*
D03*
X2237670D02*
D03*
X2232670D02*
D03*
X2227670D02*
D03*
X2222670D02*
D03*
X2217670D02*
D03*
X2212670D02*
D03*
X2207670D02*
D03*
X2202670D02*
D03*
X2197670D02*
D03*
X2192670D02*
D03*
X2187670D02*
D03*
X2706370Y1682496D02*
D03*
X2711370D02*
D03*
X2716370D02*
D03*
X2721370D02*
D03*
X2726370D02*
D03*
X2731370D02*
D03*
X2736370D02*
D03*
X2741370D02*
D03*
X2746370D02*
D03*
X2751370D02*
D03*
X2756370D02*
D03*
X2761370D02*
D03*
X2766370D02*
D03*
X2771370D02*
D03*
X2776370D02*
D03*
X2781370D02*
D03*
X2786370D02*
D03*
X2791370D02*
D03*
X2796370D02*
D03*
X2801370D02*
D03*
X2806370D02*
D03*
X2811370D02*
D03*
X2816370D02*
D03*
X2821370D02*
D03*
X2826370D02*
D03*
X2831370D02*
D03*
X2836370D02*
D03*
X2841370D02*
D03*
X2846370D02*
D03*
X2851370D02*
D03*
X2856370D02*
D03*
X2861370D02*
D03*
X2866370D02*
D03*
X2871370D02*
D03*
X2876370D02*
D03*
X2881370D02*
D03*
X2886370D02*
D03*
X2891370D02*
D03*
X2896370D02*
D03*
X2901370D02*
D03*
X2906370D02*
D03*
X2911370D02*
D03*
X2916370D02*
D03*
X2921370D02*
D03*
X2926370D02*
D03*
X2931370D02*
D03*
X2936370D02*
D03*
X2941370D02*
D03*
X2946370D02*
D03*
X2951370D02*
D03*
X2956370D02*
D03*
X2961370D02*
D03*
Y1372616D02*
D03*
X2956370D02*
D03*
X2951370D02*
D03*
X2946370D02*
D03*
X2941370D02*
D03*
X2936370D02*
D03*
X2931370D02*
D03*
X2926370D02*
D03*
X2921370D02*
D03*
X2916370D02*
D03*
X2911370D02*
D03*
X2906370D02*
D03*
X2901370D02*
D03*
X2896370D02*
D03*
X2891370D02*
D03*
X2886370D02*
D03*
X2881370D02*
D03*
X2876370D02*
D03*
X2871370D02*
D03*
X2866370D02*
D03*
X2861370D02*
D03*
X2856370D02*
D03*
X2851370D02*
D03*
X2846370D02*
D03*
X2841370D02*
D03*
X2836370D02*
D03*
X2831370D02*
D03*
X2826370D02*
D03*
X2821370D02*
D03*
X2816370D02*
D03*
X2811370D02*
D03*
X2806370D02*
D03*
X2801370D02*
D03*
X2796370D02*
D03*
X2791370D02*
D03*
X2786370D02*
D03*
X2781370D02*
D03*
X2776370D02*
D03*
X2771370D02*
D03*
X2766370D02*
D03*
X2761370D02*
D03*
X2756370D02*
D03*
X2751370D02*
D03*
X2746370D02*
D03*
X2741370D02*
D03*
X2736370D02*
D03*
X2731370D02*
D03*
X2726370D02*
D03*
X2721370D02*
D03*
X2716370D02*
D03*
X2711370D02*
D03*
X2706370D02*
D03*
D45*
X2801112Y2259948D02*
D03*
Y2276348D02*
D03*
D46*
X2735580Y2715260D02*
D03*
Y2564130D02*
D03*
X2527300Y2562860D02*
D03*
Y2639060D02*
D03*
Y2715260D02*
D03*
D47*
X2613152Y2386838D02*
D03*
Y2346198D02*
D03*
D48*
X3068320Y1837436D02*
D03*
X3055620D02*
D03*
X3042920D02*
D03*
X3030220D02*
D03*
X3017520D02*
D03*
X3004820D02*
D03*
X2992120D02*
D03*
X2979420D02*
D03*
X2966720D02*
D03*
X2954020D02*
D03*
X3068320Y1765976D02*
D03*
X3055620D02*
D03*
X3042920D02*
D03*
X3030220D02*
D03*
X3017520D02*
D03*
X3004820D02*
D03*
X2992120D02*
D03*
X2979420D02*
D03*
X2966720D02*
D03*
X2954020D02*
D03*
X2760980Y1837436D02*
D03*
X2748280D02*
D03*
X2735580D02*
D03*
X2722880D02*
D03*
X2710180D02*
D03*
X2697480D02*
D03*
X2684780D02*
D03*
X2672080D02*
D03*
X2659380D02*
D03*
X2646680D02*
D03*
X2760980Y1765976D02*
D03*
X2748280D02*
D03*
X2735580D02*
D03*
X2722880D02*
D03*
X2710180D02*
D03*
X2697480D02*
D03*
X2684780D02*
D03*
X2672080D02*
D03*
X2659380D02*
D03*
X2646680D02*
D03*
X2914650Y1837436D02*
D03*
X2901950D02*
D03*
X2889250D02*
D03*
X2876550D02*
D03*
X2863850D02*
D03*
X2851150D02*
D03*
X2838450D02*
D03*
X2825750D02*
D03*
X2813050D02*
D03*
X2800350D02*
D03*
X2914650Y1765976D02*
D03*
X2901950D02*
D03*
X2889250D02*
D03*
X2876550D02*
D03*
X2863850D02*
D03*
X2851150D02*
D03*
X2838450D02*
D03*
X2825750D02*
D03*
X2813050D02*
D03*
X2800350D02*
D03*
M02*
