%FSLAX44Y44*%
%MOMM*%
G71*
G01*
G75*
G04 Layer_Physical_Order=3*
G04 Layer_Color=128*
%ADD10C,0.2032*%
%ADD11R,0.9652X0.8890*%
%ADD12R,1.0160X0.9398*%
%ADD13R,1.0160X0.9400*%
%ADD14R,2.2098X1.9050*%
%ADD15R,0.9144X0.9144*%
%ADD16R,1.2700X0.9144*%
%ADD17R,0.8890X0.9652*%
%ADD18R,1.9050X2.2098*%
%ADD19R,0.9000X0.8000*%
%ADD20R,0.9398X1.0160*%
%ADD21R,0.9400X1.0160*%
%ADD22R,2.2000X0.3600*%
%ADD23R,3.0000X1.0000*%
%ADD24R,3.5000X1.0000*%
%ADD25R,4.0000X1.4000*%
%ADD26O,2.2000X0.6000*%
%ADD27R,3.2000X1.6500*%
%ADD28R,1.2000X1.2000*%
%ADD29R,1.6000X1.5000*%
%ADD30O,0.6000X2.2000*%
%ADD31R,1.0668X3.5560*%
%ADD32R,10.6680X8.8900*%
%ADD33R,3.8100X5.5880*%
%ADD34R,1.9050X0.5588*%
%ADD35R,2.2000X1.8000*%
%ADD36R,2.4000X0.4000*%
%ADD37R,0.5000X2.0000*%
%ADD38R,3.2000X1.6000*%
%ADD39R,6.0000X7.0000*%
%ADD40O,1.4500X0.5000*%
%ADD41O,0.5000X1.4500*%
%ADD42O,2.0320X0.5588*%
%ADD43O,1.4000X0.3000*%
%ADD44O,0.3000X1.4000*%
%ADD45R,0.9000X1.0000*%
%ADD46R,2.5000X1.8000*%
%ADD47R,2.2000X1.5000*%
%ADD48R,0.5588X1.9050*%
%ADD49C,0.1778*%
%ADD50C,0.2540*%
%ADD51C,0.7620*%
%ADD52C,0.5080*%
%ADD53C,1.2700*%
%ADD54C,0.3810*%
%ADD55C,0.7000*%
%ADD56C,0.8890*%
%ADD57C,0.6350*%
%ADD58C,0.3048*%
%ADD59R,6.8834X6.6294*%
%ADD60R,7.4168X2.9972*%
%ADD61R,3.9116X9.0424*%
%ADD62R,6.6294X4.3688*%
%ADD63R,2.2098X8.4836*%
%ADD64R,7.2390X2.3368*%
%ADD65R,7.5692X1.4224*%
%ADD66R,5.3086X2.3876*%
%ADD67R,6.4770X2.3876*%
%ADD68R,0.8492X4.9022*%
%ADD69R,1.1176X9.9060*%
%ADD70R,7.4930X2.5908*%
%ADD71R,6.6548X1.4732*%
%ADD72R,5.1816X1.4732*%
%ADD73R,3.2258X4.2672*%
%ADD74R,11.5824X3.8608*%
%ADD75R,9.6012X3.5814*%
%ADD76R,10.6426X2.4638*%
%ADD77R,4.2672X4.9530*%
%ADD78R,5.3086X3.6322*%
%ADD79R,2.2860X2.4638*%
%ADD80R,3.6322X5.3086*%
%ADD81R,6.7818X2.8702*%
%ADD82R,2.5654X7.4676*%
%ADD83R,7.3660X2.3876*%
%ADD84R,1.6256X4.7752*%
%ADD85R,4.2164X2.8956*%
%ADD86R,2.2606X6.3754*%
%ADD87C,5.0000*%
%ADD88C,1.7780*%
%ADD89O,1.6510X1.0160*%
%ADD90C,1.2700*%
%ADD91R,1.2700X1.2700*%
%ADD92O,1.7780X1.5240*%
%ADD93O,1.5240X1.7780*%
%ADD94C,1.0000*%
%ADD95C,2.4384*%
%ADD96R,1.3800X2.5000*%
%ADD97O,1.3800X2.5000*%
%ADD98C,0.5080*%
%ADD99C,1.5000*%
%ADD100R,1.5000X1.5000*%
%ADD101O,1.2700X1.0160*%
%ADD102C,1.3000*%
%ADD103O,1.0000X1.7000*%
%ADD104C,1.1430*%
%ADD105C,1.5240*%
%ADD106O,1.4000X3.8000*%
%ADD107O,3.8000X1.4000*%
%ADD108O,1.0160X1.6510*%
%ADD109C,1.3800*%
%ADD110C,2.5000*%
%ADD111C,1.5748*%
%ADD112R,1.5748X1.5748*%
%ADD113C,1.3970*%
%ADD114C,1.1000*%
%ADD115R,1.5240X1.5240*%
%ADD116O,3.0480X1.5240*%
%ADD117C,2.0320*%
%ADD118C,2.2000*%
%ADD119C,1.6000*%
%ADD120C,0.9000*%
%ADD121C,0.6604*%
%ADD122C,0.6858*%
%ADD123C,0.6350*%
%ADD124C,0.8636*%
%ADD125C,1.0160*%
%ADD126C,0.7112*%
%ADD127C,1.0160*%
%ADD128C,1.5080*%
%ADD129C,1.3080*%
%ADD130C,2.9464*%
%ADD131C,1.4478*%
%ADD132C,1.5080*%
%ADD133C,0.8128*%
%ADD134C,1.4080*%
%ADD135O,1.3080X2.0080*%
%ADD136C,1.3080*%
%ADD137O,3.7080X1.3080*%
%ADD138C,1.2080*%
%ADD139C,2.0080*%
%ADD140C,1.4732*%
%ADD141C,1.4986*%
%ADD142C,1.8080*%
%ADD143C,2.7080*%
%ADD144C,2.1080*%
%ADD145C,0.8382*%
%ADD146C,0.9652*%
%ADD147C,1.0668*%
%ADD148C,0.9398*%
%ADD149C,0.8890*%
%ADD150C,3.5080*%
%ADD151O,1.3080X3.7080*%
D50*
X2135886Y1819910D02*
X2260092D01*
X2261108D02*
X2421636Y1659382D01*
X2455418D01*
X2471674Y1643126D01*
Y1451610D02*
Y1643126D01*
X2444496Y1424432D02*
X2471674Y1451610D01*
X2366772Y1424432D02*
X2444496D01*
X2299208Y1356868D02*
X2366772Y1424432D01*
X2299208Y1021588D02*
Y1356868D01*
Y1021588D02*
X2314956Y1005840D01*
Y979678D02*
Y1005840D01*
Y979678D02*
X2329180Y965454D01*
X2387854D01*
Y933958D02*
Y965454D01*
X2386330Y932434D02*
X2387854Y933958D01*
X2259838Y932434D02*
X2386330D01*
X2252218Y940054D02*
X2259838Y932434D01*
X2252218Y1360678D02*
X2252218Y940054D01*
X2155952Y1456944D02*
X2252218Y1360678D01*
X2155952Y1456944D02*
Y1659636D01*
X2135886Y1679702D02*
X2155952Y1659636D01*
X2135886Y1679702D02*
Y1819910D01*
X1715516Y2461260D02*
X1736344D01*
X1746504Y2451100D01*
X1757934D01*
X1769872Y2463038D01*
X1785112D01*
X1796034Y2452116D01*
X1909064D01*
X1921764Y2439416D01*
X1934718D01*
X1949704Y2424430D01*
X1961642D01*
X1975358Y2438146D01*
X1987550D01*
X2000504Y2451100D01*
X2101596D01*
X2114296Y2438400D01*
X2140966D01*
X2152904Y2450338D01*
X2165350D01*
X2176780Y2438908D01*
X2192020D01*
X2201926Y2448814D01*
X2273554D01*
X2289048Y2433320D01*
X2289048Y1848866D01*
X2260092Y1819910D02*
X2289048Y1848866D01*
X1711198Y2461260D02*
X1715516D01*
X1696212Y2446274D02*
X1711198Y2461260D01*
X1696212Y2446274D02*
X1696212Y1992884D01*
X2037842Y1422908D02*
Y1782826D01*
Y1422908D02*
X2161286Y1299464D01*
Y930910D02*
Y1299464D01*
Y930910D02*
X2198370Y893826D01*
X2433828D01*
X2472690Y932688D01*
X2449068Y997966D02*
X2620010D01*
X2416556Y965454D02*
X2449068Y997966D01*
X2387854Y965454D02*
X2416556D01*
X2037842Y1782826D02*
Y1871218D01*
X2064766Y1898142D01*
X2195830D01*
X2220722Y1923034D01*
Y1961642D01*
X2214118Y1968246D02*
X2220722Y1961642D01*
X2204974Y1968246D02*
X2214118D01*
X2191766Y1981454D02*
X2204974Y1968246D01*
X2175764Y1981454D02*
X2191766D01*
X2163826Y1969516D02*
X2175764Y1981454D01*
X2151634Y1969516D02*
X2163826D01*
X2137410Y1955292D02*
X2151634Y1969516D01*
X2035302Y1955292D02*
X2137410D01*
X2021586Y1969008D02*
X2035302Y1955292D01*
X1999234Y1969008D02*
X2021586D01*
X1987550Y1957324D02*
X1999234Y1969008D01*
X1973072Y1957324D02*
X1987550D01*
X1962658Y1967738D02*
X1973072Y1957324D01*
X1947418Y1967738D02*
X1962658D01*
X1935988Y1956308D02*
X1947418Y1967738D01*
X1842008Y1956308D02*
X1935988D01*
X1829308Y1969008D02*
X1842008Y1956308D01*
X1797304Y1969008D02*
X1829308D01*
X1784858Y1981454D02*
X1797304Y1969008D01*
X1771142Y1981454D02*
X1784858D01*
X1758696Y1969008D02*
X1771142Y1981454D01*
X1745234Y1969008D02*
X1758696D01*
X1732280Y1981962D02*
X1745234Y1969008D01*
X1707134Y1981962D02*
X1732280D01*
X1696212Y1992884D02*
X1707134Y1981962D01*
X1696212Y1992884D02*
Y1994916D01*
X2223262Y1819910D02*
X2261108D01*
X2730500Y1708912D02*
X2952750D01*
X2676144Y1654556D02*
X2730500Y1708912D01*
X2676144Y1497076D02*
Y1654556D01*
X2600452Y1421384D02*
X2676144Y1497076D01*
X2600452Y1389888D02*
Y1421384D01*
Y1389888D02*
X2608580Y1381760D01*
X2636774D01*
X2676906Y1341628D01*
X3214370D01*
X3339084Y1466342D01*
Y1522476D01*
X3323844Y1537716D02*
X3339084Y1522476D01*
X3290316Y1537716D02*
X3323844D01*
X3262884Y1565148D02*
X3290316Y1537716D01*
X3169920Y1565148D02*
X3262884D01*
X3012694Y1722374D02*
X3169920Y1565148D01*
X2966212Y1722374D02*
X3012694D01*
X3498088Y2122170D02*
X3583432D01*
X3488436Y2112518D02*
X3498088Y2122170D01*
X3488436Y1659636D02*
X3488436Y2112518D01*
X3583432Y2122170D02*
X3584448D01*
X3594354Y2112264D01*
Y1966468D02*
Y2112264D01*
Y1966468D02*
X3618992Y1941830D01*
X3810762D01*
X3362960Y1117092D02*
X3551174Y1305306D01*
X3581908D01*
X3634232Y1357630D01*
Y1513840D01*
X3488436Y1659636D02*
X3634232Y1513840D01*
X3488436Y1659636D02*
Y1683004D01*
X3503676Y1426464D02*
Y1480820D01*
X3465576Y1388364D02*
X3503676Y1426464D01*
X3465576Y1354582D02*
Y1388364D01*
X3108960Y997966D02*
X3465576Y1354582D01*
X2620010Y997966D02*
X3108960D01*
X2472690Y932688D02*
X2625090D01*
X2641346Y916432D01*
Y813054D02*
Y916432D01*
X3503676Y1480820D02*
X3572510Y1549654D01*
X3572764D01*
X3585718Y1562608D01*
X3362960Y813562D02*
Y1117092D01*
X1511046Y2578862D02*
X1535430D01*
X1561084Y2604516D01*
X1604772D01*
X1733042Y2732786D01*
X2302764D01*
X2442718Y2592832D01*
X2467356D01*
Y2552954D02*
Y2592832D01*
X2426970Y2552954D02*
X2467356D01*
X2298446Y2681478D02*
X2426970Y2552954D01*
X2204466Y2681478D02*
X2298446D01*
X2193544Y2692400D02*
X2204466Y2681478D01*
X2173986Y2692400D02*
X2193544D01*
X2165350Y2683764D02*
X2173986Y2692400D01*
X2150872Y2683764D02*
X2165350D01*
X2139442Y2695194D02*
X2150872Y2683764D01*
X2037588Y2695194D02*
X2139442D01*
X2022856Y2680462D02*
X2037588Y2695194D01*
X1999488Y2680462D02*
X2022856D01*
X1987296Y2692654D02*
X1999488Y2680462D01*
X1968500Y2692654D02*
X1987296D01*
X1959356Y2683510D02*
X1968500Y2692654D01*
X1949196Y2683510D02*
X1959356D01*
X1934972Y2669286D02*
X1949196Y2683510D01*
X1899666Y2669286D02*
X1934972D01*
X1888744Y2680208D02*
X1899666Y2669286D01*
X1800352Y2680208D02*
X1888744D01*
X1788414Y2692146D02*
X1800352Y2680208D01*
X1766062Y2692146D02*
X1788414D01*
X1754378Y2680462D02*
X1766062Y2692146D01*
X1744726Y2680462D02*
X1754378D01*
X1732788Y2668524D02*
X1744726Y2680462D01*
X1709420Y2668524D02*
X1732788D01*
X1620012Y2579116D02*
X1709420Y2668524D01*
X1563370Y2579116D02*
X1620012D01*
X1536954Y2552700D02*
X1563370Y2579116D01*
X1507490Y2552700D02*
X1536954D01*
X1507490D02*
Y2575306D01*
X1511046Y2578862D01*
X1109218Y2552700D02*
X1507490D01*
X1102868Y2546350D02*
X1109218Y2552700D01*
X1102868Y2510028D02*
Y2546350D01*
Y2510028D02*
X1110996Y2501900D01*
X1249680D01*
X1259078Y2492502D01*
X1297940D01*
X1307592Y2502154D01*
X1592326D01*
X1715516Y2625344D01*
Y2631694D01*
X1721358Y2637536D01*
X1735074D01*
X1748282Y2650744D01*
X1758442D01*
X1773936Y2666238D01*
X1784350D01*
X1799336Y2651252D01*
X1921764Y2639060D02*
X1941576D01*
X1951736Y2649220D01*
X1960372D01*
X1968246Y2641346D01*
X1992630D01*
X2003044Y2651760D01*
X2106676D01*
X2116836Y2641600D01*
X2146300D01*
X2154936Y2650236D01*
X2166112D01*
X2176018Y2640330D01*
X2194814D01*
X2207260Y2652776D01*
X2273808D01*
X2404364Y2522220D01*
X2671064D01*
X2860802Y2711958D01*
X3423920D01*
X3545840Y2590038D01*
X3640582D01*
X3642360Y2591816D01*
Y2634742D01*
X3641090Y2636012D02*
X3642360Y2634742D01*
X3554476Y2636012D02*
X3641090D01*
X3441700Y2748788D02*
X3554476Y2636012D01*
X2817114Y2748788D02*
X3441700D01*
X2621280Y2552954D02*
X2817114Y2748788D01*
X2467356Y2552954D02*
X2621280Y2552954D01*
X1892554Y2639060D02*
X1921764D01*
X1880362Y2651252D02*
X1892554Y2639060D01*
X1799336Y2651252D02*
X1880362D01*
X2952750Y1708912D02*
X2966212Y1722374D01*
D90*
X2975610Y1735836D02*
D03*
X2617724Y1368044D02*
D03*
X2770124Y2210308D02*
D03*
X2072894Y1941830D02*
D03*
X2199894Y1836166D02*
D03*
X2404872Y942594D02*
D03*
X2145538Y1836166D02*
D03*
X3325114Y1493520D02*
D03*
X3247644Y1597152D02*
D03*
D104*
X2666492Y2404618D02*
D03*
Y2379218D02*
D03*
Y2353818D02*
D03*
Y2328418D02*
D03*
Y2303018D02*
D03*
Y2277618D02*
D03*
Y2252218D02*
D03*
X2742692D02*
D03*
Y2277618D02*
D03*
Y2303018D02*
D03*
Y2328418D02*
D03*
Y2353818D02*
D03*
Y2379218D02*
D03*
Y2404618D02*
D03*
X2569464Y2465832D02*
D03*
Y2440432D02*
D03*
Y2415032D02*
D03*
Y2389632D02*
D03*
Y2364232D02*
D03*
Y2338832D02*
D03*
Y2313432D02*
D03*
Y2288032D02*
D03*
Y2262632D02*
D03*
X2493264D02*
D03*
Y2288032D02*
D03*
Y2313432D02*
D03*
Y2338832D02*
D03*
Y2364232D02*
D03*
Y2389632D02*
D03*
Y2415032D02*
D03*
Y2440432D02*
D03*
Y2465832D02*
D03*
Y2491232D02*
D03*
X2569464Y2176272D02*
D03*
Y2150872D02*
D03*
Y2125472D02*
D03*
Y2100072D02*
D03*
Y2074672D02*
D03*
Y2049272D02*
D03*
Y2023872D02*
D03*
Y1998472D02*
D03*
Y1973072D02*
D03*
X2493264D02*
D03*
Y1998472D02*
D03*
Y2023872D02*
D03*
Y2049272D02*
D03*
Y2074672D02*
D03*
Y2100072D02*
D03*
Y2125472D02*
D03*
Y2150872D02*
D03*
Y2176272D02*
D03*
Y2201672D02*
D03*
D105*
X2148586Y909066D02*
D03*
X2102866D02*
D03*
X2148586Y845566D02*
D03*
X2102866D02*
D03*
X3409696D02*
D03*
X3455416D02*
D03*
X3409696Y909066D02*
D03*
X3455416D02*
D03*
X3501644Y845566D02*
D03*
X3547364D02*
D03*
X3501644Y909066D02*
D03*
X3547364D02*
D03*
X3237738Y1549908D02*
D03*
Y1499108D02*
D03*
Y1524508D02*
D03*
D124*
X1940690Y2072311D02*
D03*
X1907924Y2295831D02*
D03*
X2399284Y2219198D02*
D03*
X2411234Y2269490D02*
D03*
X2417064Y2295906D02*
D03*
X2422906Y2310892D02*
D03*
X2470658Y2478532D02*
D03*
X2405367Y2244598D02*
D03*
X2464308Y2489200D02*
D03*
X2323338Y2042414D02*
D03*
X2341118Y2048510D02*
D03*
X2352548Y2015490D02*
D03*
X2346706Y1965706D02*
D03*
X2311654Y1990598D02*
D03*
X2393442Y2158746D02*
D03*
X2273300Y2250694D02*
D03*
X2262124Y2302256D02*
D03*
X2237994Y2363724D02*
D03*
X2288133Y2142567D02*
D03*
X2281402Y2225934D02*
D03*
X1235528Y1638462D02*
D03*
X1229614Y2019300D02*
D03*
X1247601Y2197225D02*
D03*
X1271694Y2501816D02*
D03*
X1265766Y2679784D02*
D03*
X1278044Y2654470D02*
D03*
X1284140Y2527470D02*
D03*
X1303782Y2604008D02*
D03*
X1259719Y1942713D02*
D03*
X1253914Y1968924D02*
D03*
X1241576Y1993876D02*
D03*
X1193208Y2095670D02*
D03*
X1199304Y2146470D02*
D03*
X1211433Y2171834D02*
D03*
X1205369Y2070270D02*
D03*
X1223275Y2222978D02*
D03*
X1217464Y2044850D02*
D03*
X1296083Y2553124D02*
D03*
X1308862Y2578608D02*
D03*
X1290828Y2629408D02*
D03*
X1659767Y2438400D02*
D03*
Y2412303D02*
D03*
Y2387854D02*
D03*
Y2362200D02*
D03*
X2173732Y1661362D02*
D03*
X2173478Y1636014D02*
D03*
X2074164Y1714754D02*
D03*
X2094992Y1721866D02*
D03*
X2094250Y1696622D02*
D03*
X2094484Y1710690D02*
D03*
X2173732Y1686052D02*
D03*
Y1695958D02*
D03*
X2147570Y1692148D02*
D03*
X2255597Y2320461D02*
D03*
X2255520Y2365248D02*
D03*
X2458212Y2451100D02*
D03*
X1855470Y1148842D02*
D03*
X1828800D02*
D03*
X1876552Y1171702D02*
D03*
X1862497Y1156462D02*
D03*
X1778923Y1164429D02*
D03*
X1803908Y1156716D02*
D03*
X1752600Y1171956D02*
D03*
X1849882Y1139190D02*
D03*
X1727200Y1149350D02*
D03*
X1701546D02*
D03*
X1859069Y1132883D02*
D03*
X1850136Y1126490D02*
D03*
X1676289Y1149731D02*
D03*
X1859026Y1120394D02*
D03*
X1650492Y1149604D02*
D03*
X2024126Y1543050D02*
D03*
Y1530604D02*
D03*
Y1517904D02*
D03*
Y1505204D02*
D03*
Y1492504D02*
D03*
Y1479804D02*
D03*
Y1467104D02*
D03*
Y1454404D02*
D03*
X2054606Y1542796D02*
D03*
X2053109Y1530624D02*
D03*
X2056892Y1517904D02*
D03*
X2063242Y1505204D02*
D03*
X2069846Y1492504D02*
D03*
X2076450Y1479804D02*
D03*
X2083317Y1467434D02*
D03*
X2024126Y1556004D02*
D03*
X2056892Y1556258D02*
D03*
X2101850Y1447546D02*
D03*
X2107876Y1429004D02*
D03*
X2115058Y1435100D02*
D03*
X2375916Y2108200D02*
D03*
X2116836Y2098040D02*
D03*
X2381758Y2118106D02*
D03*
X2387600Y2148332D02*
D03*
X2726478Y1357884D02*
D03*
X2906478D02*
D03*
X2936262Y1387348D02*
D03*
X2956262D02*
D03*
X2836478Y1357884D02*
D03*
X2766262Y1387348D02*
D03*
X2756262D02*
D03*
X2786424Y1357938D02*
D03*
X2896478Y1357884D02*
D03*
X3017393Y1373886D02*
D03*
X3030347D02*
D03*
X3043301D02*
D03*
X3010916Y1365504D02*
D03*
X3023870D02*
D03*
X3036824D02*
D03*
X2951478Y1357884D02*
D03*
X2942334D02*
D03*
X2930144Y1357376D02*
D03*
X2660650Y1388364D02*
D03*
X2654300Y1380744D02*
D03*
X2951750Y1192034D02*
D03*
X2958084Y1198372D02*
D03*
X3010916Y1210564D02*
D03*
X3017520Y1253490D02*
D03*
X3023870Y1247140D02*
D03*
X3030220Y1235202D02*
D03*
X3037134Y1278268D02*
D03*
X2936240Y1186180D02*
D03*
X3043682Y1180338D02*
D03*
X2929890Y1259840D02*
D03*
X2907030Y1235202D02*
D03*
X2896616Y1277874D02*
D03*
X2886456Y1290320D02*
D03*
X2836418Y1283970D02*
D03*
X2855073Y1321144D02*
D03*
X2874772Y1302766D02*
D03*
X2786380Y1271778D02*
D03*
X2733040Y1265682D02*
D03*
X2761488Y1223010D02*
D03*
X2768346Y1204468D02*
D03*
X2661158Y1229106D02*
D03*
X2654046Y1296162D02*
D03*
X2726436Y1216660D02*
D03*
X2761478Y1357884D02*
D03*
X2867660D02*
D03*
X2971316Y2049242D02*
D03*
Y2037507D02*
D03*
Y2025773D02*
D03*
Y2014039D02*
D03*
X2961365Y2007753D02*
D03*
Y2031615D02*
D03*
Y2043349D02*
D03*
Y2019881D02*
D03*
X1751584Y1824736D02*
D03*
X1759458Y1818640D02*
D03*
X1797745Y1789363D02*
D03*
X2305643Y2068576D02*
D03*
X2206498Y1472184D02*
D03*
X2219960Y2429002D02*
D03*
X1869525Y1164082D02*
D03*
X2181352Y1630426D02*
D03*
X2861262Y1387348D02*
D03*
X2871262D02*
D03*
X3049778Y1365504D02*
D03*
Y1173988D02*
D03*
X2731262Y1387348D02*
D03*
X2178558Y1645666D02*
D03*
X2109216Y1494028D02*
D03*
X2288286Y2198370D02*
D03*
X2317496Y1972818D02*
D03*
X2329053Y1997202D02*
D03*
X2334768Y2022094D02*
D03*
X2358644Y1981454D02*
D03*
X2363978Y2006346D02*
D03*
X2294382Y2124710D02*
D03*
X2300478Y2098040D02*
D03*
X2267966Y2276602D02*
D03*
X2249678Y2327656D02*
D03*
X2243836Y2352548D02*
D03*
X2232194Y2396024D02*
D03*
X2226310Y2403602D02*
D03*
X2443734Y2413254D02*
D03*
X2427732Y2335530D02*
D03*
X2434082Y2346198D02*
D03*
X2369820Y2082292D02*
D03*
X2867660Y1308862D02*
D03*
X2861425Y1314837D02*
D03*
X2438654Y2386584D02*
D03*
X2854960Y1357884D02*
D03*
X2886478D02*
D03*
X2451862Y2423922D02*
D03*
D127*
X990600Y833120D02*
G03*
X1010920Y812800I20320J0D01*
G01*
X3789680D02*
G03*
X3810000Y833120I0J20320D01*
G01*
X3810000Y2824480D02*
G03*
X3789680Y2844800I-20320J0D01*
G01*
X1010920D02*
G03*
X990600Y2824480I0J-20320D01*
G01*
X1010920Y812800D02*
X3789680D01*
X3810000Y833120D02*
X3810000Y2824480D01*
X1010920Y2844800D02*
X3789680D01*
X990600Y2824480D02*
X990600Y833120D01*
D128*
X1662938Y1240028D02*
D03*
Y1214628D02*
D03*
X3389122Y976630D02*
D03*
X3414522D02*
D03*
X3439922D02*
D03*
X3465322D02*
D03*
X3490722D02*
D03*
X3516122D02*
D03*
X3541522D02*
D03*
X3566922D02*
D03*
X3351022Y1372870D02*
D03*
X3376422D02*
D03*
X3401822D02*
D03*
X3427222D02*
D03*
X3452622D02*
D03*
X3478022D02*
D03*
X3503422D02*
D03*
X3528822D02*
D03*
X3554222D02*
D03*
X3579622D02*
D03*
X3606292D02*
D03*
X3365246Y1448054D02*
D03*
X3390646D02*
D03*
X3416046D02*
D03*
X3441446D02*
D03*
X3466846D02*
D03*
X3492246D02*
D03*
X3517646D02*
D03*
X3543046D02*
D03*
X3568446D02*
D03*
X3593846D02*
D03*
X1624076Y1214628D02*
D03*
X2681732Y2501138D02*
D03*
X2707132D02*
D03*
X2732532D02*
D03*
X1371600Y1036320D02*
D03*
Y1061720D02*
D03*
X1397000Y1036320D02*
D03*
Y1061720D02*
D03*
X1422400Y1036320D02*
D03*
Y1061720D02*
D03*
X1447800Y1036320D02*
D03*
Y1061720D02*
D03*
X1473200Y1036320D02*
D03*
Y1061720D02*
D03*
X1498600Y1036320D02*
D03*
Y1061720D02*
D03*
X1524000Y1036320D02*
D03*
Y1061720D02*
D03*
X1549400Y1036320D02*
D03*
Y1061720D02*
D03*
X1574800Y1036320D02*
D03*
Y1061720D02*
D03*
X1600200Y1036320D02*
D03*
Y1061720D02*
D03*
X1625600Y1036320D02*
D03*
Y1061720D02*
D03*
X1651000Y1036320D02*
D03*
Y1061720D02*
D03*
X1676400Y1036320D02*
D03*
Y1061720D02*
D03*
X1701800Y1036320D02*
D03*
Y1061720D02*
D03*
X1727200Y1036320D02*
D03*
Y1061720D02*
D03*
X1752600Y1036320D02*
D03*
Y1061720D02*
D03*
X1778000Y1036320D02*
D03*
Y1061720D02*
D03*
X1803400Y1036320D02*
D03*
Y1061720D02*
D03*
X1828800Y1036320D02*
D03*
Y1061720D02*
D03*
X1854200Y1036320D02*
D03*
Y1061720D02*
D03*
X1371600Y889000D02*
D03*
Y914400D02*
D03*
X1397000Y889000D02*
D03*
Y914400D02*
D03*
X1422400Y889000D02*
D03*
Y914400D02*
D03*
X1447800Y889000D02*
D03*
Y914400D02*
D03*
X1473200Y889000D02*
D03*
Y914400D02*
D03*
X1498600Y889000D02*
D03*
Y914400D02*
D03*
X1524000Y889000D02*
D03*
Y914400D02*
D03*
X1549400Y889000D02*
D03*
Y914400D02*
D03*
X1574800Y889000D02*
D03*
Y914400D02*
D03*
X1600200Y889000D02*
D03*
Y914400D02*
D03*
X1625600Y889000D02*
D03*
Y914400D02*
D03*
X1651000Y889000D02*
D03*
Y914400D02*
D03*
X1676400Y889000D02*
D03*
Y914400D02*
D03*
X1701800Y889000D02*
D03*
Y914400D02*
D03*
X1727200Y889000D02*
D03*
Y914400D02*
D03*
X1752600Y889000D02*
D03*
Y914400D02*
D03*
X1778000Y889000D02*
D03*
Y914400D02*
D03*
X1803400Y889000D02*
D03*
Y914400D02*
D03*
X1828800Y889000D02*
D03*
Y914400D02*
D03*
X1854200Y889000D02*
D03*
Y914400D02*
D03*
X2778252Y2380488D02*
D03*
Y2355088D02*
D03*
X2803652D02*
D03*
Y2380488D02*
D03*
X1249172Y938276D02*
D03*
Y963676D02*
D03*
Y989076D02*
D03*
D129*
X1117600Y1422400D02*
D03*
Y1447800D02*
D03*
Y1498600D02*
D03*
Y1524000D02*
D03*
Y1549400D02*
D03*
Y1574800D02*
D03*
Y1600200D02*
D03*
Y1625600D02*
D03*
Y1651000D02*
D03*
Y1676400D02*
D03*
Y1701800D02*
D03*
Y1727200D02*
D03*
Y1752600D02*
D03*
Y1778000D02*
D03*
Y1803400D02*
D03*
Y1828800D02*
D03*
Y1854200D02*
D03*
X1168400Y1422400D02*
D03*
Y1447800D02*
D03*
Y1473200D02*
D03*
Y1498600D02*
D03*
Y1524000D02*
D03*
Y1549400D02*
D03*
Y1574800D02*
D03*
Y1600200D02*
D03*
Y1625600D02*
D03*
Y1651000D02*
D03*
Y1676400D02*
D03*
Y1701800D02*
D03*
Y1727200D02*
D03*
Y1752600D02*
D03*
Y1778000D02*
D03*
Y1803400D02*
D03*
Y1828800D02*
D03*
Y1854200D02*
D03*
Y2717800D02*
D03*
Y2692400D02*
D03*
Y2667000D02*
D03*
Y2641600D02*
D03*
Y2616200D02*
D03*
Y2590800D02*
D03*
Y2565400D02*
D03*
Y2540000D02*
D03*
Y2514600D02*
D03*
Y2489200D02*
D03*
Y2463800D02*
D03*
Y2438400D02*
D03*
Y2413000D02*
D03*
Y2387600D02*
D03*
Y2362200D02*
D03*
Y2336800D02*
D03*
Y2311400D02*
D03*
Y2286000D02*
D03*
Y2260600D02*
D03*
Y2235200D02*
D03*
Y2209800D02*
D03*
Y2184400D02*
D03*
Y2159000D02*
D03*
Y2133600D02*
D03*
Y2108200D02*
D03*
Y2082800D02*
D03*
Y2057400D02*
D03*
Y2032000D02*
D03*
Y2006600D02*
D03*
Y1981200D02*
D03*
Y1955800D02*
D03*
X1117600Y2717800D02*
D03*
Y2692400D02*
D03*
Y2641600D02*
D03*
Y2616200D02*
D03*
Y2590800D02*
D03*
Y2565400D02*
D03*
Y2540000D02*
D03*
Y2489200D02*
D03*
Y2463800D02*
D03*
Y2438400D02*
D03*
Y2413000D02*
D03*
Y2387600D02*
D03*
Y2362200D02*
D03*
Y2336800D02*
D03*
Y2311400D02*
D03*
Y2286000D02*
D03*
Y2260600D02*
D03*
Y2235200D02*
D03*
Y2209800D02*
D03*
Y2184400D02*
D03*
Y2159000D02*
D03*
Y2133600D02*
D03*
Y2108200D02*
D03*
Y2082800D02*
D03*
Y2057400D02*
D03*
Y2032000D02*
D03*
Y1981200D02*
D03*
Y1955800D02*
D03*
X1524000Y1422400D02*
D03*
Y1447800D02*
D03*
Y1498600D02*
D03*
Y1524000D02*
D03*
Y1549400D02*
D03*
Y1574800D02*
D03*
Y1600200D02*
D03*
Y1625600D02*
D03*
Y1651000D02*
D03*
Y1676400D02*
D03*
Y1701800D02*
D03*
Y1727200D02*
D03*
Y1752600D02*
D03*
Y1778000D02*
D03*
Y1803400D02*
D03*
Y1828800D02*
D03*
Y1854200D02*
D03*
X1574800Y1422400D02*
D03*
Y1447800D02*
D03*
Y1473200D02*
D03*
Y1498600D02*
D03*
Y1524000D02*
D03*
Y1549400D02*
D03*
Y1574800D02*
D03*
Y1600200D02*
D03*
Y1625600D02*
D03*
Y1651000D02*
D03*
Y1676400D02*
D03*
Y1701800D02*
D03*
Y1727200D02*
D03*
Y1752600D02*
D03*
Y1778000D02*
D03*
Y1803400D02*
D03*
Y1828800D02*
D03*
Y1854200D02*
D03*
Y2717800D02*
D03*
Y2692400D02*
D03*
Y2667000D02*
D03*
Y2641600D02*
D03*
Y2616200D02*
D03*
Y2590800D02*
D03*
Y2565400D02*
D03*
Y2540000D02*
D03*
Y2514600D02*
D03*
Y2489200D02*
D03*
Y2463800D02*
D03*
Y2438400D02*
D03*
Y2413000D02*
D03*
Y2387600D02*
D03*
Y2362200D02*
D03*
Y2336800D02*
D03*
Y2311400D02*
D03*
Y2286000D02*
D03*
Y2260600D02*
D03*
Y2235200D02*
D03*
Y2209800D02*
D03*
Y2184400D02*
D03*
Y2159000D02*
D03*
Y2133600D02*
D03*
Y2108200D02*
D03*
Y2082800D02*
D03*
Y2057400D02*
D03*
Y2032000D02*
D03*
Y2006600D02*
D03*
Y1981200D02*
D03*
Y1955800D02*
D03*
X1524000Y2717800D02*
D03*
Y2692400D02*
D03*
Y2641600D02*
D03*
Y2616200D02*
D03*
Y2590800D02*
D03*
Y2540000D02*
D03*
Y2489200D02*
D03*
Y2463800D02*
D03*
Y2438400D02*
D03*
Y2413000D02*
D03*
Y2387600D02*
D03*
Y2362200D02*
D03*
Y2336800D02*
D03*
Y2311400D02*
D03*
Y2286000D02*
D03*
Y2260600D02*
D03*
Y2235200D02*
D03*
Y2209800D02*
D03*
Y2184400D02*
D03*
Y2159000D02*
D03*
Y2133600D02*
D03*
Y2108200D02*
D03*
Y2082800D02*
D03*
Y2057400D02*
D03*
Y2032000D02*
D03*
Y1981200D02*
D03*
Y1955800D02*
D03*
X3134360Y1739900D02*
D03*
X3159760Y1752600D02*
D03*
X3134360Y1765300D02*
D03*
X3159760Y1778000D02*
D03*
X3134360Y1790700D02*
D03*
X3159760Y1803400D02*
D03*
X3134360Y1816100D02*
D03*
X3159760Y1828800D02*
D03*
X3134360Y1841500D02*
D03*
X3159760Y1854200D02*
D03*
X3134360Y1866900D02*
D03*
X3159760Y1879600D02*
D03*
X3134360Y1892300D02*
D03*
Y1917700D02*
D03*
X3159760Y1930400D02*
D03*
X3134360Y1943100D02*
D03*
X3159760Y1955800D02*
D03*
X3134360Y1968500D02*
D03*
X3159760Y1981200D02*
D03*
X3134360Y1993900D02*
D03*
X3159760Y2006600D02*
D03*
X3134360Y2019300D02*
D03*
X3159760Y2032000D02*
D03*
X3134360Y2044700D02*
D03*
X3159760Y2057400D02*
D03*
X3134360Y2070100D02*
D03*
X3159760Y2082800D02*
D03*
X3134360Y2095500D02*
D03*
X3159760Y2108200D02*
D03*
X3134360Y2120900D02*
D03*
X3159760Y2133600D02*
D03*
X3134360Y2146300D02*
D03*
X3159760Y2159000D02*
D03*
X3134360Y2171700D02*
D03*
X3159760Y2184400D02*
D03*
X3134360Y2247900D02*
D03*
X3159760Y2260600D02*
D03*
X3134360Y2273300D02*
D03*
X3159760Y2286000D02*
D03*
X3134360Y2298700D02*
D03*
X3159760Y2311400D02*
D03*
Y2336800D02*
D03*
X3134360Y2349500D02*
D03*
X3159760Y2362200D02*
D03*
X3134360Y2374900D02*
D03*
X3159760Y2387600D02*
D03*
X3134360Y2400300D02*
D03*
X3159760Y2413000D02*
D03*
X3134360Y2425700D02*
D03*
X3159760Y2438400D02*
D03*
X3134360Y2451100D02*
D03*
X3159760Y2463800D02*
D03*
X3134360Y2476500D02*
D03*
X3159760Y2489200D02*
D03*
X3134360Y2501900D02*
D03*
X3159760Y2514600D02*
D03*
X3134360Y2527300D02*
D03*
X3159760Y2540000D02*
D03*
X3134360Y2552700D02*
D03*
X3159760Y2565400D02*
D03*
Y2590800D02*
D03*
X3134360Y2603500D02*
D03*
X3159760Y2616200D02*
D03*
X3134360Y2628900D02*
D03*
X3159760Y2641600D02*
D03*
X3134360Y2654300D02*
D03*
X3159760Y2667000D02*
D03*
X3134360Y2679700D02*
D03*
X3159760Y2692400D02*
D03*
X3307080Y1739900D02*
D03*
X3332480Y1752600D02*
D03*
X3307080Y1765300D02*
D03*
X3332480Y1778000D02*
D03*
X3307080Y1790700D02*
D03*
X3332480Y1803400D02*
D03*
X3307080Y1816100D02*
D03*
X3332480Y1828800D02*
D03*
X3307080Y1841500D02*
D03*
X3332480Y1854200D02*
D03*
X3307080Y1866900D02*
D03*
X3332480Y1879600D02*
D03*
X3307080Y1892300D02*
D03*
Y1917700D02*
D03*
X3332480Y1930400D02*
D03*
X3307080Y1943100D02*
D03*
X3332480Y1955800D02*
D03*
X3307080Y1968500D02*
D03*
X3332480Y1981200D02*
D03*
X3307080Y1993900D02*
D03*
X3332480Y2006600D02*
D03*
X3307080Y2019300D02*
D03*
X3332480Y2032000D02*
D03*
X3307080Y2044700D02*
D03*
X3332480Y2057400D02*
D03*
X3307080Y2070100D02*
D03*
X3332480Y2082800D02*
D03*
X3307080Y2095500D02*
D03*
X3332480Y2108200D02*
D03*
X3307080Y2120900D02*
D03*
X3332480Y2133600D02*
D03*
X3307080Y2146300D02*
D03*
X3332480Y2159000D02*
D03*
X3307080Y2171700D02*
D03*
X3332480Y2184400D02*
D03*
X3307080Y2247900D02*
D03*
X3332480Y2260600D02*
D03*
X3307080Y2273300D02*
D03*
X3332480Y2286000D02*
D03*
X3307080Y2298700D02*
D03*
X3332480Y2311400D02*
D03*
Y2336800D02*
D03*
X3307080Y2349500D02*
D03*
X3332480Y2362200D02*
D03*
X3307080Y2374900D02*
D03*
X3332480Y2387600D02*
D03*
X3307080Y2400300D02*
D03*
X3332480Y2413000D02*
D03*
X3307080Y2425700D02*
D03*
X3332480Y2438400D02*
D03*
X3307080Y2451100D02*
D03*
X3332480Y2463800D02*
D03*
X3307080Y2476500D02*
D03*
X3332480Y2489200D02*
D03*
X3307080Y2501900D02*
D03*
X3332480Y2514600D02*
D03*
X3307080Y2527300D02*
D03*
X3332480Y2540000D02*
D03*
X3307080Y2552700D02*
D03*
X3332480Y2565400D02*
D03*
Y2590800D02*
D03*
X3307080Y2603500D02*
D03*
X3332480Y2616200D02*
D03*
X3307080Y2628900D02*
D03*
X3332480Y2641600D02*
D03*
X3307080Y2654300D02*
D03*
X3332480Y2667000D02*
D03*
X3307080Y2679700D02*
D03*
X3332480Y2692400D02*
D03*
X3418840D02*
D03*
X3393440Y2679700D02*
D03*
X3418840Y2667000D02*
D03*
X3393440Y2654300D02*
D03*
X3418840Y2641600D02*
D03*
X3393440Y2628900D02*
D03*
X3418840Y2616200D02*
D03*
X3393440Y2603500D02*
D03*
X3418840Y2590800D02*
D03*
Y2565400D02*
D03*
X3393440Y2552700D02*
D03*
X3418840Y2540000D02*
D03*
X3393440Y2527300D02*
D03*
X3418840Y2514600D02*
D03*
X3393440Y2501900D02*
D03*
X3418840Y2489200D02*
D03*
X3393440Y2476500D02*
D03*
X3418840Y2463800D02*
D03*
X3393440Y2451100D02*
D03*
X3418840Y2438400D02*
D03*
X3393440Y2425700D02*
D03*
X3418840Y2413000D02*
D03*
X3393440Y2400300D02*
D03*
X3418840Y2387600D02*
D03*
X3393440Y2374900D02*
D03*
X3418840Y2362200D02*
D03*
X3393440Y2349500D02*
D03*
X3418840Y2336800D02*
D03*
Y2311400D02*
D03*
X3393440Y2298700D02*
D03*
X3418840Y2286000D02*
D03*
X3393440Y2273300D02*
D03*
X3418840Y2260600D02*
D03*
X3393440Y2247900D02*
D03*
X3418840Y2184400D02*
D03*
X3393440Y2171700D02*
D03*
X3418840Y2159000D02*
D03*
X3393440Y2146300D02*
D03*
X3418840Y2133600D02*
D03*
X3393440Y2120900D02*
D03*
X3418840Y2108200D02*
D03*
X3393440Y2095500D02*
D03*
X3418840Y2082800D02*
D03*
X3393440Y2070100D02*
D03*
X3418840Y2057400D02*
D03*
X3393440Y2044700D02*
D03*
X3418840Y2032000D02*
D03*
X3393440Y2019300D02*
D03*
X3418840Y2006600D02*
D03*
X3393440Y1993900D02*
D03*
X3418840Y1981200D02*
D03*
X3393440Y1968500D02*
D03*
X3418840Y1955800D02*
D03*
X3393440Y1943100D02*
D03*
X3418840Y1930400D02*
D03*
X3393440Y1917700D02*
D03*
Y1892300D02*
D03*
X3418840Y1879600D02*
D03*
X3393440Y1866900D02*
D03*
X3418840Y1854200D02*
D03*
X3393440Y1841500D02*
D03*
X3418840Y1828800D02*
D03*
X3393440Y1816100D02*
D03*
X3418840Y1803400D02*
D03*
X3393440Y1790700D02*
D03*
X3418840Y1778000D02*
D03*
X3393440Y1765300D02*
D03*
X3418840Y1752600D02*
D03*
X3393440Y1739900D02*
D03*
X1320800Y1955800D02*
D03*
Y1981200D02*
D03*
Y2032000D02*
D03*
Y2057400D02*
D03*
Y2082800D02*
D03*
Y2108200D02*
D03*
Y2133600D02*
D03*
Y2159000D02*
D03*
Y2184400D02*
D03*
Y2209800D02*
D03*
Y2235200D02*
D03*
Y2260600D02*
D03*
Y2286000D02*
D03*
Y2311400D02*
D03*
Y2336800D02*
D03*
Y2362200D02*
D03*
Y2387600D02*
D03*
Y2413000D02*
D03*
Y2438400D02*
D03*
Y2463800D02*
D03*
Y2489200D02*
D03*
Y2540000D02*
D03*
Y2565400D02*
D03*
Y2590800D02*
D03*
Y2616200D02*
D03*
Y2641600D02*
D03*
Y2692400D02*
D03*
Y2717800D02*
D03*
X1371600Y1955800D02*
D03*
Y1981200D02*
D03*
Y2006600D02*
D03*
Y2032000D02*
D03*
Y2057400D02*
D03*
Y2082800D02*
D03*
Y2108200D02*
D03*
Y2133600D02*
D03*
Y2159000D02*
D03*
Y2184400D02*
D03*
Y2209800D02*
D03*
Y2235200D02*
D03*
Y2260600D02*
D03*
Y2286000D02*
D03*
Y2311400D02*
D03*
Y2336800D02*
D03*
Y2362200D02*
D03*
Y2387600D02*
D03*
Y2413000D02*
D03*
Y2438400D02*
D03*
Y2463800D02*
D03*
Y2489200D02*
D03*
Y2514600D02*
D03*
Y2540000D02*
D03*
Y2565400D02*
D03*
Y2590800D02*
D03*
Y2616200D02*
D03*
Y2641600D02*
D03*
Y2667000D02*
D03*
Y2692400D02*
D03*
Y2717800D02*
D03*
Y1854200D02*
D03*
Y1828800D02*
D03*
Y1803400D02*
D03*
Y1778000D02*
D03*
Y1752600D02*
D03*
Y1727200D02*
D03*
Y1701800D02*
D03*
Y1676400D02*
D03*
Y1651000D02*
D03*
Y1625600D02*
D03*
Y1600200D02*
D03*
Y1574800D02*
D03*
Y1549400D02*
D03*
Y1524000D02*
D03*
Y1498600D02*
D03*
Y1473200D02*
D03*
Y1447800D02*
D03*
Y1422400D02*
D03*
X1320800Y1854200D02*
D03*
Y1828800D02*
D03*
Y1803400D02*
D03*
Y1778000D02*
D03*
Y1752600D02*
D03*
Y1727200D02*
D03*
Y1701800D02*
D03*
Y1676400D02*
D03*
Y1651000D02*
D03*
Y1625600D02*
D03*
Y1600200D02*
D03*
Y1574800D02*
D03*
Y1549400D02*
D03*
Y1524000D02*
D03*
Y1498600D02*
D03*
Y1447800D02*
D03*
Y1422400D02*
D03*
X3752850Y1181100D02*
D03*
X3732530D02*
D03*
X3781100Y2597950D02*
D03*
Y2622950D02*
D03*
Y2647950D02*
D03*
X3721100D02*
D03*
Y2622950D02*
D03*
Y2597950D02*
D03*
X2327402Y988568D02*
D03*
X3246120Y2692400D02*
D03*
X3220720Y2679700D02*
D03*
X3246120Y2667000D02*
D03*
X3220720Y2654300D02*
D03*
X3246120Y2641600D02*
D03*
X3220720Y2628900D02*
D03*
X3246120Y2616200D02*
D03*
X3220720Y2603500D02*
D03*
X3246120Y2590800D02*
D03*
Y2565400D02*
D03*
X3220720Y2552700D02*
D03*
X3246120Y2540000D02*
D03*
X3220720Y2527300D02*
D03*
X3246120Y2514600D02*
D03*
X3220720Y2501900D02*
D03*
X3246120Y2489200D02*
D03*
X3220720Y2476500D02*
D03*
X3246120Y2463800D02*
D03*
X3220720Y2451100D02*
D03*
X3246120Y2438400D02*
D03*
X3220720Y2425700D02*
D03*
X3246120Y2413000D02*
D03*
X3220720Y2400300D02*
D03*
X3246120Y2387600D02*
D03*
X3220720Y2374900D02*
D03*
X3246120Y2362200D02*
D03*
X3220720Y2349500D02*
D03*
X3246120Y2336800D02*
D03*
Y2311400D02*
D03*
X3220720Y2298700D02*
D03*
X3246120Y2286000D02*
D03*
X3220720Y2273300D02*
D03*
X3246120Y2260600D02*
D03*
X3220720Y2247900D02*
D03*
X3246120Y2184400D02*
D03*
X3220720Y2171700D02*
D03*
X3246120Y2159000D02*
D03*
X3220720Y2146300D02*
D03*
X3246120Y2133600D02*
D03*
X3220720Y2120900D02*
D03*
X3246120Y2108200D02*
D03*
X3220720Y2095500D02*
D03*
X3246120Y2082800D02*
D03*
X3220720Y2070100D02*
D03*
X3246120Y2057400D02*
D03*
X3220720Y2044700D02*
D03*
X3246120Y2032000D02*
D03*
X3220720Y2019300D02*
D03*
X3246120Y2006600D02*
D03*
X3220720Y1993900D02*
D03*
X3246120Y1981200D02*
D03*
X3220720Y1968500D02*
D03*
X3246120Y1955800D02*
D03*
X3220720Y1943100D02*
D03*
X3246120Y1930400D02*
D03*
X3220720Y1917700D02*
D03*
Y1892300D02*
D03*
X3246120Y1879600D02*
D03*
X3220720Y1866900D02*
D03*
X3246120Y1854200D02*
D03*
X3220720Y1841500D02*
D03*
X3246120Y1828800D02*
D03*
X3220720Y1816100D02*
D03*
X3246120Y1803400D02*
D03*
X3220720Y1790700D02*
D03*
X3246120Y1778000D02*
D03*
X3220720Y1765300D02*
D03*
X3246120Y1752600D02*
D03*
X3220720Y1739900D02*
D03*
X2208276Y1076706D02*
D03*
Y976706D02*
D03*
X2242276Y1026706D02*
D03*
D130*
X1765300Y2063750D02*
D03*
Y2711450D02*
D03*
X1968500Y2063750D02*
D03*
Y2711450D02*
D03*
X2171700D02*
D03*
Y2063750D02*
D03*
D131*
X1727200Y1943100D02*
D03*
Y1968500D02*
D03*
X1752600Y1981200D02*
D03*
X1727200Y1993900D02*
D03*
X1752600Y2006600D02*
D03*
Y2032000D02*
D03*
X1727200Y2044700D02*
D03*
X1752600Y2082800D02*
D03*
X1727200Y2095500D02*
D03*
X1752600Y2108200D02*
D03*
X1727200Y2120900D02*
D03*
X1752600Y2133600D02*
D03*
X1727200Y2146300D02*
D03*
Y2171700D02*
D03*
Y2197100D02*
D03*
X1752600Y2209800D02*
D03*
X1727200Y2222500D02*
D03*
X1752600Y2235200D02*
D03*
Y2260600D02*
D03*
X1727200Y2273300D02*
D03*
X1752600Y2286000D02*
D03*
X1727200Y2298700D02*
D03*
Y2324100D02*
D03*
X1752600Y2336800D02*
D03*
X1727200Y2349500D02*
D03*
X1752600Y2362200D02*
D03*
X1727200Y2374900D02*
D03*
Y2400300D02*
D03*
X1752600Y2413000D02*
D03*
X1727200Y2425700D02*
D03*
X1752600Y2438400D02*
D03*
X1727200Y2451100D02*
D03*
Y2476500D02*
D03*
X1752600Y2489200D02*
D03*
X1727200Y2501900D02*
D03*
X1752600Y2514600D02*
D03*
X1727200Y2527300D02*
D03*
X1752600Y2540000D02*
D03*
X1727200Y2552700D02*
D03*
X1752600Y2565400D02*
D03*
X1727200Y2578100D02*
D03*
X1752600Y2590800D02*
D03*
X1727200Y2603500D02*
D03*
X1752600Y2616200D02*
D03*
X1727200Y2654300D02*
D03*
X1752600Y2667000D02*
D03*
X1727200Y2679700D02*
D03*
X1778000Y1943100D02*
D03*
Y1968500D02*
D03*
X1803400Y1981200D02*
D03*
X1778000Y1993900D02*
D03*
X1803400Y2006600D02*
D03*
X1778000Y2019300D02*
D03*
Y2044700D02*
D03*
X1803400Y2082800D02*
D03*
X1778000Y2095500D02*
D03*
X1803400Y2108200D02*
D03*
X1778000Y2120900D02*
D03*
Y2146300D02*
D03*
X1803400Y2159000D02*
D03*
X1778000Y2171700D02*
D03*
X1803400Y2184400D02*
D03*
X1778000Y2197100D02*
D03*
Y2222500D02*
D03*
X1803400Y2235200D02*
D03*
X1778000Y2247900D02*
D03*
X1803400Y2260600D02*
D03*
X1778000Y2273300D02*
D03*
Y2298700D02*
D03*
X1803400Y2311400D02*
D03*
X1778000Y2324100D02*
D03*
X1803400Y2336800D02*
D03*
X1778000Y2349500D02*
D03*
Y2374900D02*
D03*
X1803400Y2387600D02*
D03*
X1778000Y2400300D02*
D03*
X1803400Y2413000D02*
D03*
X1778000Y2425700D02*
D03*
Y2451100D02*
D03*
X1803400Y2463800D02*
D03*
X1778000Y2476500D02*
D03*
X1803400Y2489200D02*
D03*
Y2514600D02*
D03*
X1778000Y2527300D02*
D03*
X1803400Y2540000D02*
D03*
X1778000Y2552700D02*
D03*
X1803400Y2565400D02*
D03*
Y2590800D02*
D03*
Y2616200D02*
D03*
X1778000Y2628900D02*
D03*
Y2654300D02*
D03*
X1803400Y2667000D02*
D03*
Y2692400D02*
D03*
X1930400Y1943100D02*
D03*
Y1968500D02*
D03*
X1955800Y1981200D02*
D03*
X1930400Y1993900D02*
D03*
X1955800Y2006600D02*
D03*
Y2032000D02*
D03*
X1930400Y2044700D02*
D03*
X1955800Y2082800D02*
D03*
X1930400Y2095500D02*
D03*
X1955800Y2108200D02*
D03*
X1930400Y2120900D02*
D03*
X1955800Y2133600D02*
D03*
X1930400Y2146300D02*
D03*
Y2171700D02*
D03*
Y2197100D02*
D03*
X1955800Y2209800D02*
D03*
X1930400Y2222500D02*
D03*
X1955800Y2235200D02*
D03*
Y2260600D02*
D03*
X1930400Y2273300D02*
D03*
X1955800Y2286000D02*
D03*
X1930400Y2298700D02*
D03*
Y2324100D02*
D03*
X1955800Y2336800D02*
D03*
X1930400Y2349500D02*
D03*
X1955800Y2362200D02*
D03*
X1930400Y2374900D02*
D03*
Y2400300D02*
D03*
X1955800Y2413000D02*
D03*
X1930400Y2425700D02*
D03*
X1955800Y2438400D02*
D03*
X1930400Y2451100D02*
D03*
Y2476500D02*
D03*
X1955800Y2489200D02*
D03*
X1930400Y2501900D02*
D03*
X1955800Y2514600D02*
D03*
X1930400Y2527300D02*
D03*
X1955800Y2540000D02*
D03*
X1930400Y2552700D02*
D03*
X1955800Y2565400D02*
D03*
X1930400Y2578100D02*
D03*
X1955800Y2590800D02*
D03*
X1930400Y2603500D02*
D03*
X1955800Y2616200D02*
D03*
X1930400Y2654300D02*
D03*
X1955800Y2667000D02*
D03*
X1930400Y2679700D02*
D03*
X1981200Y1943100D02*
D03*
Y1968500D02*
D03*
X2006600Y1981200D02*
D03*
X1981200Y1993900D02*
D03*
X2006600Y2006600D02*
D03*
X1981200Y2019300D02*
D03*
Y2044700D02*
D03*
X2006600Y2082800D02*
D03*
X1981200Y2095500D02*
D03*
X2006600Y2108200D02*
D03*
X1981200Y2120900D02*
D03*
Y2146300D02*
D03*
X2006600Y2159000D02*
D03*
X1981200Y2171700D02*
D03*
X2006600Y2184400D02*
D03*
X1981200Y2197100D02*
D03*
Y2222500D02*
D03*
X2006600Y2235200D02*
D03*
X1981200Y2247900D02*
D03*
X2006600Y2260600D02*
D03*
X1981200Y2273300D02*
D03*
Y2298700D02*
D03*
X2006600Y2311400D02*
D03*
X1981200Y2324100D02*
D03*
X2006600Y2336800D02*
D03*
X1981200Y2349500D02*
D03*
Y2374900D02*
D03*
X2006600Y2387600D02*
D03*
X1981200Y2400300D02*
D03*
X2006600Y2413000D02*
D03*
X1981200Y2425700D02*
D03*
Y2451100D02*
D03*
X2006600Y2463800D02*
D03*
X1981200Y2476500D02*
D03*
X2006600Y2489200D02*
D03*
Y2514600D02*
D03*
X1981200Y2527300D02*
D03*
X2006600Y2540000D02*
D03*
X1981200Y2552700D02*
D03*
X2006600Y2565400D02*
D03*
Y2590800D02*
D03*
Y2616200D02*
D03*
X1981200Y2628900D02*
D03*
Y2654300D02*
D03*
X2006600Y2667000D02*
D03*
Y2692400D02*
D03*
X2209800D02*
D03*
Y2667000D02*
D03*
X2184400Y2654300D02*
D03*
Y2628900D02*
D03*
X2209800Y2616200D02*
D03*
Y2590800D02*
D03*
Y2565400D02*
D03*
X2184400Y2552700D02*
D03*
X2209800Y2540000D02*
D03*
X2184400Y2527300D02*
D03*
X2209800Y2514600D02*
D03*
Y2489200D02*
D03*
X2184400Y2476500D02*
D03*
X2209800Y2463800D02*
D03*
X2184400Y2451100D02*
D03*
Y2425700D02*
D03*
X2209800Y2413000D02*
D03*
X2184400Y2400300D02*
D03*
X2209800Y2387600D02*
D03*
X2184400Y2374900D02*
D03*
Y2349500D02*
D03*
X2209800Y2336800D02*
D03*
X2184400Y2324100D02*
D03*
X2209800Y2311400D02*
D03*
X2184400Y2298700D02*
D03*
Y2273300D02*
D03*
X2209800Y2260600D02*
D03*
X2184400Y2247900D02*
D03*
X2209800Y2235200D02*
D03*
X2184400Y2222500D02*
D03*
Y2197100D02*
D03*
X2209800Y2184400D02*
D03*
X2184400Y2171700D02*
D03*
X2209800Y2159000D02*
D03*
X2184400Y2146300D02*
D03*
Y2120900D02*
D03*
X2209800Y2108200D02*
D03*
X2184400Y2095500D02*
D03*
X2209800Y2082800D02*
D03*
X2184400Y2044700D02*
D03*
Y2019300D02*
D03*
X2209800Y2006600D02*
D03*
X2184400Y1993900D02*
D03*
X2209800Y1981200D02*
D03*
X2184400Y1968500D02*
D03*
Y1943100D02*
D03*
X2133600Y2679700D02*
D03*
X2159000Y2667000D02*
D03*
X2133600Y2654300D02*
D03*
X2159000Y2616200D02*
D03*
X2133600Y2603500D02*
D03*
X2159000Y2590800D02*
D03*
X2133600Y2578100D02*
D03*
X2159000Y2565400D02*
D03*
X2133600Y2552700D02*
D03*
X2159000Y2540000D02*
D03*
X2133600Y2527300D02*
D03*
X2159000Y2514600D02*
D03*
X2133600Y2501900D02*
D03*
X2159000Y2489200D02*
D03*
X2133600Y2476500D02*
D03*
Y2451100D02*
D03*
X2159000Y2438400D02*
D03*
X2133600Y2425700D02*
D03*
X2159000Y2413000D02*
D03*
X2133600Y2400300D02*
D03*
Y2374900D02*
D03*
X2159000Y2362200D02*
D03*
X2133600Y2349500D02*
D03*
X2159000Y2336800D02*
D03*
X2133600Y2324100D02*
D03*
Y2298700D02*
D03*
X2159000Y2286000D02*
D03*
X2133600Y2273300D02*
D03*
X2159000Y2260600D02*
D03*
Y2235200D02*
D03*
X2133600Y2222500D02*
D03*
X2159000Y2209800D02*
D03*
X2133600Y2197100D02*
D03*
Y2171700D02*
D03*
Y2146300D02*
D03*
X2159000Y2133600D02*
D03*
X2133600Y2120900D02*
D03*
X2159000Y2108200D02*
D03*
X2133600Y2095500D02*
D03*
X2159000Y2082800D02*
D03*
X2133600Y2044700D02*
D03*
X2159000Y2032000D02*
D03*
Y2006600D02*
D03*
X2133600Y1993900D02*
D03*
X2159000Y1981200D02*
D03*
X2133600Y1968500D02*
D03*
Y1943100D02*
D03*
D132*
X1132840Y1173480D02*
D03*
X1158240D02*
D03*
X1183640D02*
D03*
X1209040D02*
D03*
X1234440D02*
D03*
X1259840D02*
D03*
X1285240D02*
D03*
X1310640D02*
D03*
X1336040D02*
D03*
X1361440D02*
D03*
X1386840D02*
D03*
X1412240D02*
D03*
X1437640D02*
D03*
X1463040D02*
D03*
X1488440D02*
D03*
Y1325880D02*
D03*
X1463040D02*
D03*
X1437640D02*
D03*
X1412240D02*
D03*
X1386840D02*
D03*
X1361440D02*
D03*
X1336040D02*
D03*
X1310640D02*
D03*
X1285240D02*
D03*
X1259840D02*
D03*
X1234440D02*
D03*
X1209040D02*
D03*
X1183640D02*
D03*
X1132840D02*
D03*
D133*
X2010410Y1201580D02*
D03*
Y1221580D02*
D03*
D134*
X1803400Y1243076D02*
D03*
Y1268476D02*
D03*
Y1293876D02*
D03*
Y1319276D02*
D03*
Y1344676D02*
D03*
Y1370076D02*
D03*
Y1395476D02*
D03*
X1727200Y1243076D02*
D03*
Y1268476D02*
D03*
Y1293876D02*
D03*
Y1319276D02*
D03*
Y1344676D02*
D03*
Y1370076D02*
D03*
Y1395476D02*
D03*
Y1420876D02*
D03*
X1803400Y1558290D02*
D03*
Y1583690D02*
D03*
Y1609090D02*
D03*
Y1634490D02*
D03*
Y1659890D02*
D03*
Y1685290D02*
D03*
Y1710690D02*
D03*
X1727200Y1558290D02*
D03*
Y1583690D02*
D03*
Y1609090D02*
D03*
Y1634490D02*
D03*
Y1659890D02*
D03*
Y1685290D02*
D03*
Y1710690D02*
D03*
Y1736090D02*
D03*
X3744770Y1093388D02*
D03*
Y1049388D02*
D03*
D135*
X3709670Y1181100D02*
D03*
X3796030D02*
D03*
D137*
X3638550Y2768600D02*
D03*
Y2706370D02*
D03*
D138*
X3743960Y2713990D02*
D03*
X3769360D02*
D03*
D139*
X1122680Y942200D02*
D03*
Y1017200D02*
D03*
Y1092200D02*
D03*
X1145680Y967200D02*
D03*
Y1067200D02*
D03*
X1025680D02*
D03*
Y967200D02*
D03*
D140*
X2039366Y899668D02*
D03*
D141*
X3278886Y1569466D02*
D03*
X3304286D02*
D03*
X3329686D02*
D03*
D142*
X2540508Y864622D02*
D03*
Y1145622D02*
D03*
X3162808D02*
D03*
Y864622D02*
D03*
D143*
X3147060Y1655900D02*
D03*
X3319780D02*
D03*
X3406140D02*
D03*
X3233420D02*
D03*
D144*
X3147060Y2216150D02*
D03*
X3147060Y2776400D02*
D03*
X3319780Y2216150D02*
D03*
X3319780Y2776400D02*
D03*
X3406140D02*
D03*
X3406140Y2216150D02*
D03*
X3233420Y2776400D02*
D03*
X3233420Y2216150D02*
D03*
D145*
X2486859Y1546741D02*
D03*
X2447036Y1541018D02*
D03*
X2456942Y1531112D02*
D03*
X2439416Y1587161D02*
D03*
X2447036Y1592834D02*
D03*
X2439416Y1599184D02*
D03*
X2447036Y1580981D02*
D03*
Y1557274D02*
D03*
X2439416Y1575139D02*
D03*
X2447036Y1569127D02*
D03*
X2439416Y1563116D02*
D03*
X2439516Y1488282D02*
D03*
X2447136Y1482440D02*
D03*
X2439416Y1470914D02*
D03*
X2468971Y1100074D02*
D03*
X2401824Y1066292D02*
D03*
X2446528Y1060450D02*
D03*
X2451862Y1053084D02*
D03*
X2457704Y1045464D02*
D03*
X2356866Y1038352D02*
D03*
X2463292Y1032256D02*
D03*
X2362454Y1026855D02*
D03*
X2396236Y1020572D02*
D03*
X2367788Y1013714D02*
D03*
X2391039Y1007872D02*
D03*
X2378964Y990092D02*
D03*
X2385822Y996188D02*
D03*
X2373884Y1003046D02*
D03*
X2889250Y1750822D02*
D03*
X2825750D02*
D03*
X2839212D02*
D03*
X2851150D02*
D03*
X2863850D02*
D03*
X2876550D02*
D03*
X2901950D02*
D03*
X3090985Y1576596D02*
D03*
X3097154Y1570065D02*
D03*
X3103322Y1563533D02*
D03*
X3115564Y1567688D02*
D03*
X3109491Y1557002D02*
D03*
X3121406Y1554226D02*
D03*
X3201153Y1060131D02*
D03*
X3209027Y1050733D02*
D03*
Y960733D02*
D03*
X3201153Y950131D02*
D03*
X3161500Y1065090D02*
D03*
Y1055090D02*
D03*
Y1045090D02*
D03*
Y955090D02*
D03*
Y945090D02*
D03*
X3209036Y1071307D02*
D03*
X3201153Y1039557D02*
D03*
X3161500Y1034288D02*
D03*
X3208274Y932688D02*
D03*
X3161500Y1095090D02*
D03*
X3209290Y1088644D02*
D03*
X3162046Y1082802D02*
D03*
X2793494Y2138851D02*
D03*
X2745994Y2116582D02*
D03*
X2812965Y2133346D02*
D03*
X2806954Y2127504D02*
D03*
X2914142Y2293620D02*
D03*
X2908554Y2313178D02*
D03*
X2925318Y2331720D02*
D03*
X2902712Y2350262D02*
D03*
X2919730Y2446020D02*
D03*
X2961640Y2425700D02*
D03*
X2967228Y2400300D02*
D03*
X2973324Y2374900D02*
D03*
X2955544Y2438400D02*
D03*
X2897124Y2463038D02*
D03*
X2891790Y2480056D02*
D03*
X3161434Y1105122D02*
D03*
Y1115122D02*
D03*
X3201162Y1120140D02*
D03*
X2885694Y2497074D02*
D03*
X2880106Y2514346D02*
D03*
X2874518Y2531110D02*
D03*
X2868676Y2548128D02*
D03*
X2863040Y2564960D02*
D03*
X3161500Y1005090D02*
D03*
X3209027Y1010733D02*
D03*
X3161500Y1015090D02*
D03*
X3201162Y1022096D02*
D03*
X2997708Y2602230D02*
D03*
X3014218Y2628646D02*
D03*
X3028188Y2652268D02*
D03*
X3044190Y2677922D02*
D03*
X2439516Y1446875D02*
D03*
X2486406Y1054354D02*
D03*
X2439516Y1458898D02*
D03*
X2474976Y1089406D02*
D03*
X2447136Y1452887D02*
D03*
X2480796Y1079466D02*
D03*
X2447136Y1464486D02*
D03*
X2645918Y1475232D02*
D03*
X2653538Y1480566D02*
D03*
X2457467Y1476502D02*
D03*
X2660142Y1473962D02*
D03*
X2457450Y1425020D02*
D03*
X2609342Y1636014D02*
D03*
X2601440Y1643917D02*
D03*
X2422583Y1105069D02*
D03*
X2439516Y1512327D02*
D03*
X2644326Y1508291D02*
D03*
X2429764Y1094486D02*
D03*
X2447136Y1506147D02*
D03*
X2651252Y1502664D02*
D03*
X2435098Y1083564D02*
D03*
X2439516Y1500305D02*
D03*
X2692636Y1475214D02*
D03*
X2440940Y1072134D02*
D03*
X2447136Y1494293D02*
D03*
X2665984Y1480312D02*
D03*
X2418588Y984504D02*
D03*
X2447136Y1518000D02*
D03*
X2413254Y975614D02*
D03*
X2439516Y1524350D02*
D03*
X2486859Y1535565D02*
D03*
X2608439Y1627011D02*
D03*
X2617470Y1627886D02*
D03*
X2616567Y1618883D02*
D03*
X2721356Y1596644D02*
D03*
X2727535Y1602308D02*
D03*
X3001518Y1640840D02*
D03*
X2595788Y1452806D02*
D03*
X2600438Y1635012D02*
D03*
X2923794Y1647288D02*
D03*
X2949067Y1622015D02*
D03*
X2939669Y1620999D02*
D03*
X3150616Y1557274D02*
D03*
X3156458Y1544066D02*
D03*
X3185668Y1507080D02*
D03*
X2497328Y1126490D02*
D03*
X2474468Y1433830D02*
D03*
X2577338Y1434338D02*
D03*
X2491766Y1114534D02*
D03*
X2447136Y1441033D02*
D03*
X2583187Y1441739D02*
D03*
X3004820Y1856740D02*
D03*
X3017520Y1862582D02*
D03*
X3030220Y1869186D02*
D03*
X3055807Y1852237D02*
D03*
X3042920Y1851152D02*
D03*
X3068320Y1852168D02*
D03*
X2761234Y1865376D02*
D03*
X2748026Y1860804D02*
D03*
X2735326Y1858010D02*
D03*
X2722626Y1853692D02*
D03*
X2672080Y1853184D02*
D03*
X2842955Y1643059D02*
D03*
X2788158Y1641602D02*
D03*
X2787291Y1650371D02*
D03*
X2834386Y1643888D02*
D03*
X2825750Y1644396D02*
D03*
X2796286Y1649984D02*
D03*
X2804936Y1657364D02*
D03*
X2805828Y1648175D02*
D03*
X2966466Y1823720D02*
D03*
X2625471Y1619885D02*
D03*
X2734056Y1607962D02*
D03*
X3173730Y1590802D02*
D03*
X3184906Y1588770D02*
D03*
X2932303Y1638779D02*
D03*
X3180016Y1513303D02*
D03*
X2922778Y1637890D02*
D03*
X3163062Y1531972D02*
D03*
X2940431Y1630651D02*
D03*
X2931287Y1629381D02*
D03*
X2668061Y1668227D02*
D03*
X2678176Y1670050D02*
D03*
X2669808Y1678418D02*
D03*
X2482850Y1526794D02*
D03*
X2497582Y1539494D02*
D03*
X2697480Y1853692D02*
D03*
X2710434D02*
D03*
X2685288Y1865884D02*
D03*
X2813304Y1874774D02*
D03*
X2966720Y1875028D02*
D03*
X2800350Y1822450D02*
D03*
X2649220Y1750822D02*
D03*
X2850134Y1818738D02*
D03*
X2825242Y1819148D02*
D03*
X2837688Y1818992D02*
D03*
X2875661Y1818865D02*
D03*
X2862961D02*
D03*
X2888361D02*
D03*
X2913761D02*
D03*
X2901061D02*
D03*
X2991104Y1804924D02*
D03*
X2978658Y1811274D02*
D03*
X2954274Y1817624D02*
D03*
X3061970Y1801114D02*
D03*
X1704594Y2626614D02*
D03*
X1769604Y1817864D02*
D03*
X1770126Y1809242D02*
D03*
X1765808Y1801622D02*
D03*
X1766824Y1793240D02*
D03*
X1136435Y1613994D02*
D03*
X1558756Y2477199D02*
D03*
X1620012Y2477008D02*
D03*
X2108454Y1410716D02*
D03*
X2127250Y1409954D02*
D03*
X2413000Y1695958D02*
D03*
X2403602D02*
D03*
X2394204D02*
D03*
X2204720Y1709641D02*
D03*
X2253742Y1694942D02*
D03*
X2269363Y1492758D02*
D03*
X2278126D02*
D03*
X2260600D02*
D03*
X2146808Y1075944D02*
D03*
X2152904Y1088644D02*
D03*
X2161540D02*
D03*
X2742692Y2105152D02*
D03*
X2720340Y2099310D02*
D03*
X2706370Y2093722D02*
D03*
X2313432Y2055876D02*
D03*
X2320290Y2061464D02*
D03*
X2073402Y1310894D02*
D03*
X2139188Y983234D02*
D03*
X2084324Y1183132D02*
D03*
X2189734Y1260094D02*
D03*
X2206498Y1261364D02*
D03*
X2223008Y1255268D02*
D03*
X2216591Y1261177D02*
D03*
X2157476Y1434084D02*
D03*
X2199138Y1611884D02*
D03*
X2191512Y1606296D02*
D03*
X2206752Y1617980D02*
D03*
X2219198Y1633220D02*
D03*
X1849882Y1114298D02*
D03*
X2302002Y1550416D02*
D03*
X2294382Y1556004D02*
D03*
X2288540Y1544320D02*
D03*
X2306074Y1562092D02*
D03*
X2300224Y1568095D02*
D03*
X2317496Y1553972D02*
D03*
X2281682Y1532890D02*
D03*
X2205990Y1551178D02*
D03*
X1250632Y1074928D02*
D03*
X1250569Y1056640D02*
D03*
X2484120Y1683766D02*
D03*
Y1693672D02*
D03*
X1638300Y1122426D02*
D03*
X2008124Y1341374D02*
D03*
X2116328Y1424940D02*
D03*
X2130552Y1396492D02*
D03*
X2150872Y1426718D02*
D03*
X2077974Y1286764D02*
D03*
X2070608Y1281430D02*
D03*
X2066544Y1303274D02*
D03*
X2062988Y1275842D02*
D03*
X2140712Y1385062D02*
D03*
X2327910Y2395728D02*
D03*
X1937693Y1106165D02*
D03*
X2807208Y1167892D02*
D03*
X2161032Y1129030D02*
D03*
X2202434Y1119378D02*
D03*
Y1127760D02*
D03*
X2502968Y1110178D02*
D03*
X2104785Y1119519D02*
D03*
X3161500Y934930D02*
D03*
X3166364Y927354D02*
D03*
X3057652Y933958D02*
D03*
X3088640Y918972D02*
D03*
X3108960Y924560D02*
D03*
X3101340Y938530D02*
D03*
X3108452Y952500D02*
D03*
X2265426Y1746250D02*
D03*
X2715514Y2443226D02*
D03*
X2522220Y2104898D02*
D03*
X2636520Y2150872D02*
D03*
X2624074Y2093468D02*
D03*
X3207512Y900684D02*
D03*
X2960624Y1460246D02*
D03*
Y1451610D02*
D03*
X3477006Y1308608D02*
D03*
X3440938Y1350010D02*
D03*
X3416046Y1315720D02*
D03*
X3485388Y1211580D02*
D03*
X3477260Y1252220D02*
D03*
X3601339Y1021461D02*
D03*
X3601207Y1050646D02*
D03*
X3521484Y1061600D02*
D03*
X3550800Y1085600D02*
D03*
Y1069600D02*
D03*
X3479292Y1007618D02*
D03*
X2659888Y1860042D02*
D03*
X2715663Y1590492D02*
D03*
X2708656Y1563878D02*
D03*
X2702306Y1570228D02*
D03*
X2696624Y1585091D02*
D03*
X2812796Y1750822D02*
D03*
X2803906Y1750568D02*
D03*
X2963164Y1626870D02*
D03*
X2969006Y1633728D02*
D03*
X2494280Y969010D02*
D03*
X2250948Y1272286D02*
D03*
X2949194Y1162304D02*
D03*
X2442464Y1667764D02*
D03*
X2452116Y1674114D02*
D03*
X2265426Y1689608D02*
D03*
X2181352Y1541018D02*
D03*
X2275078Y2465832D02*
D03*
X2847086Y1735582D02*
D03*
X3078648Y1589659D02*
D03*
X3161500Y965090D02*
D03*
X3084817Y1583128D02*
D03*
X3201416Y972566D02*
D03*
X3161500Y985090D02*
D03*
X3057652Y1626870D02*
D03*
X3020568Y2362200D02*
D03*
X3209027Y990733D02*
D03*
X3047492Y1626108D02*
D03*
X3014472Y2387600D02*
D03*
X3161500Y995090D02*
D03*
X3036824Y1625346D02*
D03*
X3008630Y2413000D02*
D03*
X3201153Y1000131D02*
D03*
X3019044Y1634490D02*
D03*
X3003042Y2432050D02*
D03*
X2963926Y1425448D02*
D03*
X2589484Y1447282D02*
D03*
X2655824Y1578102D02*
D03*
X2685593Y1726438D02*
D03*
X2691892Y1732788D02*
D03*
X2679294Y1720088D02*
D03*
X2672842Y1713738D02*
D03*
X2666695Y1707388D02*
D03*
X2660396Y1701038D02*
D03*
X3211830Y1493774D02*
D03*
X3205480Y1500886D02*
D03*
X3168650Y1525725D02*
D03*
X3173730Y1518920D02*
D03*
X3010408Y1635784D02*
D03*
X2661891Y1686306D02*
D03*
X2659888Y1676400D02*
D03*
X2651252Y1685036D02*
D03*
X2638044Y1513840D02*
D03*
X2632117Y1519767D02*
D03*
X2602257Y1458144D02*
D03*
X2608133Y1464122D02*
D03*
X2614168Y1470152D02*
D03*
X2300224Y1534414D02*
D03*
X2242312Y1694942D02*
D03*
X2230628D02*
D03*
X2785110Y2122170D02*
D03*
X2756916Y2110740D02*
D03*
X3209036Y1110742D02*
D03*
X3201305Y1099979D02*
D03*
X2399792Y1103630D02*
D03*
D146*
X3665220Y1772158D02*
D03*
X3528822Y2405126D02*
D03*
X3670300Y2405634D02*
D03*
X3524250Y1791970D02*
D03*
D147*
X3653536Y1457960D02*
D03*
Y1443482D02*
D03*
X3668014D02*
D03*
Y1457960D02*
D03*
X3634486Y1847596D02*
D03*
Y1833118D02*
D03*
X3620008D02*
D03*
Y1847596D02*
D03*
X3665982Y2528824D02*
D03*
Y2514346D02*
D03*
X3651504D02*
D03*
Y2528824D02*
D03*
X3665728Y2558034D02*
D03*
Y2543556D02*
D03*
X3651250D02*
D03*
Y2558034D02*
D03*
X3627120Y2009394D02*
D03*
X3641598D02*
D03*
Y1994916D02*
D03*
X3627120D02*
D03*
X3655568Y1050290D02*
D03*
X3670046D02*
D03*
X3549396Y1579880D02*
D03*
X3563874D02*
D03*
X3549396Y1593596D02*
D03*
X3563874D02*
D03*
X3765042Y2455926D02*
D03*
X3750564Y2469642D02*
D03*
Y2455926D02*
D03*
X3765042Y2469642D02*
D03*
X3763772Y2187194D02*
D03*
Y2200910D02*
D03*
X3749294Y2187194D02*
D03*
Y2200910D02*
D03*
X3764534Y1860804D02*
D03*
X3750056D02*
D03*
X3764534Y1847088D02*
D03*
X3750056D02*
D03*
X3766058Y1613408D02*
D03*
X3751580Y1599692D02*
D03*
X3766058D02*
D03*
X3751580Y1613408D02*
D03*
X3764788Y1483614D02*
D03*
Y1469898D02*
D03*
X3750310D02*
D03*
Y1483614D02*
D03*
X3764788Y1423670D02*
D03*
Y1409954D02*
D03*
X3750310Y1423670D02*
D03*
Y1409954D02*
D03*
X3768598Y1305560D02*
D03*
Y1291844D02*
D03*
X3754120D02*
D03*
Y1305560D02*
D03*
X3776726Y997204D02*
D03*
X3762248Y983488D02*
D03*
Y997204D02*
D03*
X3776726Y983488D02*
D03*
X3495040Y2438654D02*
D03*
X3480562Y2424938D02*
D03*
Y2438654D02*
D03*
X3495040Y2424938D02*
D03*
X2773680Y2679700D02*
D03*
X2548128Y2638806D02*
D03*
X2503932Y2639314D02*
D03*
X2507996Y2544064D02*
D03*
X3554984Y2234184D02*
D03*
X3541268Y2248662D02*
D03*
X3554984D02*
D03*
X3541268Y2234184D02*
D03*
X3299460Y1613408D02*
D03*
Y1598930D02*
D03*
X3313938D02*
D03*
Y1613408D02*
D03*
X3329432D02*
D03*
Y1598930D02*
D03*
X3509772Y1795526D02*
D03*
X3531362Y1851914D02*
D03*
X3509772Y1783080D02*
D03*
D148*
X3567938Y1505966D02*
D03*
X3439414Y1008634D02*
D03*
X1919986Y1627632D02*
D03*
X2692903Y1660149D02*
D03*
X2455418Y1615948D02*
D03*
X3482853Y1543553D02*
D03*
X2139396Y1247394D02*
D03*
X2029808Y988922D02*
D03*
X2042795Y1024763D02*
D03*
X2144014Y1195832D02*
D03*
X2139861Y1234848D02*
D03*
X2067714Y1158329D02*
D03*
X1289464Y1056794D02*
D03*
X1062836Y1614081D02*
D03*
Y1680629D02*
D03*
Y2351951D02*
D03*
X1028292Y2611539D02*
D03*
X1027584Y2574379D02*
D03*
X1870362Y2644041D02*
D03*
X2072292Y2579016D02*
D03*
X1850236Y2426043D02*
D03*
X1849728Y2349335D02*
D03*
X1871472Y2316607D02*
D03*
X1862074Y2285746D02*
D03*
X1862996Y2210916D02*
D03*
X1868513Y2019962D02*
D03*
X2077289Y2018444D02*
D03*
X2052828Y2426970D02*
D03*
X2079846Y2395374D02*
D03*
X2062226Y2287778D02*
D03*
X2200756Y1686141D02*
D03*
X2190904Y1661833D02*
D03*
X2287943Y1456536D02*
D03*
X2723134Y1568450D02*
D03*
X2735237Y1552294D02*
D03*
X2735491Y1527148D02*
D03*
X2711428Y1406640D02*
D03*
X2779930Y1413167D02*
D03*
X2865374Y1417066D02*
D03*
X2941469Y1414437D02*
D03*
X2988795Y1381080D02*
D03*
X3166110Y1620012D02*
D03*
X3632350Y2383879D02*
D03*
X3578771Y2139088D02*
D03*
X3498826Y2176691D02*
D03*
X3479635Y2048356D02*
D03*
X3564039Y2035964D02*
D03*
X3622448Y1782666D02*
D03*
X3482429Y1555596D02*
D03*
X3581121Y1533801D02*
D03*
X3527646Y1179676D02*
D03*
X3555906Y1283870D02*
D03*
X3437039Y1045618D02*
D03*
X3454808Y1074077D02*
D03*
X3407818Y1078141D02*
D03*
X3470910Y1034034D02*
D03*
X2608934Y976033D02*
D03*
X2609242Y874357D02*
D03*
X2021486Y878243D02*
D03*
X2188564Y855815D02*
D03*
X2602484Y2507742D02*
D03*
X2643632Y2326391D02*
D03*
X2768092Y2248916D02*
D03*
X2590546Y2229607D02*
D03*
X2768156Y2442205D02*
D03*
X2729484Y2547366D02*
D03*
X2741676Y2547112D02*
D03*
X2622296Y1800352D02*
D03*
X2925572Y1765976D02*
D03*
X3069082Y1782572D02*
D03*
X2309622Y1029716D02*
D03*
X2131400Y1137412D02*
D03*
X2023110Y1568704D02*
D03*
X1901952Y1469390D02*
D03*
X2456688Y1411732D02*
D03*
X2444496Y1685290D02*
D03*
X2362962Y1690370D02*
D03*
X2205228Y1739646D02*
D03*
X2274824Y1682242D02*
D03*
X2176018Y1463294D02*
D03*
X2177288Y1530858D02*
D03*
X2091690Y1558798D02*
D03*
X2157311Y1740308D02*
D03*
X1958594Y1687576D02*
D03*
X2278380Y2578100D02*
D03*
X2266442Y2437638D02*
D03*
X2300732Y2208276D02*
D03*
X2304288Y2134108D02*
D03*
X2783840Y1882394D02*
D03*
X2936575Y1882264D02*
D03*
X2800604Y1716532D02*
D03*
X2813558Y1667256D02*
D03*
X2880868Y1697228D02*
D03*
X2914142Y1696212D02*
D03*
X2938709Y1697165D02*
D03*
X2971800Y1687068D02*
D03*
X3026918Y1627124D02*
D03*
X3006090Y1582420D02*
D03*
X3023362Y1538986D02*
D03*
X2923540Y1493520D02*
D03*
X2962910Y1412240D02*
D03*
X2960624Y1435862D02*
D03*
X2970784Y1372108D02*
D03*
X2917548Y1359119D02*
D03*
X2845562Y1352296D02*
D03*
X2804414Y1356868D02*
D03*
X2775712Y1357630D02*
D03*
X2746248Y1357122D02*
D03*
X2697734Y1375410D02*
D03*
X2678684Y1391920D02*
D03*
X2642362Y1447038D02*
D03*
X2785364Y1748028D02*
D03*
X3266186Y1453388D02*
D03*
X3182620Y1139698D02*
D03*
X3142810Y1133788D02*
D03*
X3124776Y1075368D02*
D03*
X3125030Y1025330D02*
D03*
X3125009Y974976D02*
D03*
X3121982Y931350D02*
D03*
X2576136Y1136582D02*
D03*
X2580962Y1050222D02*
D03*
X2581978Y980118D02*
D03*
X2592392Y969704D02*
D03*
X2582232Y960560D02*
D03*
X2539880Y932554D02*
D03*
X2541664Y892416D02*
D03*
X2485290Y864197D02*
D03*
X1108102Y1382184D02*
D03*
X1472792Y825584D02*
D03*
X2201672Y1221740D02*
D03*
D149*
X2709855Y1493132D02*
D03*
X2663051Y1520318D02*
D03*
X2695377Y1538598D02*
D03*
D150*
X1041400Y2794000D02*
D03*
X2286000Y863600D02*
D03*
Y2794000D02*
D03*
X3759200Y863600D02*
D03*
Y2794000D02*
D03*
X1041400Y863600D02*
D03*
D151*
X3591560Y2733040D02*
D03*
M02*
