%FSLAX44Y44*%
%MOMM*%
G71*
G01*
G75*
%ADD10C,0.2032*%
%ADD11R,0.9652X0.8890*%
%ADD12R,1.0160X0.9398*%
%ADD13R,1.0160X0.9400*%
%ADD14R,2.2098X1.9050*%
%ADD15R,0.9144X0.9144*%
%ADD16R,1.2700X0.9144*%
%ADD17R,0.8890X0.9652*%
%ADD18R,1.9050X2.2098*%
%ADD19R,0.9000X0.8000*%
%ADD20R,0.9398X1.0160*%
%ADD21R,0.9400X1.0160*%
%ADD22R,2.2000X0.3600*%
%ADD23R,3.0000X1.0000*%
%ADD24R,3.5000X1.0000*%
%ADD25R,4.0000X1.4000*%
%ADD26O,2.2000X0.6000*%
%ADD27R,3.2000X1.6500*%
%ADD28R,1.2000X1.2000*%
%ADD29R,1.6000X1.5000*%
%ADD30O,0.6000X2.2000*%
%ADD31R,1.0668X3.5560*%
%ADD32R,10.6680X8.8900*%
%ADD33R,3.8100X5.5880*%
%ADD34R,1.9050X0.5588*%
%ADD35R,2.2000X1.8000*%
%ADD36R,2.4000X0.4000*%
%ADD37R,0.5000X2.0000*%
%ADD38R,3.2000X1.6000*%
%ADD39R,6.0000X7.0000*%
%ADD40O,1.4500X0.5000*%
%ADD41O,0.5000X1.4500*%
%ADD42O,2.0320X0.5588*%
%ADD43O,1.4000X0.3000*%
%ADD44O,0.3000X1.4000*%
%ADD45R,0.9000X1.0000*%
%ADD46R,2.5000X1.8000*%
%ADD47R,2.2000X1.5000*%
%ADD48R,0.5588X1.9050*%
%ADD49C,0.1778*%
%ADD50C,0.2540*%
%ADD51C,0.7620*%
%ADD52C,0.5080*%
%ADD53C,1.2700*%
%ADD54C,0.3810*%
%ADD55C,0.7000*%
%ADD56C,0.8890*%
%ADD57C,0.6350*%
%ADD58C,0.3048*%
%ADD59R,6.8834X6.6294*%
%ADD60R,7.4168X2.9972*%
%ADD61R,3.9116X9.0424*%
%ADD62R,6.6294X4.3688*%
%ADD63R,2.2098X8.4836*%
%ADD64R,7.2390X2.3368*%
%ADD65R,7.5692X1.4224*%
%ADD66R,5.3086X2.3876*%
%ADD67R,6.4770X2.3876*%
%ADD68R,0.8492X4.9022*%
%ADD69R,1.1176X9.9060*%
%ADD70R,7.4930X2.5908*%
%ADD71R,6.6548X1.4732*%
%ADD72R,5.1816X1.4732*%
%ADD73R,3.2258X4.2672*%
%ADD74R,11.5824X3.8608*%
%ADD75R,9.6012X3.5814*%
%ADD76R,10.6426X2.4638*%
%ADD77R,4.2672X4.9530*%
%ADD78R,5.3086X3.6322*%
%ADD79R,2.2860X2.4638*%
%ADD80R,3.6322X5.3086*%
%ADD81R,6.7818X2.8702*%
%ADD82R,2.5654X7.4676*%
%ADD83R,7.3660X2.3876*%
%ADD84R,1.6256X4.7752*%
%ADD85R,4.2164X2.8956*%
%ADD86R,2.2606X6.3754*%
%ADD87C,5.0000*%
%ADD88C,1.7780*%
%ADD89O,1.6510X1.0160*%
%ADD90C,1.2700*%
%ADD91R,1.2700X1.2700*%
%ADD92O,1.7780X1.5240*%
%ADD93O,1.5240X1.7780*%
%ADD94C,1.0000*%
%ADD95C,2.4384*%
%ADD96R,1.3800X2.5000*%
%ADD97O,1.3800X2.5000*%
%ADD98C,0.5080*%
%ADD99C,1.5000*%
%ADD100R,1.5000X1.5000*%
%ADD101O,1.2700X1.0160*%
%ADD102C,1.3000*%
%ADD103O,1.0000X1.7000*%
%ADD104C,1.1430*%
%ADD105C,1.5240*%
%ADD106O,1.4000X3.8000*%
%ADD107O,3.8000X1.4000*%
%ADD108O,1.0160X1.6510*%
%ADD109C,1.3800*%
%ADD110C,2.5000*%
%ADD111C,1.5748*%
%ADD112R,1.5748X1.5748*%
%ADD113C,1.3970*%
%ADD114C,1.1000*%
%ADD115R,1.5240X1.5240*%
%ADD116O,3.0480X1.5240*%
%ADD117C,2.0320*%
%ADD118C,2.2000*%
%ADD119C,1.6000*%
%ADD120C,0.9000*%
%ADD121C,0.6604*%
%ADD122C,0.6858*%
%ADD123C,0.6350*%
%ADD124C,0.8636*%
%ADD125C,1.0160*%
%ADD126C,0.7112*%
%ADD127C,1.0160*%
%ADD128C,1.5080*%
%ADD129C,1.3080*%
%ADD130C,2.9464*%
%ADD131C,1.4478*%
%ADD132C,1.5080*%
%ADD133C,0.8128*%
%ADD134C,1.4080*%
%ADD135O,1.3080X2.0080*%
%ADD136C,1.3080*%
%ADD137O,3.7080X1.3080*%
%ADD138C,1.2080*%
%ADD139C,2.0080*%
%ADD140C,1.4732*%
%ADD141C,1.4986*%
%ADD142C,1.8080*%
%ADD143C,2.7080*%
%ADD144C,2.1080*%
%ADD145C,0.8382*%
%ADD146C,0.9652*%
%ADD147C,1.0668*%
%ADD148C,0.9398*%
%ADD149C,0.8890*%
%ADD150C,3.5080*%
%ADD151O,1.3080X3.7080*%
%ADD152R,0.9144X0.9144*%
%ADD153R,0.9144X1.2700*%
%ADD154R,1.3000X1.2000*%
%ADD155C,2.0000*%
%ADD156R,3.9116X4.4958*%
%ADD157R,2.8956X1.2700*%
%ADD158R,0.9652X1.9050*%
%ADD159R,2.2098X5.6134*%
%ADD160R,4.3688X2.6162*%
%ADD161C,0.1270*%
%ADD162C,0.2500*%
%ADD163C,0.3000*%
%ADD164C,0.2500*%
%ADD165C,0.2000*%
%ADD166C,0.1000*%
%ADD167C,0.2096*%
%ADD168C,0.1524*%
%ADD169C,0.1500*%
%ADD170C,0.2286*%
%ADD171R,1.9836X0.9960*%
%ADD172R,4.8436X1.4084*%
%ADD173R,4.1000X1.9000*%
%ADD174R,1.1684X1.0922*%
%ADD175R,1.2192X1.1430*%
%ADD176R,1.2192X1.1432*%
%ADD177R,2.4130X2.1082*%
%ADD178R,1.1176X1.1176*%
%ADD179R,1.4732X1.1176*%
%ADD180R,1.0922X1.1684*%
%ADD181R,2.1082X2.4130*%
%ADD182R,1.1032X1.0032*%
%ADD183R,1.1430X1.2192*%
%ADD184R,1.1432X1.2192*%
%ADD185R,2.4032X0.5632*%
%ADD186R,3.2032X1.2032*%
%ADD187R,3.7032X1.2032*%
%ADD188R,4.2032X1.6032*%
%ADD189O,2.4032X0.8032*%
%ADD190R,3.4032X1.8532*%
%ADD191R,1.4032X1.4032*%
%ADD192R,1.8032X1.7032*%
%ADD193O,0.8032X2.4032*%
%ADD194R,1.2700X3.7592*%
%ADD195R,10.8712X9.0932*%
%ADD196R,4.0132X5.7912*%
%ADD197R,2.1082X0.7620*%
%ADD198R,2.4032X2.0032*%
%ADD199R,2.6032X0.6032*%
%ADD200R,0.7032X2.2032*%
%ADD201R,3.4032X1.8032*%
%ADD202R,6.2032X7.2032*%
%ADD203O,1.6532X0.7032*%
%ADD204O,0.7032X1.6532*%
%ADD205O,2.2352X0.7620*%
%ADD206O,1.6032X0.5032*%
%ADD207O,0.5032X1.6032*%
%ADD208R,1.1032X1.2032*%
%ADD209R,2.7032X2.0032*%
%ADD210R,2.4032X1.7032*%
%ADD211R,0.7620X2.1082*%
%ADD212C,5.2032*%
%ADD213C,1.9812*%
%ADD214O,1.8542X1.2192*%
%ADD215R,1.4732X1.4732*%
%ADD216O,1.9812X1.7272*%
%ADD217O,1.7272X1.9812*%
%ADD218C,1.2032*%
%ADD219C,2.6416*%
%ADD220R,1.5832X2.7032*%
%ADD221O,1.5832X2.7032*%
%ADD222C,1.7032*%
%ADD223R,1.7032X1.7032*%
%ADD224O,1.4732X1.2192*%
%ADD225C,1.5032*%
%ADD226O,1.2032X1.9032*%
%ADD227C,1.3462*%
%ADD228C,1.7272*%
%ADD229O,1.6032X4.0032*%
%ADD230O,4.0032X1.6032*%
%ADD231O,1.2192X1.8542*%
%ADD232C,1.5832*%
%ADD233C,2.7032*%
%ADD234R,1.7780X1.7780*%
%ADD235C,1.6002*%
%ADD236C,1.3032*%
%ADD237R,1.7272X1.7272*%
%ADD238O,3.2512X1.7272*%
%ADD239C,2.2352*%
%ADD240R,1.1176X1.1176*%
%ADD241R,1.1176X1.4732*%
%ADD242R,1.5032X1.4032*%
%ADD243C,0.1693*%
%ADD244C,0.1016*%
D161*
X1026400Y2794000D02*
X1056400D01*
X1041400Y2779000D02*
Y2809000D01*
X2143506Y909066D02*
X2153666D01*
X2148586Y903986D02*
Y914146D01*
X2097786Y909066D02*
X2107946D01*
X2102866Y903986D02*
Y914146D01*
X2143506Y845566D02*
X2153666D01*
X2148586Y840486D02*
Y850646D01*
X2097786Y845566D02*
X2107946D01*
X2102866Y840486D02*
Y850646D01*
X2271000Y863600D02*
X2301000D01*
X2286000Y848600D02*
Y878600D01*
X1657938Y1240028D02*
X1667938D01*
X1662938Y1235028D02*
Y1245028D01*
X1657938Y1214628D02*
X1667938D01*
X1662938Y1209628D02*
Y1219628D01*
X2271000Y2794000D02*
X2301000D01*
X2286000Y2779000D02*
Y2809000D01*
X3744200Y863600D02*
X3774200D01*
X3759200Y848600D02*
Y878600D01*
X3744200Y2794000D02*
X3774200D01*
X3759200Y2779000D02*
Y2809000D01*
X1113600Y1422400D02*
X1121600D01*
X1117600Y1418400D02*
Y1426400D01*
X1113600Y1447800D02*
X1121600D01*
X1117600Y1443800D02*
Y1451800D01*
X1113600Y1473200D02*
X1121600D01*
X1117600Y1469200D02*
Y1477200D01*
X1113600Y1498600D02*
X1121600D01*
X1117600Y1494600D02*
Y1502600D01*
X1113600Y1524000D02*
X1121600D01*
X1117600Y1520000D02*
Y1528000D01*
X1113600Y1549400D02*
X1121600D01*
X1117600Y1545400D02*
Y1553400D01*
X1113600Y1574800D02*
X1121600D01*
X1117600Y1570800D02*
Y1578800D01*
X1113600Y1600200D02*
X1121600D01*
X1117600Y1596200D02*
Y1604200D01*
X1113600Y1625600D02*
X1121600D01*
X1117600Y1621600D02*
Y1629600D01*
X1113600Y1651000D02*
X1121600D01*
X1117600Y1647000D02*
Y1655000D01*
X1113600Y1676400D02*
X1121600D01*
X1117600Y1672400D02*
Y1680400D01*
X1113600Y1701800D02*
X1121600D01*
X1117600Y1697800D02*
Y1705800D01*
X1113600Y1727200D02*
X1121600D01*
X1117600Y1723200D02*
Y1731200D01*
X1113600Y1752600D02*
X1121600D01*
X1117600Y1748600D02*
Y1756600D01*
X1113600Y1778000D02*
X1121600D01*
X1117600Y1774000D02*
Y1782000D01*
X1113600Y1803400D02*
X1121600D01*
X1117600Y1799400D02*
Y1807400D01*
X1113600Y1828800D02*
X1121600D01*
X1117600Y1824800D02*
Y1832800D01*
X1113600Y1854200D02*
X1121600D01*
X1117600Y1850200D02*
Y1858200D01*
X1164400Y1422400D02*
X1172400D01*
X1168400Y1418400D02*
Y1426400D01*
X1164400Y1447800D02*
X1172400D01*
X1168400Y1443800D02*
Y1451800D01*
X1164400Y1473200D02*
X1172400D01*
X1168400Y1469200D02*
Y1477200D01*
X1164400Y1498600D02*
X1172400D01*
X1168400Y1494600D02*
Y1502600D01*
X1164400Y1524000D02*
X1172400D01*
X1168400Y1520000D02*
Y1528000D01*
X1164400Y1549400D02*
X1172400D01*
X1168400Y1545400D02*
Y1553400D01*
X1164400Y1574800D02*
X1172400D01*
X1168400Y1570800D02*
Y1578800D01*
X1164400Y1600200D02*
X1172400D01*
X1168400Y1596200D02*
Y1604200D01*
X1164400Y1625600D02*
X1172400D01*
X1168400Y1621600D02*
Y1629600D01*
X1164400Y1651000D02*
X1172400D01*
X1168400Y1647000D02*
Y1655000D01*
X1164400Y1676400D02*
X1172400D01*
X1168400Y1672400D02*
Y1680400D01*
X1164400Y1701800D02*
X1172400D01*
X1168400Y1697800D02*
Y1705800D01*
X1164400Y1727200D02*
X1172400D01*
X1168400Y1723200D02*
Y1731200D01*
X1164400Y1752600D02*
X1172400D01*
X1168400Y1748600D02*
Y1756600D01*
X1164400Y1778000D02*
X1172400D01*
X1168400Y1774000D02*
Y1782000D01*
X1164400Y1803400D02*
X1172400D01*
X1168400Y1799400D02*
Y1807400D01*
X1164400Y1828800D02*
X1172400D01*
X1168400Y1824800D02*
Y1832800D01*
X1164400Y1854200D02*
X1172400D01*
X1168400Y1850200D02*
Y1858200D01*
X1164400Y2717800D02*
X1172400D01*
X1168400Y2713800D02*
Y2721800D01*
X1164400Y2692400D02*
X1172400D01*
X1168400Y2688400D02*
Y2696400D01*
X1164400Y2667000D02*
X1172400D01*
X1168400Y2663000D02*
Y2671000D01*
X1164400Y2641600D02*
X1172400D01*
X1168400Y2637600D02*
Y2645600D01*
X1164400Y2616200D02*
X1172400D01*
X1168400Y2612200D02*
Y2620200D01*
X1164400Y2590800D02*
X1172400D01*
X1168400Y2586800D02*
Y2594800D01*
X1164400Y2565400D02*
X1172400D01*
X1168400Y2561400D02*
Y2569400D01*
X1164400Y2540000D02*
X1172400D01*
X1168400Y2536000D02*
Y2544000D01*
X1164400Y2514600D02*
X1172400D01*
X1168400Y2510600D02*
Y2518600D01*
X1164400Y2489200D02*
X1172400D01*
X1168400Y2485200D02*
Y2493200D01*
X1164400Y2463800D02*
X1172400D01*
X1168400Y2459800D02*
Y2467800D01*
X1164400Y2438400D02*
X1172400D01*
X1168400Y2434400D02*
Y2442400D01*
X1164400Y2413000D02*
X1172400D01*
X1168400Y2409000D02*
Y2417000D01*
X1164400Y2387600D02*
X1172400D01*
X1168400Y2383600D02*
Y2391600D01*
X1164400Y2362200D02*
X1172400D01*
X1168400Y2358200D02*
Y2366200D01*
X1164400Y2336800D02*
X1172400D01*
X1168400Y2332800D02*
Y2340800D01*
X1164400Y2311400D02*
X1172400D01*
X1168400Y2307400D02*
Y2315400D01*
X1164400Y2286000D02*
X1172400D01*
X1168400Y2282000D02*
Y2290000D01*
X1164400Y2260600D02*
X1172400D01*
X1168400Y2256600D02*
Y2264600D01*
X1164400Y2235200D02*
X1172400D01*
X1168400Y2231200D02*
Y2239200D01*
X1164400Y2209800D02*
X1172400D01*
X1168400Y2205800D02*
Y2213800D01*
X1164400Y2184400D02*
X1172400D01*
X1168400Y2180400D02*
Y2188400D01*
X1164400Y2159000D02*
X1172400D01*
X1168400Y2155000D02*
Y2163000D01*
X1164400Y2133600D02*
X1172400D01*
X1168400Y2129600D02*
Y2137600D01*
X1164400Y2108200D02*
X1172400D01*
X1168400Y2104200D02*
Y2112200D01*
X1164400Y2082800D02*
X1172400D01*
X1168400Y2078800D02*
Y2086800D01*
X1164400Y2057400D02*
X1172400D01*
X1168400Y2053400D02*
Y2061400D01*
X1164400Y2032000D02*
X1172400D01*
X1168400Y2028000D02*
Y2036000D01*
X1164400Y2006600D02*
X1172400D01*
X1168400Y2002600D02*
Y2010600D01*
X1164400Y1981200D02*
X1172400D01*
X1168400Y1977200D02*
Y1985200D01*
X1164400Y1955800D02*
X1172400D01*
X1168400Y1951800D02*
Y1959800D01*
X1113600Y2717800D02*
X1121600D01*
X1117600Y2713800D02*
Y2721800D01*
X1113600Y2692400D02*
X1121600D01*
X1117600Y2688400D02*
Y2696400D01*
X1113600Y2667000D02*
X1121600D01*
X1117600Y2663000D02*
Y2671000D01*
X1113600Y2641600D02*
X1121600D01*
X1117600Y2637600D02*
Y2645600D01*
X1113600Y2616200D02*
X1121600D01*
X1117600Y2612200D02*
Y2620200D01*
X1113600Y2590800D02*
X1121600D01*
X1117600Y2586800D02*
Y2594800D01*
X1113600Y2565400D02*
X1121600D01*
X1117600Y2561400D02*
Y2569400D01*
X1113600Y2540000D02*
X1121600D01*
X1117600Y2536000D02*
Y2544000D01*
X1113600Y2514600D02*
X1121600D01*
X1117600Y2510600D02*
Y2518600D01*
X1113600Y2489200D02*
X1121600D01*
X1117600Y2485200D02*
Y2493200D01*
X1113600Y2463800D02*
X1121600D01*
X1117600Y2459800D02*
Y2467800D01*
X1113600Y2438400D02*
X1121600D01*
X1117600Y2434400D02*
Y2442400D01*
X1113600Y2413000D02*
X1121600D01*
X1117600Y2409000D02*
Y2417000D01*
X1113600Y2387600D02*
X1121600D01*
X1117600Y2383600D02*
Y2391600D01*
X1113600Y2362200D02*
X1121600D01*
X1117600Y2358200D02*
Y2366200D01*
X1113600Y2336800D02*
X1121600D01*
X1117600Y2332800D02*
Y2340800D01*
X1113600Y2311400D02*
X1121600D01*
X1117600Y2307400D02*
Y2315400D01*
X1113600Y2286000D02*
X1121600D01*
X1117600Y2282000D02*
Y2290000D01*
X1113600Y2260600D02*
X1121600D01*
X1117600Y2256600D02*
Y2264600D01*
X1113600Y2235200D02*
X1121600D01*
X1117600Y2231200D02*
Y2239200D01*
X1113600Y2209800D02*
X1121600D01*
X1117600Y2205800D02*
Y2213800D01*
X1113600Y2184400D02*
X1121600D01*
X1117600Y2180400D02*
Y2188400D01*
X1113600Y2159000D02*
X1121600D01*
X1117600Y2155000D02*
Y2163000D01*
X1113600Y2133600D02*
X1121600D01*
X1117600Y2129600D02*
Y2137600D01*
X1113600Y2108200D02*
X1121600D01*
X1117600Y2104200D02*
Y2112200D01*
X1113600Y2082800D02*
X1121600D01*
X1117600Y2078800D02*
Y2086800D01*
X1113600Y2057400D02*
X1121600D01*
X1117600Y2053400D02*
Y2061400D01*
X1113600Y2032000D02*
X1121600D01*
X1117600Y2028000D02*
Y2036000D01*
X1113600Y2006600D02*
X1121600D01*
X1117600Y2002600D02*
Y2010600D01*
X1113600Y1981200D02*
X1121600D01*
X1117600Y1977200D02*
Y1985200D01*
X1113600Y1955800D02*
X1121600D01*
X1117600Y1951800D02*
Y1959800D01*
X1520000Y1422400D02*
X1528000D01*
X1524000Y1418400D02*
Y1426400D01*
X1520000Y1447800D02*
X1528000D01*
X1524000Y1443800D02*
Y1451800D01*
X1520000Y1473200D02*
X1528000D01*
X1524000Y1469200D02*
Y1477200D01*
X1520000Y1498600D02*
X1528000D01*
X1524000Y1494600D02*
Y1502600D01*
X1520000Y1524000D02*
X1528000D01*
X1524000Y1520000D02*
Y1528000D01*
X1520000Y1549400D02*
X1528000D01*
X1524000Y1545400D02*
Y1553400D01*
X1520000Y1574800D02*
X1528000D01*
X1524000Y1570800D02*
Y1578800D01*
X1520000Y1600200D02*
X1528000D01*
X1524000Y1596200D02*
Y1604200D01*
X1520000Y1625600D02*
X1528000D01*
X1524000Y1621600D02*
Y1629600D01*
X1520000Y1651000D02*
X1528000D01*
X1524000Y1647000D02*
Y1655000D01*
X1520000Y1676400D02*
X1528000D01*
X1524000Y1672400D02*
Y1680400D01*
X1520000Y1701800D02*
X1528000D01*
X1524000Y1697800D02*
Y1705800D01*
X1520000Y1727200D02*
X1528000D01*
X1524000Y1723200D02*
Y1731200D01*
X1520000Y1752600D02*
X1528000D01*
X1524000Y1748600D02*
Y1756600D01*
X1520000Y1778000D02*
X1528000D01*
X1524000Y1774000D02*
Y1782000D01*
X1520000Y1803400D02*
X1528000D01*
X1524000Y1799400D02*
Y1807400D01*
X1520000Y1828800D02*
X1528000D01*
X1524000Y1824800D02*
Y1832800D01*
X1520000Y1854200D02*
X1528000D01*
X1524000Y1850200D02*
Y1858200D01*
X1570800Y1422400D02*
X1578800D01*
X1574800Y1418400D02*
Y1426400D01*
X1570800Y1447800D02*
X1578800D01*
X1574800Y1443800D02*
Y1451800D01*
X1570800Y1473200D02*
X1578800D01*
X1574800Y1469200D02*
Y1477200D01*
X1570800Y1498600D02*
X1578800D01*
X1574800Y1494600D02*
Y1502600D01*
X1570800Y1524000D02*
X1578800D01*
X1574800Y1520000D02*
Y1528000D01*
X1570800Y1549400D02*
X1578800D01*
X1574800Y1545400D02*
Y1553400D01*
X1570800Y1574800D02*
X1578800D01*
X1574800Y1570800D02*
Y1578800D01*
X1570800Y1600200D02*
X1578800D01*
X1574800Y1596200D02*
Y1604200D01*
X1570800Y1625600D02*
X1578800D01*
X1574800Y1621600D02*
Y1629600D01*
X1570800Y1651000D02*
X1578800D01*
X1574800Y1647000D02*
Y1655000D01*
X1570800Y1676400D02*
X1578800D01*
X1574800Y1672400D02*
Y1680400D01*
X1570800Y1701800D02*
X1578800D01*
X1574800Y1697800D02*
Y1705800D01*
X1570800Y1727200D02*
X1578800D01*
X1574800Y1723200D02*
Y1731200D01*
X1570800Y1752600D02*
X1578800D01*
X1574800Y1748600D02*
Y1756600D01*
X1570800Y1778000D02*
X1578800D01*
X1574800Y1774000D02*
Y1782000D01*
X1570800Y1803400D02*
X1578800D01*
X1574800Y1799400D02*
Y1807400D01*
X1570800Y1828800D02*
X1578800D01*
X1574800Y1824800D02*
Y1832800D01*
X1570800Y1854200D02*
X1578800D01*
X1574800Y1850200D02*
Y1858200D01*
X1570800Y2717800D02*
X1578800D01*
X1574800Y2713800D02*
Y2721800D01*
X1570800Y2692400D02*
X1578800D01*
X1574800Y2688400D02*
Y2696400D01*
X1570800Y2667000D02*
X1578800D01*
X1574800Y2663000D02*
Y2671000D01*
X1570800Y2641600D02*
X1578800D01*
X1574800Y2637600D02*
Y2645600D01*
X1570800Y2616200D02*
X1578800D01*
X1574800Y2612200D02*
Y2620200D01*
X1570800Y2590800D02*
X1578800D01*
X1574800Y2586800D02*
Y2594800D01*
X1570800Y2565400D02*
X1578800D01*
X1574800Y2561400D02*
Y2569400D01*
X1570800Y2540000D02*
X1578800D01*
X1574800Y2536000D02*
Y2544000D01*
X1570800Y2514600D02*
X1578800D01*
X1574800Y2510600D02*
Y2518600D01*
X1570800Y2489200D02*
X1578800D01*
X1574800Y2485200D02*
Y2493200D01*
X1570800Y2463800D02*
X1578800D01*
X1574800Y2459800D02*
Y2467800D01*
X1570800Y2438400D02*
X1578800D01*
X1574800Y2434400D02*
Y2442400D01*
X1570800Y2413000D02*
X1578800D01*
X1574800Y2409000D02*
Y2417000D01*
X1570800Y2387600D02*
X1578800D01*
X1574800Y2383600D02*
Y2391600D01*
X1570800Y2362200D02*
X1578800D01*
X1574800Y2358200D02*
Y2366200D01*
X1570800Y2336800D02*
X1578800D01*
X1574800Y2332800D02*
Y2340800D01*
X1570800Y2311400D02*
X1578800D01*
X1574800Y2307400D02*
Y2315400D01*
X1570800Y2286000D02*
X1578800D01*
X1574800Y2282000D02*
Y2290000D01*
X1570800Y2260600D02*
X1578800D01*
X1574800Y2256600D02*
Y2264600D01*
X1570800Y2235200D02*
X1578800D01*
X1574800Y2231200D02*
Y2239200D01*
X1570800Y2209800D02*
X1578800D01*
X1574800Y2205800D02*
Y2213800D01*
X1570800Y2184400D02*
X1578800D01*
X1574800Y2180400D02*
Y2188400D01*
X1570800Y2159000D02*
X1578800D01*
X1574800Y2155000D02*
Y2163000D01*
X1570800Y2133600D02*
X1578800D01*
X1574800Y2129600D02*
Y2137600D01*
X1570800Y2108200D02*
X1578800D01*
X1574800Y2104200D02*
Y2112200D01*
X1570800Y2082800D02*
X1578800D01*
X1574800Y2078800D02*
Y2086800D01*
X1570800Y2057400D02*
X1578800D01*
X1574800Y2053400D02*
Y2061400D01*
X1570800Y2032000D02*
X1578800D01*
X1574800Y2028000D02*
Y2036000D01*
X1570800Y2006600D02*
X1578800D01*
X1574800Y2002600D02*
Y2010600D01*
X1570800Y1981200D02*
X1578800D01*
X1574800Y1977200D02*
Y1985200D01*
X1570800Y1955800D02*
X1578800D01*
X1574800Y1951800D02*
Y1959800D01*
X1520000Y2717800D02*
X1528000D01*
X1524000Y2713800D02*
Y2721800D01*
X1520000Y2692400D02*
X1528000D01*
X1524000Y2688400D02*
Y2696400D01*
X1520000Y2667000D02*
X1528000D01*
X1524000Y2663000D02*
Y2671000D01*
X1520000Y2641600D02*
X1528000D01*
X1524000Y2637600D02*
Y2645600D01*
X1520000Y2616200D02*
X1528000D01*
X1524000Y2612200D02*
Y2620200D01*
X1520000Y2590800D02*
X1528000D01*
X1524000Y2586800D02*
Y2594800D01*
X1520000Y2565400D02*
X1528000D01*
X1524000Y2561400D02*
Y2569400D01*
X1520000Y2540000D02*
X1528000D01*
X1524000Y2536000D02*
Y2544000D01*
X1520000Y2514600D02*
X1528000D01*
X1524000Y2510600D02*
Y2518600D01*
X1520000Y2489200D02*
X1528000D01*
X1524000Y2485200D02*
Y2493200D01*
X1520000Y2463800D02*
X1528000D01*
X1524000Y2459800D02*
Y2467800D01*
X1520000Y2438400D02*
X1528000D01*
X1524000Y2434400D02*
Y2442400D01*
X1520000Y2413000D02*
X1528000D01*
X1524000Y2409000D02*
Y2417000D01*
X1520000Y2387600D02*
X1528000D01*
X1524000Y2383600D02*
Y2391600D01*
X1520000Y2362200D02*
X1528000D01*
X1524000Y2358200D02*
Y2366200D01*
X1520000Y2336800D02*
X1528000D01*
X1524000Y2332800D02*
Y2340800D01*
X1520000Y2311400D02*
X1528000D01*
X1524000Y2307400D02*
Y2315400D01*
X1520000Y2286000D02*
X1528000D01*
X1524000Y2282000D02*
Y2290000D01*
X1520000Y2260600D02*
X1528000D01*
X1524000Y2256600D02*
Y2264600D01*
X1520000Y2235200D02*
X1528000D01*
X1524000Y2231200D02*
Y2239200D01*
X1520000Y2209800D02*
X1528000D01*
X1524000Y2205800D02*
Y2213800D01*
X1520000Y2184400D02*
X1528000D01*
X1524000Y2180400D02*
Y2188400D01*
X1520000Y2159000D02*
X1528000D01*
X1524000Y2155000D02*
Y2163000D01*
X1520000Y2133600D02*
X1528000D01*
X1524000Y2129600D02*
Y2137600D01*
X1520000Y2108200D02*
X1528000D01*
X1524000Y2104200D02*
Y2112200D01*
X1520000Y2082800D02*
X1528000D01*
X1524000Y2078800D02*
Y2086800D01*
X1520000Y2057400D02*
X1528000D01*
X1524000Y2053400D02*
Y2061400D01*
X1520000Y2032000D02*
X1528000D01*
X1524000Y2028000D02*
Y2036000D01*
X1520000Y2006600D02*
X1528000D01*
X1524000Y2002600D02*
Y2010600D01*
X1520000Y1981200D02*
X1528000D01*
X1524000Y1977200D02*
Y1985200D01*
X1520000Y1955800D02*
X1528000D01*
X1524000Y1951800D02*
Y1959800D01*
X2971800Y1710436D02*
X2979420D01*
X2975610Y1706626D02*
Y1714246D01*
X2971800Y1735836D02*
X2979420D01*
X2975610Y1732026D02*
Y1739646D01*
X2613914Y1393444D02*
X2621534D01*
X2617724Y1389634D02*
Y1397254D01*
X2613914Y1368044D02*
X2621534D01*
X2617724Y1364234D02*
Y1371854D01*
X2791714Y2210308D02*
X2799334D01*
X2795524Y2206498D02*
Y2214118D01*
X2766314Y2210308D02*
X2773934D01*
X2770124Y2206498D02*
Y2214118D01*
X3130360Y1739900D02*
X3138360D01*
X3134360Y1735900D02*
Y1743900D01*
X3155760Y1752600D02*
X3163760D01*
X3159760Y1748600D02*
Y1756600D01*
X3130360Y1765300D02*
X3138360D01*
X3134360Y1761300D02*
Y1769300D01*
X3155760Y1778000D02*
X3163760D01*
X3159760Y1774000D02*
Y1782000D01*
X3130360Y1790700D02*
X3138360D01*
X3134360Y1786700D02*
Y1794700D01*
X3155760Y1803400D02*
X3163760D01*
X3159760Y1799400D02*
Y1807400D01*
X3130360Y1816100D02*
X3138360D01*
X3134360Y1812100D02*
Y1820100D01*
X3155760Y1828800D02*
X3163760D01*
X3159760Y1824800D02*
Y1832800D01*
X3130360Y1841500D02*
X3138360D01*
X3134360Y1837500D02*
Y1845500D01*
X3155760Y1854200D02*
X3163760D01*
X3159760Y1850200D02*
Y1858200D01*
X3130360Y1866900D02*
X3138360D01*
X3134360Y1862900D02*
Y1870900D01*
X3155760Y1879600D02*
X3163760D01*
X3159760Y1875600D02*
Y1883600D01*
X3130360Y1892300D02*
X3138360D01*
X3134360Y1888300D02*
Y1896300D01*
X3155760Y1905000D02*
X3163760D01*
X3159760Y1901000D02*
Y1909000D01*
X3130360Y1917700D02*
X3138360D01*
X3134360Y1913700D02*
Y1921700D01*
X3155760Y1930400D02*
X3163760D01*
X3159760Y1926400D02*
Y1934400D01*
X3130360Y1943100D02*
X3138360D01*
X3134360Y1939100D02*
Y1947100D01*
X3155760Y1955800D02*
X3163760D01*
X3159760Y1951800D02*
Y1959800D01*
X3130360Y1968500D02*
X3138360D01*
X3134360Y1964500D02*
Y1972500D01*
X3155760Y1981200D02*
X3163760D01*
X3159760Y1977200D02*
Y1985200D01*
X3130360Y1993900D02*
X3138360D01*
X3134360Y1989900D02*
Y1997900D01*
X3155760Y2006600D02*
X3163760D01*
X3159760Y2002600D02*
Y2010600D01*
X3130360Y2019300D02*
X3138360D01*
X3134360Y2015300D02*
Y2023300D01*
X3155760Y2032000D02*
X3163760D01*
X3159760Y2028000D02*
Y2036000D01*
X3130360Y2044700D02*
X3138360D01*
X3134360Y2040700D02*
Y2048700D01*
X3155760Y2057400D02*
X3163760D01*
X3159760Y2053400D02*
Y2061400D01*
X3130360Y2070100D02*
X3138360D01*
X3134360Y2066100D02*
Y2074100D01*
X3155760Y2082800D02*
X3163760D01*
X3159760Y2078800D02*
Y2086800D01*
X3130360Y2095500D02*
X3138360D01*
X3134360Y2091500D02*
Y2099500D01*
X3155760Y2108200D02*
X3163760D01*
X3159760Y2104200D02*
Y2112200D01*
X3130360Y2120900D02*
X3138360D01*
X3134360Y2116900D02*
Y2124900D01*
X3155760Y2133600D02*
X3163760D01*
X3159760Y2129600D02*
Y2137600D01*
X3130360Y2146300D02*
X3138360D01*
X3134360Y2142300D02*
Y2150300D01*
X3155760Y2159000D02*
X3163760D01*
X3159760Y2155000D02*
Y2163000D01*
X3130360Y2171700D02*
X3138360D01*
X3134360Y2167700D02*
Y2175700D01*
X3155760Y2184400D02*
X3163760D01*
X3159760Y2180400D02*
Y2188400D01*
X3130360Y2247900D02*
X3138360D01*
X3134360Y2243900D02*
Y2251900D01*
X3155760Y2260600D02*
X3163760D01*
X3159760Y2256600D02*
Y2264600D01*
X3130360Y2273300D02*
X3138360D01*
X3134360Y2269300D02*
Y2277300D01*
X3155760Y2286000D02*
X3163760D01*
X3159760Y2282000D02*
Y2290000D01*
X3130360Y2298700D02*
X3138360D01*
X3134360Y2294700D02*
Y2302700D01*
X3155760Y2311400D02*
X3163760D01*
X3159760Y2307400D02*
Y2315400D01*
X3130360Y2324100D02*
X3138360D01*
X3134360Y2320100D02*
Y2328100D01*
X3155760Y2336800D02*
X3163760D01*
X3159760Y2332800D02*
Y2340800D01*
X3130360Y2349500D02*
X3138360D01*
X3134360Y2345500D02*
Y2353500D01*
X3155760Y2362200D02*
X3163760D01*
X3159760Y2358200D02*
Y2366200D01*
X3130360Y2374900D02*
X3138360D01*
X3134360Y2370900D02*
Y2378900D01*
X3155760Y2387600D02*
X3163760D01*
X3159760Y2383600D02*
Y2391600D01*
X3130360Y2400300D02*
X3138360D01*
X3134360Y2396300D02*
Y2404300D01*
X3155760Y2413000D02*
X3163760D01*
X3159760Y2409000D02*
Y2417000D01*
X3130360Y2425700D02*
X3138360D01*
X3134360Y2421700D02*
Y2429700D01*
X3155760Y2438400D02*
X3163760D01*
X3159760Y2434400D02*
Y2442400D01*
X3130360Y2451100D02*
X3138360D01*
X3134360Y2447100D02*
Y2455100D01*
X3155760Y2463800D02*
X3163760D01*
X3159760Y2459800D02*
Y2467800D01*
X3130360Y2476500D02*
X3138360D01*
X3134360Y2472500D02*
Y2480500D01*
X3155760Y2489200D02*
X3163760D01*
X3159760Y2485200D02*
Y2493200D01*
X3130360Y2501900D02*
X3138360D01*
X3134360Y2497900D02*
Y2505900D01*
X3155760Y2514600D02*
X3163760D01*
X3159760Y2510600D02*
Y2518600D01*
X3130360Y2527300D02*
X3138360D01*
X3134360Y2523300D02*
Y2531300D01*
X3155760Y2540000D02*
X3163760D01*
X3159760Y2536000D02*
Y2544000D01*
X3130360Y2552700D02*
X3138360D01*
X3134360Y2548700D02*
Y2556700D01*
X3155760Y2565400D02*
X3163760D01*
X3159760Y2561400D02*
Y2569400D01*
X3130360Y2578100D02*
X3138360D01*
X3134360Y2574100D02*
Y2582100D01*
X3155760Y2590800D02*
X3163760D01*
X3159760Y2586800D02*
Y2594800D01*
X3130360Y2603500D02*
X3138360D01*
X3134360Y2599500D02*
Y2607500D01*
X3155760Y2616200D02*
X3163760D01*
X3159760Y2612200D02*
Y2620200D01*
X3130360Y2628900D02*
X3138360D01*
X3134360Y2624900D02*
Y2632900D01*
X3155760Y2641600D02*
X3163760D01*
X3159760Y2637600D02*
Y2645600D01*
X3130360Y2654300D02*
X3138360D01*
X3134360Y2650300D02*
Y2658300D01*
X3155760Y2667000D02*
X3163760D01*
X3159760Y2663000D02*
Y2671000D01*
X3130360Y2679700D02*
X3138360D01*
X3134360Y2675700D02*
Y2683700D01*
X3155760Y2692400D02*
X3163760D01*
X3159760Y2688400D02*
Y2696400D01*
X3303080Y1739900D02*
X3311080D01*
X3307080Y1735900D02*
Y1743900D01*
X3328480Y1752600D02*
X3336480D01*
X3332480Y1748600D02*
Y1756600D01*
X3303080Y1765300D02*
X3311080D01*
X3307080Y1761300D02*
Y1769300D01*
X3328480Y1778000D02*
X3336480D01*
X3332480Y1774000D02*
Y1782000D01*
X3303080Y1790700D02*
X3311080D01*
X3307080Y1786700D02*
Y1794700D01*
X3328480Y1803400D02*
X3336480D01*
X3332480Y1799400D02*
Y1807400D01*
X3303080Y1816100D02*
X3311080D01*
X3307080Y1812100D02*
Y1820100D01*
X3328480Y1828800D02*
X3336480D01*
X3332480Y1824800D02*
Y1832800D01*
X3303080Y1841500D02*
X3311080D01*
X3307080Y1837500D02*
Y1845500D01*
X3328480Y1854200D02*
X3336480D01*
X3332480Y1850200D02*
Y1858200D01*
X3303080Y1866900D02*
X3311080D01*
X3307080Y1862900D02*
Y1870900D01*
X3328480Y1879600D02*
X3336480D01*
X3332480Y1875600D02*
Y1883600D01*
X3303080Y1892300D02*
X3311080D01*
X3307080Y1888300D02*
Y1896300D01*
X3328480Y1905000D02*
X3336480D01*
X3332480Y1901000D02*
Y1909000D01*
X3303080Y1917700D02*
X3311080D01*
X3307080Y1913700D02*
Y1921700D01*
X3328480Y1930400D02*
X3336480D01*
X3332480Y1926400D02*
Y1934400D01*
X3303080Y1943100D02*
X3311080D01*
X3307080Y1939100D02*
Y1947100D01*
X3328480Y1955800D02*
X3336480D01*
X3332480Y1951800D02*
Y1959800D01*
X3303080Y1968500D02*
X3311080D01*
X3307080Y1964500D02*
Y1972500D01*
X3328480Y1981200D02*
X3336480D01*
X3332480Y1977200D02*
Y1985200D01*
X3303080Y1993900D02*
X3311080D01*
X3307080Y1989900D02*
Y1997900D01*
X3328480Y2006600D02*
X3336480D01*
X3332480Y2002600D02*
Y2010600D01*
X3303080Y2019300D02*
X3311080D01*
X3307080Y2015300D02*
Y2023300D01*
X3328480Y2032000D02*
X3336480D01*
X3332480Y2028000D02*
Y2036000D01*
X3303080Y2044700D02*
X3311080D01*
X3307080Y2040700D02*
Y2048700D01*
X3328480Y2057400D02*
X3336480D01*
X3332480Y2053400D02*
Y2061400D01*
X3303080Y2070100D02*
X3311080D01*
X3307080Y2066100D02*
Y2074100D01*
X3328480Y2082800D02*
X3336480D01*
X3332480Y2078800D02*
Y2086800D01*
X3303080Y2095500D02*
X3311080D01*
X3307080Y2091500D02*
Y2099500D01*
X3328480Y2108200D02*
X3336480D01*
X3332480Y2104200D02*
Y2112200D01*
X3303080Y2120900D02*
X3311080D01*
X3307080Y2116900D02*
Y2124900D01*
X3328480Y2133600D02*
X3336480D01*
X3332480Y2129600D02*
Y2137600D01*
X3303080Y2146300D02*
X3311080D01*
X3307080Y2142300D02*
Y2150300D01*
X3328480Y2159000D02*
X3336480D01*
X3332480Y2155000D02*
Y2163000D01*
X3303080Y2171700D02*
X3311080D01*
X3307080Y2167700D02*
Y2175700D01*
X3328480Y2184400D02*
X3336480D01*
X3332480Y2180400D02*
Y2188400D01*
X3303080Y2247900D02*
X3311080D01*
X3307080Y2243900D02*
Y2251900D01*
X3328480Y2260600D02*
X3336480D01*
X3332480Y2256600D02*
Y2264600D01*
X3303080Y2273300D02*
X3311080D01*
X3307080Y2269300D02*
Y2277300D01*
X3328480Y2286000D02*
X3336480D01*
X3332480Y2282000D02*
Y2290000D01*
X3303080Y2298700D02*
X3311080D01*
X3307080Y2294700D02*
Y2302700D01*
X3328480Y2311400D02*
X3336480D01*
X3332480Y2307400D02*
Y2315400D01*
X3303080Y2324100D02*
X3311080D01*
X3307080Y2320100D02*
Y2328100D01*
X3328480Y2336800D02*
X3336480D01*
X3332480Y2332800D02*
Y2340800D01*
X3303080Y2349500D02*
X3311080D01*
X3307080Y2345500D02*
Y2353500D01*
X3328480Y2362200D02*
X3336480D01*
X3332480Y2358200D02*
Y2366200D01*
X3303080Y2374900D02*
X3311080D01*
X3307080Y2370900D02*
Y2378900D01*
X3328480Y2387600D02*
X3336480D01*
X3332480Y2383600D02*
Y2391600D01*
X3303080Y2400300D02*
X3311080D01*
X3307080Y2396300D02*
Y2404300D01*
X3328480Y2413000D02*
X3336480D01*
X3332480Y2409000D02*
Y2417000D01*
X3303080Y2425700D02*
X3311080D01*
X3307080Y2421700D02*
Y2429700D01*
X3328480Y2438400D02*
X3336480D01*
X3332480Y2434400D02*
Y2442400D01*
X3303080Y2451100D02*
X3311080D01*
X3307080Y2447100D02*
Y2455100D01*
X3328480Y2463800D02*
X3336480D01*
X3332480Y2459800D02*
Y2467800D01*
X3303080Y2476500D02*
X3311080D01*
X3307080Y2472500D02*
Y2480500D01*
X3328480Y2489200D02*
X3336480D01*
X3332480Y2485200D02*
Y2493200D01*
X3303080Y2501900D02*
X3311080D01*
X3307080Y2497900D02*
Y2505900D01*
X3328480Y2514600D02*
X3336480D01*
X3332480Y2510600D02*
Y2518600D01*
X3303080Y2527300D02*
X3311080D01*
X3307080Y2523300D02*
Y2531300D01*
X3328480Y2540000D02*
X3336480D01*
X3332480Y2536000D02*
Y2544000D01*
X3303080Y2552700D02*
X3311080D01*
X3307080Y2548700D02*
Y2556700D01*
X3328480Y2565400D02*
X3336480D01*
X3332480Y2561400D02*
Y2569400D01*
X3303080Y2578100D02*
X3311080D01*
X3307080Y2574100D02*
Y2582100D01*
X3328480Y2590800D02*
X3336480D01*
X3332480Y2586800D02*
Y2594800D01*
X3303080Y2603500D02*
X3311080D01*
X3307080Y2599500D02*
Y2607500D01*
X3328480Y2616200D02*
X3336480D01*
X3332480Y2612200D02*
Y2620200D01*
X3303080Y2628900D02*
X3311080D01*
X3307080Y2624900D02*
Y2632900D01*
X3328480Y2641600D02*
X3336480D01*
X3332480Y2637600D02*
Y2645600D01*
X3303080Y2654300D02*
X3311080D01*
X3307080Y2650300D02*
Y2658300D01*
X3328480Y2667000D02*
X3336480D01*
X3332480Y2663000D02*
Y2671000D01*
X3303080Y2679700D02*
X3311080D01*
X3307080Y2675700D02*
Y2683700D01*
X3328480Y2692400D02*
X3336480D01*
X3332480Y2688400D02*
Y2696400D01*
X1753108Y2063750D02*
X1777492D01*
X1765300Y2051558D02*
Y2075942D01*
X1753108Y2711450D02*
X1777492D01*
X1765300Y2699258D02*
Y2723642D01*
X1722501Y1917700D02*
X1731899D01*
X1727200Y1913001D02*
Y1922399D01*
X1747901Y1930400D02*
X1757299D01*
X1752600Y1925701D02*
Y1935099D01*
X1722501Y1943100D02*
X1731899D01*
X1727200Y1938401D02*
Y1947799D01*
X1747901Y1955800D02*
X1757299D01*
X1752600Y1951101D02*
Y1960499D01*
X1722501Y1968500D02*
X1731899D01*
X1727200Y1963801D02*
Y1973199D01*
X1747901Y1981200D02*
X1757299D01*
X1752600Y1976501D02*
Y1985899D01*
X1722501Y1993900D02*
X1731899D01*
X1727200Y1989201D02*
Y1998599D01*
X1747901Y2006600D02*
X1757299D01*
X1752600Y2001901D02*
Y2011299D01*
X1722501Y2019300D02*
X1731899D01*
X1727200Y2014601D02*
Y2023999D01*
X1747901Y2032000D02*
X1757299D01*
X1752600Y2027301D02*
Y2036699D01*
X1722501Y2044700D02*
X1731899D01*
X1727200Y2040001D02*
Y2049399D01*
X1747901Y2082800D02*
X1757299D01*
X1752600Y2078101D02*
Y2087499D01*
X1722501Y2095500D02*
X1731899D01*
X1727200Y2090801D02*
Y2100199D01*
X1747901Y2108200D02*
X1757299D01*
X1752600Y2103501D02*
Y2112899D01*
X1722501Y2120900D02*
X1731899D01*
X1727200Y2116201D02*
Y2125599D01*
X1747901Y2133600D02*
X1757299D01*
X1752600Y2128901D02*
Y2138299D01*
X1722501Y2146300D02*
X1731899D01*
X1727200Y2141601D02*
Y2150999D01*
X1747901Y2159000D02*
X1757299D01*
X1752600Y2154301D02*
Y2163699D01*
X1722501Y2171700D02*
X1731899D01*
X1727200Y2167001D02*
Y2176399D01*
X1747901Y2184400D02*
X1757299D01*
X1752600Y2179701D02*
Y2189099D01*
X1722501Y2197100D02*
X1731899D01*
X1727200Y2192401D02*
Y2201799D01*
X1747901Y2209800D02*
X1757299D01*
X1752600Y2205101D02*
Y2214499D01*
X1722501Y2222500D02*
X1731899D01*
X1727200Y2217801D02*
Y2227199D01*
X1747901Y2235200D02*
X1757299D01*
X1752600Y2230501D02*
Y2239899D01*
X1722501Y2247900D02*
X1731899D01*
X1727200Y2243201D02*
Y2252599D01*
X1747901Y2260600D02*
X1757299D01*
X1752600Y2255901D02*
Y2265299D01*
X1722501Y2273300D02*
X1731899D01*
X1727200Y2268601D02*
Y2277999D01*
X1747901Y2286000D02*
X1757299D01*
X1752600Y2281301D02*
Y2290699D01*
X1722501Y2298700D02*
X1731899D01*
X1727200Y2294001D02*
Y2303399D01*
X1747901Y2311400D02*
X1757299D01*
X1752600Y2306701D02*
Y2316099D01*
X1722501Y2324100D02*
X1731899D01*
X1727200Y2319401D02*
Y2328799D01*
X1747901Y2336800D02*
X1757299D01*
X1752600Y2332101D02*
Y2341499D01*
X1722501Y2349500D02*
X1731899D01*
X1727200Y2344801D02*
Y2354199D01*
X1747901Y2362200D02*
X1757299D01*
X1752600Y2357501D02*
Y2366899D01*
X1722501Y2374900D02*
X1731899D01*
X1727200Y2370201D02*
Y2379599D01*
X1747901Y2387600D02*
X1757299D01*
X1752600Y2382901D02*
Y2392299D01*
X1722501Y2400300D02*
X1731899D01*
X1727200Y2395601D02*
Y2404999D01*
X1747901Y2413000D02*
X1757299D01*
X1752600Y2408301D02*
Y2417699D01*
X1722501Y2425700D02*
X1731899D01*
X1727200Y2421001D02*
Y2430399D01*
X1747901Y2438400D02*
X1757299D01*
X1752600Y2433701D02*
Y2443099D01*
X1722501Y2451100D02*
X1731899D01*
X1727200Y2446401D02*
Y2455799D01*
X1747901Y2463800D02*
X1757299D01*
X1752600Y2459101D02*
Y2468499D01*
X1722501Y2476500D02*
X1731899D01*
X1727200Y2471801D02*
Y2481199D01*
X1747901Y2489200D02*
X1757299D01*
X1752600Y2484501D02*
Y2493899D01*
X1722501Y2501900D02*
X1731899D01*
X1727200Y2497201D02*
Y2506599D01*
X1747901Y2514600D02*
X1757299D01*
X1752600Y2509901D02*
Y2519299D01*
X1722501Y2527300D02*
X1731899D01*
X1727200Y2522601D02*
Y2531999D01*
X1747901Y2540000D02*
X1757299D01*
X1752600Y2535301D02*
Y2544699D01*
X1722501Y2552700D02*
X1731899D01*
X1727200Y2548001D02*
Y2557399D01*
X1747901Y2565400D02*
X1757299D01*
X1752600Y2560701D02*
Y2570099D01*
X1722501Y2578100D02*
X1731899D01*
X1727200Y2573401D02*
Y2582799D01*
X1747901Y2590800D02*
X1757299D01*
X1752600Y2586101D02*
Y2595499D01*
X1722501Y2603500D02*
X1731899D01*
X1727200Y2598801D02*
Y2608199D01*
X1747901Y2616200D02*
X1757299D01*
X1752600Y2611501D02*
Y2620899D01*
X1722501Y2628900D02*
X1731899D01*
X1727200Y2624201D02*
Y2633599D01*
X1747901Y2641600D02*
X1757299D01*
X1752600Y2636901D02*
Y2646299D01*
X1722501Y2654300D02*
X1731899D01*
X1727200Y2649601D02*
Y2658999D01*
X1747901Y2667000D02*
X1757299D01*
X1752600Y2662301D02*
Y2671699D01*
X1722501Y2679700D02*
X1731899D01*
X1727200Y2675001D02*
Y2684399D01*
X1747901Y2692400D02*
X1757299D01*
X1752600Y2687701D02*
Y2697099D01*
X1773301Y1917700D02*
X1782699D01*
X1778000Y1913001D02*
Y1922399D01*
X1798701Y1930400D02*
X1808099D01*
X1803400Y1925701D02*
Y1935099D01*
X1773301Y1943100D02*
X1782699D01*
X1778000Y1938401D02*
Y1947799D01*
X1798701Y1955800D02*
X1808099D01*
X1803400Y1951101D02*
Y1960499D01*
X1773301Y1968500D02*
X1782699D01*
X1778000Y1963801D02*
Y1973199D01*
X1798701Y1981200D02*
X1808099D01*
X1803400Y1976501D02*
Y1985899D01*
X1773301Y1993900D02*
X1782699D01*
X1778000Y1989201D02*
Y1998599D01*
X1798701Y2006600D02*
X1808099D01*
X1803400Y2001901D02*
Y2011299D01*
X1773301Y2019300D02*
X1782699D01*
X1778000Y2014601D02*
Y2023999D01*
X1798701Y2032000D02*
X1808099D01*
X1803400Y2027301D02*
Y2036699D01*
X1773301Y2044700D02*
X1782699D01*
X1778000Y2040001D02*
Y2049399D01*
X1798701Y2082800D02*
X1808099D01*
X1803400Y2078101D02*
Y2087499D01*
X1773301Y2095500D02*
X1782699D01*
X1778000Y2090801D02*
Y2100199D01*
X1798701Y2108200D02*
X1808099D01*
X1803400Y2103501D02*
Y2112899D01*
X1773301Y2120900D02*
X1782699D01*
X1778000Y2116201D02*
Y2125599D01*
X1798701Y2133600D02*
X1808099D01*
X1803400Y2128901D02*
Y2138299D01*
X1773301Y2146300D02*
X1782699D01*
X1778000Y2141601D02*
Y2150999D01*
X1798701Y2159000D02*
X1808099D01*
X1803400Y2154301D02*
Y2163699D01*
X1773301Y2171700D02*
X1782699D01*
X1778000Y2167001D02*
Y2176399D01*
X1798701Y2184400D02*
X1808099D01*
X1803400Y2179701D02*
Y2189099D01*
X1773301Y2197100D02*
X1782699D01*
X1778000Y2192401D02*
Y2201799D01*
X1798701Y2209800D02*
X1808099D01*
X1803400Y2205101D02*
Y2214499D01*
X1773301Y2222500D02*
X1782699D01*
X1778000Y2217801D02*
Y2227199D01*
X1798701Y2235200D02*
X1808099D01*
X1803400Y2230501D02*
Y2239899D01*
X1773301Y2247900D02*
X1782699D01*
X1778000Y2243201D02*
Y2252599D01*
X1798701Y2260600D02*
X1808099D01*
X1803400Y2255901D02*
Y2265299D01*
X1773301Y2273300D02*
X1782699D01*
X1778000Y2268601D02*
Y2277999D01*
X1798701Y2286000D02*
X1808099D01*
X1803400Y2281301D02*
Y2290699D01*
X1773301Y2298700D02*
X1782699D01*
X1778000Y2294001D02*
Y2303399D01*
X1798701Y2311400D02*
X1808099D01*
X1803400Y2306701D02*
Y2316099D01*
X1773301Y2324100D02*
X1782699D01*
X1778000Y2319401D02*
Y2328799D01*
X1798701Y2336800D02*
X1808099D01*
X1803400Y2332101D02*
Y2341499D01*
X1773301Y2349500D02*
X1782699D01*
X1778000Y2344801D02*
Y2354199D01*
X1798701Y2362200D02*
X1808099D01*
X1803400Y2357501D02*
Y2366899D01*
X1773301Y2374900D02*
X1782699D01*
X1778000Y2370201D02*
Y2379599D01*
X1798701Y2387600D02*
X1808099D01*
X1803400Y2382901D02*
Y2392299D01*
X1773301Y2400300D02*
X1782699D01*
X1778000Y2395601D02*
Y2404999D01*
X1798701Y2413000D02*
X1808099D01*
X1803400Y2408301D02*
Y2417699D01*
X1773301Y2425700D02*
X1782699D01*
X1778000Y2421001D02*
Y2430399D01*
X1798701Y2438400D02*
X1808099D01*
X1803400Y2433701D02*
Y2443099D01*
X1773301Y2451100D02*
X1782699D01*
X1778000Y2446401D02*
Y2455799D01*
X1798701Y2463800D02*
X1808099D01*
X1803400Y2459101D02*
Y2468499D01*
X1773301Y2476500D02*
X1782699D01*
X1778000Y2471801D02*
Y2481199D01*
X1798701Y2489200D02*
X1808099D01*
X1803400Y2484501D02*
Y2493899D01*
X1773301Y2501900D02*
X1782699D01*
X1778000Y2497201D02*
Y2506599D01*
X1798701Y2514600D02*
X1808099D01*
X1803400Y2509901D02*
Y2519299D01*
X1773301Y2527300D02*
X1782699D01*
X1778000Y2522601D02*
Y2531999D01*
X1798701Y2540000D02*
X1808099D01*
X1803400Y2535301D02*
Y2544699D01*
X1773301Y2552700D02*
X1782699D01*
X1778000Y2548001D02*
Y2557399D01*
X1798701Y2565400D02*
X1808099D01*
X1803400Y2560701D02*
Y2570099D01*
X1773301Y2578100D02*
X1782699D01*
X1778000Y2573401D02*
Y2582799D01*
X1798701Y2590800D02*
X1808099D01*
X1803400Y2586101D02*
Y2595499D01*
X1773301Y2603500D02*
X1782699D01*
X1778000Y2598801D02*
Y2608199D01*
X1798701Y2616200D02*
X1808099D01*
X1803400Y2611501D02*
Y2620899D01*
X1773301Y2628900D02*
X1782699D01*
X1778000Y2624201D02*
Y2633599D01*
X1798701Y2641600D02*
X1808099D01*
X1803400Y2636901D02*
Y2646299D01*
X1773301Y2654300D02*
X1782699D01*
X1778000Y2649601D02*
Y2658999D01*
X1798701Y2667000D02*
X1808099D01*
X1803400Y2662301D02*
Y2671699D01*
X1773301Y2679700D02*
X1782699D01*
X1778000Y2675001D02*
Y2684399D01*
X1798701Y2692400D02*
X1808099D01*
X1803400Y2687701D02*
Y2697099D01*
X1956308Y2063750D02*
X1980692D01*
X1968500Y2051558D02*
Y2075942D01*
X1956308Y2711450D02*
X1980692D01*
X1968500Y2699258D02*
Y2723642D01*
X1925701Y1917700D02*
X1935099D01*
X1930400Y1913001D02*
Y1922399D01*
X1951101Y1930400D02*
X1960499D01*
X1955800Y1925701D02*
Y1935099D01*
X1925701Y1943100D02*
X1935099D01*
X1930400Y1938401D02*
Y1947799D01*
X1951101Y1955800D02*
X1960499D01*
X1955800Y1951101D02*
Y1960499D01*
X1925701Y1968500D02*
X1935099D01*
X1930400Y1963801D02*
Y1973199D01*
X1951101Y1981200D02*
X1960499D01*
X1955800Y1976501D02*
Y1985899D01*
X1925701Y1993900D02*
X1935099D01*
X1930400Y1989201D02*
Y1998599D01*
X1951101Y2006600D02*
X1960499D01*
X1955800Y2001901D02*
Y2011299D01*
X1925701Y2019300D02*
X1935099D01*
X1930400Y2014601D02*
Y2023999D01*
X1951101Y2032000D02*
X1960499D01*
X1955800Y2027301D02*
Y2036699D01*
X1925701Y2044700D02*
X1935099D01*
X1930400Y2040001D02*
Y2049399D01*
X1951101Y2082800D02*
X1960499D01*
X1955800Y2078101D02*
Y2087499D01*
X1925701Y2095500D02*
X1935099D01*
X1930400Y2090801D02*
Y2100199D01*
X1951101Y2108200D02*
X1960499D01*
X1955800Y2103501D02*
Y2112899D01*
X1925701Y2120900D02*
X1935099D01*
X1930400Y2116201D02*
Y2125599D01*
X1951101Y2133600D02*
X1960499D01*
X1955800Y2128901D02*
Y2138299D01*
X1925701Y2146300D02*
X1935099D01*
X1930400Y2141601D02*
Y2150999D01*
X1951101Y2159000D02*
X1960499D01*
X1955800Y2154301D02*
Y2163699D01*
X1925701Y2171700D02*
X1935099D01*
X1930400Y2167001D02*
Y2176399D01*
X1951101Y2184400D02*
X1960499D01*
X1955800Y2179701D02*
Y2189099D01*
X1925701Y2197100D02*
X1935099D01*
X1930400Y2192401D02*
Y2201799D01*
X1951101Y2209800D02*
X1960499D01*
X1955800Y2205101D02*
Y2214499D01*
X1925701Y2222500D02*
X1935099D01*
X1930400Y2217801D02*
Y2227199D01*
X1951101Y2235200D02*
X1960499D01*
X1955800Y2230501D02*
Y2239899D01*
X1925701Y2247900D02*
X1935099D01*
X1930400Y2243201D02*
Y2252599D01*
X1951101Y2260600D02*
X1960499D01*
X1955800Y2255901D02*
Y2265299D01*
X1925701Y2273300D02*
X1935099D01*
X1930400Y2268601D02*
Y2277999D01*
X1951101Y2286000D02*
X1960499D01*
X1955800Y2281301D02*
Y2290699D01*
X1925701Y2298700D02*
X1935099D01*
X1930400Y2294001D02*
Y2303399D01*
X1951101Y2311400D02*
X1960499D01*
X1955800Y2306701D02*
Y2316099D01*
X1925701Y2324100D02*
X1935099D01*
X1930400Y2319401D02*
Y2328799D01*
X1951101Y2336800D02*
X1960499D01*
X1955800Y2332101D02*
Y2341499D01*
X1925701Y2349500D02*
X1935099D01*
X1930400Y2344801D02*
Y2354199D01*
X1951101Y2362200D02*
X1960499D01*
X1955800Y2357501D02*
Y2366899D01*
X1925701Y2374900D02*
X1935099D01*
X1930400Y2370201D02*
Y2379599D01*
X1951101Y2387600D02*
X1960499D01*
X1955800Y2382901D02*
Y2392299D01*
X1925701Y2400300D02*
X1935099D01*
X1930400Y2395601D02*
Y2404999D01*
X1951101Y2413000D02*
X1960499D01*
X1955800Y2408301D02*
Y2417699D01*
X1925701Y2425700D02*
X1935099D01*
X1930400Y2421001D02*
Y2430399D01*
X1951101Y2438400D02*
X1960499D01*
X1955800Y2433701D02*
Y2443099D01*
X1925701Y2451100D02*
X1935099D01*
X1930400Y2446401D02*
Y2455799D01*
X1951101Y2463800D02*
X1960499D01*
X1955800Y2459101D02*
Y2468499D01*
X1925701Y2476500D02*
X1935099D01*
X1930400Y2471801D02*
Y2481199D01*
X1951101Y2489200D02*
X1960499D01*
X1955800Y2484501D02*
Y2493899D01*
X1925701Y2501900D02*
X1935099D01*
X1930400Y2497201D02*
Y2506599D01*
X1951101Y2514600D02*
X1960499D01*
X1955800Y2509901D02*
Y2519299D01*
X1925701Y2527300D02*
X1935099D01*
X1930400Y2522601D02*
Y2531999D01*
X1951101Y2540000D02*
X1960499D01*
X1955800Y2535301D02*
Y2544699D01*
X1925701Y2552700D02*
X1935099D01*
X1930400Y2548001D02*
Y2557399D01*
X1951101Y2565400D02*
X1960499D01*
X1955800Y2560701D02*
Y2570099D01*
X1925701Y2578100D02*
X1935099D01*
X1930400Y2573401D02*
Y2582799D01*
X1951101Y2590800D02*
X1960499D01*
X1955800Y2586101D02*
Y2595499D01*
X1925701Y2603500D02*
X1935099D01*
X1930400Y2598801D02*
Y2608199D01*
X1951101Y2616200D02*
X1960499D01*
X1955800Y2611501D02*
Y2620899D01*
X1925701Y2628900D02*
X1935099D01*
X1930400Y2624201D02*
Y2633599D01*
X1951101Y2641600D02*
X1960499D01*
X1955800Y2636901D02*
Y2646299D01*
X1925701Y2654300D02*
X1935099D01*
X1930400Y2649601D02*
Y2658999D01*
X1951101Y2667000D02*
X1960499D01*
X1955800Y2662301D02*
Y2671699D01*
X1925701Y2679700D02*
X1935099D01*
X1930400Y2675001D02*
Y2684399D01*
X1951101Y2692400D02*
X1960499D01*
X1955800Y2687701D02*
Y2697099D01*
X1976501Y1917700D02*
X1985899D01*
X1981200Y1913001D02*
Y1922399D01*
X2001901Y1930400D02*
X2011299D01*
X2006600Y1925701D02*
Y1935099D01*
X1976501Y1943100D02*
X1985899D01*
X1981200Y1938401D02*
Y1947799D01*
X2001901Y1955800D02*
X2011299D01*
X2006600Y1951101D02*
Y1960499D01*
X1976501Y1968500D02*
X1985899D01*
X1981200Y1963801D02*
Y1973199D01*
X2001901Y1981200D02*
X2011299D01*
X2006600Y1976501D02*
Y1985899D01*
X1976501Y1993900D02*
X1985899D01*
X1981200Y1989201D02*
Y1998599D01*
X2001901Y2006600D02*
X2011299D01*
X2006600Y2001901D02*
Y2011299D01*
X1976501Y2019300D02*
X1985899D01*
X1981200Y2014601D02*
Y2023999D01*
X2001901Y2032000D02*
X2011299D01*
X2006600Y2027301D02*
Y2036699D01*
X1976501Y2044700D02*
X1985899D01*
X1981200Y2040001D02*
Y2049399D01*
X2001901Y2082800D02*
X2011299D01*
X2006600Y2078101D02*
Y2087499D01*
X1976501Y2095500D02*
X1985899D01*
X1981200Y2090801D02*
Y2100199D01*
X2001901Y2108200D02*
X2011299D01*
X2006600Y2103501D02*
Y2112899D01*
X1976501Y2120900D02*
X1985899D01*
X1981200Y2116201D02*
Y2125599D01*
X2001901Y2133600D02*
X2011299D01*
X2006600Y2128901D02*
Y2138299D01*
X1976501Y2146300D02*
X1985899D01*
X1981200Y2141601D02*
Y2150999D01*
X2001901Y2159000D02*
X2011299D01*
X2006600Y2154301D02*
Y2163699D01*
X1976501Y2171700D02*
X1985899D01*
X1981200Y2167001D02*
Y2176399D01*
X2001901Y2184400D02*
X2011299D01*
X2006600Y2179701D02*
Y2189099D01*
X1976501Y2197100D02*
X1985899D01*
X1981200Y2192401D02*
Y2201799D01*
X2001901Y2209800D02*
X2011299D01*
X2006600Y2205101D02*
Y2214499D01*
X1976501Y2222500D02*
X1985899D01*
X1981200Y2217801D02*
Y2227199D01*
X2001901Y2235200D02*
X2011299D01*
X2006600Y2230501D02*
Y2239899D01*
X1976501Y2247900D02*
X1985899D01*
X1981200Y2243201D02*
Y2252599D01*
X2001901Y2260600D02*
X2011299D01*
X2006600Y2255901D02*
Y2265299D01*
X1976501Y2273300D02*
X1985899D01*
X1981200Y2268601D02*
Y2277999D01*
X2001901Y2286000D02*
X2011299D01*
X2006600Y2281301D02*
Y2290699D01*
X1976501Y2298700D02*
X1985899D01*
X1981200Y2294001D02*
Y2303399D01*
X2001901Y2311400D02*
X2011299D01*
X2006600Y2306701D02*
Y2316099D01*
X1976501Y2324100D02*
X1985899D01*
X1981200Y2319401D02*
Y2328799D01*
X2001901Y2336800D02*
X2011299D01*
X2006600Y2332101D02*
Y2341499D01*
X1976501Y2349500D02*
X1985899D01*
X1981200Y2344801D02*
Y2354199D01*
X2001901Y2362200D02*
X2011299D01*
X2006600Y2357501D02*
Y2366899D01*
X1976501Y2374900D02*
X1985899D01*
X1981200Y2370201D02*
Y2379599D01*
X2001901Y2387600D02*
X2011299D01*
X2006600Y2382901D02*
Y2392299D01*
X1976501Y2400300D02*
X1985899D01*
X1981200Y2395601D02*
Y2404999D01*
X2001901Y2413000D02*
X2011299D01*
X2006600Y2408301D02*
Y2417699D01*
X1976501Y2425700D02*
X1985899D01*
X1981200Y2421001D02*
Y2430399D01*
X2001901Y2438400D02*
X2011299D01*
X2006600Y2433701D02*
Y2443099D01*
X1976501Y2451100D02*
X1985899D01*
X1981200Y2446401D02*
Y2455799D01*
X2001901Y2463800D02*
X2011299D01*
X2006600Y2459101D02*
Y2468499D01*
X1976501Y2476500D02*
X1985899D01*
X1981200Y2471801D02*
Y2481199D01*
X2001901Y2489200D02*
X2011299D01*
X2006600Y2484501D02*
Y2493899D01*
X1976501Y2501900D02*
X1985899D01*
X1981200Y2497201D02*
Y2506599D01*
X2001901Y2514600D02*
X2011299D01*
X2006600Y2509901D02*
Y2519299D01*
X1976501Y2527300D02*
X1985899D01*
X1981200Y2522601D02*
Y2531999D01*
X2001901Y2540000D02*
X2011299D01*
X2006600Y2535301D02*
Y2544699D01*
X1976501Y2552700D02*
X1985899D01*
X1981200Y2548001D02*
Y2557399D01*
X2001901Y2565400D02*
X2011299D01*
X2006600Y2560701D02*
Y2570099D01*
X1976501Y2578100D02*
X1985899D01*
X1981200Y2573401D02*
Y2582799D01*
X2001901Y2590800D02*
X2011299D01*
X2006600Y2586101D02*
Y2595499D01*
X1976501Y2603500D02*
X1985899D01*
X1981200Y2598801D02*
Y2608199D01*
X2001901Y2616200D02*
X2011299D01*
X2006600Y2611501D02*
Y2620899D01*
X1976501Y2628900D02*
X1985899D01*
X1981200Y2624201D02*
Y2633599D01*
X2001901Y2641600D02*
X2011299D01*
X2006600Y2636901D02*
Y2646299D01*
X1976501Y2654300D02*
X1985899D01*
X1981200Y2649601D02*
Y2658999D01*
X2001901Y2667000D02*
X2011299D01*
X2006600Y2662301D02*
Y2671699D01*
X1976501Y2679700D02*
X1985899D01*
X1981200Y2675001D02*
Y2684399D01*
X2001901Y2692400D02*
X2011299D01*
X2006600Y2687701D02*
Y2697099D01*
X1102440Y1173480D02*
X1112440D01*
X1107440Y1168480D02*
Y1178480D01*
X1127840Y1173480D02*
X1137840D01*
X1132840Y1168480D02*
Y1178480D01*
X1153240Y1173480D02*
X1163240D01*
X1158240Y1168480D02*
Y1178480D01*
X1178640Y1173480D02*
X1188640D01*
X1183640Y1168480D02*
Y1178480D01*
X1204040Y1173480D02*
X1214040D01*
X1209040Y1168480D02*
Y1178480D01*
X1229440Y1173480D02*
X1239440D01*
X1234440Y1168480D02*
Y1178480D01*
X1254840Y1173480D02*
X1264840D01*
X1259840Y1168480D02*
Y1178480D01*
X1280240Y1173480D02*
X1290240D01*
X1285240Y1168480D02*
Y1178480D01*
X1305640Y1173480D02*
X1315640D01*
X1310640Y1168480D02*
Y1178480D01*
X1331040Y1173480D02*
X1341040D01*
X1336040Y1168480D02*
Y1178480D01*
X1356440Y1173480D02*
X1366440D01*
X1361440Y1168480D02*
Y1178480D01*
X1381840Y1173480D02*
X1391840D01*
X1386840Y1168480D02*
Y1178480D01*
X1407240Y1173480D02*
X1417240D01*
X1412240Y1168480D02*
Y1178480D01*
X1432640Y1173480D02*
X1442640D01*
X1437640Y1168480D02*
Y1178480D01*
X1458040Y1173480D02*
X1468040D01*
X1463040Y1168480D02*
Y1178480D01*
X1483440Y1173480D02*
X1493440D01*
X1488440Y1168480D02*
Y1178480D01*
X1483440Y1325880D02*
X1493440D01*
X1488440Y1320880D02*
Y1330880D01*
X1458040Y1325880D02*
X1468040D01*
X1463040Y1320880D02*
Y1330880D01*
X1432640Y1325880D02*
X1442640D01*
X1437640Y1320880D02*
Y1330880D01*
X1407240Y1325880D02*
X1417240D01*
X1412240Y1320880D02*
Y1330880D01*
X1381840Y1325880D02*
X1391840D01*
X1386840Y1320880D02*
Y1330880D01*
X1356440Y1325880D02*
X1366440D01*
X1361440Y1320880D02*
Y1330880D01*
X1331040Y1325880D02*
X1341040D01*
X1336040Y1320880D02*
Y1330880D01*
X1305640Y1325880D02*
X1315640D01*
X1310640Y1320880D02*
Y1330880D01*
X1280240Y1325880D02*
X1290240D01*
X1285240Y1320880D02*
Y1330880D01*
X1254840Y1325880D02*
X1264840D01*
X1259840Y1320880D02*
Y1330880D01*
X1229440Y1325880D02*
X1239440D01*
X1234440Y1320880D02*
Y1330880D01*
X1204040Y1325880D02*
X1214040D01*
X1209040Y1320880D02*
Y1330880D01*
X1178640Y1325880D02*
X1188640D01*
X1183640Y1320880D02*
Y1330880D01*
X1153240Y1325880D02*
X1163240D01*
X1158240Y1320880D02*
Y1330880D01*
X1127840Y1325880D02*
X1137840D01*
X1132840Y1320880D02*
Y1330880D01*
X1102440Y1325880D02*
X1112440D01*
X1107440Y1320880D02*
Y1330880D01*
X2205101Y2692400D02*
X2214499D01*
X2209800Y2687701D02*
Y2697099D01*
X2179701Y2679700D02*
X2189099D01*
X2184400Y2675001D02*
Y2684399D01*
X2205101Y2667000D02*
X2214499D01*
X2209800Y2662301D02*
Y2671699D01*
X2179701Y2654300D02*
X2189099D01*
X2184400Y2649601D02*
Y2658999D01*
X2205101Y2641600D02*
X2214499D01*
X2209800Y2636901D02*
Y2646299D01*
X2179701Y2628900D02*
X2189099D01*
X2184400Y2624201D02*
Y2633599D01*
X2205101Y2616200D02*
X2214499D01*
X2209800Y2611501D02*
Y2620899D01*
X2179701Y2603500D02*
X2189099D01*
X2184400Y2598801D02*
Y2608199D01*
X2205101Y2590800D02*
X2214499D01*
X2209800Y2586101D02*
Y2595499D01*
X2179701Y2578100D02*
X2189099D01*
X2184400Y2573401D02*
Y2582799D01*
X2205101Y2565400D02*
X2214499D01*
X2209800Y2560701D02*
Y2570099D01*
X2179701Y2552700D02*
X2189099D01*
X2184400Y2548001D02*
Y2557399D01*
X2205101Y2540000D02*
X2214499D01*
X2209800Y2535301D02*
Y2544699D01*
X2179701Y2527300D02*
X2189099D01*
X2184400Y2522601D02*
Y2531999D01*
X2205101Y2514600D02*
X2214499D01*
X2209800Y2509901D02*
Y2519299D01*
X2179701Y2501900D02*
X2189099D01*
X2184400Y2497201D02*
Y2506599D01*
X2205101Y2489200D02*
X2214499D01*
X2209800Y2484501D02*
Y2493899D01*
X2179701Y2476500D02*
X2189099D01*
X2184400Y2471801D02*
Y2481199D01*
X2205101Y2463800D02*
X2214499D01*
X2209800Y2459101D02*
Y2468499D01*
X2179701Y2451100D02*
X2189099D01*
X2184400Y2446401D02*
Y2455799D01*
X2205101Y2438400D02*
X2214499D01*
X2209800Y2433701D02*
Y2443099D01*
X2179701Y2425700D02*
X2189099D01*
X2184400Y2421001D02*
Y2430399D01*
X2205101Y2413000D02*
X2214499D01*
X2209800Y2408301D02*
Y2417699D01*
X2179701Y2400300D02*
X2189099D01*
X2184400Y2395601D02*
Y2404999D01*
X2205101Y2387600D02*
X2214499D01*
X2209800Y2382901D02*
Y2392299D01*
X2179701Y2374900D02*
X2189099D01*
X2184400Y2370201D02*
Y2379599D01*
X2205101Y2362200D02*
X2214499D01*
X2209800Y2357501D02*
Y2366899D01*
X2179701Y2349500D02*
X2189099D01*
X2184400Y2344801D02*
Y2354199D01*
X2205101Y2336800D02*
X2214499D01*
X2209800Y2332101D02*
Y2341499D01*
X2179701Y2324100D02*
X2189099D01*
X2184400Y2319401D02*
Y2328799D01*
X2205101Y2311400D02*
X2214499D01*
X2209800Y2306701D02*
Y2316099D01*
X2179701Y2298700D02*
X2189099D01*
X2184400Y2294001D02*
Y2303399D01*
X2205101Y2286000D02*
X2214499D01*
X2209800Y2281301D02*
Y2290699D01*
X2179701Y2273300D02*
X2189099D01*
X2184400Y2268601D02*
Y2277999D01*
X2205101Y2260600D02*
X2214499D01*
X2209800Y2255901D02*
Y2265299D01*
X2179701Y2247900D02*
X2189099D01*
X2184400Y2243201D02*
Y2252599D01*
X2205101Y2235200D02*
X2214499D01*
X2209800Y2230501D02*
Y2239899D01*
X2179701Y2222500D02*
X2189099D01*
X2184400Y2217801D02*
Y2227199D01*
X2205101Y2209800D02*
X2214499D01*
X2209800Y2205101D02*
Y2214499D01*
X2179701Y2197100D02*
X2189099D01*
X2184400Y2192401D02*
Y2201799D01*
X2205101Y2184400D02*
X2214499D01*
X2209800Y2179701D02*
Y2189099D01*
X2179701Y2171700D02*
X2189099D01*
X2184400Y2167001D02*
Y2176399D01*
X2205101Y2159000D02*
X2214499D01*
X2209800Y2154301D02*
Y2163699D01*
X2179701Y2146300D02*
X2189099D01*
X2184400Y2141601D02*
Y2150999D01*
X2205101Y2133600D02*
X2214499D01*
X2209800Y2128901D02*
Y2138299D01*
X2179701Y2120900D02*
X2189099D01*
X2184400Y2116201D02*
Y2125599D01*
X2205101Y2108200D02*
X2214499D01*
X2209800Y2103501D02*
Y2112899D01*
X2179701Y2095500D02*
X2189099D01*
X2184400Y2090801D02*
Y2100199D01*
X2205101Y2082800D02*
X2214499D01*
X2209800Y2078101D02*
Y2087499D01*
X2179701Y2044700D02*
X2189099D01*
X2184400Y2040001D02*
Y2049399D01*
X2205101Y2032000D02*
X2214499D01*
X2209800Y2027301D02*
Y2036699D01*
X2179701Y2019300D02*
X2189099D01*
X2184400Y2014601D02*
Y2023999D01*
X2205101Y2006600D02*
X2214499D01*
X2209800Y2001901D02*
Y2011299D01*
X2179701Y1993900D02*
X2189099D01*
X2184400Y1989201D02*
Y1998599D01*
X2205101Y1981200D02*
X2214499D01*
X2209800Y1976501D02*
Y1985899D01*
X2179701Y1968500D02*
X2189099D01*
X2184400Y1963801D02*
Y1973199D01*
X2205101Y1955800D02*
X2214499D01*
X2209800Y1951101D02*
Y1960499D01*
X2179701Y1943100D02*
X2189099D01*
X2184400Y1938401D02*
Y1947799D01*
X2205101Y1930400D02*
X2214499D01*
X2209800Y1925701D02*
Y1935099D01*
X2179701Y1917700D02*
X2189099D01*
X2184400Y1913001D02*
Y1922399D01*
X2154301Y2692400D02*
X2163699D01*
X2159000Y2687701D02*
Y2697099D01*
X2128901Y2679700D02*
X2138299D01*
X2133600Y2675001D02*
Y2684399D01*
X2154301Y2667000D02*
X2163699D01*
X2159000Y2662301D02*
Y2671699D01*
X2128901Y2654300D02*
X2138299D01*
X2133600Y2649601D02*
Y2658999D01*
X2154301Y2641600D02*
X2163699D01*
X2159000Y2636901D02*
Y2646299D01*
X2128901Y2628900D02*
X2138299D01*
X2133600Y2624201D02*
Y2633599D01*
X2154301Y2616200D02*
X2163699D01*
X2159000Y2611501D02*
Y2620899D01*
X2128901Y2603500D02*
X2138299D01*
X2133600Y2598801D02*
Y2608199D01*
X2154301Y2590800D02*
X2163699D01*
X2159000Y2586101D02*
Y2595499D01*
X2128901Y2578100D02*
X2138299D01*
X2133600Y2573401D02*
Y2582799D01*
X2154301Y2565400D02*
X2163699D01*
X2159000Y2560701D02*
Y2570099D01*
X2128901Y2552700D02*
X2138299D01*
X2133600Y2548001D02*
Y2557399D01*
X2154301Y2540000D02*
X2163699D01*
X2159000Y2535301D02*
Y2544699D01*
X2128901Y2527300D02*
X2138299D01*
X2133600Y2522601D02*
Y2531999D01*
X2154301Y2514600D02*
X2163699D01*
X2159000Y2509901D02*
Y2519299D01*
X2128901Y2501900D02*
X2138299D01*
X2133600Y2497201D02*
Y2506599D01*
X2154301Y2489200D02*
X2163699D01*
X2159000Y2484501D02*
Y2493899D01*
X2128901Y2476500D02*
X2138299D01*
X2133600Y2471801D02*
Y2481199D01*
X2154301Y2463800D02*
X2163699D01*
X2159000Y2459101D02*
Y2468499D01*
X2128901Y2451100D02*
X2138299D01*
X2133600Y2446401D02*
Y2455799D01*
X2154301Y2438400D02*
X2163699D01*
X2159000Y2433701D02*
Y2443099D01*
X2128901Y2425700D02*
X2138299D01*
X2133600Y2421001D02*
Y2430399D01*
X2154301Y2413000D02*
X2163699D01*
X2159000Y2408301D02*
Y2417699D01*
X2128901Y2400300D02*
X2138299D01*
X2133600Y2395601D02*
Y2404999D01*
X2154301Y2387600D02*
X2163699D01*
X2159000Y2382901D02*
Y2392299D01*
X2128901Y2374900D02*
X2138299D01*
X2133600Y2370201D02*
Y2379599D01*
X2154301Y2362200D02*
X2163699D01*
X2159000Y2357501D02*
Y2366899D01*
X2128901Y2349500D02*
X2138299D01*
X2133600Y2344801D02*
Y2354199D01*
X2154301Y2336800D02*
X2163699D01*
X2159000Y2332101D02*
Y2341499D01*
X2128901Y2324100D02*
X2138299D01*
X2133600Y2319401D02*
Y2328799D01*
X2154301Y2311400D02*
X2163699D01*
X2159000Y2306701D02*
Y2316099D01*
X2128901Y2298700D02*
X2138299D01*
X2133600Y2294001D02*
Y2303399D01*
X2154301Y2286000D02*
X2163699D01*
X2159000Y2281301D02*
Y2290699D01*
X2128901Y2273300D02*
X2138299D01*
X2133600Y2268601D02*
Y2277999D01*
X2154301Y2260600D02*
X2163699D01*
X2159000Y2255901D02*
Y2265299D01*
X2128901Y2247900D02*
X2138299D01*
X2133600Y2243201D02*
Y2252599D01*
X2154301Y2235200D02*
X2163699D01*
X2159000Y2230501D02*
Y2239899D01*
X2128901Y2222500D02*
X2138299D01*
X2133600Y2217801D02*
Y2227199D01*
X2154301Y2209800D02*
X2163699D01*
X2159000Y2205101D02*
Y2214499D01*
X2128901Y2197100D02*
X2138299D01*
X2133600Y2192401D02*
Y2201799D01*
X2154301Y2184400D02*
X2163699D01*
X2159000Y2179701D02*
Y2189099D01*
X2128901Y2171700D02*
X2138299D01*
X2133600Y2167001D02*
Y2176399D01*
X2154301Y2159000D02*
X2163699D01*
X2159000Y2154301D02*
Y2163699D01*
X2128901Y2146300D02*
X2138299D01*
X2133600Y2141601D02*
Y2150999D01*
X2154301Y2133600D02*
X2163699D01*
X2159000Y2128901D02*
Y2138299D01*
X2128901Y2120900D02*
X2138299D01*
X2133600Y2116201D02*
Y2125599D01*
X2154301Y2108200D02*
X2163699D01*
X2159000Y2103501D02*
Y2112899D01*
X2128901Y2095500D02*
X2138299D01*
X2133600Y2090801D02*
Y2100199D01*
X2154301Y2082800D02*
X2163699D01*
X2159000Y2078101D02*
Y2087499D01*
X2128901Y2044700D02*
X2138299D01*
X2133600Y2040001D02*
Y2049399D01*
X2154301Y2032000D02*
X2163699D01*
X2159000Y2027301D02*
Y2036699D01*
X2128901Y2019300D02*
X2138299D01*
X2133600Y2014601D02*
Y2023999D01*
X2154301Y2006600D02*
X2163699D01*
X2159000Y2001901D02*
Y2011299D01*
X2128901Y1993900D02*
X2138299D01*
X2133600Y1989201D02*
Y1998599D01*
X2154301Y1981200D02*
X2163699D01*
X2159000Y1976501D02*
Y1985899D01*
X2128901Y1968500D02*
X2138299D01*
X2133600Y1963801D02*
Y1973199D01*
X2154301Y1955800D02*
X2163699D01*
X2159000Y1951101D02*
Y1960499D01*
X2128901Y1943100D02*
X2138299D01*
X2133600Y1938401D02*
Y1947799D01*
X2154301Y1930400D02*
X2163699D01*
X2159000Y1925701D02*
Y1935099D01*
X2128901Y1917700D02*
X2138299D01*
X2133600Y1913001D02*
Y1922399D01*
X2159508Y2711450D02*
X2183892D01*
X2171700Y2699258D02*
Y2723642D01*
X2159508Y2063750D02*
X2183892D01*
X2171700Y2051558D02*
Y2075942D01*
X3414840Y2692400D02*
X3422840D01*
X3418840Y2688400D02*
Y2696400D01*
X3389440Y2679700D02*
X3397440D01*
X3393440Y2675700D02*
Y2683700D01*
X3414840Y2667000D02*
X3422840D01*
X3418840Y2663000D02*
Y2671000D01*
X3389440Y2654300D02*
X3397440D01*
X3393440Y2650300D02*
Y2658300D01*
X3414840Y2641600D02*
X3422840D01*
X3418840Y2637600D02*
Y2645600D01*
X3389440Y2628900D02*
X3397440D01*
X3393440Y2624900D02*
Y2632900D01*
X3414840Y2616200D02*
X3422840D01*
X3418840Y2612200D02*
Y2620200D01*
X3389440Y2603500D02*
X3397440D01*
X3393440Y2599500D02*
Y2607500D01*
X3414840Y2590800D02*
X3422840D01*
X3418840Y2586800D02*
Y2594800D01*
X3389440Y2578100D02*
X3397440D01*
X3393440Y2574100D02*
Y2582100D01*
X3414840Y2565400D02*
X3422840D01*
X3418840Y2561400D02*
Y2569400D01*
X3389440Y2552700D02*
X3397440D01*
X3393440Y2548700D02*
Y2556700D01*
X3414840Y2540000D02*
X3422840D01*
X3418840Y2536000D02*
Y2544000D01*
X3389440Y2527300D02*
X3397440D01*
X3393440Y2523300D02*
Y2531300D01*
X3414840Y2514600D02*
X3422840D01*
X3418840Y2510600D02*
Y2518600D01*
X3389440Y2501900D02*
X3397440D01*
X3393440Y2497900D02*
Y2505900D01*
X3414840Y2489200D02*
X3422840D01*
X3418840Y2485200D02*
Y2493200D01*
X3389440Y2476500D02*
X3397440D01*
X3393440Y2472500D02*
Y2480500D01*
X3414840Y2463800D02*
X3422840D01*
X3418840Y2459800D02*
Y2467800D01*
X3389440Y2451100D02*
X3397440D01*
X3393440Y2447100D02*
Y2455100D01*
X3414840Y2438400D02*
X3422840D01*
X3418840Y2434400D02*
Y2442400D01*
X3389440Y2425700D02*
X3397440D01*
X3393440Y2421700D02*
Y2429700D01*
X3414840Y2413000D02*
X3422840D01*
X3418840Y2409000D02*
Y2417000D01*
X3389440Y2400300D02*
X3397440D01*
X3393440Y2396300D02*
Y2404300D01*
X3414840Y2387600D02*
X3422840D01*
X3418840Y2383600D02*
Y2391600D01*
X3389440Y2374900D02*
X3397440D01*
X3393440Y2370900D02*
Y2378900D01*
X3414840Y2362200D02*
X3422840D01*
X3418840Y2358200D02*
Y2366200D01*
X3389440Y2349500D02*
X3397440D01*
X3393440Y2345500D02*
Y2353500D01*
X3414840Y2336800D02*
X3422840D01*
X3418840Y2332800D02*
Y2340800D01*
X3389440Y2324100D02*
X3397440D01*
X3393440Y2320100D02*
Y2328100D01*
X3414840Y2311400D02*
X3422840D01*
X3418840Y2307400D02*
Y2315400D01*
X3389440Y2298700D02*
X3397440D01*
X3393440Y2294700D02*
Y2302700D01*
X3414840Y2286000D02*
X3422840D01*
X3418840Y2282000D02*
Y2290000D01*
X3389440Y2273300D02*
X3397440D01*
X3393440Y2269300D02*
Y2277300D01*
X3414840Y2260600D02*
X3422840D01*
X3418840Y2256600D02*
Y2264600D01*
X3389440Y2247900D02*
X3397440D01*
X3393440Y2243900D02*
Y2251900D01*
X3414840Y2184400D02*
X3422840D01*
X3418840Y2180400D02*
Y2188400D01*
X3389440Y2171700D02*
X3397440D01*
X3393440Y2167700D02*
Y2175700D01*
X3414840Y2159000D02*
X3422840D01*
X3418840Y2155000D02*
Y2163000D01*
X3389440Y2146300D02*
X3397440D01*
X3393440Y2142300D02*
Y2150300D01*
X3414840Y2133600D02*
X3422840D01*
X3418840Y2129600D02*
Y2137600D01*
X3389440Y2120900D02*
X3397440D01*
X3393440Y2116900D02*
Y2124900D01*
X3414840Y2108200D02*
X3422840D01*
X3418840Y2104200D02*
Y2112200D01*
X3389440Y2095500D02*
X3397440D01*
X3393440Y2091500D02*
Y2099500D01*
X3414840Y2082800D02*
X3422840D01*
X3418840Y2078800D02*
Y2086800D01*
X3389440Y2070100D02*
X3397440D01*
X3393440Y2066100D02*
Y2074100D01*
X3414840Y2057400D02*
X3422840D01*
X3418840Y2053400D02*
Y2061400D01*
X3389440Y2044700D02*
X3397440D01*
X3393440Y2040700D02*
Y2048700D01*
X3414840Y2032000D02*
X3422840D01*
X3418840Y2028000D02*
Y2036000D01*
X3389440Y2019300D02*
X3397440D01*
X3393440Y2015300D02*
Y2023300D01*
X3414840Y2006600D02*
X3422840D01*
X3418840Y2002600D02*
Y2010600D01*
X3389440Y1993900D02*
X3397440D01*
X3393440Y1989900D02*
Y1997900D01*
X3414840Y1981200D02*
X3422840D01*
X3418840Y1977200D02*
Y1985200D01*
X3389440Y1968500D02*
X3397440D01*
X3393440Y1964500D02*
Y1972500D01*
X3414840Y1955800D02*
X3422840D01*
X3418840Y1951800D02*
Y1959800D01*
X3389440Y1943100D02*
X3397440D01*
X3393440Y1939100D02*
Y1947100D01*
X3414840Y1930400D02*
X3422840D01*
X3418840Y1926400D02*
Y1934400D01*
X3389440Y1917700D02*
X3397440D01*
X3393440Y1913700D02*
Y1921700D01*
X3414840Y1905000D02*
X3422840D01*
X3418840Y1901000D02*
Y1909000D01*
X3389440Y1892300D02*
X3397440D01*
X3393440Y1888300D02*
Y1896300D01*
X3414840Y1879600D02*
X3422840D01*
X3418840Y1875600D02*
Y1883600D01*
X3389440Y1866900D02*
X3397440D01*
X3393440Y1862900D02*
Y1870900D01*
X3414840Y1854200D02*
X3422840D01*
X3418840Y1850200D02*
Y1858200D01*
X3389440Y1841500D02*
X3397440D01*
X3393440Y1837500D02*
Y1845500D01*
X3414840Y1828800D02*
X3422840D01*
X3418840Y1824800D02*
Y1832800D01*
X3389440Y1816100D02*
X3397440D01*
X3393440Y1812100D02*
Y1820100D01*
X3414840Y1803400D02*
X3422840D01*
X3418840Y1799400D02*
Y1807400D01*
X3389440Y1790700D02*
X3397440D01*
X3393440Y1786700D02*
Y1794700D01*
X3414840Y1778000D02*
X3422840D01*
X3418840Y1774000D02*
Y1782000D01*
X3389440Y1765300D02*
X3397440D01*
X3393440Y1761300D02*
Y1769300D01*
X3414840Y1752600D02*
X3422840D01*
X3418840Y1748600D02*
Y1756600D01*
X3389440Y1739900D02*
X3397440D01*
X3393440Y1735900D02*
Y1743900D01*
X2069084Y1941830D02*
X2076704D01*
X2072894Y1938020D02*
Y1945640D01*
X2069084Y1916430D02*
X2076704D01*
X2072894Y1912620D02*
Y1920240D01*
X1316800Y1955800D02*
X1324800D01*
X1320800Y1951800D02*
Y1959800D01*
X1316800Y1981200D02*
X1324800D01*
X1320800Y1977200D02*
Y1985200D01*
X1316800Y2006600D02*
X1324800D01*
X1320800Y2002600D02*
Y2010600D01*
X1316800Y2032000D02*
X1324800D01*
X1320800Y2028000D02*
Y2036000D01*
X1316800Y2057400D02*
X1324800D01*
X1320800Y2053400D02*
Y2061400D01*
X1316800Y2082800D02*
X1324800D01*
X1320800Y2078800D02*
Y2086800D01*
X1316800Y2108200D02*
X1324800D01*
X1320800Y2104200D02*
Y2112200D01*
X1316800Y2133600D02*
X1324800D01*
X1320800Y2129600D02*
Y2137600D01*
X1316800Y2159000D02*
X1324800D01*
X1320800Y2155000D02*
Y2163000D01*
X1316800Y2184400D02*
X1324800D01*
X1320800Y2180400D02*
Y2188400D01*
X1316800Y2209800D02*
X1324800D01*
X1320800Y2205800D02*
Y2213800D01*
X1316800Y2235200D02*
X1324800D01*
X1320800Y2231200D02*
Y2239200D01*
X1316800Y2260600D02*
X1324800D01*
X1320800Y2256600D02*
Y2264600D01*
X1316800Y2286000D02*
X1324800D01*
X1320800Y2282000D02*
Y2290000D01*
X1316800Y2311400D02*
X1324800D01*
X1320800Y2307400D02*
Y2315400D01*
X1316800Y2336800D02*
X1324800D01*
X1320800Y2332800D02*
Y2340800D01*
X1316800Y2362200D02*
X1324800D01*
X1320800Y2358200D02*
Y2366200D01*
X1316800Y2387600D02*
X1324800D01*
X1320800Y2383600D02*
Y2391600D01*
X1316800Y2413000D02*
X1324800D01*
X1320800Y2409000D02*
Y2417000D01*
X1316800Y2438400D02*
X1324800D01*
X1320800Y2434400D02*
Y2442400D01*
X1316800Y2463800D02*
X1324800D01*
X1320800Y2459800D02*
Y2467800D01*
X1316800Y2489200D02*
X1324800D01*
X1320800Y2485200D02*
Y2493200D01*
X1316800Y2514600D02*
X1324800D01*
X1320800Y2510600D02*
Y2518600D01*
X1316800Y2540000D02*
X1324800D01*
X1320800Y2536000D02*
Y2544000D01*
X1316800Y2565400D02*
X1324800D01*
X1320800Y2561400D02*
Y2569400D01*
X1316800Y2590800D02*
X1324800D01*
X1320800Y2586800D02*
Y2594800D01*
X1316800Y2616200D02*
X1324800D01*
X1320800Y2612200D02*
Y2620200D01*
X1316800Y2641600D02*
X1324800D01*
X1320800Y2637600D02*
Y2645600D01*
X1316800Y2667000D02*
X1324800D01*
X1320800Y2663000D02*
Y2671000D01*
X1316800Y2692400D02*
X1324800D01*
X1320800Y2688400D02*
Y2696400D01*
X1316800Y2717800D02*
X1324800D01*
X1320800Y2713800D02*
Y2721800D01*
X1367600Y1955800D02*
X1375600D01*
X1371600Y1951800D02*
Y1959800D01*
X1367600Y1981200D02*
X1375600D01*
X1371600Y1977200D02*
Y1985200D01*
X1367600Y2006600D02*
X1375600D01*
X1371600Y2002600D02*
Y2010600D01*
X1367600Y2032000D02*
X1375600D01*
X1371600Y2028000D02*
Y2036000D01*
X1367600Y2057400D02*
X1375600D01*
X1371600Y2053400D02*
Y2061400D01*
X1367600Y2082800D02*
X1375600D01*
X1371600Y2078800D02*
Y2086800D01*
X1367600Y2108200D02*
X1375600D01*
X1371600Y2104200D02*
Y2112200D01*
X1367600Y2133600D02*
X1375600D01*
X1371600Y2129600D02*
Y2137600D01*
X1367600Y2159000D02*
X1375600D01*
X1371600Y2155000D02*
Y2163000D01*
X1367600Y2184400D02*
X1375600D01*
X1371600Y2180400D02*
Y2188400D01*
X1367600Y2209800D02*
X1375600D01*
X1371600Y2205800D02*
Y2213800D01*
X1367600Y2235200D02*
X1375600D01*
X1371600Y2231200D02*
Y2239200D01*
X1367600Y2260600D02*
X1375600D01*
X1371600Y2256600D02*
Y2264600D01*
X1367600Y2286000D02*
X1375600D01*
X1371600Y2282000D02*
Y2290000D01*
X1367600Y2311400D02*
X1375600D01*
X1371600Y2307400D02*
Y2315400D01*
X1367600Y2336800D02*
X1375600D01*
X1371600Y2332800D02*
Y2340800D01*
X1367600Y2362200D02*
X1375600D01*
X1371600Y2358200D02*
Y2366200D01*
X1367600Y2387600D02*
X1375600D01*
X1371600Y2383600D02*
Y2391600D01*
X1367600Y2413000D02*
X1375600D01*
X1371600Y2409000D02*
Y2417000D01*
X1367600Y2438400D02*
X1375600D01*
X1371600Y2434400D02*
Y2442400D01*
X1367600Y2463800D02*
X1375600D01*
X1371600Y2459800D02*
Y2467800D01*
X1367600Y2489200D02*
X1375600D01*
X1371600Y2485200D02*
Y2493200D01*
X1367600Y2514600D02*
X1375600D01*
X1371600Y2510600D02*
Y2518600D01*
X1367600Y2540000D02*
X1375600D01*
X1371600Y2536000D02*
Y2544000D01*
X1367600Y2565400D02*
X1375600D01*
X1371600Y2561400D02*
Y2569400D01*
X1367600Y2590800D02*
X1375600D01*
X1371600Y2586800D02*
Y2594800D01*
X1367600Y2616200D02*
X1375600D01*
X1371600Y2612200D02*
Y2620200D01*
X1367600Y2641600D02*
X1375600D01*
X1371600Y2637600D02*
Y2645600D01*
X1367600Y2667000D02*
X1375600D01*
X1371600Y2663000D02*
Y2671000D01*
X1367600Y2692400D02*
X1375600D01*
X1371600Y2688400D02*
Y2696400D01*
X1367600Y2717800D02*
X1375600D01*
X1371600Y2713800D02*
Y2721800D01*
X1367600Y1854200D02*
X1375600D01*
X1371600Y1850200D02*
Y1858200D01*
X1367600Y1828800D02*
X1375600D01*
X1371600Y1824800D02*
Y1832800D01*
X1367600Y1803400D02*
X1375600D01*
X1371600Y1799400D02*
Y1807400D01*
X1367600Y1778000D02*
X1375600D01*
X1371600Y1774000D02*
Y1782000D01*
X1367600Y1752600D02*
X1375600D01*
X1371600Y1748600D02*
Y1756600D01*
X1367600Y1727200D02*
X1375600D01*
X1371600Y1723200D02*
Y1731200D01*
X1367600Y1701800D02*
X1375600D01*
X1371600Y1697800D02*
Y1705800D01*
X1367600Y1676400D02*
X1375600D01*
X1371600Y1672400D02*
Y1680400D01*
X1367600Y1651000D02*
X1375600D01*
X1371600Y1647000D02*
Y1655000D01*
X1367600Y1625600D02*
X1375600D01*
X1371600Y1621600D02*
Y1629600D01*
X1367600Y1600200D02*
X1375600D01*
X1371600Y1596200D02*
Y1604200D01*
X1367600Y1574800D02*
X1375600D01*
X1371600Y1570800D02*
Y1578800D01*
X1367600Y1549400D02*
X1375600D01*
X1371600Y1545400D02*
Y1553400D01*
X1367600Y1524000D02*
X1375600D01*
X1371600Y1520000D02*
Y1528000D01*
X1367600Y1498600D02*
X1375600D01*
X1371600Y1494600D02*
Y1502600D01*
X1367600Y1473200D02*
X1375600D01*
X1371600Y1469200D02*
Y1477200D01*
X1367600Y1447800D02*
X1375600D01*
X1371600Y1443800D02*
Y1451800D01*
X1367600Y1422400D02*
X1375600D01*
X1371600Y1418400D02*
Y1426400D01*
X1316800Y1854200D02*
X1324800D01*
X1320800Y1850200D02*
Y1858200D01*
X1316800Y1828800D02*
X1324800D01*
X1320800Y1824800D02*
Y1832800D01*
X1316800Y1803400D02*
X1324800D01*
X1320800Y1799400D02*
Y1807400D01*
X1316800Y1778000D02*
X1324800D01*
X1320800Y1774000D02*
Y1782000D01*
X1316800Y1752600D02*
X1324800D01*
X1320800Y1748600D02*
Y1756600D01*
X1316800Y1727200D02*
X1324800D01*
X1320800Y1723200D02*
Y1731200D01*
X1316800Y1701800D02*
X1324800D01*
X1320800Y1697800D02*
Y1705800D01*
X1316800Y1676400D02*
X1324800D01*
X1320800Y1672400D02*
Y1680400D01*
X1316800Y1651000D02*
X1324800D01*
X1320800Y1647000D02*
Y1655000D01*
X1316800Y1625600D02*
X1324800D01*
X1320800Y1621600D02*
Y1629600D01*
X1316800Y1600200D02*
X1324800D01*
X1320800Y1596200D02*
Y1604200D01*
X1316800Y1574800D02*
X1324800D01*
X1320800Y1570800D02*
Y1578800D01*
X1316800Y1549400D02*
X1324800D01*
X1320800Y1545400D02*
Y1553400D01*
X1316800Y1524000D02*
X1324800D01*
X1320800Y1520000D02*
Y1528000D01*
X1316800Y1498600D02*
X1324800D01*
X1320800Y1494600D02*
Y1502600D01*
X1316800Y1473200D02*
X1324800D01*
X1320800Y1469200D02*
Y1477200D01*
X1316800Y1447800D02*
X1324800D01*
X1320800Y1443800D02*
Y1451800D01*
X1316800Y1422400D02*
X1324800D01*
X1320800Y1418400D02*
Y1426400D01*
X2008886Y1201580D02*
X2011934D01*
X2010410Y1200056D02*
Y1203104D01*
X2008886Y1221580D02*
X2011934D01*
X2010410Y1220056D02*
Y1223104D01*
X1798900Y1243076D02*
X1807900D01*
X1803400Y1238576D02*
Y1247576D01*
X1798900Y1268476D02*
X1807900D01*
X1803400Y1263976D02*
Y1272976D01*
X1798900Y1293876D02*
X1807900D01*
X1803400Y1289376D02*
Y1298376D01*
X1798900Y1319276D02*
X1807900D01*
X1803400Y1314776D02*
Y1323776D01*
X1798900Y1344676D02*
X1807900D01*
X1803400Y1340176D02*
Y1349176D01*
X1798900Y1370076D02*
X1807900D01*
X1803400Y1365576D02*
Y1374576D01*
X1798900Y1395476D02*
X1807900D01*
X1803400Y1390976D02*
Y1399976D01*
X1798900Y1420876D02*
X1807900D01*
X1803400Y1416376D02*
Y1425376D01*
X1722700Y1243076D02*
X1731700D01*
X1727200Y1238576D02*
Y1247576D01*
X1722700Y1268476D02*
X1731700D01*
X1727200Y1263976D02*
Y1272976D01*
X1722700Y1293876D02*
X1731700D01*
X1727200Y1289376D02*
Y1298376D01*
X1722700Y1319276D02*
X1731700D01*
X1727200Y1314776D02*
Y1323776D01*
X1722700Y1344676D02*
X1731700D01*
X1727200Y1340176D02*
Y1349176D01*
X1722700Y1370076D02*
X1731700D01*
X1727200Y1365576D02*
Y1374576D01*
X1722700Y1395476D02*
X1731700D01*
X1727200Y1390976D02*
Y1399976D01*
X1722700Y1420876D02*
X1731700D01*
X1727200Y1416376D02*
Y1425376D01*
X2663317Y2404618D02*
X2669667D01*
X2666492Y2401443D02*
Y2407793D01*
X2663317Y2379218D02*
X2669667D01*
X2666492Y2376043D02*
Y2382393D01*
X2663317Y2353818D02*
X2669667D01*
X2666492Y2350643D02*
Y2356993D01*
X2663317Y2328418D02*
X2669667D01*
X2666492Y2325243D02*
Y2331593D01*
X2663317Y2303018D02*
X2669667D01*
X2666492Y2299843D02*
Y2306193D01*
X2663317Y2277618D02*
X2669667D01*
X2666492Y2274443D02*
Y2280793D01*
X2663317Y2252218D02*
X2669667D01*
X2666492Y2249043D02*
Y2255393D01*
X2739517Y2252218D02*
X2745867D01*
X2742692Y2249043D02*
Y2255393D01*
X2739517Y2277618D02*
X2745867D01*
X2742692Y2274443D02*
Y2280793D01*
X2739517Y2303018D02*
X2745867D01*
X2742692Y2299843D02*
Y2306193D01*
X2739517Y2328418D02*
X2745867D01*
X2742692Y2325243D02*
Y2331593D01*
X2739517Y2353818D02*
X2745867D01*
X2742692Y2350643D02*
Y2356993D01*
X2739517Y2379218D02*
X2745867D01*
X2742692Y2376043D02*
Y2382393D01*
X2739517Y2404618D02*
X2745867D01*
X2742692Y2401443D02*
Y2407793D01*
X3384122Y976630D02*
X3394122D01*
X3389122Y971630D02*
Y981630D01*
X3409522Y976630D02*
X3419522D01*
X3414522Y971630D02*
Y981630D01*
X3434922Y976630D02*
X3444922D01*
X3439922Y971630D02*
Y981630D01*
X3460322Y976630D02*
X3470322D01*
X3465322Y971630D02*
Y981630D01*
X3485722Y976630D02*
X3495722D01*
X3490722Y971630D02*
Y981630D01*
X3511122Y976630D02*
X3521122D01*
X3516122Y971630D02*
Y981630D01*
X3536522Y976630D02*
X3546522D01*
X3541522Y971630D02*
Y981630D01*
X3561922Y976630D02*
X3571922D01*
X3566922Y971630D02*
Y981630D01*
X3346022Y1372870D02*
X3356022D01*
X3351022Y1367870D02*
Y1377870D01*
X3371422Y1372870D02*
X3381422D01*
X3376422Y1367870D02*
Y1377870D01*
X3396822Y1372870D02*
X3406822D01*
X3401822Y1367870D02*
Y1377870D01*
X3422222Y1372870D02*
X3432222D01*
X3427222Y1367870D02*
Y1377870D01*
X3447622Y1372870D02*
X3457622D01*
X3452622Y1367870D02*
Y1377870D01*
X3473022Y1372870D02*
X3483022D01*
X3478022Y1367870D02*
Y1377870D01*
X3498422Y1372870D02*
X3508422D01*
X3503422Y1367870D02*
Y1377870D01*
X3523822Y1372870D02*
X3533822D01*
X3528822Y1367870D02*
Y1377870D01*
X3549222Y1372870D02*
X3559222D01*
X3554222Y1367870D02*
Y1377870D01*
X3574622Y1372870D02*
X3584622D01*
X3579622Y1367870D02*
Y1377870D01*
X3601292Y1372870D02*
X3611292D01*
X3606292Y1367870D02*
Y1377870D01*
X3705670Y1181100D02*
X3713670D01*
X3709670Y1177100D02*
Y1185100D01*
X3792030Y1181100D02*
X3800030D01*
X3796030Y1177100D02*
Y1185100D01*
X3769170Y1181100D02*
X3777170D01*
X3773170Y1177100D02*
Y1185100D01*
X3748850Y1181100D02*
X3756850D01*
X3752850Y1177100D02*
Y1185100D01*
X3728530Y1181100D02*
X3736530D01*
X3732530Y1177100D02*
Y1185100D01*
X3777100Y2597950D02*
X3785100D01*
X3781100Y2593950D02*
Y2601950D01*
X3777100Y2622950D02*
X3785100D01*
X3781100Y2618950D02*
Y2626950D01*
X3777100Y2647950D02*
X3785100D01*
X3781100Y2643950D02*
Y2651950D01*
X3717100Y2647950D02*
X3725100D01*
X3721100Y2643950D02*
Y2651950D01*
X3717100Y2622950D02*
X3725100D01*
X3721100Y2618950D02*
Y2626950D01*
X3717100Y2597950D02*
X3725100D01*
X3721100Y2593950D02*
Y2601950D01*
X2298002Y988568D02*
X2306002D01*
X2302002Y984568D02*
Y992568D01*
X2323402Y988568D02*
X2331402D01*
X2327402Y984568D02*
Y992568D01*
X2348802Y988568D02*
X2356802D01*
X2352802Y984568D02*
Y992568D01*
X1026400Y863600D02*
X1056400D01*
X1041400Y848600D02*
Y878600D01*
X3587560Y2733040D02*
X3595560D01*
X3591560Y2729040D02*
Y2737040D01*
X3634550Y2768600D02*
X3642550D01*
X3638550Y2764600D02*
Y2772600D01*
X3634550Y2706370D02*
X3642550D01*
X3638550Y2702370D02*
Y2710370D01*
X3360246Y1448054D02*
X3370246D01*
X3365246Y1443054D02*
Y1453054D01*
X3385646Y1448054D02*
X3395646D01*
X3390646Y1443054D02*
Y1453054D01*
X3411046Y1448054D02*
X3421046D01*
X3416046Y1443054D02*
Y1453054D01*
X3436446Y1448054D02*
X3446446D01*
X3441446Y1443054D02*
Y1453054D01*
X3461846Y1448054D02*
X3471846D01*
X3466846Y1443054D02*
Y1453054D01*
X3487246Y1448054D02*
X3497246D01*
X3492246Y1443054D02*
Y1453054D01*
X3512646Y1448054D02*
X3522646D01*
X3517646Y1443054D02*
Y1453054D01*
X3538046Y1448054D02*
X3548046D01*
X3543046Y1443054D02*
Y1453054D01*
X3563446Y1448054D02*
X3573446D01*
X3568446Y1443054D02*
Y1453054D01*
X3588846Y1448054D02*
X3598846D01*
X3593846Y1443054D02*
Y1453054D01*
X1619076Y1240028D02*
X1629076D01*
X1624076Y1235028D02*
Y1245028D01*
X1619076Y1214628D02*
X1629076D01*
X1624076Y1209628D02*
Y1219628D01*
X2676732Y2501138D02*
X2686732D01*
X2681732Y2496138D02*
Y2506138D01*
X2702132Y2501138D02*
X2712132D01*
X2707132Y2496138D02*
Y2506138D01*
X2727532Y2501138D02*
X2737532D01*
X2732532Y2496138D02*
Y2506138D01*
X3740460Y2713990D02*
X3747460D01*
X3743960Y2710490D02*
Y2717490D01*
X3765860Y2713990D02*
X3772860D01*
X3769360Y2710490D02*
Y2717490D01*
X1115180Y942200D02*
X1130180D01*
X1122680Y934700D02*
Y949700D01*
X1115180Y1017200D02*
X1130180D01*
X1122680Y1009700D02*
Y1024700D01*
X1115180Y1092200D02*
X1130180D01*
X1122680Y1084700D02*
Y1099700D01*
X1138180Y967200D02*
X1153180D01*
X1145680Y959700D02*
Y974700D01*
X1138180Y1067200D02*
X1153180D01*
X1145680Y1059700D02*
Y1074700D01*
X1018180Y1067200D02*
X1033180D01*
X1025680Y1059700D02*
Y1074700D01*
X1018180Y967200D02*
X1033180D01*
X1025680Y959700D02*
Y974700D01*
X2034540Y899668D02*
X2044192D01*
X2039366Y894842D02*
Y904494D01*
X1958340Y899668D02*
X1967992D01*
X1963166Y894842D02*
Y904494D01*
X3404616Y845566D02*
X3414776D01*
X3409696Y840486D02*
Y850646D01*
X3450336Y845566D02*
X3460496D01*
X3455416Y840486D02*
Y850646D01*
X3404616Y909066D02*
X3414776D01*
X3409696Y903986D02*
Y914146D01*
X3450336Y909066D02*
X3460496D01*
X3455416Y903986D02*
Y914146D01*
X3496564Y845566D02*
X3506724D01*
X3501644Y840486D02*
Y850646D01*
X3542284Y845566D02*
X3552444D01*
X3547364Y840486D02*
Y850646D01*
X3496564Y909066D02*
X3506724D01*
X3501644Y903986D02*
Y914146D01*
X3542284Y909066D02*
X3552444D01*
X3547364Y903986D02*
Y914146D01*
X2196084Y1836166D02*
X2203704D01*
X2199894Y1832356D02*
Y1839976D01*
X2196084Y1810766D02*
X2203704D01*
X2199894Y1806956D02*
Y1814576D01*
X2401062Y942594D02*
X2408682D01*
X2404872Y938784D02*
Y946404D01*
X2375662Y942594D02*
X2383282D01*
X2379472Y938784D02*
Y946404D01*
X3242120Y2692400D02*
X3250120D01*
X3246120Y2688400D02*
Y2696400D01*
X3216720Y2679700D02*
X3224720D01*
X3220720Y2675700D02*
Y2683700D01*
X3242120Y2667000D02*
X3250120D01*
X3246120Y2663000D02*
Y2671000D01*
X3216720Y2654300D02*
X3224720D01*
X3220720Y2650300D02*
Y2658300D01*
X3242120Y2641600D02*
X3250120D01*
X3246120Y2637600D02*
Y2645600D01*
X3216720Y2628900D02*
X3224720D01*
X3220720Y2624900D02*
Y2632900D01*
X3242120Y2616200D02*
X3250120D01*
X3246120Y2612200D02*
Y2620200D01*
X3216720Y2603500D02*
X3224720D01*
X3220720Y2599500D02*
Y2607500D01*
X3242120Y2590800D02*
X3250120D01*
X3246120Y2586800D02*
Y2594800D01*
X3216720Y2578100D02*
X3224720D01*
X3220720Y2574100D02*
Y2582100D01*
X3242120Y2565400D02*
X3250120D01*
X3246120Y2561400D02*
Y2569400D01*
X3216720Y2552700D02*
X3224720D01*
X3220720Y2548700D02*
Y2556700D01*
X3242120Y2540000D02*
X3250120D01*
X3246120Y2536000D02*
Y2544000D01*
X3216720Y2527300D02*
X3224720D01*
X3220720Y2523300D02*
Y2531300D01*
X3242120Y2514600D02*
X3250120D01*
X3246120Y2510600D02*
Y2518600D01*
X3216720Y2501900D02*
X3224720D01*
X3220720Y2497900D02*
Y2505900D01*
X3242120Y2489200D02*
X3250120D01*
X3246120Y2485200D02*
Y2493200D01*
X3216720Y2476500D02*
X3224720D01*
X3220720Y2472500D02*
Y2480500D01*
X3242120Y2463800D02*
X3250120D01*
X3246120Y2459800D02*
Y2467800D01*
X3216720Y2451100D02*
X3224720D01*
X3220720Y2447100D02*
Y2455100D01*
X3242120Y2438400D02*
X3250120D01*
X3246120Y2434400D02*
Y2442400D01*
X3216720Y2425700D02*
X3224720D01*
X3220720Y2421700D02*
Y2429700D01*
X3242120Y2413000D02*
X3250120D01*
X3246120Y2409000D02*
Y2417000D01*
X3216720Y2400300D02*
X3224720D01*
X3220720Y2396300D02*
Y2404300D01*
X3242120Y2387600D02*
X3250120D01*
X3246120Y2383600D02*
Y2391600D01*
X3216720Y2374900D02*
X3224720D01*
X3220720Y2370900D02*
Y2378900D01*
X3242120Y2362200D02*
X3250120D01*
X3246120Y2358200D02*
Y2366200D01*
X3216720Y2349500D02*
X3224720D01*
X3220720Y2345500D02*
Y2353500D01*
X3242120Y2336800D02*
X3250120D01*
X3246120Y2332800D02*
Y2340800D01*
X3216720Y2324100D02*
X3224720D01*
X3220720Y2320100D02*
Y2328100D01*
X3242120Y2311400D02*
X3250120D01*
X3246120Y2307400D02*
Y2315400D01*
X3216720Y2298700D02*
X3224720D01*
X3220720Y2294700D02*
Y2302700D01*
X3242120Y2286000D02*
X3250120D01*
X3246120Y2282000D02*
Y2290000D01*
X3216720Y2273300D02*
X3224720D01*
X3220720Y2269300D02*
Y2277300D01*
X3242120Y2260600D02*
X3250120D01*
X3246120Y2256600D02*
Y2264600D01*
X3216720Y2247900D02*
X3224720D01*
X3220720Y2243900D02*
Y2251900D01*
X3242120Y2184400D02*
X3250120D01*
X3246120Y2180400D02*
Y2188400D01*
X3216720Y2171700D02*
X3224720D01*
X3220720Y2167700D02*
Y2175700D01*
X3242120Y2159000D02*
X3250120D01*
X3246120Y2155000D02*
Y2163000D01*
X3216720Y2146300D02*
X3224720D01*
X3220720Y2142300D02*
Y2150300D01*
X3242120Y2133600D02*
X3250120D01*
X3246120Y2129600D02*
Y2137600D01*
X3216720Y2120900D02*
X3224720D01*
X3220720Y2116900D02*
Y2124900D01*
X3242120Y2108200D02*
X3250120D01*
X3246120Y2104200D02*
Y2112200D01*
X3216720Y2095500D02*
X3224720D01*
X3220720Y2091500D02*
Y2099500D01*
X3242120Y2082800D02*
X3250120D01*
X3246120Y2078800D02*
Y2086800D01*
X3216720Y2070100D02*
X3224720D01*
X3220720Y2066100D02*
Y2074100D01*
X3242120Y2057400D02*
X3250120D01*
X3246120Y2053400D02*
Y2061400D01*
X3216720Y2044700D02*
X3224720D01*
X3220720Y2040700D02*
Y2048700D01*
X3242120Y2032000D02*
X3250120D01*
X3246120Y2028000D02*
Y2036000D01*
X3216720Y2019300D02*
X3224720D01*
X3220720Y2015300D02*
Y2023300D01*
X3242120Y2006600D02*
X3250120D01*
X3246120Y2002600D02*
Y2010600D01*
X3216720Y1993900D02*
X3224720D01*
X3220720Y1989900D02*
Y1997900D01*
X3242120Y1981200D02*
X3250120D01*
X3246120Y1977200D02*
Y1985200D01*
X3216720Y1968500D02*
X3224720D01*
X3220720Y1964500D02*
Y1972500D01*
X3242120Y1955800D02*
X3250120D01*
X3246120Y1951800D02*
Y1959800D01*
X3216720Y1943100D02*
X3224720D01*
X3220720Y1939100D02*
Y1947100D01*
X3242120Y1930400D02*
X3250120D01*
X3246120Y1926400D02*
Y1934400D01*
X3216720Y1917700D02*
X3224720D01*
X3220720Y1913700D02*
Y1921700D01*
X3242120Y1905000D02*
X3250120D01*
X3246120Y1901000D02*
Y1909000D01*
X3216720Y1892300D02*
X3224720D01*
X3220720Y1888300D02*
Y1896300D01*
X3242120Y1879600D02*
X3250120D01*
X3246120Y1875600D02*
Y1883600D01*
X3216720Y1866900D02*
X3224720D01*
X3220720Y1862900D02*
Y1870900D01*
X3242120Y1854200D02*
X3250120D01*
X3246120Y1850200D02*
Y1858200D01*
X3216720Y1841500D02*
X3224720D01*
X3220720Y1837500D02*
Y1845500D01*
X3242120Y1828800D02*
X3250120D01*
X3246120Y1824800D02*
Y1832800D01*
X3216720Y1816100D02*
X3224720D01*
X3220720Y1812100D02*
Y1820100D01*
X3242120Y1803400D02*
X3250120D01*
X3246120Y1799400D02*
Y1807400D01*
X3216720Y1790700D02*
X3224720D01*
X3220720Y1786700D02*
Y1794700D01*
X3242120Y1778000D02*
X3250120D01*
X3246120Y1774000D02*
Y1782000D01*
X3216720Y1765300D02*
X3224720D01*
X3220720Y1761300D02*
Y1769300D01*
X3242120Y1752600D02*
X3250120D01*
X3246120Y1748600D02*
Y1756600D01*
X3216720Y1739900D02*
X3224720D01*
X3220720Y1735900D02*
Y1743900D01*
X2566289Y2491232D02*
X2572639D01*
X2569464Y2488057D02*
Y2494407D01*
X2566289Y2465832D02*
X2572639D01*
X2569464Y2462657D02*
Y2469007D01*
X2566289Y2440432D02*
X2572639D01*
X2569464Y2437257D02*
Y2443607D01*
X2566289Y2415032D02*
X2572639D01*
X2569464Y2411857D02*
Y2418207D01*
X2566289Y2389632D02*
X2572639D01*
X2569464Y2386457D02*
Y2392807D01*
X2566289Y2364232D02*
X2572639D01*
X2569464Y2361057D02*
Y2367407D01*
X2566289Y2338832D02*
X2572639D01*
X2569464Y2335657D02*
Y2342007D01*
X2566289Y2313432D02*
X2572639D01*
X2569464Y2310257D02*
Y2316607D01*
X2566289Y2288032D02*
X2572639D01*
X2569464Y2284857D02*
Y2291207D01*
X2566289Y2262632D02*
X2572639D01*
X2569464Y2259457D02*
Y2265807D01*
X2490089Y2262632D02*
X2496439D01*
X2493264Y2259457D02*
Y2265807D01*
X2490089Y2288032D02*
X2496439D01*
X2493264Y2284857D02*
Y2291207D01*
X2490089Y2313432D02*
X2496439D01*
X2493264Y2310257D02*
Y2316607D01*
X2490089Y2338832D02*
X2496439D01*
X2493264Y2335657D02*
Y2342007D01*
X2490089Y2364232D02*
X2496439D01*
X2493264Y2361057D02*
Y2367407D01*
X2490089Y2389632D02*
X2496439D01*
X2493264Y2386457D02*
Y2392807D01*
X2490089Y2415032D02*
X2496439D01*
X2493264Y2411857D02*
Y2418207D01*
X2490089Y2440432D02*
X2496439D01*
X2493264Y2437257D02*
Y2443607D01*
X2490089Y2465832D02*
X2496439D01*
X2493264Y2462657D02*
Y2469007D01*
X2490089Y2491232D02*
X2496439D01*
X2493264Y2488057D02*
Y2494407D01*
X2566289Y2201672D02*
X2572639D01*
X2569464Y2198497D02*
Y2204847D01*
X2566289Y2176272D02*
X2572639D01*
X2569464Y2173097D02*
Y2179447D01*
X2566289Y2150872D02*
X2572639D01*
X2569464Y2147697D02*
Y2154047D01*
X2566289Y2125472D02*
X2572639D01*
X2569464Y2122297D02*
Y2128647D01*
X2566289Y2100072D02*
X2572639D01*
X2569464Y2096897D02*
Y2103247D01*
X2566289Y2074672D02*
X2572639D01*
X2569464Y2071497D02*
Y2077847D01*
X2566289Y2049272D02*
X2572639D01*
X2569464Y2046097D02*
Y2052447D01*
X2566289Y2023872D02*
X2572639D01*
X2569464Y2020697D02*
Y2027047D01*
X2566289Y1998472D02*
X2572639D01*
X2569464Y1995297D02*
Y2001647D01*
X2566289Y1973072D02*
X2572639D01*
X2569464Y1969897D02*
Y1976247D01*
X2490089Y1973072D02*
X2496439D01*
X2493264Y1969897D02*
Y1976247D01*
X2490089Y1998472D02*
X2496439D01*
X2493264Y1995297D02*
Y2001647D01*
X2490089Y2023872D02*
X2496439D01*
X2493264Y2020697D02*
Y2027047D01*
X2490089Y2049272D02*
X2496439D01*
X2493264Y2046097D02*
Y2052447D01*
X2490089Y2074672D02*
X2496439D01*
X2493264Y2071497D02*
Y2077847D01*
X2490089Y2100072D02*
X2496439D01*
X2493264Y2096897D02*
Y2103247D01*
X2490089Y2125472D02*
X2496439D01*
X2493264Y2122297D02*
Y2128647D01*
X2490089Y2150872D02*
X2496439D01*
X2493264Y2147697D02*
Y2154047D01*
X2490089Y2176272D02*
X2496439D01*
X2493264Y2173097D02*
Y2179447D01*
X2490089Y2201672D02*
X2496439D01*
X2493264Y2198497D02*
Y2204847D01*
X1366600Y1036320D02*
X1376600D01*
X1371600Y1031320D02*
Y1041320D01*
X1366600Y1061720D02*
X1376600D01*
X1371600Y1056720D02*
Y1066720D01*
X1392000Y1036320D02*
X1402000D01*
X1397000Y1031320D02*
Y1041320D01*
X1392000Y1061720D02*
X1402000D01*
X1397000Y1056720D02*
Y1066720D01*
X1417400Y1036320D02*
X1427400D01*
X1422400Y1031320D02*
Y1041320D01*
X1417400Y1061720D02*
X1427400D01*
X1422400Y1056720D02*
Y1066720D01*
X1442800Y1036320D02*
X1452800D01*
X1447800Y1031320D02*
Y1041320D01*
X1442800Y1061720D02*
X1452800D01*
X1447800Y1056720D02*
Y1066720D01*
X1468200Y1036320D02*
X1478200D01*
X1473200Y1031320D02*
Y1041320D01*
X1468200Y1061720D02*
X1478200D01*
X1473200Y1056720D02*
Y1066720D01*
X1493600Y1036320D02*
X1503600D01*
X1498600Y1031320D02*
Y1041320D01*
X1493600Y1061720D02*
X1503600D01*
X1498600Y1056720D02*
Y1066720D01*
X1519000Y1036320D02*
X1529000D01*
X1524000Y1031320D02*
Y1041320D01*
X1519000Y1061720D02*
X1529000D01*
X1524000Y1056720D02*
Y1066720D01*
X1544400Y1036320D02*
X1554400D01*
X1549400Y1031320D02*
Y1041320D01*
X1544400Y1061720D02*
X1554400D01*
X1549400Y1056720D02*
Y1066720D01*
X1569800Y1036320D02*
X1579800D01*
X1574800Y1031320D02*
Y1041320D01*
X1569800Y1061720D02*
X1579800D01*
X1574800Y1056720D02*
Y1066720D01*
X1595200Y1036320D02*
X1605200D01*
X1600200Y1031320D02*
Y1041320D01*
X1595200Y1061720D02*
X1605200D01*
X1600200Y1056720D02*
Y1066720D01*
X1620600Y1036320D02*
X1630600D01*
X1625600Y1031320D02*
Y1041320D01*
X1620600Y1061720D02*
X1630600D01*
X1625600Y1056720D02*
Y1066720D01*
X1646000Y1036320D02*
X1656000D01*
X1651000Y1031320D02*
Y1041320D01*
X1646000Y1061720D02*
X1656000D01*
X1651000Y1056720D02*
Y1066720D01*
X1671400Y1036320D02*
X1681400D01*
X1676400Y1031320D02*
Y1041320D01*
X1671400Y1061720D02*
X1681400D01*
X1676400Y1056720D02*
Y1066720D01*
X1696800Y1036320D02*
X1706800D01*
X1701800Y1031320D02*
Y1041320D01*
X1696800Y1061720D02*
X1706800D01*
X1701800Y1056720D02*
Y1066720D01*
X1722200Y1036320D02*
X1732200D01*
X1727200Y1031320D02*
Y1041320D01*
X1722200Y1061720D02*
X1732200D01*
X1727200Y1056720D02*
Y1066720D01*
X1747600Y1036320D02*
X1757600D01*
X1752600Y1031320D02*
Y1041320D01*
X1747600Y1061720D02*
X1757600D01*
X1752600Y1056720D02*
Y1066720D01*
X1773000Y1036320D02*
X1783000D01*
X1778000Y1031320D02*
Y1041320D01*
X1773000Y1061720D02*
X1783000D01*
X1778000Y1056720D02*
Y1066720D01*
X1798400Y1036320D02*
X1808400D01*
X1803400Y1031320D02*
Y1041320D01*
X1798400Y1061720D02*
X1808400D01*
X1803400Y1056720D02*
Y1066720D01*
X1823800Y1036320D02*
X1833800D01*
X1828800Y1031320D02*
Y1041320D01*
X1823800Y1061720D02*
X1833800D01*
X1828800Y1056720D02*
Y1066720D01*
X1849200Y1036320D02*
X1859200D01*
X1854200Y1031320D02*
Y1041320D01*
X1849200Y1061720D02*
X1859200D01*
X1854200Y1056720D02*
Y1066720D01*
X1366600Y889000D02*
X1376600D01*
X1371600Y884000D02*
Y894000D01*
X1366600Y914400D02*
X1376600D01*
X1371600Y909400D02*
Y919400D01*
X1392000Y889000D02*
X1402000D01*
X1397000Y884000D02*
Y894000D01*
X1392000Y914400D02*
X1402000D01*
X1397000Y909400D02*
Y919400D01*
X1417400Y889000D02*
X1427400D01*
X1422400Y884000D02*
Y894000D01*
X1417400Y914400D02*
X1427400D01*
X1422400Y909400D02*
Y919400D01*
X1442800Y889000D02*
X1452800D01*
X1447800Y884000D02*
Y894000D01*
X1442800Y914400D02*
X1452800D01*
X1447800Y909400D02*
Y919400D01*
X1468200Y889000D02*
X1478200D01*
X1473200Y884000D02*
Y894000D01*
X1468200Y914400D02*
X1478200D01*
X1473200Y909400D02*
Y919400D01*
X1493600Y889000D02*
X1503600D01*
X1498600Y884000D02*
Y894000D01*
X1493600Y914400D02*
X1503600D01*
X1498600Y909400D02*
Y919400D01*
X1519000Y889000D02*
X1529000D01*
X1524000Y884000D02*
Y894000D01*
X1519000Y914400D02*
X1529000D01*
X1524000Y909400D02*
Y919400D01*
X1544400Y889000D02*
X1554400D01*
X1549400Y884000D02*
Y894000D01*
X1544400Y914400D02*
X1554400D01*
X1549400Y909400D02*
Y919400D01*
X1569800Y889000D02*
X1579800D01*
X1574800Y884000D02*
Y894000D01*
X1569800Y914400D02*
X1579800D01*
X1574800Y909400D02*
Y919400D01*
X1595200Y889000D02*
X1605200D01*
X1600200Y884000D02*
Y894000D01*
X1595200Y914400D02*
X1605200D01*
X1600200Y909400D02*
Y919400D01*
X1620600Y889000D02*
X1630600D01*
X1625600Y884000D02*
Y894000D01*
X1620600Y914400D02*
X1630600D01*
X1625600Y909400D02*
Y919400D01*
X1646000Y889000D02*
X1656000D01*
X1651000Y884000D02*
Y894000D01*
X1646000Y914400D02*
X1656000D01*
X1651000Y909400D02*
Y919400D01*
X1671400Y889000D02*
X1681400D01*
X1676400Y884000D02*
Y894000D01*
X1671400Y914400D02*
X1681400D01*
X1676400Y909400D02*
Y919400D01*
X1696800Y889000D02*
X1706800D01*
X1701800Y884000D02*
Y894000D01*
X1696800Y914400D02*
X1706800D01*
X1701800Y909400D02*
Y919400D01*
X1722200Y889000D02*
X1732200D01*
X1727200Y884000D02*
Y894000D01*
X1722200Y914400D02*
X1732200D01*
X1727200Y909400D02*
Y919400D01*
X1747600Y889000D02*
X1757600D01*
X1752600Y884000D02*
Y894000D01*
X1747600Y914400D02*
X1757600D01*
X1752600Y909400D02*
Y919400D01*
X1773000Y889000D02*
X1783000D01*
X1778000Y884000D02*
Y894000D01*
X1773000Y914400D02*
X1783000D01*
X1778000Y909400D02*
Y919400D01*
X1798400Y889000D02*
X1808400D01*
X1803400Y884000D02*
Y894000D01*
X1798400Y914400D02*
X1808400D01*
X1803400Y909400D02*
Y919400D01*
X1823800Y889000D02*
X1833800D01*
X1828800Y884000D02*
Y894000D01*
X1823800Y914400D02*
X1833800D01*
X1828800Y909400D02*
Y919400D01*
X1849200Y889000D02*
X1859200D01*
X1854200Y884000D02*
Y894000D01*
X1849200Y914400D02*
X1859200D01*
X1854200Y909400D02*
Y919400D01*
X1798900Y1558290D02*
X1807900D01*
X1803400Y1553790D02*
Y1562790D01*
X1798900Y1583690D02*
X1807900D01*
X1803400Y1579190D02*
Y1588190D01*
X1798900Y1609090D02*
X1807900D01*
X1803400Y1604590D02*
Y1613590D01*
X1798900Y1634490D02*
X1807900D01*
X1803400Y1629990D02*
Y1638990D01*
X1798900Y1659890D02*
X1807900D01*
X1803400Y1655390D02*
Y1664390D01*
X1798900Y1685290D02*
X1807900D01*
X1803400Y1680790D02*
Y1689790D01*
X1798900Y1710690D02*
X1807900D01*
X1803400Y1706190D02*
Y1715190D01*
X1798900Y1736090D02*
X1807900D01*
X1803400Y1731590D02*
Y1740590D01*
X1722700Y1558290D02*
X1731700D01*
X1727200Y1553790D02*
Y1562790D01*
X1722700Y1583690D02*
X1731700D01*
X1727200Y1579190D02*
Y1588190D01*
X1722700Y1609090D02*
X1731700D01*
X1727200Y1604590D02*
Y1613590D01*
X1722700Y1634490D02*
X1731700D01*
X1727200Y1629990D02*
Y1638990D01*
X1722700Y1659890D02*
X1731700D01*
X1727200Y1655390D02*
Y1664390D01*
X1722700Y1685290D02*
X1731700D01*
X1727200Y1680790D02*
Y1689790D01*
X1722700Y1710690D02*
X1731700D01*
X1727200Y1706190D02*
Y1715190D01*
X1722700Y1736090D02*
X1731700D01*
X1727200Y1731590D02*
Y1740590D01*
X2204276Y1076706D02*
X2212276D01*
X2208276Y1072706D02*
Y1080706D01*
X2204276Y976706D02*
X2212276D01*
X2208276Y972706D02*
Y980706D01*
X2238276Y1026706D02*
X2246276D01*
X2242276Y1022706D02*
Y1030706D01*
X2773252Y2380488D02*
X2783252D01*
X2778252Y2375488D02*
Y2385488D01*
X2773252Y2355088D02*
X2783252D01*
X2778252Y2350088D02*
Y2360088D01*
X2798652Y2355088D02*
X2808652D01*
X2803652Y2350088D02*
Y2360088D01*
X2798652Y2380488D02*
X2808652D01*
X2803652Y2375488D02*
Y2385488D01*
X1244172Y938276D02*
X1254172D01*
X1249172Y933276D02*
Y943276D01*
X1244172Y963676D02*
X1254172D01*
X1249172Y958676D02*
Y968676D01*
X1244172Y989076D02*
X1254172D01*
X1249172Y984076D02*
Y994076D01*
X1244172Y1014476D02*
X1254172D01*
X1249172Y1009476D02*
Y1019476D01*
X2141728Y1836166D02*
X2149348D01*
X2145538Y1832356D02*
Y1839976D01*
X2141728Y1810766D02*
X2149348D01*
X2145538Y1806956D02*
Y1814576D01*
X3321304Y1493520D02*
X3328924D01*
X3325114Y1489710D02*
Y1497330D01*
X3321304Y1518920D02*
X3328924D01*
X3325114Y1515110D02*
Y1522730D01*
X3232658Y1549908D02*
X3242818D01*
X3237738Y1544828D02*
Y1554988D01*
X3232658Y1499108D02*
X3242818D01*
X3237738Y1494028D02*
Y1504188D01*
X3232658Y1524508D02*
X3242818D01*
X3237738Y1519428D02*
Y1529588D01*
X3273933Y1569466D02*
X3283839D01*
X3278886Y1564513D02*
Y1574419D01*
X3299333Y1569466D02*
X3309239D01*
X3304286Y1564513D02*
Y1574419D01*
X3324733Y1569466D02*
X3334639D01*
X3329686Y1564513D02*
Y1574419D01*
X3218434Y1597152D02*
X3226054D01*
X3222244Y1593342D02*
Y1600962D01*
X3243834Y1597152D02*
X3251454D01*
X3247644Y1593342D02*
Y1600962D01*
X2534008Y864622D02*
X2547008D01*
X2540508Y858122D02*
Y871122D01*
X2534008Y1145622D02*
X2547008D01*
X2540508Y1139122D02*
Y1152122D01*
X3136060Y1655900D02*
X3158060D01*
X3147060Y1644900D02*
Y1666900D01*
X3139060Y2216150D02*
X3155060D01*
X3147060Y2208150D02*
Y2224150D01*
X3139060Y2776400D02*
X3155060D01*
X3147060Y2768400D02*
Y2784400D01*
X3308780Y1655900D02*
X3330780D01*
X3319780Y1644900D02*
Y1666900D01*
X3311780Y2216150D02*
X3327780D01*
X3319780Y2208150D02*
Y2224150D01*
X3311780Y2776400D02*
X3327780D01*
X3319780Y2768400D02*
Y2784400D01*
X3398140Y2776400D02*
X3414140D01*
X3406140Y2768400D02*
Y2784400D01*
X3398140Y2216150D02*
X3414140D01*
X3406140Y2208150D02*
Y2224150D01*
X3395140Y1655900D02*
X3417140D01*
X3406140Y1644900D02*
Y1666900D01*
X3740270Y1093388D02*
X3749270D01*
X3744770Y1088888D02*
Y1097888D01*
X3740270Y1049388D02*
X3749270D01*
X3744770Y1044888D02*
Y1053888D01*
X3156308Y1145622D02*
X3169308D01*
X3162808Y1139122D02*
Y1152122D01*
X3156308Y864622D02*
X3169308D01*
X3162808Y858122D02*
Y871122D01*
X1938913Y2072311D02*
X1942469D01*
X1940690Y2070533D02*
Y2074089D01*
X1906147Y2295831D02*
X1909702D01*
X1907924Y2294053D02*
Y2297609D01*
X3225420Y2776400D02*
X3241420D01*
X3233420Y2768400D02*
Y2784400D01*
X3225420Y2216150D02*
X3241420D01*
X3233420Y2208150D02*
Y2224150D01*
X3222420Y1655900D02*
X3244420D01*
X3233420Y1644900D02*
Y1666900D01*
X2397506Y2219198D02*
X2401062D01*
X2399284Y2217420D02*
Y2220976D01*
X2409456Y2269490D02*
X2413011D01*
X2411234Y2267712D02*
Y2271268D01*
X2415286Y2295906D02*
X2418842D01*
X2417064Y2294128D02*
Y2297684D01*
X2421128Y2310892D02*
X2424684D01*
X2422906Y2309114D02*
Y2312670D01*
X2468880Y2478532D02*
X2472436D01*
X2470658Y2476754D02*
Y2480310D01*
X2403589Y2244598D02*
X2407145D01*
X2405367Y2242820D02*
Y2246376D01*
X2462530Y2489200D02*
X2466086D01*
X2464308Y2487422D02*
Y2490978D01*
X2321560Y2042414D02*
X2325116D01*
X2323338Y2040636D02*
Y2044192D01*
X2339340Y2048510D02*
X2342896D01*
X2341118Y2046732D02*
Y2050288D01*
X2350770Y2015490D02*
X2354326D01*
X2352548Y2013712D02*
Y2017268D01*
X2344928Y1965706D02*
X2348484D01*
X2346706Y1963928D02*
Y1967484D01*
X2309876Y1990598D02*
X2313432D01*
X2311654Y1988820D02*
Y1992376D01*
X2391664Y2158746D02*
X2395220D01*
X2393442Y2156968D02*
Y2160524D01*
X2271522Y2250694D02*
X2275078D01*
X2273300Y2248916D02*
Y2252472D01*
X2260346Y2302256D02*
X2263902D01*
X2262124Y2300478D02*
Y2304034D01*
X2236216Y2363724D02*
X2239772D01*
X2237994Y2361946D02*
Y2365502D01*
X2286355Y2142567D02*
X2289911D01*
X2288133Y2140789D02*
Y2144345D01*
X2279624Y2225934D02*
X2283180D01*
X2281402Y2224156D02*
Y2227712D01*
X1233751Y1638462D02*
X1237307D01*
X1235528Y1636684D02*
Y1640240D01*
X1227836Y2019300D02*
X1231392D01*
X1229614Y2017522D02*
Y2021078D01*
X1245823Y2197225D02*
X1249379D01*
X1247601Y2195447D02*
Y2199003D01*
X1269916Y2501816D02*
X1273472D01*
X1271694Y2500038D02*
Y2503594D01*
X1263988Y2679784D02*
X1267544D01*
X1265766Y2678006D02*
Y2681562D01*
X1276266Y2654470D02*
X1279822D01*
X1278044Y2652692D02*
Y2656248D01*
X1282362Y2527470D02*
X1285918D01*
X1284140Y2525692D02*
Y2529248D01*
X1302004Y2604008D02*
X1305560D01*
X1303782Y2602230D02*
Y2605786D01*
X1257941Y1942713D02*
X1261497D01*
X1259719Y1940935D02*
Y1944491D01*
X1252136Y1968924D02*
X1255692D01*
X1253914Y1967146D02*
Y1970702D01*
X1239798Y1993876D02*
X1243354D01*
X1241576Y1992098D02*
Y1995654D01*
X1191430Y2095670D02*
X1194986D01*
X1193208Y2093892D02*
Y2097448D01*
X1197526Y2146470D02*
X1201082D01*
X1199304Y2144692D02*
Y2148248D01*
X1209655Y2171834D02*
X1213211D01*
X1211433Y2170056D02*
Y2173612D01*
X1203591Y2070270D02*
X1207147D01*
X1205369Y2068492D02*
Y2072048D01*
X1221497Y2222978D02*
X1225053D01*
X1223275Y2221200D02*
Y2224756D01*
X1215686Y2044850D02*
X1219242D01*
X1217464Y2043072D02*
Y2046628D01*
X1294305Y2553124D02*
X1297861D01*
X1296083Y2551346D02*
Y2554902D01*
X1307084Y2578608D02*
X1310640D01*
X1308862Y2576830D02*
Y2580386D01*
X1289050Y2629408D02*
X1292606D01*
X1290828Y2627630D02*
Y2631186D01*
X1657989Y2438400D02*
X1661545D01*
X1659767Y2436622D02*
Y2440178D01*
X1657989Y2412303D02*
X1661545D01*
X1659767Y2410525D02*
Y2414081D01*
X1657989Y2387854D02*
X1661545D01*
X1659767Y2386076D02*
Y2389632D01*
X1657989Y2362200D02*
X1661545D01*
X1659767Y2360422D02*
Y2363978D01*
X2171954Y1661362D02*
X2175510D01*
X2173732Y1659584D02*
Y1663140D01*
X2171700Y1636014D02*
X2175256D01*
X2173478Y1634236D02*
Y1637792D01*
X2072386Y1714754D02*
X2075942D01*
X2074164Y1712976D02*
Y1716532D01*
X2093214Y1721866D02*
X2096770D01*
X2094992Y1720088D02*
Y1723644D01*
X2092471Y1696622D02*
X2096028D01*
X2094250Y1694844D02*
Y1698400D01*
X2092706Y1710690D02*
X2096262D01*
X2094484Y1708912D02*
Y1712468D01*
X2171954Y1686052D02*
X2175510D01*
X2173732Y1684274D02*
Y1687830D01*
X2171954Y1695958D02*
X2175510D01*
X2173732Y1694180D02*
Y1697736D01*
X2145792Y1692148D02*
X2149348D01*
X2147570Y1690370D02*
Y1693926D01*
X2253819Y2320461D02*
X2257375D01*
X2255597Y2318683D02*
Y2322239D01*
X2253742Y2365248D02*
X2257298D01*
X2255520Y2363470D02*
Y2367026D01*
X2456434Y2451100D02*
X2459990D01*
X2458212Y2449322D02*
Y2452878D01*
X1853692Y1148842D02*
X1857248D01*
X1855470Y1147064D02*
Y1150620D01*
X1827022Y1148842D02*
X1830578D01*
X1828800Y1147064D02*
Y1150620D01*
X1874774Y1171702D02*
X1878330D01*
X1876552Y1169924D02*
Y1173480D01*
X1860719Y1156462D02*
X1864275D01*
X1862497Y1154684D02*
Y1158240D01*
X1777145Y1164429D02*
X1780701D01*
X1778923Y1162651D02*
Y1166207D01*
X1802130Y1156716D02*
X1805686D01*
X1803908Y1154938D02*
Y1158494D01*
X1750822Y1171956D02*
X1754378D01*
X1752600Y1170178D02*
Y1173734D01*
X1848104Y1139190D02*
X1851660D01*
X1849882Y1137412D02*
Y1140968D01*
X1725422Y1149350D02*
X1728978D01*
X1727200Y1147572D02*
Y1151128D01*
X1699768Y1149350D02*
X1703324D01*
X1701546Y1147572D02*
Y1151128D01*
X1857291Y1132883D02*
X1860847D01*
X1859069Y1131105D02*
Y1134661D01*
X1848358Y1126490D02*
X1851914D01*
X1850136Y1124712D02*
Y1128268D01*
X1674511Y1149731D02*
X1678067D01*
X1676289Y1147953D02*
Y1151509D01*
X1857248Y1120394D02*
X1860804D01*
X1859026Y1118616D02*
Y1122172D01*
X1648714Y1149604D02*
X1652270D01*
X1650492Y1147826D02*
Y1151382D01*
X2022348Y1543050D02*
X2025904D01*
X2024126Y1541272D02*
Y1544828D01*
X2022348Y1530604D02*
X2025904D01*
X2024126Y1528826D02*
Y1532382D01*
X2022348Y1517904D02*
X2025904D01*
X2024126Y1516126D02*
Y1519682D01*
X2022348Y1505204D02*
X2025904D01*
X2024126Y1503426D02*
Y1506982D01*
X2022348Y1492504D02*
X2025904D01*
X2024126Y1490726D02*
Y1494282D01*
X2022348Y1479804D02*
X2025904D01*
X2024126Y1478026D02*
Y1481582D01*
X2022348Y1467104D02*
X2025904D01*
X2024126Y1465326D02*
Y1468882D01*
X2022348Y1454404D02*
X2025904D01*
X2024126Y1452626D02*
Y1456182D01*
X2052828Y1542796D02*
X2056384D01*
X2054606Y1541018D02*
Y1544574D01*
X2051331Y1530624D02*
X2054887D01*
X2053109Y1528846D02*
Y1532402D01*
X2055114Y1517904D02*
X2058670D01*
X2056892Y1516126D02*
Y1519682D01*
X2061464Y1505204D02*
X2065020D01*
X2063242Y1503426D02*
Y1506982D01*
X2068068Y1492504D02*
X2071624D01*
X2069846Y1490726D02*
Y1494282D01*
X2074672Y1479804D02*
X2078228D01*
X2076450Y1478026D02*
Y1481582D01*
X2081539Y1467434D02*
X2085095D01*
X2083317Y1465656D02*
Y1469212D01*
X2022348Y1556004D02*
X2025904D01*
X2024126Y1554226D02*
Y1557782D01*
X2055114Y1556258D02*
X2058670D01*
X2056892Y1554480D02*
Y1558036D01*
X2100072Y1447546D02*
X2103628D01*
X2101850Y1445768D02*
Y1449324D01*
X2106098Y1429004D02*
X2109654D01*
X2107876Y1427226D02*
Y1430782D01*
X2113280Y1435100D02*
X2116836D01*
X2115058Y1433322D02*
Y1436878D01*
X2374138Y2108200D02*
X2377694D01*
X2375916Y2106422D02*
Y2109978D01*
X2115058Y2098040D02*
X2118614D01*
X2116836Y2096262D02*
Y2099818D01*
X2379980Y2118106D02*
X2383536D01*
X2381758Y2116328D02*
Y2119884D01*
X2385822Y2148332D02*
X2389378D01*
X2387600Y2146554D02*
Y2150110D01*
X2724700Y1357884D02*
X2728256D01*
X2726478Y1356106D02*
Y1359662D01*
X2904700Y1357884D02*
X2908256D01*
X2906478Y1356106D02*
Y1359662D01*
X2934484Y1387348D02*
X2938040D01*
X2936262Y1385570D02*
Y1389126D01*
X2954484Y1387348D02*
X2958040D01*
X2956262Y1385570D02*
Y1389126D01*
X2834700Y1357884D02*
X2838256D01*
X2836478Y1356106D02*
Y1359662D01*
X2764484Y1387348D02*
X2768040D01*
X2766262Y1385570D02*
Y1389126D01*
X2754484Y1387348D02*
X2758040D01*
X2756262Y1385570D02*
Y1389126D01*
X2784646Y1357938D02*
X2788202D01*
X2786424Y1356160D02*
Y1359716D01*
X2894700Y1357884D02*
X2898256D01*
X2896478Y1356106D02*
Y1359662D01*
X3015615Y1373886D02*
X3019171D01*
X3017393Y1372108D02*
Y1375664D01*
X3028569Y1373886D02*
X3032125D01*
X3030347Y1372108D02*
Y1375664D01*
X3041523Y1373886D02*
X3045079D01*
X3043301Y1372108D02*
Y1375664D01*
X3009138Y1365504D02*
X3012694D01*
X3010916Y1363726D02*
Y1367282D01*
X3022092Y1365504D02*
X3025648D01*
X3023870Y1363726D02*
Y1367282D01*
X3035046Y1365504D02*
X3038602D01*
X3036824Y1363726D02*
Y1367282D01*
X2949700Y1357884D02*
X2953256D01*
X2951478Y1356106D02*
Y1359662D01*
X2940556Y1357884D02*
X2944112D01*
X2942334Y1356106D02*
Y1359662D01*
X2928366Y1357376D02*
X2931922D01*
X2930144Y1355598D02*
Y1359154D01*
X2658872Y1388364D02*
X2662428D01*
X2660650Y1386586D02*
Y1390142D01*
X2652522Y1380744D02*
X2656078D01*
X2654300Y1378966D02*
Y1382522D01*
X2949972Y1192034D02*
X2953528D01*
X2951750Y1190256D02*
Y1193812D01*
X2956306Y1198372D02*
X2959862D01*
X2958084Y1196594D02*
Y1200150D01*
X3009138Y1210564D02*
X3012694D01*
X3010916Y1208786D02*
Y1212342D01*
X3015742Y1253490D02*
X3019298D01*
X3017520Y1251712D02*
Y1255268D01*
X3022092Y1247140D02*
X3025648D01*
X3023870Y1245362D02*
Y1248918D01*
X3028442Y1235202D02*
X3031998D01*
X3030220Y1233424D02*
Y1236980D01*
X3035356Y1278268D02*
X3038912D01*
X3037134Y1276489D02*
Y1280045D01*
X2934462Y1186180D02*
X2938018D01*
X2936240Y1184402D02*
Y1187958D01*
X3041904Y1180338D02*
X3045460D01*
X3043682Y1178560D02*
Y1182116D01*
X2928112Y1259840D02*
X2931668D01*
X2929890Y1258062D02*
Y1261618D01*
X2905252Y1235202D02*
X2908808D01*
X2907030Y1233424D02*
Y1236980D01*
X2894838Y1277874D02*
X2898394D01*
X2896616Y1276096D02*
Y1279652D01*
X2884678Y1290320D02*
X2888234D01*
X2886456Y1288542D02*
Y1292098D01*
X2834640Y1283970D02*
X2838196D01*
X2836418Y1282192D02*
Y1285748D01*
X2853295Y1321144D02*
X2856851D01*
X2855073Y1319366D02*
Y1322922D01*
X2872994Y1302766D02*
X2876550D01*
X2874772Y1300988D02*
Y1304544D01*
X2784602Y1271778D02*
X2788158D01*
X2786380Y1270000D02*
Y1273556D01*
X2731262Y1265682D02*
X2734818D01*
X2733040Y1263904D02*
Y1267460D01*
X2759710Y1223010D02*
X2763266D01*
X2761488Y1221232D02*
Y1224788D01*
X2766568Y1204468D02*
X2770124D01*
X2768346Y1202690D02*
Y1206246D01*
X2659380Y1229106D02*
X2662936D01*
X2661158Y1227328D02*
Y1230884D01*
X2652268Y1296162D02*
X2655824D01*
X2654046Y1294384D02*
Y1297940D01*
X2724658Y1216660D02*
X2728214D01*
X2726436Y1214882D02*
Y1218438D01*
X2759700Y1357884D02*
X2763256D01*
X2761478Y1356106D02*
Y1359662D01*
X2865882Y1357884D02*
X2869438D01*
X2867660Y1356106D02*
Y1359662D01*
X2485208Y1546741D02*
X2488510D01*
X2486859Y1545090D02*
Y1548392D01*
X2445385Y1541018D02*
X2448687D01*
X2447036Y1539367D02*
Y1542669D01*
X2455291Y1531112D02*
X2458593D01*
X2456942Y1529461D02*
Y1532763D01*
X2455716Y1550924D02*
X2459018D01*
X2457367Y1549273D02*
Y1552575D01*
X2437765Y1587161D02*
X2441067D01*
X2439416Y1585510D02*
Y1588812D01*
X2445385Y1592834D02*
X2448687D01*
X2447036Y1591183D02*
Y1594485D01*
X2437765Y1599184D02*
X2441067D01*
X2439416Y1597533D02*
Y1600835D01*
X2445385Y1580981D02*
X2448687D01*
X2447036Y1579330D02*
Y1582632D01*
X2445385Y1557274D02*
X2448687D01*
X2447036Y1555623D02*
Y1558925D01*
X2437765Y1575139D02*
X2441067D01*
X2439416Y1573488D02*
Y1576790D01*
X2445385Y1569127D02*
X2448687D01*
X2447036Y1567476D02*
Y1570778D01*
X2437765Y1563116D02*
X2441067D01*
X2439416Y1561465D02*
Y1564767D01*
X2437865Y1488282D02*
X2441167D01*
X2439516Y1486631D02*
Y1489933D01*
X2445485Y1482440D02*
X2448787D01*
X2447136Y1480789D02*
Y1484091D01*
X2437765Y1470914D02*
X2441067D01*
X2439416Y1469263D02*
Y1472565D01*
X2467320Y1100074D02*
X2470622D01*
X2468971Y1098423D02*
Y1101725D01*
X2400173Y1066292D02*
X2403475D01*
X2401824Y1064641D02*
Y1067943D01*
X2444877Y1060450D02*
X2448179D01*
X2446528Y1058799D02*
Y1062101D01*
X2450211Y1053084D02*
X2453513D01*
X2451862Y1051433D02*
Y1054735D01*
X2456053Y1045464D02*
X2459355D01*
X2457704Y1043813D02*
Y1047115D01*
X2355215Y1038352D02*
X2358517D01*
X2356866Y1036701D02*
Y1040003D01*
X2461641Y1032256D02*
X2464943D01*
X2463292Y1030605D02*
Y1033907D01*
X2360803Y1026855D02*
X2364105D01*
X2362454Y1025204D02*
Y1028506D01*
X2394585Y1020572D02*
X2397887D01*
X2396236Y1018921D02*
Y1022223D01*
X2366137Y1013714D02*
X2369439D01*
X2367788Y1012063D02*
Y1015365D01*
X2389388Y1007872D02*
X2392690D01*
X2391039Y1006221D02*
Y1009523D01*
X2377313Y990092D02*
X2380615D01*
X2378964Y988441D02*
Y991743D01*
X2384171Y996188D02*
X2387473D01*
X2385822Y994537D02*
Y997839D01*
X2372233Y1003046D02*
X2375535D01*
X2373884Y1001395D02*
Y1004697D01*
X2887599Y1750822D02*
X2890901D01*
X2889250Y1749171D02*
Y1752473D01*
X2824099Y1750822D02*
X2827401D01*
X2825750Y1749171D02*
Y1752473D01*
X2837561Y1750822D02*
X2840863D01*
X2839212Y1749171D02*
Y1752473D01*
X2849499Y1750822D02*
X2852801D01*
X2851150Y1749171D02*
Y1752473D01*
X2862199Y1750822D02*
X2865501D01*
X2863850Y1749171D02*
Y1752473D01*
X2874899Y1750822D02*
X2878201D01*
X2876550Y1749171D02*
Y1752473D01*
X2900299Y1750822D02*
X2903601D01*
X2901950Y1749171D02*
Y1752473D01*
X3089334Y1576596D02*
X3092636D01*
X3090985Y1574945D02*
Y1578247D01*
X3095503Y1570065D02*
X3098805D01*
X3097154Y1568414D02*
Y1571716D01*
X3101671Y1563533D02*
X3104973D01*
X3103322Y1561882D02*
Y1565184D01*
X3113913Y1567688D02*
X3117215D01*
X3115564Y1566037D02*
Y1569339D01*
X3107840Y1557002D02*
X3111142D01*
X3109491Y1555351D02*
Y1558653D01*
X3119755Y1554226D02*
X3123057D01*
X3121406Y1552575D02*
Y1555877D01*
X3199502Y1060131D02*
X3202804D01*
X3201153Y1058480D02*
Y1061782D01*
X3207376Y1050733D02*
X3210678D01*
X3209027Y1049082D02*
Y1052384D01*
X3207376Y960733D02*
X3210678D01*
X3209027Y959082D02*
Y962384D01*
X3199502Y950131D02*
X3202804D01*
X3201153Y948480D02*
Y951782D01*
X3159849Y1065090D02*
X3163151D01*
X3161500Y1063439D02*
Y1066741D01*
X3159849Y1055090D02*
X3163151D01*
X3161500Y1053439D02*
Y1056741D01*
X3159849Y1045090D02*
X3163151D01*
X3161500Y1043439D02*
Y1046741D01*
X3159849Y955090D02*
X3163151D01*
X3161500Y953439D02*
Y956741D01*
X3159849Y945090D02*
X3163151D01*
X3161500Y943439D02*
Y946741D01*
X3207385Y1071307D02*
X3210687D01*
X3209036Y1069656D02*
Y1072958D01*
X3199502Y1039557D02*
X3202804D01*
X3201153Y1037906D02*
Y1041208D01*
X3159849Y1034288D02*
X3163151D01*
X3161500Y1032637D02*
Y1035939D01*
X3206623Y932688D02*
X3209925D01*
X3208274Y931037D02*
Y934339D01*
X3159849Y1095090D02*
X3163151D01*
X3161500Y1093439D02*
Y1096741D01*
X3207639Y1088644D02*
X3210941D01*
X3209290Y1086993D02*
Y1090295D01*
X3160395Y1082802D02*
X3163697D01*
X3162046Y1081151D02*
Y1084453D01*
X2969538Y2049242D02*
X2973094D01*
X2971316Y2047464D02*
Y2051020D01*
X2969538Y2037507D02*
X2973094D01*
X2971316Y2035730D02*
Y2039285D01*
X2969538Y2025773D02*
X2973094D01*
X2971316Y2023995D02*
Y2027551D01*
X2969538Y2014039D02*
X2973094D01*
X2971316Y2012261D02*
Y2015817D01*
X2959587Y2007753D02*
X2963143D01*
X2961365Y2005975D02*
Y2009531D01*
X2959587Y2031615D02*
X2963143D01*
X2961365Y2029837D02*
Y2033393D01*
X2959587Y2043349D02*
X2963143D01*
X2961365Y2041572D02*
Y2045128D01*
X2959587Y2019881D02*
X2963143D01*
X2961365Y2018103D02*
Y2021659D01*
X2791843Y2138851D02*
X2795145D01*
X2793494Y2137200D02*
Y2140502D01*
X2744343Y2116582D02*
X2747645D01*
X2745994Y2114931D02*
Y2118233D01*
X2811314Y2133346D02*
X2814616D01*
X2812965Y2131695D02*
Y2134997D01*
X2805303Y2127504D02*
X2808605D01*
X2806954Y2125853D02*
Y2129155D01*
X2912491Y2293620D02*
X2915793D01*
X2914142Y2291969D02*
Y2295271D01*
X2906903Y2313178D02*
X2910205D01*
X2908554Y2311527D02*
Y2314829D01*
X2923667Y2331720D02*
X2926969D01*
X2925318Y2330069D02*
Y2333371D01*
X2901061Y2350262D02*
X2904363D01*
X2902712Y2348611D02*
Y2351913D01*
X2918079Y2446020D02*
X2921381D01*
X2919730Y2444369D02*
Y2447671D01*
X2959989Y2425700D02*
X2963291D01*
X2961640Y2424049D02*
Y2427351D01*
X2965577Y2400300D02*
X2968879D01*
X2967228Y2398649D02*
Y2401951D01*
X2971673Y2374900D02*
X2974975D01*
X2973324Y2373249D02*
Y2376551D01*
X2953893Y2438400D02*
X2957195D01*
X2955544Y2436749D02*
Y2440051D01*
X2895473Y2463038D02*
X2898775D01*
X2897124Y2461387D02*
Y2464689D01*
X2890139Y2480056D02*
X2893441D01*
X2891790Y2478405D02*
Y2481707D01*
X3159783Y1105122D02*
X3163085D01*
X3161434Y1103471D02*
Y1106773D01*
X3159783Y1115122D02*
X3163085D01*
X3161434Y1113471D02*
Y1116773D01*
X3199511Y1120140D02*
X3202813D01*
X3201162Y1118489D02*
Y1121791D01*
X2884043Y2497074D02*
X2887345D01*
X2885694Y2495423D02*
Y2498725D01*
X2878455Y2514346D02*
X2881757D01*
X2880106Y2512695D02*
Y2515997D01*
X2872867Y2531110D02*
X2876169D01*
X2874518Y2529459D02*
Y2532761D01*
X2867025Y2548128D02*
X2870327D01*
X2868676Y2546477D02*
Y2549779D01*
X2861389Y2564960D02*
X2864691D01*
X2863040Y2563309D02*
Y2566611D01*
X3159849Y1005090D02*
X3163151D01*
X3161500Y1003439D02*
Y1006741D01*
X3207376Y1010733D02*
X3210678D01*
X3209027Y1009082D02*
Y1012384D01*
X3159849Y1015090D02*
X3163151D01*
X3161500Y1013439D02*
Y1016741D01*
X3199511Y1022096D02*
X3202813D01*
X3201162Y1020445D02*
Y1023747D01*
X2996057Y2602230D02*
X2999359D01*
X2997708Y2600579D02*
Y2603881D01*
X3012567Y2628646D02*
X3015869D01*
X3014218Y2626995D02*
Y2630297D01*
X3026537Y2652268D02*
X3029839D01*
X3028188Y2650617D02*
Y2653919D01*
X3042539Y2677922D02*
X3045841D01*
X3044190Y2676271D02*
Y2679573D01*
X2437865Y1446875D02*
X2441167D01*
X2439516Y1445224D02*
Y1448526D01*
X2484755Y1054354D02*
X2488057D01*
X2486406Y1052703D02*
Y1056005D01*
X2437865Y1458898D02*
X2441167D01*
X2439516Y1457247D02*
Y1460549D01*
X2473325Y1089406D02*
X2476627D01*
X2474976Y1087755D02*
Y1091057D01*
X2445485Y1452887D02*
X2448787D01*
X2447136Y1451236D02*
Y1454538D01*
X2479145Y1079466D02*
X2482447D01*
X2480796Y1077815D02*
Y1081117D01*
X2445485Y1464486D02*
X2448787D01*
X2447136Y1462835D02*
Y1466137D01*
X2644267Y1475232D02*
X2647569D01*
X2645918Y1473581D02*
Y1476883D01*
X2651887Y1480566D02*
X2655189D01*
X2653538Y1478915D02*
Y1482217D01*
X2455816Y1476502D02*
X2459118D01*
X2457467Y1474851D02*
Y1478153D01*
X2658491Y1473962D02*
X2661793D01*
X2660142Y1472311D02*
Y1475613D01*
X2455799Y1425020D02*
X2459101D01*
X2457450Y1423369D02*
Y1426671D01*
X2607691Y1636014D02*
X2610993D01*
X2609342Y1634363D02*
Y1637665D01*
X2599789Y1643917D02*
X2603091D01*
X2601440Y1642266D02*
Y1645568D01*
X2420932Y1105069D02*
X2424234D01*
X2422583Y1103418D02*
Y1106720D01*
X2437865Y1512327D02*
X2441167D01*
X2439516Y1510676D02*
Y1513978D01*
X2642675Y1508291D02*
X2645977D01*
X2644326Y1506640D02*
Y1509942D01*
X2428113Y1094486D02*
X2431415D01*
X2429764Y1092835D02*
Y1096137D01*
X2445485Y1506147D02*
X2448787D01*
X2447136Y1504496D02*
Y1507798D01*
X2649601Y1502664D02*
X2652903D01*
X2651252Y1501013D02*
Y1504315D01*
X2433447Y1083564D02*
X2436749D01*
X2435098Y1081913D02*
Y1085215D01*
X2437865Y1500305D02*
X2441167D01*
X2439516Y1498654D02*
Y1501956D01*
X2690985Y1475214D02*
X2694287D01*
X2692636Y1473563D02*
Y1476865D01*
X2439289Y1072134D02*
X2442591D01*
X2440940Y1070483D02*
Y1073785D01*
X2445485Y1494293D02*
X2448787D01*
X2447136Y1492642D02*
Y1495944D01*
X2664333Y1480312D02*
X2667635D01*
X2665984Y1478661D02*
Y1481963D01*
X2416937Y984504D02*
X2420239D01*
X2418588Y982853D02*
Y986155D01*
X2445485Y1518000D02*
X2448787D01*
X2447136Y1516349D02*
Y1519651D01*
X2411603Y975614D02*
X2414905D01*
X2413254Y973963D02*
Y977265D01*
X2437865Y1524350D02*
X2441167D01*
X2439516Y1522699D02*
Y1526001D01*
X2485208Y1535565D02*
X2488510D01*
X2486859Y1533914D02*
Y1537216D01*
X2606788Y1627011D02*
X2610090D01*
X2608439Y1625360D02*
Y1628662D01*
X2615819Y1627886D02*
X2619121D01*
X2617470Y1626235D02*
Y1629537D01*
X2614916Y1618883D02*
X2618218D01*
X2616567Y1617232D02*
Y1620534D01*
X2719705Y1596644D02*
X2723007D01*
X2721356Y1594993D02*
Y1598295D01*
X2725884Y1602308D02*
X2729186D01*
X2727535Y1600657D02*
Y1603959D01*
X2999867Y1640840D02*
X3003169D01*
X3001518Y1639189D02*
Y1642491D01*
X2594137Y1452806D02*
X2597439D01*
X2595788Y1451155D02*
Y1454457D01*
X2598787Y1635012D02*
X2602089D01*
X2600438Y1633361D02*
Y1636663D01*
X2922143Y1647288D02*
X2925445D01*
X2923794Y1645637D02*
Y1648939D01*
X2947416Y1622015D02*
X2950718D01*
X2949067Y1620364D02*
Y1623666D01*
X2938018Y1620999D02*
X2941320D01*
X2939669Y1619348D02*
Y1622650D01*
X3148965Y1557274D02*
X3152267D01*
X3150616Y1555623D02*
Y1558925D01*
X3154807Y1544066D02*
X3158109D01*
X3156458Y1542415D02*
Y1545717D01*
X3184017Y1507080D02*
X3187319D01*
X3185668Y1505429D02*
Y1508731D01*
X2495677Y1126490D02*
X2498979D01*
X2497328Y1124839D02*
Y1128141D01*
X2472817Y1433830D02*
X2476119D01*
X2474468Y1432179D02*
Y1435481D01*
X2575687Y1434338D02*
X2578989D01*
X2577338Y1432687D02*
Y1435989D01*
X2490115Y1114534D02*
X2493417D01*
X2491766Y1112883D02*
Y1116185D01*
X2445485Y1441033D02*
X2448787D01*
X2447136Y1439382D02*
Y1442684D01*
X2581536Y1441739D02*
X2584838D01*
X2583187Y1440088D02*
Y1443390D01*
X3003169Y1856740D02*
X3006471D01*
X3004820Y1855089D02*
Y1858391D01*
X3015869Y1862582D02*
X3019171D01*
X3017520Y1860931D02*
Y1864233D01*
X3028569Y1869186D02*
X3031871D01*
X3030220Y1867535D02*
Y1870837D01*
X3054156Y1852237D02*
X3057458D01*
X3055807Y1850586D02*
Y1853888D01*
X3041269Y1851152D02*
X3044571D01*
X3042920Y1849501D02*
Y1852803D01*
X3066669Y1852168D02*
X3069971D01*
X3068320Y1850517D02*
Y1853819D01*
X2759583Y1865376D02*
X2762885D01*
X2761234Y1863725D02*
Y1867027D01*
X2746375Y1860804D02*
X2749677D01*
X2748026Y1859153D02*
Y1862455D01*
X2733675Y1858010D02*
X2736977D01*
X2735326Y1856359D02*
Y1859661D01*
X2720975Y1853692D02*
X2724277D01*
X2722626Y1852041D02*
Y1855343D01*
X2670429Y1853184D02*
X2673731D01*
X2672080Y1851533D02*
Y1854835D01*
X2841304Y1643059D02*
X2844606D01*
X2842955Y1641408D02*
Y1644710D01*
X2786507Y1641602D02*
X2789809D01*
X2788158Y1639951D02*
Y1643253D01*
X2785640Y1650371D02*
X2788942D01*
X2787291Y1648720D02*
Y1652022D01*
X2832735Y1643888D02*
X2836037D01*
X2834386Y1642237D02*
Y1645539D01*
X2824099Y1644396D02*
X2827401D01*
X2825750Y1642745D02*
Y1646047D01*
X2794635Y1649984D02*
X2797937D01*
X2796286Y1648333D02*
Y1651635D01*
X2803285Y1657364D02*
X2806587D01*
X2804936Y1655713D02*
Y1659015D01*
X2804177Y1648175D02*
X2807479D01*
X2805828Y1646524D02*
Y1649826D01*
X2964815Y1823720D02*
X2968117D01*
X2966466Y1822069D02*
Y1825371D01*
X2623820Y1619885D02*
X2627122D01*
X2625471Y1618234D02*
Y1621536D01*
X2732405Y1607962D02*
X2735707D01*
X2734056Y1606311D02*
Y1609613D01*
X3172079Y1590802D02*
X3175381D01*
X3173730Y1589151D02*
Y1592453D01*
X3183255Y1588770D02*
X3186557D01*
X3184906Y1587119D02*
Y1590421D01*
X2930652Y1638779D02*
X2933954D01*
X2932303Y1637128D02*
Y1640430D01*
X3178365Y1513303D02*
X3181667D01*
X3180016Y1511652D02*
Y1514954D01*
X2921127Y1637890D02*
X2924429D01*
X2922778Y1636239D02*
Y1639541D01*
X3161411Y1531972D02*
X3164713D01*
X3163062Y1530321D02*
Y1533623D01*
X2938780Y1630651D02*
X2942082D01*
X2940431Y1629000D02*
Y1632302D01*
X2929636Y1629381D02*
X2932938D01*
X2931287Y1627730D02*
Y1631032D01*
X2666410Y1668227D02*
X2669712D01*
X2668061Y1666576D02*
Y1669878D01*
X2676525Y1670050D02*
X2679827D01*
X2678176Y1668399D02*
Y1671701D01*
X2668157Y1678418D02*
X2671459D01*
X2669808Y1676767D02*
Y1680069D01*
X2481199Y1526794D02*
X2484501D01*
X2482850Y1525143D02*
Y1528445D01*
X2495931Y1539494D02*
X2499233D01*
X2497582Y1537843D02*
Y1541145D01*
X2695829Y1853692D02*
X2699131D01*
X2697480Y1852041D02*
Y1855343D01*
X2708783Y1853692D02*
X2712085D01*
X2710434Y1852041D02*
Y1855343D01*
X2683637Y1865884D02*
X2686939D01*
X2685288Y1864233D02*
Y1867535D01*
X2811653Y1874774D02*
X2814955D01*
X2813304Y1873123D02*
Y1876425D01*
X2965069Y1875028D02*
X2968371D01*
X2966720Y1873377D02*
Y1876679D01*
X2798699Y1822450D02*
X2802001D01*
X2800350Y1820799D02*
Y1824101D01*
X2647569Y1750822D02*
X2650871D01*
X2649220Y1749171D02*
Y1752473D01*
X2848483Y1818738D02*
X2851785D01*
X2850134Y1817087D02*
Y1820389D01*
X2823591Y1819148D02*
X2826893D01*
X2825242Y1817497D02*
Y1820799D01*
X2836037Y1818992D02*
X2839339D01*
X2837688Y1817341D02*
Y1820643D01*
X2874010Y1818865D02*
X2877312D01*
X2875661Y1817214D02*
Y1820516D01*
X2861310Y1818865D02*
X2864612D01*
X2862961Y1817214D02*
Y1820516D01*
X2886710Y1818865D02*
X2890012D01*
X2888361Y1817214D02*
Y1820516D01*
X2912110Y1818865D02*
X2915412D01*
X2913761Y1817214D02*
Y1820516D01*
X2899410Y1818865D02*
X2902712D01*
X2901061Y1817214D02*
Y1820516D01*
X2989453Y1804924D02*
X2992755D01*
X2991104Y1803273D02*
Y1806575D01*
X2977007Y1811274D02*
X2980309D01*
X2978658Y1809623D02*
Y1812925D01*
X2952623Y1817624D02*
X2955925D01*
X2954274Y1815973D02*
Y1819275D01*
X3060319Y1801114D02*
X3063621D01*
X3061970Y1799463D02*
Y1802765D01*
X1702943Y2626614D02*
X1706245D01*
X1704594Y2624963D02*
Y2628265D01*
X1749806Y1824736D02*
X1753362D01*
X1751584Y1822958D02*
Y1826514D01*
X1757680Y1818640D02*
X1761236D01*
X1759458Y1816862D02*
Y1820418D01*
X1767953Y1817864D02*
X1771255D01*
X1769604Y1816213D02*
Y1819515D01*
X1768475Y1809242D02*
X1771777D01*
X1770126Y1807591D02*
Y1810893D01*
X1764157Y1801622D02*
X1767459D01*
X1765808Y1799971D02*
Y1803273D01*
X1765173Y1793240D02*
X1768475D01*
X1766824Y1791589D02*
Y1794891D01*
X1795967Y1789363D02*
X1799523D01*
X1797745Y1787585D02*
Y1791141D01*
X1134784Y1613994D02*
X1138086D01*
X1136435Y1612343D02*
Y1615645D01*
X1557105Y2477199D02*
X1560407D01*
X1558756Y2475548D02*
Y2478850D01*
X1618361Y2477008D02*
X1621663D01*
X1620012Y2475357D02*
Y2478659D01*
X2303864Y2068576D02*
X2307421D01*
X2305643Y2066798D02*
Y2070354D01*
X2106803Y1410716D02*
X2110105D01*
X2108454Y1409065D02*
Y1412367D01*
X2125599Y1409954D02*
X2128901D01*
X2127250Y1408303D02*
Y1411605D01*
X2204720Y1472184D02*
X2208276D01*
X2206498Y1470406D02*
Y1473962D01*
X2411349Y1695958D02*
X2414651D01*
X2413000Y1694307D02*
Y1697609D01*
X2401951Y1695958D02*
X2405253D01*
X2403602Y1694307D02*
Y1697609D01*
X2392553Y1695958D02*
X2395855D01*
X2394204Y1694307D02*
Y1697609D01*
X2203069Y1709641D02*
X2206371D01*
X2204720Y1707990D02*
Y1711292D01*
X2252091Y1694942D02*
X2255393D01*
X2253742Y1693291D02*
Y1696593D01*
X2267712Y1492758D02*
X2271014D01*
X2269363Y1491107D02*
Y1494409D01*
X2276475Y1492758D02*
X2279777D01*
X2278126Y1491107D02*
Y1494409D01*
X2258949Y1492758D02*
X2262251D01*
X2260600Y1491107D02*
Y1494409D01*
X2218182Y2429002D02*
X2221738D01*
X2219960Y2427224D02*
Y2430780D01*
X2145157Y1075944D02*
X2148459D01*
X2146808Y1074293D02*
Y1077595D01*
X2151253Y1088644D02*
X2154555D01*
X2152904Y1086993D02*
Y1090295D01*
X2159889Y1088644D02*
X2163191D01*
X2161540Y1086993D02*
Y1090295D01*
X2741041Y2105152D02*
X2744343D01*
X2742692Y2103501D02*
Y2106803D01*
X2718689Y2099310D02*
X2721991D01*
X2720340Y2097659D02*
Y2100961D01*
X2704719Y2093722D02*
X2708021D01*
X2706370Y2092071D02*
Y2095373D01*
X2311781Y2055876D02*
X2315083D01*
X2313432Y2054225D02*
Y2057527D01*
X2318639Y2061464D02*
X2321941D01*
X2320290Y2059813D02*
Y2063115D01*
X2071751Y1310894D02*
X2075053D01*
X2073402Y1309243D02*
Y1312545D01*
X2137537Y983234D02*
X2140839D01*
X2139188Y981583D02*
Y984885D01*
X2082673Y1183132D02*
X2085975D01*
X2084324Y1181481D02*
Y1184783D01*
X2188083Y1260094D02*
X2191385D01*
X2189734Y1258443D02*
Y1261745D01*
X2204847Y1261364D02*
X2208149D01*
X2206498Y1259713D02*
Y1263015D01*
X1867747Y1164082D02*
X1871303D01*
X1869525Y1162304D02*
Y1165860D01*
X2221357Y1255268D02*
X2224659D01*
X2223008Y1253617D02*
Y1256919D01*
X2214940Y1261177D02*
X2218242D01*
X2216591Y1259526D02*
Y1262828D01*
X2155825Y1434084D02*
X2159127D01*
X2157476Y1432433D02*
Y1435735D01*
X2179574Y1630426D02*
X2183130D01*
X2181352Y1628648D02*
Y1632204D01*
X2197487Y1611884D02*
X2200789D01*
X2199138Y1610233D02*
Y1613535D01*
X2189861Y1606296D02*
X2193163D01*
X2191512Y1604645D02*
Y1607947D01*
X2205101Y1617980D02*
X2208403D01*
X2206752Y1616329D02*
Y1619631D01*
X2217547Y1633220D02*
X2220849D01*
X2219198Y1631569D02*
Y1634871D01*
X1848231Y1114298D02*
X1851533D01*
X1849882Y1112647D02*
Y1115949D01*
X2300351Y1550416D02*
X2303653D01*
X2302002Y1548765D02*
Y1552067D01*
X2292731Y1556004D02*
X2296033D01*
X2294382Y1554353D02*
Y1557655D01*
X2286889Y1544320D02*
X2290191D01*
X2288540Y1542669D02*
Y1545971D01*
X2304423Y1562092D02*
X2307725D01*
X2306074Y1560441D02*
Y1563743D01*
X2298573Y1568095D02*
X2301875D01*
X2300224Y1566444D02*
Y1569746D01*
X2315845Y1553972D02*
X2319147D01*
X2317496Y1552321D02*
Y1555623D01*
X2280031Y1532890D02*
X2283333D01*
X2281682Y1531239D02*
Y1534541D01*
X2204339Y1551178D02*
X2207641D01*
X2205990Y1549527D02*
Y1552829D01*
X1248981Y1074928D02*
X1252283D01*
X1250632Y1073277D02*
Y1076579D01*
X1248918Y1056640D02*
X1252220D01*
X1250569Y1054989D02*
Y1058291D01*
X2482469Y1683766D02*
X2485771D01*
X2484120Y1682115D02*
Y1685417D01*
X2482469Y1693672D02*
X2485771D01*
X2484120Y1692021D02*
Y1695323D01*
X1636649Y1122426D02*
X1639951D01*
X1638300Y1120775D02*
Y1124077D01*
X2006473Y1341374D02*
X2009775D01*
X2008124Y1339723D02*
Y1343025D01*
X2114677Y1424940D02*
X2117979D01*
X2116328Y1423289D02*
Y1426591D01*
X2128901Y1396492D02*
X2132203D01*
X2130552Y1394841D02*
Y1398143D01*
X2149221Y1426718D02*
X2152523D01*
X2150872Y1425067D02*
Y1428369D01*
X2076323Y1286764D02*
X2079625D01*
X2077974Y1285113D02*
Y1288415D01*
X2068957Y1281430D02*
X2072259D01*
X2070608Y1279779D02*
Y1283081D01*
X2064893Y1303274D02*
X2068195D01*
X2066544Y1301623D02*
Y1304925D01*
X2061337Y1275842D02*
X2064639D01*
X2062988Y1274191D02*
Y1277493D01*
X2139061Y1385062D02*
X2142363D01*
X2140712Y1383411D02*
Y1386713D01*
X2326259Y2395728D02*
X2329561D01*
X2327910Y2394077D02*
Y2397379D01*
X1936042Y1106165D02*
X1939344D01*
X1937693Y1104514D02*
Y1107816D01*
X2805557Y1167892D02*
X2808859D01*
X2807208Y1166241D02*
Y1169543D01*
X2159381Y1129030D02*
X2162683D01*
X2161032Y1127379D02*
Y1130681D01*
X2200783Y1119378D02*
X2204085D01*
X2202434Y1117727D02*
Y1121029D01*
X2200783Y1127760D02*
X2204085D01*
X2202434Y1126109D02*
Y1129411D01*
X2501317Y1110178D02*
X2504619D01*
X2502968Y1108527D02*
Y1111829D01*
X2103134Y1119519D02*
X2106436D01*
X2104785Y1117868D02*
Y1121170D01*
X3159849Y934930D02*
X3163151D01*
X3161500Y933279D02*
Y936581D01*
X3164713Y927354D02*
X3168015D01*
X3166364Y925703D02*
Y929005D01*
X3056001Y933958D02*
X3059303D01*
X3057652Y932307D02*
Y935609D01*
X3086989Y918972D02*
X3090291D01*
X3088640Y917321D02*
Y920623D01*
X3107309Y924560D02*
X3110611D01*
X3108960Y922909D02*
Y926211D01*
X3099689Y938530D02*
X3102991D01*
X3101340Y936879D02*
Y940181D01*
X3106801Y952500D02*
X3110103D01*
X3108452Y950849D02*
Y954151D01*
X2263775Y1746250D02*
X2267077D01*
X2265426Y1744599D02*
Y1747901D01*
X2713863Y2443226D02*
X2717165D01*
X2715514Y2441575D02*
Y2444877D01*
X2520569Y2104898D02*
X2523871D01*
X2522220Y2103247D02*
Y2106549D01*
X2859484Y1387348D02*
X2863040D01*
X2861262Y1385570D02*
Y1389126D01*
X2869484Y1387348D02*
X2873040D01*
X2871262Y1385570D02*
Y1389126D01*
X3048000Y1365504D02*
X3051556D01*
X3049778Y1363726D02*
Y1367282D01*
X3048000Y1173988D02*
X3051556D01*
X3049778Y1172210D02*
Y1175766D01*
X2634869Y2150872D02*
X2638171D01*
X2636520Y2149221D02*
Y2152523D01*
X2622423Y2093468D02*
X2625725D01*
X2624074Y2091817D02*
Y2095119D01*
X3205861Y900684D02*
X3209163D01*
X3207512Y899033D02*
Y902335D01*
X2958973Y1460246D02*
X2962275D01*
X2960624Y1458595D02*
Y1461897D01*
X2958973Y1451610D02*
X2962275D01*
X2960624Y1449959D02*
Y1453261D01*
X3662934Y1772158D02*
X3667506D01*
X3665220Y1769872D02*
Y1774444D01*
X3526536Y2405126D02*
X3531108D01*
X3528822Y2402840D02*
Y2407412D01*
X3668014Y2405634D02*
X3672586D01*
X3670300Y2403348D02*
Y2407920D01*
X3650742Y1457960D02*
X3656330D01*
X3653536Y1455166D02*
Y1460754D01*
X3650742Y1443482D02*
X3656330D01*
X3653536Y1440688D02*
Y1446276D01*
X3665220Y1443482D02*
X3670808D01*
X3668014Y1440688D02*
Y1446276D01*
X3665220Y1457960D02*
X3670808D01*
X3668014Y1455166D02*
Y1460754D01*
X3631692Y1847596D02*
X3637280D01*
X3634486Y1844802D02*
Y1850390D01*
X3631692Y1833118D02*
X3637280D01*
X3634486Y1830324D02*
Y1835912D01*
X3617214Y1833118D02*
X3622802D01*
X3620008Y1830324D02*
Y1835912D01*
X3617214Y1847596D02*
X3622802D01*
X3620008Y1844802D02*
Y1850390D01*
X3663188Y2528824D02*
X3668776D01*
X3665982Y2526030D02*
Y2531618D01*
X3663188Y2514346D02*
X3668776D01*
X3665982Y2511552D02*
Y2517140D01*
X3648710Y2514346D02*
X3654298D01*
X3651504Y2511552D02*
Y2517140D01*
X3648710Y2528824D02*
X3654298D01*
X3651504Y2526030D02*
Y2531618D01*
X3662934Y2558034D02*
X3668522D01*
X3665728Y2555240D02*
Y2560828D01*
X3662934Y2543556D02*
X3668522D01*
X3665728Y2540762D02*
Y2546350D01*
X3648456Y2543556D02*
X3654044D01*
X3651250Y2540762D02*
Y2546350D01*
X3648456Y2558034D02*
X3654044D01*
X3651250Y2555240D02*
Y2560828D01*
X3627120Y2124964D02*
X3632708D01*
X3629914Y2122170D02*
Y2127758D01*
X3641598Y2124964D02*
X3647186D01*
X3644392Y2122170D02*
Y2127758D01*
X3641598Y2110486D02*
X3647186D01*
X3644392Y2107692D02*
Y2113280D01*
X3627120Y2110486D02*
X3632708D01*
X3629914Y2107692D02*
Y2113280D01*
X3627120Y2094992D02*
X3632708D01*
X3629914Y2092198D02*
Y2097786D01*
X3641598Y2094992D02*
X3647186D01*
X3644392Y2092198D02*
Y2097786D01*
X3641598Y2080514D02*
X3647186D01*
X3644392Y2077720D02*
Y2083308D01*
X3627120Y2080514D02*
X3632708D01*
X3629914Y2077720D02*
Y2083308D01*
X3624326Y2009394D02*
X3629914D01*
X3627120Y2006600D02*
Y2012188D01*
X3638804Y2009394D02*
X3644392D01*
X3641598Y2006600D02*
Y2012188D01*
X3638804Y1994916D02*
X3644392D01*
X3641598Y1992122D02*
Y1997710D01*
X3624326Y1994916D02*
X3629914D01*
X3627120Y1992122D02*
Y1997710D01*
X3475355Y1308608D02*
X3478657D01*
X3477006Y1306957D02*
Y1310259D01*
X3439287Y1350010D02*
X3442589D01*
X3440938Y1348359D02*
Y1351661D01*
X3414395Y1315720D02*
X3417697D01*
X3416046Y1314069D02*
Y1317371D01*
X3483737Y1211580D02*
X3487039D01*
X3485388Y1209929D02*
Y1213231D01*
X3475609Y1252220D02*
X3478911D01*
X3477260Y1250569D02*
Y1253871D01*
X3599688Y1021461D02*
X3602990D01*
X3601339Y1019810D02*
Y1023112D01*
X3599556Y1050646D02*
X3602858D01*
X3601207Y1048995D02*
Y1052297D01*
X3521964Y1791970D02*
X3526536D01*
X3524250Y1789684D02*
Y1794256D01*
X3519833Y1061600D02*
X3523135D01*
X3521484Y1059949D02*
Y1063251D01*
X3549149Y1085600D02*
X3552451D01*
X3550800Y1083949D02*
Y1087251D01*
X3549149Y1069600D02*
X3552451D01*
X3550800Y1067949D02*
Y1071251D01*
X3652774Y1050290D02*
X3658362D01*
X3655568Y1047496D02*
Y1053084D01*
X3667252Y1050290D02*
X3672840D01*
X3670046Y1047496D02*
Y1053084D01*
X3477641Y1007618D02*
X3480943D01*
X3479292Y1005967D02*
Y1009269D01*
X3406013Y1037590D02*
X3410331D01*
X3408172Y1035431D02*
Y1039749D01*
X3452973Y1034570D02*
X3457291D01*
X3455132Y1032411D02*
Y1036729D01*
X3565779Y1505966D02*
X3570097D01*
X3567938Y1503807D02*
Y1508125D01*
X3566297Y2111756D02*
X3570615D01*
X3568456Y2109597D02*
Y2113915D01*
X3437255Y1008634D02*
X3441573D01*
X3439414Y1006475D02*
Y1010793D01*
X1917827Y1614170D02*
X1922145D01*
X1919986Y1612011D02*
Y1616329D01*
X1917827Y1627632D02*
X1922145D01*
X1919986Y1625473D02*
Y1629791D01*
X2056919Y976465D02*
X2061237D01*
X2059078Y974306D02*
Y978624D01*
X2146427Y1012444D02*
X2150745D01*
X2148586Y1010285D02*
Y1014603D01*
X2085975Y966724D02*
X2090293D01*
X2088134Y964565D02*
Y968883D01*
X2203069Y855218D02*
X2207387D01*
X2205228Y853059D02*
Y857377D01*
X2307209Y1103884D02*
X2311527D01*
X2309368Y1101725D02*
Y1106043D01*
X2798191Y1881886D02*
X2802509D01*
X2800350Y1879727D02*
Y1884045D01*
X2951099Y1882394D02*
X2955417D01*
X2953258Y1880235D02*
Y1884553D01*
X2658237Y1860042D02*
X2661539D01*
X2659888Y1858391D02*
Y1861693D01*
X2657475Y1873250D02*
X2661793D01*
X2659634Y1871091D02*
Y1875409D01*
X3175381Y1607566D02*
X3179699D01*
X3177540Y1605407D02*
Y1609725D01*
X2519045Y2514854D02*
X2523363D01*
X2521204Y2512695D02*
Y2517013D01*
X2798699Y2443988D02*
X2803017D01*
X2800858Y2441829D02*
Y2446147D01*
X2799207Y2246884D02*
X2803525D01*
X2801366Y2244725D02*
Y2249043D01*
X2495804Y922020D02*
X2501392D01*
X2498598Y919226D02*
Y924814D01*
X2481326Y922020D02*
X2486914D01*
X2484120Y919226D02*
Y924814D01*
X2495804Y908304D02*
X2501392D01*
X2498598Y905510D02*
Y911098D01*
X2481326Y908304D02*
X2486914D01*
X2484120Y905510D02*
Y911098D01*
X2705735Y1665986D02*
X2710053D01*
X2707894Y1663827D02*
Y1668145D01*
X2690236Y1627891D02*
X2694554D01*
X2692395Y1625732D02*
Y1630050D01*
X2690744Y1660149D02*
X2695062D01*
X2692903Y1657990D02*
Y1662308D01*
X2689733Y1577340D02*
X2693035D01*
X2691384Y1575689D02*
Y1578991D01*
X2714012Y1590492D02*
X2717314D01*
X2715663Y1588841D02*
Y1592143D01*
X2707005Y1563878D02*
X2710307D01*
X2708656Y1562227D02*
Y1565529D01*
X2700655Y1570228D02*
X2703957D01*
X2702306Y1568577D02*
Y1571879D01*
X2694973Y1585091D02*
X2698275D01*
X2696624Y1583440D02*
Y1586742D01*
X2691257Y1552194D02*
X2695067D01*
X2693162Y1550289D02*
Y1554099D01*
X2691003Y1526286D02*
X2694813D01*
X2692908Y1524381D02*
Y1528191D01*
X2693035Y1406906D02*
X2696845D01*
X2694940Y1405001D02*
Y1408811D01*
X2799207Y1698244D02*
X2803525D01*
X2801366Y1696085D02*
Y1700403D01*
X2811145Y1750822D02*
X2814447D01*
X2812796Y1749171D02*
Y1752473D01*
X2802255Y1750568D02*
X2805557D01*
X2803906Y1748917D02*
Y1752219D01*
X2844165Y1699260D02*
X2848483D01*
X2846324Y1697101D02*
Y1701419D01*
X2878963Y1668526D02*
X2883281D01*
X2881122Y1666367D02*
Y1670685D01*
X2914015Y1668272D02*
X2918333D01*
X2916174Y1666113D02*
Y1670431D01*
X2961513Y1626870D02*
X2964815D01*
X2963164Y1625219D02*
Y1628521D01*
X2967355Y1633728D02*
X2970657D01*
X2969006Y1632077D02*
Y1635379D01*
X2973705Y1610360D02*
X2978023D01*
X2975864Y1608201D02*
Y1612519D01*
X2740279Y1387094D02*
X2744597D01*
X2742438Y1384935D02*
Y1389253D01*
X2729484Y1387348D02*
X2733040D01*
X2731262Y1385570D02*
Y1389126D01*
X2709291Y1357630D02*
X2713609D01*
X2711450Y1355471D02*
Y1359789D01*
X2775839Y1387348D02*
X2780157D01*
X2777998Y1385189D02*
Y1389507D01*
X2799207Y1388110D02*
X2803525D01*
X2801366Y1385951D02*
Y1390269D01*
X2844165Y1387094D02*
X2848483D01*
X2846324Y1384935D02*
Y1389253D01*
X2889123Y1387094D02*
X2893441D01*
X2891282Y1384935D02*
Y1389253D01*
X2919167Y1387331D02*
X2923485D01*
X2921326Y1385172D02*
Y1389490D01*
X2944451Y1387469D02*
X2948769D01*
X2946610Y1385310D02*
Y1389628D01*
X2971927Y1409954D02*
X2976245D01*
X2974086Y1407795D02*
Y1412113D01*
X3005201Y1567434D02*
X3009519D01*
X3007360Y1565275D02*
Y1569593D01*
X2914225Y1465701D02*
X2918543D01*
X2916384Y1463542D02*
Y1467860D01*
X3275838Y1526794D02*
X3281426D01*
X3278632Y1524000D02*
Y1529588D01*
X3290316Y1526794D02*
X3295904D01*
X3293110Y1524000D02*
Y1529588D01*
X3290316Y1512316D02*
X3295904D01*
X3293110Y1509522D02*
Y1515110D01*
X3275838Y1512316D02*
X3281426D01*
X3278632Y1509522D02*
Y1515110D01*
X2577650Y944884D02*
X2583238D01*
X2580444Y942090D02*
Y947678D01*
X2592128Y944884D02*
X2597716D01*
X2594922Y942090D02*
Y947678D01*
X2492629Y969010D02*
X2495931D01*
X2494280Y967359D02*
Y970661D01*
X2483300Y950360D02*
X2488888D01*
X2486094Y947566D02*
Y953154D01*
X2497778Y950360D02*
X2503366D01*
X2500572Y947566D02*
Y953154D01*
X2579624Y916940D02*
X2585212D01*
X2582418Y914146D02*
Y919734D01*
X2579624Y903224D02*
X2585212D01*
X2582418Y900430D02*
Y906018D01*
X2594102Y916940D02*
X2599690D01*
X2596896Y914146D02*
Y919734D01*
X2594102Y903224D02*
X2599690D01*
X2596896Y900430D02*
Y906018D01*
X2171826Y1553212D02*
X2176143D01*
X2173985Y1551053D02*
Y1555370D01*
X2249297Y1272286D02*
X2252599D01*
X2250948Y1270635D02*
Y1273937D01*
X2273427Y1429004D02*
X2277745D01*
X2275586Y1426845D02*
Y1431163D01*
X2453513Y1641094D02*
X2457831D01*
X2455672Y1638935D02*
Y1643253D01*
X2453259Y1615948D02*
X2457577D01*
X2455418Y1613789D02*
Y1618107D01*
X2316861Y1691894D02*
X2321179D01*
X2319020Y1689735D02*
Y1694053D01*
X2408809Y1437132D02*
X2413127D01*
X2410968Y1434973D02*
Y1439291D01*
X2177415Y1723390D02*
X2181733D01*
X2179574Y1721231D02*
Y1725549D01*
X3495929Y2072640D02*
X3500247D01*
X3498088Y2070481D02*
Y2074799D01*
X3544826Y2011431D02*
X3549144D01*
X3546985Y2009272D02*
Y2013590D01*
X3480694Y1543553D02*
X3485012D01*
X3482853Y1541394D02*
Y1545712D01*
X3624458Y1020831D02*
X3628776D01*
X3626617Y1018672D02*
Y1022990D01*
X3639312Y1533144D02*
X3644900D01*
X3642106Y1530350D02*
Y1535938D01*
X1832737Y1588770D02*
X1837055D01*
X1834896Y1586611D02*
Y1590929D01*
X1677797Y1637284D02*
X1682115D01*
X1679956Y1635125D02*
Y1639443D01*
X1699133Y1296162D02*
X1703451D01*
X1701292Y1294003D02*
Y1298321D01*
X1832737Y1293322D02*
X1837055D01*
X1834896Y1291163D02*
Y1295481D01*
X1238885Y1104600D02*
X1243203D01*
X1241044Y1102441D02*
Y1106759D01*
X1259459Y895558D02*
X1263777D01*
X1261618Y893399D02*
Y897717D01*
X1521333Y962198D02*
X1525651D01*
X1523492Y960039D02*
Y964357D01*
X1049447Y1633220D02*
X1053765D01*
X1051606Y1631061D02*
Y1635379D01*
X1049447Y1779270D02*
X1053765D01*
X1051606Y1777111D02*
Y1781429D01*
X1060831Y2551130D02*
X1065149D01*
X1062990Y2548971D02*
Y2553289D01*
X1060831Y2271984D02*
X1065149D01*
X1062990Y2269825D02*
Y2274143D01*
X2262713Y2629408D02*
X2267031D01*
X2264872Y2627249D02*
Y2631567D01*
X2480437Y1717294D02*
X2484755D01*
X2482596Y1715135D02*
Y1719453D01*
X2947543Y1162304D02*
X2950845D01*
X2949194Y1160653D02*
Y1163955D01*
X2932049Y1133902D02*
X2936367D01*
X2934208Y1131743D02*
Y1136061D01*
X2622215Y1145286D02*
X2626533D01*
X2624374Y1143127D02*
Y1147445D01*
X2137237Y1247394D02*
X2141555D01*
X2139396Y1245235D02*
Y1249553D01*
X2438400Y2565654D02*
X2443988D01*
X2441194Y2562860D02*
Y2568448D01*
X2452878Y2565654D02*
X2458466D01*
X2455672Y2562860D02*
Y2568448D01*
X2438400Y2579370D02*
X2443988D01*
X2441194Y2576576D02*
Y2582164D01*
X2452878Y2579370D02*
X2458466D01*
X2455672Y2576576D02*
Y2582164D01*
X3595370Y2598420D02*
X3600958D01*
X3598164Y2595626D02*
Y2601214D01*
X3609848Y2598420D02*
X3615436D01*
X3612642Y2595626D02*
Y2601214D01*
X3595370Y2612136D02*
X3600958D01*
X3598164Y2609342D02*
Y2614930D01*
X3609848Y2612136D02*
X3615436D01*
X3612642Y2609342D02*
Y2614930D01*
X2804922Y2708910D02*
X2810510D01*
X2807716Y2706116D02*
Y2711704D01*
X2819400Y2708910D02*
X2824988D01*
X2822194Y2706116D02*
Y2711704D01*
X2804922Y2722626D02*
X2810510D01*
X2807716Y2719832D02*
Y2725420D01*
X2819400Y2722626D02*
X2824988D01*
X2822194Y2719832D02*
Y2725420D01*
X2027649Y988922D02*
X2031967D01*
X2029808Y986763D02*
Y991081D01*
X2040636Y1024763D02*
X2044954D01*
X2042795Y1022604D02*
Y1026922D01*
X2141855Y1195832D02*
X2146173D01*
X2144014Y1193673D02*
Y1197991D01*
X2137702Y1234848D02*
X2142020D01*
X2139861Y1232689D02*
Y1237007D01*
X2065555Y1158329D02*
X2069873D01*
X2067714Y1156170D02*
Y1160488D01*
X1287305Y1056794D02*
X1291623D01*
X1289464Y1054635D02*
Y1058953D01*
X1060677Y1614081D02*
X1064995D01*
X1062836Y1611922D02*
Y1616240D01*
X1060677Y1680629D02*
X1064995D01*
X1062836Y1678470D02*
Y1682788D01*
X1060677Y2351951D02*
X1064995D01*
X1062836Y2349792D02*
Y2354110D01*
X1026133Y2611539D02*
X1030451D01*
X1028292Y2609380D02*
Y2613698D01*
X1025425Y2574379D02*
X1029743D01*
X1027584Y2572220D02*
Y2576538D01*
X1868203Y2644041D02*
X1872521D01*
X1870362Y2641881D02*
Y2646199D01*
X2070133Y2579016D02*
X2074451D01*
X2072292Y2576857D02*
Y2581176D01*
X1848077Y2426043D02*
X1852395D01*
X1850236Y2423884D02*
Y2428202D01*
X1847569Y2349335D02*
X1851887D01*
X1849728Y2347176D02*
Y2351494D01*
X1869313Y2316607D02*
X1873631D01*
X1871472Y2314448D02*
Y2318766D01*
X1859915Y2285746D02*
X1864233D01*
X1862074Y2283587D02*
Y2287905D01*
X1860837Y2210916D02*
X1865155D01*
X1862996Y2208757D02*
Y2213075D01*
X1866354Y2019962D02*
X1870672D01*
X1868513Y2017803D02*
Y2022121D01*
X2075130Y2018444D02*
X2079448D01*
X2077289Y2016285D02*
Y2020603D01*
X2050669Y2426970D02*
X2054987D01*
X2052828Y2424811D02*
Y2429129D01*
X2077687Y2395374D02*
X2082005D01*
X2079846Y2393215D02*
Y2397533D01*
X2060067Y2287778D02*
X2064385D01*
X2062226Y2285619D02*
Y2289937D01*
X2198597Y1686141D02*
X2202915D01*
X2200756Y1683982D02*
Y1688300D01*
X2188745Y1661833D02*
X2193063D01*
X2190904Y1659674D02*
Y1663992D01*
X2285784Y1456536D02*
X2290102D01*
X2287943Y1454377D02*
Y1458695D01*
X2720975Y1568450D02*
X2725293D01*
X2723134Y1566291D02*
Y1570609D01*
X2733078Y1552294D02*
X2737396D01*
X2735237Y1550135D02*
Y1554453D01*
X2733332Y1527148D02*
X2737650D01*
X2735491Y1524989D02*
Y1529307D01*
X2709268Y1406640D02*
X2713587D01*
X2711428Y1404481D02*
Y1408799D01*
X2777771Y1413167D02*
X2782090D01*
X2779930Y1411008D02*
Y1415326D01*
X2863215Y1417066D02*
X2867533D01*
X2865374Y1414907D02*
Y1419225D01*
X2939310Y1414437D02*
X2943629D01*
X2941469Y1412278D02*
Y1416596D01*
X2986637Y1381080D02*
X2990955D01*
X2988795Y1378921D02*
Y1383239D01*
X3163951Y1620012D02*
X3168269D01*
X3166110Y1617853D02*
Y1622171D01*
X3546602Y1579880D02*
X3552190D01*
X3549396Y1577086D02*
Y1582674D01*
X3561080Y1579880D02*
X3566668D01*
X3563874Y1577086D02*
Y1582674D01*
X3546602Y1593596D02*
X3552190D01*
X3549396Y1590802D02*
Y1596390D01*
X3561080Y1593596D02*
X3566668D01*
X3563874Y1590802D02*
Y1596390D01*
X3762248Y2455926D02*
X3767836D01*
X3765042Y2453132D02*
Y2458720D01*
X3747770Y2469642D02*
X3753358D01*
X3750564Y2466848D02*
Y2472436D01*
X3747770Y2455926D02*
X3753358D01*
X3750564Y2453132D02*
Y2458720D01*
X3762248Y2469642D02*
X3767836D01*
X3765042Y2466848D02*
Y2472436D01*
X3760978Y2187194D02*
X3766566D01*
X3763772Y2184400D02*
Y2189988D01*
X3760978Y2200910D02*
X3766566D01*
X3763772Y2198116D02*
Y2203704D01*
X3746500Y2187194D02*
X3752088D01*
X3749294Y2184400D02*
Y2189988D01*
X3746500Y2200910D02*
X3752088D01*
X3749294Y2198116D02*
Y2203704D01*
X3761740Y1860804D02*
X3767328D01*
X3764534Y1858010D02*
Y1863598D01*
X3747262Y1860804D02*
X3752850D01*
X3750056Y1858010D02*
Y1863598D01*
X3761740Y1847088D02*
X3767328D01*
X3764534Y1844294D02*
Y1849882D01*
X3747262Y1847088D02*
X3752850D01*
X3750056Y1844294D02*
Y1849882D01*
X3763264Y1613408D02*
X3768852D01*
X3766058Y1610614D02*
Y1616202D01*
X3748786Y1599692D02*
X3754374D01*
X3751580Y1596898D02*
Y1602486D01*
X3763264Y1599692D02*
X3768852D01*
X3766058Y1596898D02*
Y1602486D01*
X3748786Y1613408D02*
X3754374D01*
X3751580Y1610614D02*
Y1616202D01*
X3761994Y1483614D02*
X3767582D01*
X3764788Y1480820D02*
Y1486408D01*
X3761994Y1469898D02*
X3767582D01*
X3764788Y1467104D02*
Y1472692D01*
X3747516Y1469898D02*
X3753104D01*
X3750310Y1467104D02*
Y1472692D01*
X3747516Y1483614D02*
X3753104D01*
X3750310Y1480820D02*
Y1486408D01*
X3761994Y1423670D02*
X3767582D01*
X3764788Y1420876D02*
Y1426464D01*
X3761994Y1409954D02*
X3767582D01*
X3764788Y1407160D02*
Y1412748D01*
X3747516Y1423670D02*
X3753104D01*
X3750310Y1420876D02*
Y1426464D01*
X3747516Y1409954D02*
X3753104D01*
X3750310Y1407160D02*
Y1412748D01*
X3765804Y1305560D02*
X3771392D01*
X3768598Y1302766D02*
Y1308354D01*
X3765804Y1291844D02*
X3771392D01*
X3768598Y1289050D02*
Y1294638D01*
X3751326Y1291844D02*
X3756914D01*
X3754120Y1289050D02*
Y1294638D01*
X3751326Y1305560D02*
X3756914D01*
X3754120Y1302766D02*
Y1308354D01*
X3773932Y997204D02*
X3779520D01*
X3776726Y994410D02*
Y999998D01*
X3759454Y983488D02*
X3765042D01*
X3762248Y980694D02*
Y986282D01*
X3759454Y997204D02*
X3765042D01*
X3762248Y994410D02*
Y999998D01*
X3773932Y983488D02*
X3779520D01*
X3776726Y980694D02*
Y986282D01*
X3630190Y2383879D02*
X3634508D01*
X3632350Y2381720D02*
Y2386038D01*
X3492246Y2438654D02*
X3497834D01*
X3495040Y2435860D02*
Y2441448D01*
X3477768Y2424938D02*
X3483356D01*
X3480562Y2422144D02*
Y2427732D01*
X3477768Y2438654D02*
X3483356D01*
X3480562Y2435860D02*
Y2441448D01*
X3492246Y2424938D02*
X3497834D01*
X3495040Y2422144D02*
Y2427732D01*
X3576612Y2139088D02*
X3580930D01*
X3578771Y2136929D02*
Y2141247D01*
X3496667Y2176691D02*
X3500984D01*
X3498826Y2174532D02*
Y2178850D01*
X3477476Y2048356D02*
X3481794D01*
X3479635Y2046197D02*
Y2050515D01*
X3561880Y2035964D02*
X3566198D01*
X3564039Y2033805D02*
Y2038123D01*
X3620289Y1782666D02*
X3624608D01*
X3622448Y1780507D02*
Y1784825D01*
X3480270Y1555596D02*
X3484588D01*
X3482429Y1553437D02*
Y1557755D01*
X3578961Y1533801D02*
X3583279D01*
X3581121Y1531642D02*
Y1535960D01*
X3608070Y1495806D02*
X3613658D01*
X3610864Y1493012D02*
Y1498600D01*
X3593592Y1495806D02*
X3599180D01*
X3596386Y1493012D02*
Y1498600D01*
X3593592Y1481328D02*
X3599180D01*
X3596386Y1478534D02*
Y1484122D01*
X3608070Y1481328D02*
X3613658D01*
X3610864Y1478534D02*
Y1484122D01*
X3525487Y1179676D02*
X3529805D01*
X3527646Y1177517D02*
Y1181835D01*
X3553747Y1283870D02*
X3558065D01*
X3555906Y1281711D02*
Y1286029D01*
X3434880Y1045618D02*
X3439198D01*
X3437039Y1043459D02*
Y1047777D01*
X3452650Y1074077D02*
X3456967D01*
X3454808Y1071918D02*
Y1076236D01*
X3405659Y1078141D02*
X3409977D01*
X3407818Y1075982D02*
Y1080300D01*
X3468751Y1034034D02*
X3473069D01*
X3470910Y1031875D02*
Y1036193D01*
X2606775Y976033D02*
X2611093D01*
X2608934Y973874D02*
Y978192D01*
X2607083Y874357D02*
X2611401D01*
X2609242Y872198D02*
Y876516D01*
X2019327Y878243D02*
X2023645D01*
X2021486Y876084D02*
Y880402D01*
X2186405Y855815D02*
X2190723D01*
X2188564Y853656D02*
Y857974D01*
X2770886Y2679700D02*
X2776474D01*
X2773680Y2676906D02*
Y2682494D01*
X2545334Y2638806D02*
X2550922D01*
X2548128Y2636012D02*
Y2641600D01*
X2501138Y2639314D02*
X2506726D01*
X2503932Y2636520D02*
Y2642108D01*
X2505202Y2544064D02*
X2510790D01*
X2507996Y2541270D02*
Y2546858D01*
X2600325Y2507742D02*
X2604643D01*
X2602484Y2505583D02*
Y2509901D01*
X2641473Y2326391D02*
X2645791D01*
X2643632Y2324232D02*
Y2328550D01*
X2765933Y2248916D02*
X2770251D01*
X2768092Y2246757D02*
Y2251075D01*
X2588387Y2229607D02*
X2592705D01*
X2590546Y2227448D02*
Y2231766D01*
X2765997Y2442205D02*
X2770315D01*
X2768156Y2440046D02*
Y2444364D01*
X2727325Y2547366D02*
X2731643D01*
X2729484Y2545207D02*
Y2549525D01*
X2739517Y2547112D02*
X2743835D01*
X2741676Y2544953D02*
Y2549271D01*
X2620137Y1800352D02*
X2624455D01*
X2622296Y1798193D02*
Y1802511D01*
X2923413Y1765976D02*
X2927731D01*
X2925572Y1763817D02*
Y1768135D01*
X3066923Y1782572D02*
X3071241D01*
X3069082Y1780413D02*
Y1784731D01*
X2307463Y1029716D02*
X2311781D01*
X2309622Y1027557D02*
Y1031875D01*
X2129241Y1137412D02*
X2133559D01*
X2131400Y1135253D02*
Y1139571D01*
X2020951Y1568704D02*
X2025269D01*
X2023110Y1566545D02*
Y1570863D01*
X1899793Y1469390D02*
X1904111D01*
X1901952Y1467231D02*
Y1471549D01*
X2454529Y1411732D02*
X2458847D01*
X2456688Y1409573D02*
Y1413891D01*
X2440813Y1667764D02*
X2444115D01*
X2442464Y1666113D02*
Y1669415D01*
X2450465Y1674114D02*
X2453767D01*
X2452116Y1672463D02*
Y1675765D01*
X2442337Y1685290D02*
X2446655D01*
X2444496Y1683131D02*
Y1687449D01*
X2360803Y1690370D02*
X2365121D01*
X2362962Y1688211D02*
Y1692529D01*
X2203069Y1739646D02*
X2207387D01*
X2205228Y1737487D02*
Y1741805D01*
X2263775Y1689608D02*
X2267077D01*
X2265426Y1687957D02*
Y1691259D01*
X2272665Y1682242D02*
X2276983D01*
X2274824Y1680083D02*
Y1684401D01*
X2176780Y1645666D02*
X2180336D01*
X2178558Y1643888D02*
Y1647444D01*
X2173859Y1463294D02*
X2178177D01*
X2176018Y1461135D02*
Y1465453D01*
X2179701Y1541018D02*
X2183003D01*
X2181352Y1539367D02*
Y1542669D01*
X2175129Y1530858D02*
X2179447D01*
X2177288Y1528699D02*
Y1533017D01*
X2107438Y1494028D02*
X2110994D01*
X2109216Y1492250D02*
Y1495806D01*
X2089531Y1558798D02*
X2093849D01*
X2091690Y1556639D02*
Y1560957D01*
X2155152Y1740308D02*
X2159470D01*
X2157311Y1738149D02*
Y1742467D01*
X1956435Y1687576D02*
X1960753D01*
X1958594Y1685417D02*
Y1689735D01*
X2276221Y2578100D02*
X2280539D01*
X2278380Y2575941D02*
Y2580259D01*
X2264283Y2437638D02*
X2268601D01*
X2266442Y2435479D02*
Y2439797D01*
X2273427Y2465832D02*
X2276729D01*
X2275078Y2464181D02*
Y2467483D01*
X2286508Y2198370D02*
X2290064D01*
X2288286Y2196592D02*
Y2200148D01*
X2298573Y2208276D02*
X2302891D01*
X2300732Y2206117D02*
Y2210435D01*
X2302129Y2134108D02*
X2306447D01*
X2304288Y2131949D02*
Y2136267D01*
X2781681Y1882394D02*
X2785999D01*
X2783840Y1880235D02*
Y1884553D01*
X2934416Y1882264D02*
X2938734D01*
X2936575Y1880105D02*
Y1884423D01*
X2798445Y1716532D02*
X2802763D01*
X2800604Y1714373D02*
Y1718691D01*
X2845435Y1735582D02*
X2848737D01*
X2847086Y1733931D02*
Y1737233D01*
X2811399Y1667256D02*
X2815717D01*
X2813558Y1665097D02*
Y1669415D01*
X2878709Y1697228D02*
X2883027D01*
X2880868Y1695069D02*
Y1699387D01*
X2911983Y1696212D02*
X2916301D01*
X2914142Y1694053D02*
Y1698371D01*
X2936550Y1697165D02*
X2940868D01*
X2938709Y1695006D02*
Y1699324D01*
X2969641Y1687068D02*
X2973959D01*
X2971800Y1684909D02*
Y1689227D01*
X3024759Y1627124D02*
X3029077D01*
X3026918Y1624965D02*
Y1629283D01*
X3003931Y1582420D02*
X3008249D01*
X3006090Y1580261D02*
Y1584579D01*
X3021203Y1538986D02*
X3025521D01*
X3023362Y1536827D02*
Y1541145D01*
X3076997Y1589659D02*
X3080299D01*
X3078648Y1588008D02*
Y1591310D01*
X3159849Y965090D02*
X3163151D01*
X3161500Y963439D02*
Y966741D01*
X3083166Y1583128D02*
X3086468D01*
X3084817Y1581477D02*
Y1584779D01*
X3199765Y972566D02*
X3203067D01*
X3201416Y970915D02*
Y974217D01*
X3159849Y985090D02*
X3163151D01*
X3161500Y983439D02*
Y986741D01*
X3056001Y1626870D02*
X3059303D01*
X3057652Y1625219D02*
Y1628521D01*
X3018917Y2362200D02*
X3022219D01*
X3020568Y2360549D02*
Y2363851D01*
X3207376Y990733D02*
X3210678D01*
X3209027Y989082D02*
Y992384D01*
X3045841Y1626108D02*
X3049143D01*
X3047492Y1624457D02*
Y1627759D01*
X3012821Y2387600D02*
X3016123D01*
X3014472Y2385949D02*
Y2389251D01*
X3159849Y995090D02*
X3163151D01*
X3161500Y993439D02*
Y996741D01*
X3035173Y1625346D02*
X3038475D01*
X3036824Y1623695D02*
Y1626997D01*
X3006979Y2413000D02*
X3010281D01*
X3008630Y2411349D02*
Y2414651D01*
X3199502Y1000131D02*
X3202804D01*
X3201153Y998480D02*
Y1001782D01*
X3017393Y1634490D02*
X3020695D01*
X3019044Y1632839D02*
Y1636141D01*
X3001391Y2432050D02*
X3004693D01*
X3003042Y2430399D02*
Y2433701D01*
X2954401Y1697736D02*
X2958719D01*
X2956560Y1695577D02*
Y1699895D01*
X2921381Y1493520D02*
X2925699D01*
X2923540Y1491361D02*
Y1495679D01*
X2969387Y1444244D02*
X2973705D01*
X2971546Y1442085D02*
Y1446403D01*
X2962275Y1425448D02*
X2965577D01*
X2963926Y1423797D02*
Y1427099D01*
X2960751Y1412240D02*
X2965069D01*
X2962910Y1410081D02*
Y1414399D01*
X2958465Y1435862D02*
X2962783D01*
X2960624Y1433703D02*
Y1438021D01*
X2968625Y1372108D02*
X2972943D01*
X2970784Y1369949D02*
Y1374267D01*
X2915389Y1359119D02*
X2919707D01*
X2917548Y1356960D02*
Y1361278D01*
X2843403Y1352296D02*
X2847721D01*
X2845562Y1350137D02*
Y1354455D01*
X2802255Y1356868D02*
X2806573D01*
X2804414Y1354709D02*
Y1359027D01*
X2773553Y1357630D02*
X2777871D01*
X2775712Y1355471D02*
Y1359789D01*
X2744089Y1357122D02*
X2748407D01*
X2746248Y1354963D02*
Y1359281D01*
X2695575Y1375410D02*
X2699893D01*
X2697734Y1373251D02*
Y1377569D01*
X2676525Y1391920D02*
X2680843D01*
X2678684Y1389761D02*
Y1394079D01*
X2587833Y1447282D02*
X2591135D01*
X2589484Y1445631D02*
Y1448933D01*
X2640203Y1447038D02*
X2644521D01*
X2642362Y1444879D02*
Y1449197D01*
X2689322Y1500983D02*
X2693132D01*
X2691227Y1499078D02*
Y1502888D01*
X2708458Y1478146D02*
X2712267D01*
X2710363Y1476241D02*
Y1480051D01*
X2707950Y1493132D02*
X2711760D01*
X2709855Y1491227D02*
Y1495037D01*
X2661145Y1520318D02*
X2664955D01*
X2663051Y1518413D02*
Y1522223D01*
X2693472Y1538598D02*
X2697281D01*
X2695377Y1536693D02*
Y1540503D01*
X2654173Y1578102D02*
X2657475D01*
X2655824Y1576451D02*
Y1579753D01*
X2683942Y1726438D02*
X2687244D01*
X2685593Y1724787D02*
Y1728089D01*
X2690241Y1732788D02*
X2693543D01*
X2691892Y1731137D02*
Y1734439D01*
X2677643Y1720088D02*
X2680945D01*
X2679294Y1718437D02*
Y1721739D01*
X2671191Y1713738D02*
X2674493D01*
X2672842Y1712087D02*
Y1715389D01*
X2665044Y1707388D02*
X2668346D01*
X2666695Y1705737D02*
Y1709039D01*
X2658745Y1701038D02*
X2662047D01*
X2660396Y1699387D02*
Y1702689D01*
X2733929Y1702054D02*
X2737231D01*
X2735580Y1700403D02*
Y1703705D01*
X2783205Y1748028D02*
X2787523D01*
X2785364Y1745869D02*
Y1750187D01*
X3210179Y1493774D02*
X3213481D01*
X3211830Y1492123D02*
Y1495425D01*
X3203829Y1500886D02*
X3207131D01*
X3205480Y1499235D02*
Y1502537D01*
X3264027Y1453388D02*
X3268345D01*
X3266186Y1451229D02*
Y1455547D01*
X3552190Y2234184D02*
X3557778D01*
X3554984Y2231390D02*
Y2236978D01*
X3538474Y2248662D02*
X3544062D01*
X3541268Y2245868D02*
Y2251456D01*
X3552190Y2248662D02*
X3557778D01*
X3554984Y2245868D02*
Y2251456D01*
X3538474Y2234184D02*
X3544062D01*
X3541268Y2231390D02*
Y2236978D01*
X3180461Y1139698D02*
X3184779D01*
X3182620Y1137539D02*
Y1141857D01*
X3140651Y1133788D02*
X3144969D01*
X3142810Y1131629D02*
Y1135947D01*
X3122617Y1075368D02*
X3126935D01*
X3124776Y1073209D02*
Y1077527D01*
X3122871Y1025330D02*
X3127189D01*
X3125030Y1023171D02*
Y1027489D01*
X3122850Y974976D02*
X3127168D01*
X3125009Y972817D02*
Y977135D01*
X3119823Y931350D02*
X3124141D01*
X3121982Y929191D02*
Y933509D01*
X2573977Y1136582D02*
X2578295D01*
X2576136Y1134423D02*
Y1138741D01*
X2578803Y1050222D02*
X2583121D01*
X2580962Y1048063D02*
Y1052381D01*
X2579819Y980118D02*
X2584137D01*
X2581978Y977959D02*
Y982277D01*
X2590233Y969704D02*
X2594551D01*
X2592392Y967545D02*
Y971863D01*
X2580073Y960560D02*
X2584391D01*
X2582232Y958401D02*
Y962719D01*
X2537721Y932554D02*
X2542039D01*
X2539880Y930395D02*
Y934713D01*
X2539505Y892416D02*
X2543823D01*
X2541664Y890257D02*
Y894575D01*
X2483131Y864197D02*
X2487449D01*
X2485290Y862038D02*
Y866356D01*
X1105943Y1382184D02*
X1110261D01*
X1108102Y1380025D02*
Y1384343D01*
X1470633Y825584D02*
X1474951D01*
X1472792Y823425D02*
Y827743D01*
X3166999Y1525725D02*
X3170301D01*
X3168650Y1524074D02*
Y1527376D01*
X3172079Y1518920D02*
X3175381D01*
X3173730Y1517269D02*
Y1520571D01*
X3008757Y1635784D02*
X3012059D01*
X3010408Y1634133D02*
Y1637435D01*
X2660240Y1686306D02*
X2663542D01*
X2661891Y1684655D02*
Y1687957D01*
X2658237Y1676400D02*
X2661539D01*
X2659888Y1674749D02*
Y1678051D01*
X2649601Y1685036D02*
X2652903D01*
X2651252Y1683385D02*
Y1686687D01*
X2636393Y1513840D02*
X2639695D01*
X2638044Y1512189D02*
Y1515491D01*
X2630466Y1519767D02*
X2633768D01*
X2632117Y1518116D02*
Y1521418D01*
X2600606Y1458144D02*
X2603908D01*
X2602257Y1456493D02*
Y1459795D01*
X2606482Y1464122D02*
X2609784D01*
X2608133Y1462471D02*
Y1465773D01*
X2612517Y1470152D02*
X2615819D01*
X2614168Y1468501D02*
Y1471803D01*
X2298573Y1534414D02*
X2301875D01*
X2300224Y1532763D02*
Y1536065D01*
X2240661Y1694942D02*
X2243963D01*
X2242312Y1693291D02*
Y1696593D01*
X2228977Y1694942D02*
X2232279D01*
X2230628Y1693291D02*
Y1696593D01*
X2315718Y1972818D02*
X2319274D01*
X2317496Y1971040D02*
Y1974596D01*
X2327275Y1997202D02*
X2330831D01*
X2329053Y1995424D02*
Y1998980D01*
X2332990Y2022094D02*
X2336546D01*
X2334768Y2020316D02*
Y2023872D01*
X2356866Y1981454D02*
X2360422D01*
X2358644Y1979676D02*
Y1983232D01*
X2362200Y2006346D02*
X2365756D01*
X2363978Y2004568D02*
Y2008124D01*
X2292604Y2124710D02*
X2296160D01*
X2294382Y2122932D02*
Y2126488D01*
X2298700Y2098040D02*
X2302256D01*
X2300478Y2096262D02*
Y2099818D01*
X2266188Y2276602D02*
X2269744D01*
X2267966Y2274824D02*
Y2278380D01*
X2247900Y2327656D02*
X2251456D01*
X2249678Y2325878D02*
Y2329434D01*
X2242058Y2352548D02*
X2245614D01*
X2243836Y2350770D02*
Y2354326D01*
X2230416Y2396024D02*
X2233972D01*
X2232194Y2394246D02*
Y2397802D01*
X2224532Y2403602D02*
X2228088D01*
X2226310Y2401824D02*
Y2405380D01*
X2441956Y2413254D02*
X2445512D01*
X2443734Y2411476D02*
Y2415032D01*
X2425954Y2335530D02*
X2429510D01*
X2427732Y2333752D02*
Y2337308D01*
X2432304Y2346198D02*
X2435860D01*
X2434082Y2344420D02*
Y2347976D01*
X2368042Y2082292D02*
X2371598D01*
X2369820Y2080514D02*
Y2084070D01*
X2783459Y2122170D02*
X2786761D01*
X2785110Y2120519D02*
Y2123821D01*
X2755265Y2110740D02*
X2758567D01*
X2756916Y2109089D02*
Y2112391D01*
X2865882Y1308862D02*
X2869438D01*
X2867660Y1307084D02*
Y1310640D01*
X2859647Y1314837D02*
X2863203D01*
X2861425Y1313059D02*
Y1316615D01*
X3207385Y1110742D02*
X3210687D01*
X3209036Y1109091D02*
Y1112393D01*
X3199654Y1099979D02*
X3202956D01*
X3201305Y1098328D02*
Y1101630D01*
X2398141Y1103630D02*
X2401443D01*
X2399792Y1101979D02*
Y1105281D01*
X2436876Y2386584D02*
X2440432D01*
X2438654Y2384806D02*
Y2388362D01*
X2853182Y1357884D02*
X2856738D01*
X2854960Y1356106D02*
Y1359662D01*
X2884700Y1357884D02*
X2888256D01*
X2886478Y1356106D02*
Y1359662D01*
X2450084Y2423922D02*
X2453640D01*
X2451862Y2422144D02*
Y2425700D01*
X3296666Y1613408D02*
X3302254D01*
X3299460Y1610614D02*
Y1616202D01*
X3296666Y1598930D02*
X3302254D01*
X3299460Y1596136D02*
Y1601724D01*
X3311144Y1598930D02*
X3316732D01*
X3313938Y1596136D02*
Y1601724D01*
X3311144Y1613408D02*
X3316732D01*
X3313938Y1610614D02*
Y1616202D01*
X3326638Y1613408D02*
X3332226D01*
X3329432Y1610614D02*
Y1616202D01*
X3326638Y1598930D02*
X3332226D01*
X3329432Y1596136D02*
Y1601724D01*
X3506978Y1795526D02*
X3512566D01*
X3509772Y1792732D02*
Y1798320D01*
X3528568Y1851914D02*
X3534156D01*
X3531362Y1849120D02*
Y1854708D01*
X3506978Y1783080D02*
X3512566D01*
X3509772Y1780286D02*
Y1785874D01*
X2199513Y1221740D02*
X2203831D01*
X2201672Y1219581D02*
Y1223899D01*
X2278761Y1163320D02*
X2283079D01*
X2280920Y1161161D02*
Y1165479D01*
M02*
